<?xml version="1.0" encoding="UTF-8" standalone="no"?>
<svg
   xmlns:dc="http://purl.org/dc/elements/1.1/"
   xmlns:cc="http://creativecommons.org/ns#"
   xmlns:rdf="http://www.w3.org/1999/02/22-rdf-syntax-ns#"
   xmlns:svg="http://www.w3.org/2000/svg"
   xmlns="http://www.w3.org/2000/svg"
   id="svg3808"
   version="1.1"
   height="111.66428mm"
   width="328.66458mm">
  <metadata
     id="metadata3812">
    <rdf:RDF>
      <cc:Work
         rdf:about="">
        <dc:format>image/svg+xml</dc:format>
        <dc:type
           rdf:resource="http://purl.org/dc/dcmitype/StillImage" />
        <dc:title></dc:title>
      </cc:Work>
    </rdf:RDF>
  </metadata>
  <desc
     id="desc3748">B:\Users\Benjamin Sanchez\Documents\GitHub\PCB\DXF CASE\Back Plate-k 1-5mm.dxf - scale = 1.000000, origin = (0.000000, 0.000000), method = auto</desc>
  <defs
     id="defs3762">
    <marker
       style="overflow:visible"
       refY="0"
       refX="0"
       orient="auto"
       id="DistanceX">
      <path
         id="path3750"
         style="stroke:#000000;stroke-width:0.5"
         d="M 3,-3 -3,3 M 0,-5 V 5" />
    </marker>
    <pattern
       y="0"
       x="0"
       width="8"
       patternUnits="userSpaceOnUse"
       id="Hatch"
       height="8">
      <path
         id="path3753"
         stroke-width="0.25"
         stroke="#000000"
         linecap="square"
         d="M8 4 l-4,4" />
      <path
         id="path3755"
         stroke-width="0.25"
         stroke="#000000"
         linecap="square"
         d="M6 2 l-4,4" />
      <path
         id="path3757"
         stroke-width="0.25"
         stroke="#000000"
         linecap="square"
         d="M4 0 l-4,4" />
    </pattern>
    <symbol
       id="*MODEL_SPACE" />
    <symbol
       id="*PAPER_SPACE" />
  </defs>
  <g
     transform="translate(1286.2953,-656.38189)"
     id="g3806">
    <path
       id="path3764"
       style="fill:none;stroke:#000000"
       d="M -1284.8504,672.56693 V 691.6611" />
    <path
       id="path3766"
       style="fill:none;stroke:#000000"
       d="m -1284.8504,691.6611 -0.3779,351.5947" />
    <path
       id="path3768"
       style="fill:none;stroke:#000000"
       d="m -1285.2283,1043.2558 v 18.9793" />
    <path
       id="path3770"
       style="fill:none;stroke:#000000"
       d="m -1285.2283,1062.2351 a 15.11811,15.11811 0 0 0 15.1181,15.1181" />
    <path
       id="path3772"
       style="fill:none;stroke:#000000"
       d="M -1270.1102,1077.3532 H -60.28347" />
    <path
       id="path3774"
       style="fill:none;stroke:#000000"
       d="m -60.28347,1077.3532 a 15.11811,15.11811 0 0 0 15.11811,-15.1181" />
    <path
       id="path3776"
       style="fill:none;stroke:#000000"
       d="m -45.16536,1062.2351 v -19.0764" />
    <path
       id="path3778"
       style="fill:none;stroke:#000000"
       d="M -45.166496,691.5326 V 672.94488" />
    <path
       id="path3780"
       style="fill:none;stroke:#000000"
       d="m -45.166496,672.94488 a 15.11811,15.11811 0 0 0 -15.11811,-15.11811" />
    <path
       id="path3782"
       style="fill:none;stroke:#000000"
       d="M -60.284606,657.82677 H -79.37915" />
    <path
       id="path3784"
       style="fill:none;stroke:#000000"
       d="M -79.37915,657.82677 -1251.137,657.44882" />
    <path
       id="path3786"
       style="fill:none;stroke:#000000"
       d="m -1251.137,657.44882 h -18.5953" />
    <path
       id="path3788"
       style="fill:none;stroke:#000000"
       d="m -1269.7323,657.44882 a 15.11811,15.11811 0 0 0 -15.1181,15.11811" />
    <path
       id="path3790"
       style="fill:none;stroke:#000000"
       d="m -60.284606,657.25984 a 15.685039,15.685039 0 0 1 15.68504,15.68504 v 18.58772 l 0.0011,351.6261 v 19.0764 a 15.685039,15.685039 0 0 1 -15.685039,15.685 H -1270.1102 a 15.685039,15.685039 0 0 1 -15.6851,-15.685 v -18.9796 l 0.378,-351.5947 v -19.09387 a 15.685039,15.685039 0 0 1 15.685,-15.68504 h 18.5954 l 1171.757842,0.37795 z" />
    <path
       id="path3792"
       style="fill:none;stroke:#000000"
       d="m -54.790679,1063.3814 a 4.346457,4.346457 0 1 0 -8.692914,0 4.346457,4.346457 0 1 0 8.692914,0 z" />
    <path
       id="path3794"
       style="fill:none;stroke:#000000"
       d="m -54.696956,671.51527 a 4.346457,4.346457 0 1 0 -8.692914,0 4.346457,4.346457 0 1 0 8.692914,0 z" />
    <path
       id="path3796"
       style="fill:none;stroke:#000000"
       d="m -413.06457,900.27968 a 4.535433,4.535433 0 1 0 -9.07086,0 4.535433,4.535433 0 1 0 9.07086,0 z" />
    <path
       id="path3798"
       style="fill:none;stroke:#000000"
       d="m -593.06457,761.07969 a 4.535433,4.535433 0 1 0 -9.07086,0 4.535433,4.535433 0 1 0 9.07086,0 z" />
    <path
       id="path3800"
       style="fill:none;stroke:#000000"
       d="m -917.06457,900.75968 a 4.535433,4.535433 0 1 0 -9.07086,0 4.535433,4.535433 0 1 0 9.07086,0 z" />
    <path
       id="path3802"
       style="fill:none;stroke:#000000"
       d="m -1266.6243,1063.2883 a 4.346457,4.346457 0 1 0 -8.6929,0 4.346457,4.346457 0 1 0 8.6929,0 z" />
    <path
       id="path3804"
       style="fill:none;stroke:#000000"
       d="m -1266.5322,671.4206 a 4.346457,4.346457 0 1 0 -8.6929,0 4.346457,4.346457 0 1 0 8.6929,0 z" />
  </g>
</svg>
