G04 #@! TF.GenerationSoftware,KiCad,Pcbnew,(5.1.5)-3*
G04 #@! TF.CreationDate,2020-03-15T19:25:50-07:00*
G04 #@! TF.ProjectId,keyboard-layout,6b657962-6f61-4726-942d-6c61796f7574,rev?*
G04 #@! TF.SameCoordinates,Original*
G04 #@! TF.FileFunction,Legend,Bot*
G04 #@! TF.FilePolarity,Positive*
%FSLAX46Y46*%
G04 Gerber Fmt 4.6, Leading zero omitted, Abs format (unit mm)*
G04 Created by KiCad (PCBNEW (5.1.5)-3) date 2020-03-15 19:25:50*
%MOMM*%
%LPD*%
G04 APERTURE LIST*
%ADD10C,0.300000*%
%ADD11C,0.381000*%
%ADD12C,0.150000*%
G04 APERTURE END LIST*
D10*
X194741964Y-107049107D02*
X194527678Y-107120535D01*
X194456250Y-107191964D01*
X194384821Y-107334821D01*
X194384821Y-107549107D01*
X194456250Y-107691964D01*
X194527678Y-107763392D01*
X194670535Y-107834821D01*
X195241964Y-107834821D01*
X195241964Y-106334821D01*
X194741964Y-106334821D01*
X194599107Y-106406250D01*
X194527678Y-106477678D01*
X194456250Y-106620535D01*
X194456250Y-106763392D01*
X194527678Y-106906250D01*
X194599107Y-106977678D01*
X194741964Y-107049107D01*
X195241964Y-107049107D01*
X193813392Y-107763392D02*
X193599107Y-107834821D01*
X193241964Y-107834821D01*
X193099107Y-107763392D01*
X193027678Y-107691964D01*
X192956250Y-107549107D01*
X192956250Y-107406250D01*
X193027678Y-107263392D01*
X193099107Y-107191964D01*
X193241964Y-107120535D01*
X193527678Y-107049107D01*
X193670535Y-106977678D01*
X193741964Y-106906250D01*
X193813392Y-106763392D01*
X193813392Y-106620535D01*
X193741964Y-106477678D01*
X193670535Y-106406250D01*
X193527678Y-106334821D01*
X193170535Y-106334821D01*
X192956250Y-106406250D01*
X190670535Y-107049107D02*
X190456250Y-107120535D01*
X190384821Y-107191964D01*
X190313392Y-107334821D01*
X190313392Y-107549107D01*
X190384821Y-107691964D01*
X190456250Y-107763392D01*
X190599107Y-107834821D01*
X191170535Y-107834821D01*
X191170535Y-106334821D01*
X190670535Y-106334821D01*
X190527678Y-106406250D01*
X190456250Y-106477678D01*
X190384821Y-106620535D01*
X190384821Y-106763392D01*
X190456250Y-106906250D01*
X190527678Y-106977678D01*
X190670535Y-107049107D01*
X191170535Y-107049107D01*
X189456250Y-107834821D02*
X189599107Y-107763392D01*
X189670535Y-107691964D01*
X189741964Y-107549107D01*
X189741964Y-107120535D01*
X189670535Y-106977678D01*
X189599107Y-106906250D01*
X189456250Y-106834821D01*
X189241964Y-106834821D01*
X189099107Y-106906250D01*
X189027678Y-106977678D01*
X188956250Y-107120535D01*
X188956250Y-107549107D01*
X189027678Y-107691964D01*
X189099107Y-107763392D01*
X189241964Y-107834821D01*
X189456250Y-107834821D01*
X187670535Y-107834821D02*
X187670535Y-107049107D01*
X187741964Y-106906250D01*
X187884821Y-106834821D01*
X188170535Y-106834821D01*
X188313392Y-106906250D01*
X187670535Y-107763392D02*
X187813392Y-107834821D01*
X188170535Y-107834821D01*
X188313392Y-107763392D01*
X188384821Y-107620535D01*
X188384821Y-107477678D01*
X188313392Y-107334821D01*
X188170535Y-107263392D01*
X187813392Y-107263392D01*
X187670535Y-107191964D01*
X186956250Y-107834821D02*
X186956250Y-106834821D01*
X186956250Y-107120535D02*
X186884821Y-106977678D01*
X186813392Y-106906250D01*
X186670535Y-106834821D01*
X186527678Y-106834821D01*
X185384821Y-107834821D02*
X185384821Y-106334821D01*
X185384821Y-107763392D02*
X185527678Y-107834821D01*
X185813392Y-107834821D01*
X185956250Y-107763392D01*
X186027678Y-107691964D01*
X186099107Y-107549107D01*
X186099107Y-107120535D01*
X186027678Y-106977678D01*
X185956250Y-106906250D01*
X185813392Y-106834821D01*
X185527678Y-106834821D01*
X185384821Y-106906250D01*
X184741964Y-107763392D02*
X184599107Y-107834821D01*
X184313392Y-107834821D01*
X184170535Y-107763392D01*
X184099107Y-107620535D01*
X184099107Y-107549107D01*
X184170535Y-107406250D01*
X184313392Y-107334821D01*
X184527678Y-107334821D01*
X184670535Y-107263392D01*
X184741964Y-107120535D01*
X184741964Y-107049107D01*
X184670535Y-106906250D01*
X184527678Y-106834821D01*
X184313392Y-106834821D01*
X184170535Y-106906250D01*
D11*
X311943750Y-19685000D02*
X309403750Y-19685000D01*
X327183750Y-17145000D02*
X309403750Y-17145000D01*
X309403750Y-17145000D02*
X309403750Y-50165000D01*
X309403750Y-50165000D02*
X327183750Y-50165000D01*
X327183750Y-50165000D02*
X327183750Y-17145000D01*
D12*
G36*
X324138385Y-25574030D02*
G01*
X324138385Y-25674030D01*
X324638385Y-25674030D01*
X324638385Y-25574030D01*
X324138385Y-25574030D01*
G37*
X324138385Y-25574030D02*
X324138385Y-25674030D01*
X324638385Y-25674030D01*
X324638385Y-25574030D01*
X324138385Y-25574030D01*
G36*
X324138385Y-25574030D02*
G01*
X324138385Y-25874030D01*
X324238385Y-25874030D01*
X324238385Y-25574030D01*
X324138385Y-25574030D01*
G37*
X324138385Y-25574030D02*
X324138385Y-25874030D01*
X324238385Y-25874030D01*
X324238385Y-25574030D01*
X324138385Y-25574030D01*
G36*
X324138385Y-26174030D02*
G01*
X324138385Y-26374030D01*
X324238385Y-26374030D01*
X324238385Y-26174030D01*
X324138385Y-26174030D01*
G37*
X324138385Y-26174030D02*
X324138385Y-26374030D01*
X324238385Y-26374030D01*
X324238385Y-26174030D01*
X324138385Y-26174030D01*
G36*
X324538385Y-25574030D02*
G01*
X324538385Y-26374030D01*
X324638385Y-26374030D01*
X324638385Y-25574030D01*
X324538385Y-25574030D01*
G37*
X324538385Y-25574030D02*
X324538385Y-26374030D01*
X324638385Y-26374030D01*
X324638385Y-25574030D01*
X324538385Y-25574030D01*
G36*
X324338385Y-25974030D02*
G01*
X324338385Y-26074030D01*
X324438385Y-26074030D01*
X324438385Y-25974030D01*
X324338385Y-25974030D01*
G37*
X324338385Y-25974030D02*
X324338385Y-26074030D01*
X324438385Y-26074030D01*
X324438385Y-25974030D01*
X324338385Y-25974030D01*
D11*
X311943750Y-19685000D02*
X311943750Y-22225000D01*
X311943750Y-22225000D02*
X309403750Y-22225000D01*
D12*
X316344226Y-47686904D02*
X316344226Y-46886904D01*
X316153750Y-46886904D01*
X316039464Y-46925000D01*
X315963273Y-47001190D01*
X315925178Y-47077380D01*
X315887083Y-47229761D01*
X315887083Y-47344047D01*
X315925178Y-47496428D01*
X315963273Y-47572619D01*
X316039464Y-47648809D01*
X316153750Y-47686904D01*
X316344226Y-47686904D01*
X315163273Y-46886904D02*
X315544226Y-46886904D01*
X315582321Y-47267857D01*
X315544226Y-47229761D01*
X315468035Y-47191666D01*
X315277559Y-47191666D01*
X315201369Y-47229761D01*
X315163273Y-47267857D01*
X315125178Y-47344047D01*
X315125178Y-47534523D01*
X315163273Y-47610714D01*
X315201369Y-47648809D01*
X315277559Y-47686904D01*
X315468035Y-47686904D01*
X315544226Y-47648809D01*
X315582321Y-47610714D01*
X321100416Y-47267857D02*
X321367083Y-47267857D01*
X321367083Y-47686904D02*
X321367083Y-46886904D01*
X320986130Y-46886904D01*
X320262321Y-47686904D02*
X320719464Y-47686904D01*
X320490892Y-47686904D02*
X320490892Y-46886904D01*
X320567083Y-47001190D01*
X320643273Y-47077380D01*
X320719464Y-47115476D01*
X318427083Y-47610714D02*
X318465178Y-47648809D01*
X318579464Y-47686904D01*
X318655654Y-47686904D01*
X318769940Y-47648809D01*
X318846130Y-47572619D01*
X318884226Y-47496428D01*
X318922321Y-47344047D01*
X318922321Y-47229761D01*
X318884226Y-47077380D01*
X318846130Y-47001190D01*
X318769940Y-46925000D01*
X318655654Y-46886904D01*
X318579464Y-46886904D01*
X318465178Y-46925000D01*
X318427083Y-46963095D01*
X318160416Y-46886904D02*
X317627083Y-46886904D01*
X317969940Y-47686904D01*
X324858741Y-47389297D02*
X324811601Y-47483578D01*
X324811601Y-47530719D01*
X324835171Y-47601429D01*
X324905882Y-47672140D01*
X324976592Y-47695710D01*
X325023733Y-47695710D01*
X325094443Y-47672140D01*
X325283005Y-47483578D01*
X324788030Y-46988603D01*
X324623039Y-47153595D01*
X324599469Y-47224306D01*
X324599469Y-47271446D01*
X324623039Y-47342157D01*
X324670179Y-47389297D01*
X324740890Y-47412867D01*
X324788030Y-47412867D01*
X324858741Y-47389297D01*
X325023733Y-47224306D01*
X324080924Y-47695710D02*
X324175205Y-47601429D01*
X324245915Y-47577859D01*
X324293056Y-47577859D01*
X324410907Y-47601429D01*
X324528758Y-47672140D01*
X324717320Y-47860702D01*
X324740890Y-47931412D01*
X324740890Y-47978553D01*
X324717320Y-48049264D01*
X324623039Y-48143544D01*
X324552328Y-48167115D01*
X324505188Y-48167115D01*
X324434477Y-48143544D01*
X324316626Y-48025693D01*
X324293056Y-47954983D01*
X324293056Y-47907842D01*
X324316626Y-47837132D01*
X324410907Y-47742851D01*
X324481617Y-47719280D01*
X324528758Y-47719280D01*
X324599469Y-47742851D01*
X323027083Y-47475000D02*
X323260416Y-47475000D01*
X323260416Y-47841666D02*
X323260416Y-47141666D01*
X322927083Y-47141666D01*
X322527083Y-47141666D02*
X322460416Y-47141666D01*
X322393750Y-47175000D01*
X322360416Y-47208333D01*
X322327083Y-47275000D01*
X322293750Y-47408333D01*
X322293750Y-47575000D01*
X322327083Y-47708333D01*
X322360416Y-47775000D01*
X322393750Y-47808333D01*
X322460416Y-47841666D01*
X322527083Y-47841666D01*
X322593750Y-47808333D01*
X322627083Y-47775000D01*
X322660416Y-47708333D01*
X322693750Y-47575000D01*
X322693750Y-47408333D01*
X322660416Y-47275000D01*
X322627083Y-47208333D01*
X322593750Y-47175000D01*
X322527083Y-47141666D01*
X314077083Y-47475000D02*
X313977083Y-47508333D01*
X313943750Y-47541666D01*
X313910416Y-47608333D01*
X313910416Y-47708333D01*
X313943750Y-47775000D01*
X313977083Y-47808333D01*
X314043750Y-47841666D01*
X314310416Y-47841666D01*
X314310416Y-47141666D01*
X314077083Y-47141666D01*
X314010416Y-47175000D01*
X313977083Y-47208333D01*
X313943750Y-47275000D01*
X313943750Y-47341666D01*
X313977083Y-47408333D01*
X314010416Y-47441666D01*
X314077083Y-47475000D01*
X314310416Y-47475000D01*
X313677083Y-47141666D02*
X313210416Y-47141666D01*
X313510416Y-47841666D01*
X323867083Y-26338809D02*
X323752797Y-26376904D01*
X323562321Y-26376904D01*
X323486130Y-26338809D01*
X323448035Y-26300714D01*
X323409940Y-26224523D01*
X323409940Y-26148333D01*
X323448035Y-26072142D01*
X323486130Y-26034047D01*
X323562321Y-25995952D01*
X323714702Y-25957857D01*
X323790892Y-25919761D01*
X323828988Y-25881666D01*
X323867083Y-25805476D01*
X323867083Y-25729285D01*
X323828988Y-25653095D01*
X323790892Y-25615000D01*
X323714702Y-25576904D01*
X323524226Y-25576904D01*
X323409940Y-25615000D01*
X323181369Y-25576904D02*
X322724226Y-25576904D01*
X322952797Y-26376904D02*
X322952797Y-25576904D01*
X316912354Y-20516904D02*
X316455211Y-20516904D01*
X316683782Y-21316904D02*
X316683782Y-20516904D01*
X316264735Y-20516904D02*
X315731401Y-21316904D01*
X315731401Y-20516904D02*
X316264735Y-21316904D01*
X315274258Y-20516904D02*
X315198068Y-20516904D01*
X315121878Y-20555000D01*
X315083782Y-20593095D01*
X315045687Y-20669285D01*
X315007592Y-20821666D01*
X315007592Y-21012142D01*
X315045687Y-21164523D01*
X315083782Y-21240714D01*
X315121878Y-21278809D01*
X315198068Y-21316904D01*
X315274258Y-21316904D01*
X315350449Y-21278809D01*
X315388544Y-21240714D01*
X315426639Y-21164523D01*
X315464735Y-21012142D01*
X315464735Y-20821666D01*
X315426639Y-20669285D01*
X315388544Y-20593095D01*
X315350449Y-20555000D01*
X315274258Y-20516904D01*
X314093306Y-20478809D02*
X314779020Y-21507380D01*
X313826639Y-21316904D02*
X313826639Y-20516904D01*
X313636163Y-20516904D01*
X313521878Y-20555000D01*
X313445687Y-20631190D01*
X313407592Y-20707380D01*
X313369497Y-20859761D01*
X313369497Y-20974047D01*
X313407592Y-21126428D01*
X313445687Y-21202619D01*
X313521878Y-21278809D01*
X313636163Y-21316904D01*
X313826639Y-21316904D01*
X313102830Y-20516904D02*
X312607592Y-20516904D01*
X312874258Y-20821666D01*
X312759973Y-20821666D01*
X312683782Y-20859761D01*
X312645687Y-20897857D01*
X312607592Y-20974047D01*
X312607592Y-21164523D01*
X312645687Y-21240714D01*
X312683782Y-21278809D01*
X312759973Y-21316904D01*
X312988544Y-21316904D01*
X313064735Y-21278809D01*
X313102830Y-21240714D01*
X324078559Y-46297857D02*
X323964273Y-46335952D01*
X323926178Y-46374047D01*
X323888083Y-46450238D01*
X323888083Y-46564523D01*
X323926178Y-46640714D01*
X323964273Y-46678809D01*
X324040464Y-46716904D01*
X324345226Y-46716904D01*
X324345226Y-45916904D01*
X324078559Y-45916904D01*
X324002369Y-45955000D01*
X323964273Y-45993095D01*
X323926178Y-46069285D01*
X323926178Y-46145476D01*
X323964273Y-46221666D01*
X324002369Y-46259761D01*
X324078559Y-46297857D01*
X324345226Y-46297857D01*
X323583321Y-45993095D02*
X323545226Y-45955000D01*
X323469035Y-45916904D01*
X323278559Y-45916904D01*
X323202369Y-45955000D01*
X323164273Y-45993095D01*
X323126178Y-46069285D01*
X323126178Y-46145476D01*
X323164273Y-46259761D01*
X323621416Y-46716904D01*
X323126178Y-46716904D01*
X324021416Y-38677857D02*
X324288083Y-38677857D01*
X324288083Y-39096904D02*
X324288083Y-38296904D01*
X323907130Y-38296904D01*
X323678559Y-38296904D02*
X323145226Y-38296904D01*
X323488083Y-39096904D01*
X324021416Y-36137857D02*
X324288083Y-36137857D01*
X324288083Y-36556904D02*
X324288083Y-35756904D01*
X323907130Y-35756904D01*
X323259511Y-35756904D02*
X323411892Y-35756904D01*
X323488083Y-35795000D01*
X323526178Y-35833095D01*
X323602369Y-35947380D01*
X323640464Y-36099761D01*
X323640464Y-36404523D01*
X323602369Y-36480714D01*
X323564273Y-36518809D01*
X323488083Y-36556904D01*
X323335702Y-36556904D01*
X323259511Y-36518809D01*
X323221416Y-36480714D01*
X323183321Y-36404523D01*
X323183321Y-36214047D01*
X323221416Y-36137857D01*
X323259511Y-36099761D01*
X323335702Y-36061666D01*
X323488083Y-36061666D01*
X323564273Y-36099761D01*
X323602369Y-36137857D01*
X323640464Y-36214047D01*
X324021416Y-33597857D02*
X324288083Y-33597857D01*
X324288083Y-34016904D02*
X324288083Y-33216904D01*
X323907130Y-33216904D01*
X323221416Y-33216904D02*
X323602369Y-33216904D01*
X323640464Y-33597857D01*
X323602369Y-33559761D01*
X323526178Y-33521666D01*
X323335702Y-33521666D01*
X323259511Y-33559761D01*
X323221416Y-33597857D01*
X323183321Y-33674047D01*
X323183321Y-33864523D01*
X323221416Y-33940714D01*
X323259511Y-33978809D01*
X323335702Y-34016904D01*
X323526178Y-34016904D01*
X323602369Y-33978809D01*
X323640464Y-33940714D01*
X324078559Y-20897857D02*
X323964273Y-20935952D01*
X323926178Y-20974047D01*
X323888083Y-21050238D01*
X323888083Y-21164523D01*
X323926178Y-21240714D01*
X323964273Y-21278809D01*
X324040464Y-21316904D01*
X324345226Y-21316904D01*
X324345226Y-20516904D01*
X324078559Y-20516904D01*
X324002369Y-20555000D01*
X323964273Y-20593095D01*
X323926178Y-20669285D01*
X323926178Y-20745476D01*
X323964273Y-20821666D01*
X324002369Y-20859761D01*
X324078559Y-20897857D01*
X324345226Y-20897857D01*
X323392845Y-20516904D02*
X323316654Y-20516904D01*
X323240464Y-20555000D01*
X323202369Y-20593095D01*
X323164273Y-20669285D01*
X323126178Y-20821666D01*
X323126178Y-21012142D01*
X323164273Y-21164523D01*
X323202369Y-21240714D01*
X323240464Y-21278809D01*
X323316654Y-21316904D01*
X323392845Y-21316904D01*
X323469035Y-21278809D01*
X323507130Y-21240714D01*
X323545226Y-21164523D01*
X323583321Y-21012142D01*
X323583321Y-20821666D01*
X323545226Y-20669285D01*
X323507130Y-20593095D01*
X323469035Y-20555000D01*
X323392845Y-20516904D01*
X324364273Y-23095000D02*
X324440464Y-23056904D01*
X324554750Y-23056904D01*
X324669035Y-23095000D01*
X324745226Y-23171190D01*
X324783321Y-23247380D01*
X324821416Y-23399761D01*
X324821416Y-23514047D01*
X324783321Y-23666428D01*
X324745226Y-23742619D01*
X324669035Y-23818809D01*
X324554750Y-23856904D01*
X324478559Y-23856904D01*
X324364273Y-23818809D01*
X324326178Y-23780714D01*
X324326178Y-23514047D01*
X324478559Y-23514047D01*
X323983321Y-23856904D02*
X323983321Y-23056904D01*
X323526178Y-23856904D01*
X323526178Y-23056904D01*
X323145226Y-23856904D02*
X323145226Y-23056904D01*
X322954750Y-23056904D01*
X322840464Y-23095000D01*
X322764273Y-23171190D01*
X322726178Y-23247380D01*
X322688083Y-23399761D01*
X322688083Y-23514047D01*
X322726178Y-23666428D01*
X322764273Y-23742619D01*
X322840464Y-23818809D01*
X322954750Y-23856904D01*
X323145226Y-23856904D01*
X324821416Y-28136904D02*
X324554750Y-28936904D01*
X324288083Y-28136904D01*
X323564273Y-28860714D02*
X323602369Y-28898809D01*
X323716654Y-28936904D01*
X323792845Y-28936904D01*
X323907130Y-28898809D01*
X323983321Y-28822619D01*
X324021416Y-28746428D01*
X324059511Y-28594047D01*
X324059511Y-28479761D01*
X324021416Y-28327380D01*
X323983321Y-28251190D01*
X323907130Y-28175000D01*
X323792845Y-28136904D01*
X323716654Y-28136904D01*
X323602369Y-28175000D01*
X323564273Y-28213095D01*
X322764273Y-28860714D02*
X322802369Y-28898809D01*
X322916654Y-28936904D01*
X322992845Y-28936904D01*
X323107130Y-28898809D01*
X323183321Y-28822619D01*
X323221416Y-28746428D01*
X323259511Y-28594047D01*
X323259511Y-28479761D01*
X323221416Y-28327380D01*
X323183321Y-28251190D01*
X323107130Y-28175000D01*
X322992845Y-28136904D01*
X322916654Y-28136904D01*
X322802369Y-28175000D01*
X322764273Y-28213095D01*
X324021416Y-31057857D02*
X324288083Y-31057857D01*
X324288083Y-31476904D02*
X324288083Y-30676904D01*
X323907130Y-30676904D01*
X323259511Y-30943571D02*
X323259511Y-31476904D01*
X323449988Y-30638809D02*
X323640464Y-31210238D01*
X323145226Y-31210238D01*
X324078559Y-41217857D02*
X323964273Y-41255952D01*
X323926178Y-41294047D01*
X323888083Y-41370238D01*
X323888083Y-41484523D01*
X323926178Y-41560714D01*
X323964273Y-41598809D01*
X324040464Y-41636904D01*
X324345226Y-41636904D01*
X324345226Y-40836904D01*
X324078559Y-40836904D01*
X324002369Y-40875000D01*
X323964273Y-40913095D01*
X323926178Y-40989285D01*
X323926178Y-41065476D01*
X323964273Y-41141666D01*
X324002369Y-41179761D01*
X324078559Y-41217857D01*
X324345226Y-41217857D01*
X323126178Y-41636904D02*
X323583321Y-41636904D01*
X323354750Y-41636904D02*
X323354750Y-40836904D01*
X323430940Y-40951190D01*
X323507130Y-41027380D01*
X323583321Y-41065476D01*
X324078559Y-43757857D02*
X323964273Y-43795952D01*
X323926178Y-43834047D01*
X323888083Y-43910238D01*
X323888083Y-44024523D01*
X323926178Y-44100714D01*
X323964273Y-44138809D01*
X324040464Y-44176904D01*
X324345226Y-44176904D01*
X324345226Y-43376904D01*
X324078559Y-43376904D01*
X324002369Y-43415000D01*
X323964273Y-43453095D01*
X323926178Y-43529285D01*
X323926178Y-43605476D01*
X323964273Y-43681666D01*
X324002369Y-43719761D01*
X324078559Y-43757857D01*
X324345226Y-43757857D01*
X323621416Y-43376904D02*
X323126178Y-43376904D01*
X323392845Y-43681666D01*
X323278559Y-43681666D01*
X323202369Y-43719761D01*
X323164273Y-43757857D01*
X323126178Y-43834047D01*
X323126178Y-44024523D01*
X323164273Y-44100714D01*
X323202369Y-44138809D01*
X323278559Y-44176904D01*
X323507130Y-44176904D01*
X323583321Y-44138809D01*
X323621416Y-44100714D01*
X312129452Y-47789991D02*
X312035171Y-47742851D01*
X311988030Y-47742851D01*
X311917320Y-47766421D01*
X311846609Y-47837132D01*
X311823039Y-47907842D01*
X311823039Y-47954983D01*
X311846609Y-48025693D01*
X312035171Y-48214255D01*
X312530146Y-47719280D01*
X312365154Y-47554289D01*
X312294443Y-47530719D01*
X312247303Y-47530719D01*
X312176592Y-47554289D01*
X312129452Y-47601429D01*
X312105882Y-47672140D01*
X312105882Y-47719280D01*
X312129452Y-47789991D01*
X312294443Y-47954983D01*
X311799469Y-46988603D02*
X312035171Y-47224306D01*
X311823039Y-47483578D01*
X311823039Y-47436438D01*
X311799469Y-47365727D01*
X311681617Y-47247876D01*
X311610907Y-47224306D01*
X311563766Y-47224306D01*
X311493056Y-47247876D01*
X311375205Y-47365727D01*
X311351634Y-47436438D01*
X311351634Y-47483578D01*
X311375205Y-47554289D01*
X311493056Y-47672140D01*
X311563766Y-47695710D01*
X311610907Y-47695710D01*
X313156559Y-46297857D02*
X313042273Y-46335952D01*
X313004178Y-46374047D01*
X312966083Y-46450238D01*
X312966083Y-46564523D01*
X313004178Y-46640714D01*
X313042273Y-46678809D01*
X313118464Y-46716904D01*
X313423226Y-46716904D01*
X313423226Y-45916904D01*
X313156559Y-45916904D01*
X313080369Y-45955000D01*
X313042273Y-45993095D01*
X313004178Y-46069285D01*
X313004178Y-46145476D01*
X313042273Y-46221666D01*
X313080369Y-46259761D01*
X313156559Y-46297857D01*
X313423226Y-46297857D01*
X312280369Y-46183571D02*
X312280369Y-46716904D01*
X312470845Y-45878809D02*
X312661321Y-46450238D01*
X312166083Y-46450238D01*
X313385130Y-43757857D02*
X313118464Y-43757857D01*
X313004178Y-44176904D02*
X313385130Y-44176904D01*
X313385130Y-43376904D01*
X313004178Y-43376904D01*
X312318464Y-43376904D02*
X312470845Y-43376904D01*
X312547035Y-43415000D01*
X312585130Y-43453095D01*
X312661321Y-43567380D01*
X312699416Y-43719761D01*
X312699416Y-44024523D01*
X312661321Y-44100714D01*
X312623226Y-44138809D01*
X312547035Y-44176904D01*
X312394654Y-44176904D01*
X312318464Y-44138809D01*
X312280369Y-44100714D01*
X312242273Y-44024523D01*
X312242273Y-43834047D01*
X312280369Y-43757857D01*
X312318464Y-43719761D01*
X312394654Y-43681666D01*
X312547035Y-43681666D01*
X312623226Y-43719761D01*
X312661321Y-43757857D01*
X312699416Y-43834047D01*
X313423226Y-41636904D02*
X313423226Y-40836904D01*
X313232750Y-40836904D01*
X313118464Y-40875000D01*
X313042273Y-40951190D01*
X313004178Y-41027380D01*
X312966083Y-41179761D01*
X312966083Y-41294047D01*
X313004178Y-41446428D01*
X313042273Y-41522619D01*
X313118464Y-41598809D01*
X313232750Y-41636904D01*
X313423226Y-41636904D01*
X312699416Y-40836904D02*
X312166083Y-40836904D01*
X312508940Y-41636904D01*
X312966083Y-39020714D02*
X313004178Y-39058809D01*
X313118464Y-39096904D01*
X313194654Y-39096904D01*
X313308940Y-39058809D01*
X313385130Y-38982619D01*
X313423226Y-38906428D01*
X313461321Y-38754047D01*
X313461321Y-38639761D01*
X313423226Y-38487380D01*
X313385130Y-38411190D01*
X313308940Y-38335000D01*
X313194654Y-38296904D01*
X313118464Y-38296904D01*
X313004178Y-38335000D01*
X312966083Y-38373095D01*
X312280369Y-38296904D02*
X312432750Y-38296904D01*
X312508940Y-38335000D01*
X312547035Y-38373095D01*
X312623226Y-38487380D01*
X312661321Y-38639761D01*
X312661321Y-38944523D01*
X312623226Y-39020714D01*
X312585130Y-39058809D01*
X312508940Y-39096904D01*
X312356559Y-39096904D01*
X312280369Y-39058809D01*
X312242273Y-39020714D01*
X312204178Y-38944523D01*
X312204178Y-38754047D01*
X312242273Y-38677857D01*
X312280369Y-38639761D01*
X312356559Y-38601666D01*
X312508940Y-38601666D01*
X312585130Y-38639761D01*
X312623226Y-38677857D01*
X312661321Y-38754047D01*
X313423226Y-36556904D02*
X313423226Y-35756904D01*
X313232750Y-35756904D01*
X313118464Y-35795000D01*
X313042273Y-35871190D01*
X313004178Y-35947380D01*
X312966083Y-36099761D01*
X312966083Y-36214047D01*
X313004178Y-36366428D01*
X313042273Y-36442619D01*
X313118464Y-36518809D01*
X313232750Y-36556904D01*
X313423226Y-36556904D01*
X312280369Y-36023571D02*
X312280369Y-36556904D01*
X312470845Y-35718809D02*
X312661321Y-36290238D01*
X312166083Y-36290238D01*
X313442273Y-25635000D02*
X313518464Y-25596904D01*
X313632750Y-25596904D01*
X313747035Y-25635000D01*
X313823226Y-25711190D01*
X313861321Y-25787380D01*
X313899416Y-25939761D01*
X313899416Y-26054047D01*
X313861321Y-26206428D01*
X313823226Y-26282619D01*
X313747035Y-26358809D01*
X313632750Y-26396904D01*
X313556559Y-26396904D01*
X313442273Y-26358809D01*
X313404178Y-26320714D01*
X313404178Y-26054047D01*
X313556559Y-26054047D01*
X313061321Y-26396904D02*
X313061321Y-25596904D01*
X312604178Y-26396904D01*
X312604178Y-25596904D01*
X312223226Y-26396904D02*
X312223226Y-25596904D01*
X312032750Y-25596904D01*
X311918464Y-25635000D01*
X311842273Y-25711190D01*
X311804178Y-25787380D01*
X311766083Y-25939761D01*
X311766083Y-26054047D01*
X311804178Y-26206428D01*
X311842273Y-26282619D01*
X311918464Y-26358809D01*
X312032750Y-26396904D01*
X312223226Y-26396904D01*
X313442273Y-28175000D02*
X313518464Y-28136904D01*
X313632750Y-28136904D01*
X313747035Y-28175000D01*
X313823226Y-28251190D01*
X313861321Y-28327380D01*
X313899416Y-28479761D01*
X313899416Y-28594047D01*
X313861321Y-28746428D01*
X313823226Y-28822619D01*
X313747035Y-28898809D01*
X313632750Y-28936904D01*
X313556559Y-28936904D01*
X313442273Y-28898809D01*
X313404178Y-28860714D01*
X313404178Y-28594047D01*
X313556559Y-28594047D01*
X313061321Y-28936904D02*
X313061321Y-28136904D01*
X312604178Y-28936904D01*
X312604178Y-28136904D01*
X312223226Y-28936904D02*
X312223226Y-28136904D01*
X312032750Y-28136904D01*
X311918464Y-28175000D01*
X311842273Y-28251190D01*
X311804178Y-28327380D01*
X311766083Y-28479761D01*
X311766083Y-28594047D01*
X311804178Y-28746428D01*
X311842273Y-28822619D01*
X311918464Y-28898809D01*
X312032750Y-28936904D01*
X312223226Y-28936904D01*
X313423226Y-31476904D02*
X313423226Y-30676904D01*
X313232750Y-30676904D01*
X313118464Y-30715000D01*
X313042273Y-30791190D01*
X313004178Y-30867380D01*
X312966083Y-31019761D01*
X312966083Y-31134047D01*
X313004178Y-31286428D01*
X313042273Y-31362619D01*
X313118464Y-31438809D01*
X313232750Y-31476904D01*
X313423226Y-31476904D01*
X312204178Y-31476904D02*
X312661321Y-31476904D01*
X312432750Y-31476904D02*
X312432750Y-30676904D01*
X312508940Y-30791190D01*
X312585130Y-30867380D01*
X312661321Y-30905476D01*
X313423226Y-34016904D02*
X313423226Y-33216904D01*
X313232750Y-33216904D01*
X313118464Y-33255000D01*
X313042273Y-33331190D01*
X313004178Y-33407380D01*
X312966083Y-33559761D01*
X312966083Y-33674047D01*
X313004178Y-33826428D01*
X313042273Y-33902619D01*
X313118464Y-33978809D01*
X313232750Y-34016904D01*
X313423226Y-34016904D01*
X312470845Y-33216904D02*
X312394654Y-33216904D01*
X312318464Y-33255000D01*
X312280369Y-33293095D01*
X312242273Y-33369285D01*
X312204178Y-33521666D01*
X312204178Y-33712142D01*
X312242273Y-33864523D01*
X312280369Y-33940714D01*
X312318464Y-33978809D01*
X312394654Y-34016904D01*
X312470845Y-34016904D01*
X312547035Y-33978809D01*
X312585130Y-33940714D01*
X312623226Y-33864523D01*
X312661321Y-33712142D01*
X312661321Y-33521666D01*
X312623226Y-33369285D01*
X312585130Y-33293095D01*
X312547035Y-33255000D01*
X312470845Y-33216904D01*
X313423226Y-23856904D02*
X313423226Y-23056904D01*
X313232750Y-23056904D01*
X313118464Y-23095000D01*
X313042273Y-23171190D01*
X313004178Y-23247380D01*
X312966083Y-23399761D01*
X312966083Y-23514047D01*
X313004178Y-23666428D01*
X313042273Y-23742619D01*
X313118464Y-23818809D01*
X313232750Y-23856904D01*
X313423226Y-23856904D01*
X312661321Y-23133095D02*
X312623226Y-23095000D01*
X312547035Y-23056904D01*
X312356559Y-23056904D01*
X312280369Y-23095000D01*
X312242273Y-23133095D01*
X312204178Y-23209285D01*
X312204178Y-23285476D01*
X312242273Y-23399761D01*
X312699416Y-23856904D01*
X312204178Y-23856904D01*
M02*
