G04 #@! TF.GenerationSoftware,KiCad,Pcbnew,(5.1.5)-3*
G04 #@! TF.CreationDate,2020-03-15T19:25:50-07:00*
G04 #@! TF.ProjectId,keyboard-layout,6b657962-6f61-4726-942d-6c61796f7574,rev?*
G04 #@! TF.SameCoordinates,Original*
G04 #@! TF.FileFunction,Other,User*
%FSLAX46Y46*%
G04 Gerber Fmt 4.6, Leading zero omitted, Abs format (unit mm)*
G04 Created by KiCad (PCBNEW (5.1.5)-3) date 2020-03-15 19:25:50*
%MOMM*%
%LPD*%
G04 APERTURE LIST*
%ADD10C,0.050000*%
G04 APERTURE END LIST*
D10*
X331153040Y-66897320D02*
X313653040Y-66897320D01*
X331153040Y-66897320D02*
X331153040Y-52697320D01*
X313653040Y-52697320D02*
X313653040Y-66897320D01*
X313653040Y-52697320D02*
X331153040Y-52697320D01*
X161065000Y-95631000D02*
G75*
G03X161065000Y-95631000I-2950000J0D01*
G01*
X113440000Y-58801000D02*
G75*
G03X113440000Y-58801000I-2950000J0D01*
G01*
X246790000Y-58674000D02*
G75*
G03X246790000Y-58674000I-2950000J0D01*
G01*
X309607080Y-71581140D02*
X306607080Y-71581140D01*
X309607080Y-71581140D02*
X309607080Y-68581140D01*
X306607080Y-68581140D02*
X306607080Y-71581140D01*
X306607080Y-68581140D02*
X309607080Y-68581140D01*
X310031000Y-55211000D02*
X310031000Y-64931000D01*
X313031000Y-55211000D02*
X310031000Y-55211000D01*
X313031000Y-64931000D02*
X313031000Y-55211000D01*
X310031000Y-64931000D02*
X313031000Y-64931000D01*
X320270000Y-76808040D02*
X320270000Y-67088040D01*
X317270000Y-76808040D02*
X320270000Y-76808040D01*
X317270000Y-67088040D02*
X317270000Y-76808040D01*
X320270000Y-67088040D02*
X317270000Y-67088040D01*
X325350000Y-76808040D02*
X325350000Y-67088040D01*
X322350000Y-76808040D02*
X325350000Y-76808040D01*
X322350000Y-67088040D02*
X322350000Y-76808040D01*
X325350000Y-67088040D02*
X322350000Y-67088040D01*
X313036080Y-71581140D02*
X310036080Y-71581140D01*
X313036080Y-71581140D02*
X313036080Y-68581140D01*
X310036080Y-68581140D02*
X310036080Y-71581140D01*
X310036080Y-68581140D02*
X313036080Y-68581140D01*
X316465080Y-71581140D02*
X313465080Y-71581140D01*
X316465080Y-71581140D02*
X316465080Y-68581140D01*
X313465080Y-68581140D02*
X313465080Y-71581140D01*
X313465080Y-68581140D02*
X316465080Y-68581140D01*
M02*
