G04 #@! TF.GenerationSoftware,KiCad,Pcbnew,(5.1.5)-3*
G04 #@! TF.CreationDate,2020-03-15T19:25:50-07:00*
G04 #@! TF.ProjectId,keyboard-layout,6b657962-6f61-4726-942d-6c61796f7574,rev?*
G04 #@! TF.SameCoordinates,Original*
G04 #@! TF.FileFunction,OtherDrawing,Comment*
%FSLAX46Y46*%
G04 Gerber Fmt 4.6, Leading zero omitted, Abs format (unit mm)*
G04 Created by KiCad (PCBNEW (5.1.5)-3) date 2020-03-15 19:25:50*
%MOMM*%
%LPD*%
G04 APERTURE LIST*
%ADD10C,0.120000*%
%ADD11C,0.150000*%
%ADD12C,0.200000*%
%ADD13C,0.100000*%
G04 APERTURE END LIST*
D10*
X317653040Y-53997320D02*
X328653040Y-53997320D01*
X328653040Y-53997320D02*
X328653040Y-65597320D01*
X328653040Y-65597320D02*
X316653040Y-65597320D01*
X316653040Y-65597320D02*
X316653040Y-55097320D01*
X316653040Y-55097320D02*
X317653040Y-53997320D01*
X322653040Y-56797320D02*
X322653040Y-62797320D01*
X319653040Y-59797320D02*
X325653040Y-59797320D01*
D11*
X253602500Y-41571660D02*
X255602500Y-41571660D01*
X255602500Y-41571660D02*
X255602500Y-43571660D01*
X253602500Y-55571660D02*
X255602500Y-55571660D01*
X255602500Y-55571660D02*
X255602500Y-53571660D01*
X241602500Y-53571660D02*
X241602500Y-55571660D01*
X241602500Y-55571660D02*
X243602500Y-55571660D01*
X243602500Y-41571660D02*
X241602500Y-41571660D01*
X241602500Y-41571660D02*
X241602500Y-43571660D01*
X239077500Y-39046660D02*
X258127500Y-39046660D01*
X258127500Y-39046660D02*
X258127500Y-58096660D01*
X258127500Y-58096660D02*
X239077500Y-58096660D01*
X239077500Y-58096660D02*
X239077500Y-39046660D01*
X156023320Y-98711500D02*
X158023320Y-98711500D01*
X158023320Y-98711500D02*
X158023320Y-100711500D01*
X156023320Y-112711500D02*
X158023320Y-112711500D01*
X158023320Y-112711500D02*
X158023320Y-110711500D01*
X144023320Y-110711500D02*
X144023320Y-112711500D01*
X144023320Y-112711500D02*
X146023320Y-112711500D01*
X146023320Y-98711500D02*
X144023320Y-98711500D01*
X144023320Y-98711500D02*
X144023320Y-100711500D01*
X91492070Y-96186500D02*
X210554570Y-96186500D01*
X210554570Y-96186500D02*
X210554570Y-115236500D01*
X91492070Y-115236500D02*
X210554570Y-115236500D01*
X91492070Y-115236500D02*
X91492070Y-96186500D01*
D12*
X321849750Y-15621000D02*
X321849750Y-20701000D01*
X314483750Y-15621000D02*
X321849750Y-15621000D01*
X314483750Y-20701000D02*
X314483750Y-15621000D01*
X321849750Y-20701000D02*
X314483750Y-20701000D01*
D11*
X77379840Y-79653880D02*
X79379840Y-79653880D01*
X79379840Y-79653880D02*
X79379840Y-81653880D01*
X77379840Y-93653880D02*
X79379840Y-93653880D01*
X79379840Y-93653880D02*
X79379840Y-91653880D01*
X65379840Y-91653880D02*
X65379840Y-93653880D01*
X65379840Y-93653880D02*
X67379840Y-93653880D01*
X67379840Y-79653880D02*
X65379840Y-79653880D01*
X65379840Y-79653880D02*
X65379840Y-81653880D01*
X62854840Y-77128880D02*
X81904840Y-77128880D01*
X81904840Y-77128880D02*
X81904840Y-96178880D01*
X81904840Y-96178880D02*
X62854840Y-96178880D01*
X62854840Y-96178880D02*
X62854840Y-77128880D01*
X158352500Y-41571660D02*
X160352500Y-41571660D01*
X160352500Y-41571660D02*
X160352500Y-43571660D01*
X158352500Y-55571660D02*
X160352500Y-55571660D01*
X160352500Y-55571660D02*
X160352500Y-53571660D01*
X146352500Y-53571660D02*
X146352500Y-55571660D01*
X146352500Y-55571660D02*
X148352500Y-55571660D01*
X148352500Y-41571660D02*
X146352500Y-41571660D01*
X146352500Y-41571660D02*
X146352500Y-43571660D01*
X143827500Y-39046660D02*
X162877500Y-39046660D01*
X162877500Y-39046660D02*
X162877500Y-58096660D01*
X162877500Y-58096660D02*
X143827500Y-58096660D01*
X143827500Y-58096660D02*
X143827500Y-39046660D01*
X96429840Y-79653880D02*
X98429840Y-79653880D01*
X98429840Y-79653880D02*
X98429840Y-81653880D01*
X96429840Y-93653880D02*
X98429840Y-93653880D01*
X98429840Y-93653880D02*
X98429840Y-91653880D01*
X84429840Y-91653880D02*
X84429840Y-93653880D01*
X84429840Y-93653880D02*
X86429840Y-93653880D01*
X86429840Y-79653880D02*
X84429840Y-79653880D01*
X84429840Y-79653880D02*
X84429840Y-81653880D01*
X81904840Y-77128880D02*
X100954840Y-77128880D01*
X100954840Y-77128880D02*
X100954840Y-96178880D01*
X100954840Y-96178880D02*
X81904840Y-96178880D01*
X81904840Y-96178880D02*
X81904840Y-77128880D01*
X60745380Y-98716580D02*
X62745380Y-98716580D01*
X62745380Y-98716580D02*
X62745380Y-100716580D01*
X60745380Y-112716580D02*
X62745380Y-112716580D01*
X62745380Y-112716580D02*
X62745380Y-110716580D01*
X48745380Y-110716580D02*
X48745380Y-112716580D01*
X48745380Y-112716580D02*
X50745380Y-112716580D01*
X50745380Y-98716580D02*
X48745380Y-98716580D01*
X48745380Y-98716580D02*
X48745380Y-100716580D01*
X43839130Y-96191580D02*
X67651630Y-96191580D01*
X67651630Y-96191580D02*
X67651630Y-115241580D01*
X67651630Y-115241580D02*
X43839130Y-115241580D01*
X43839130Y-115241580D02*
X43839130Y-96191580D01*
X251222520Y-98716580D02*
X253222520Y-98716580D01*
X253222520Y-98716580D02*
X253222520Y-100716580D01*
X251222520Y-112716580D02*
X253222520Y-112716580D01*
X253222520Y-112716580D02*
X253222520Y-110716580D01*
X239222520Y-110716580D02*
X239222520Y-112716580D01*
X239222520Y-112716580D02*
X241222520Y-112716580D01*
X241222520Y-98716580D02*
X239222520Y-98716580D01*
X239222520Y-98716580D02*
X239222520Y-100716580D01*
X234316270Y-96191580D02*
X258128770Y-96191580D01*
X258128770Y-96191580D02*
X258128770Y-115241580D01*
X258128770Y-115241580D02*
X234316270Y-115241580D01*
X234316270Y-115241580D02*
X234316270Y-96191580D01*
X82152500Y-41571660D02*
X84152500Y-41571660D01*
X84152500Y-41571660D02*
X84152500Y-43571660D01*
X82152500Y-55571660D02*
X84152500Y-55571660D01*
X84152500Y-55571660D02*
X84152500Y-53571660D01*
X70152500Y-53571660D02*
X70152500Y-55571660D01*
X70152500Y-55571660D02*
X72152500Y-55571660D01*
X72152500Y-41571660D02*
X70152500Y-41571660D01*
X70152500Y-41571660D02*
X70152500Y-43571660D01*
X67627500Y-39046660D02*
X86677500Y-39046660D01*
X86677500Y-39046660D02*
X86677500Y-58096660D01*
X86677500Y-58096660D02*
X67627500Y-58096660D01*
X67627500Y-58096660D02*
X67627500Y-39046660D01*
X134529840Y-79653880D02*
X136529840Y-79653880D01*
X136529840Y-79653880D02*
X136529840Y-81653880D01*
X134529840Y-93653880D02*
X136529840Y-93653880D01*
X136529840Y-93653880D02*
X136529840Y-91653880D01*
X122529840Y-91653880D02*
X122529840Y-93653880D01*
X122529840Y-93653880D02*
X124529840Y-93653880D01*
X124529840Y-79653880D02*
X122529840Y-79653880D01*
X122529840Y-79653880D02*
X122529840Y-81653880D01*
X120004840Y-77128880D02*
X139054840Y-77128880D01*
X139054840Y-77128880D02*
X139054840Y-96178880D01*
X139054840Y-96178880D02*
X120004840Y-96178880D01*
X120004840Y-96178880D02*
X120004840Y-77128880D01*
X177402500Y-41571660D02*
X179402500Y-41571660D01*
X179402500Y-41571660D02*
X179402500Y-43571660D01*
X177402500Y-55571660D02*
X179402500Y-55571660D01*
X179402500Y-55571660D02*
X179402500Y-53571660D01*
X165402500Y-53571660D02*
X165402500Y-55571660D01*
X165402500Y-55571660D02*
X167402500Y-55571660D01*
X167402500Y-41571660D02*
X165402500Y-41571660D01*
X165402500Y-41571660D02*
X165402500Y-43571660D01*
X162877500Y-39046660D02*
X181927500Y-39046660D01*
X181927500Y-39046660D02*
X181927500Y-58096660D01*
X181927500Y-58096660D02*
X162877500Y-58096660D01*
X162877500Y-58096660D02*
X162877500Y-39046660D01*
X39282380Y-41579280D02*
X41282380Y-41579280D01*
X41282380Y-41579280D02*
X41282380Y-43579280D01*
X39282380Y-55579280D02*
X41282380Y-55579280D01*
X41282380Y-55579280D02*
X41282380Y-53579280D01*
X27282380Y-53579280D02*
X27282380Y-55579280D01*
X27282380Y-55579280D02*
X29282380Y-55579280D01*
X29282380Y-41579280D02*
X27282380Y-41579280D01*
X27282380Y-41579280D02*
X27282380Y-43579280D01*
X19994880Y-39054280D02*
X48569880Y-39054280D01*
X48569880Y-39054280D02*
X48569880Y-58104280D01*
X48569880Y-58104280D02*
X19994880Y-58104280D01*
X19994880Y-58104280D02*
X19994880Y-39054280D01*
X139302500Y-41571660D02*
X141302500Y-41571660D01*
X141302500Y-41571660D02*
X141302500Y-43571660D01*
X139302500Y-55571660D02*
X141302500Y-55571660D01*
X141302500Y-55571660D02*
X141302500Y-53571660D01*
X127302500Y-53571660D02*
X127302500Y-55571660D01*
X127302500Y-55571660D02*
X129302500Y-55571660D01*
X129302500Y-41571660D02*
X127302500Y-41571660D01*
X127302500Y-41571660D02*
X127302500Y-43571660D01*
X124777500Y-39046660D02*
X143827500Y-39046660D01*
X143827500Y-39046660D02*
X143827500Y-58096660D01*
X143827500Y-58096660D02*
X124777500Y-58096660D01*
X124777500Y-58096660D02*
X124777500Y-39046660D01*
X248829840Y-79653880D02*
X250829840Y-79653880D01*
X250829840Y-79653880D02*
X250829840Y-81653880D01*
X248829840Y-93653880D02*
X250829840Y-93653880D01*
X250829840Y-93653880D02*
X250829840Y-91653880D01*
X236829840Y-91653880D02*
X236829840Y-93653880D01*
X236829840Y-93653880D02*
X238829840Y-93653880D01*
X238829840Y-79653880D02*
X236829840Y-79653880D01*
X236829840Y-79653880D02*
X236829840Y-81653880D01*
X234304840Y-77128880D02*
X253354840Y-77128880D01*
X253354840Y-77128880D02*
X253354840Y-96178880D01*
X253354840Y-96178880D02*
X234304840Y-96178880D01*
X234304840Y-96178880D02*
X234304840Y-77128880D01*
X46427400Y-79674200D02*
X48427400Y-79674200D01*
X48427400Y-79674200D02*
X48427400Y-81674200D01*
X46427400Y-93674200D02*
X48427400Y-93674200D01*
X48427400Y-93674200D02*
X48427400Y-91674200D01*
X34427400Y-91674200D02*
X34427400Y-93674200D01*
X34427400Y-93674200D02*
X36427400Y-93674200D01*
X36427400Y-79674200D02*
X34427400Y-79674200D01*
X34427400Y-79674200D02*
X34427400Y-81674200D01*
X19996150Y-77149200D02*
X62858650Y-77149200D01*
X62858650Y-77149200D02*
X62858650Y-96199200D01*
X19996150Y-96199200D02*
X62858650Y-96199200D01*
X19996150Y-96199200D02*
X19996150Y-77149200D01*
X284552400Y-79658960D02*
X286552400Y-79658960D01*
X286552400Y-79658960D02*
X286552400Y-81658960D01*
X284552400Y-93658960D02*
X286552400Y-93658960D01*
X286552400Y-93658960D02*
X286552400Y-91658960D01*
X272552400Y-91658960D02*
X272552400Y-93658960D01*
X272552400Y-93658960D02*
X274552400Y-93658960D01*
X274552400Y-79658960D02*
X272552400Y-79658960D01*
X272552400Y-79658960D02*
X272552400Y-81658960D01*
X253358650Y-77133960D02*
X305746150Y-77133960D01*
X305746150Y-77133960D02*
X305746150Y-96183960D01*
X253358650Y-96183960D02*
X305746150Y-96183960D01*
X253358650Y-96183960D02*
X253358650Y-77133960D01*
X239317540Y-60621660D02*
X241317540Y-60621660D01*
X241317540Y-60621660D02*
X241317540Y-62621660D01*
X239317540Y-74621660D02*
X241317540Y-74621660D01*
X241317540Y-74621660D02*
X241317540Y-72621660D01*
X227317540Y-72621660D02*
X227317540Y-74621660D01*
X227317540Y-74621660D02*
X229317540Y-74621660D01*
X229317540Y-60621660D02*
X227317540Y-60621660D01*
X227317540Y-60621660D02*
X227317540Y-62621660D01*
X224792540Y-58096660D02*
X243842540Y-58096660D01*
X243842540Y-58096660D02*
X243842540Y-77146660D01*
X243842540Y-77146660D02*
X224792540Y-77146660D01*
X224792540Y-77146660D02*
X224792540Y-58096660D01*
X86917540Y-60621660D02*
X88917540Y-60621660D01*
X88917540Y-60621660D02*
X88917540Y-62621660D01*
X86917540Y-74621660D02*
X88917540Y-74621660D01*
X88917540Y-74621660D02*
X88917540Y-72621660D01*
X74917540Y-72621660D02*
X74917540Y-74621660D01*
X74917540Y-74621660D02*
X76917540Y-74621660D01*
X76917540Y-60621660D02*
X74917540Y-60621660D01*
X74917540Y-60621660D02*
X74917540Y-62621660D01*
X72392540Y-58096660D02*
X91442540Y-58096660D01*
X91442540Y-58096660D02*
X91442540Y-77146660D01*
X91442540Y-77146660D02*
X72392540Y-77146660D01*
X72392540Y-77146660D02*
X72392540Y-58096660D01*
X120252500Y-41571660D02*
X122252500Y-41571660D01*
X122252500Y-41571660D02*
X122252500Y-43571660D01*
X120252500Y-55571660D02*
X122252500Y-55571660D01*
X122252500Y-55571660D02*
X122252500Y-53571660D01*
X108252500Y-53571660D02*
X108252500Y-55571660D01*
X108252500Y-55571660D02*
X110252500Y-55571660D01*
X110252500Y-41571660D02*
X108252500Y-41571660D01*
X108252500Y-41571660D02*
X108252500Y-43571660D01*
X105727500Y-39046660D02*
X124777500Y-39046660D01*
X124777500Y-39046660D02*
X124777500Y-58096660D01*
X124777500Y-58096660D02*
X105727500Y-58096660D01*
X105727500Y-58096660D02*
X105727500Y-39046660D01*
X258367540Y-60621660D02*
X260367540Y-60621660D01*
X260367540Y-60621660D02*
X260367540Y-62621660D01*
X258367540Y-74621660D02*
X260367540Y-74621660D01*
X260367540Y-74621660D02*
X260367540Y-72621660D01*
X246367540Y-72621660D02*
X246367540Y-74621660D01*
X246367540Y-74621660D02*
X248367540Y-74621660D01*
X248367540Y-60621660D02*
X246367540Y-60621660D01*
X246367540Y-60621660D02*
X246367540Y-62621660D01*
X243842540Y-58096660D02*
X262892540Y-58096660D01*
X262892540Y-58096660D02*
X262892540Y-77146660D01*
X262892540Y-77146660D02*
X243842540Y-77146660D01*
X243842540Y-77146660D02*
X243842540Y-58096660D01*
X63102500Y-41571660D02*
X65102500Y-41571660D01*
X65102500Y-41571660D02*
X65102500Y-43571660D01*
X63102500Y-55571660D02*
X65102500Y-55571660D01*
X65102500Y-55571660D02*
X65102500Y-53571660D01*
X51102500Y-53571660D02*
X51102500Y-55571660D01*
X51102500Y-55571660D02*
X53102500Y-55571660D01*
X53102500Y-41571660D02*
X51102500Y-41571660D01*
X51102500Y-41571660D02*
X51102500Y-43571660D01*
X48577500Y-39046660D02*
X67627500Y-39046660D01*
X67627500Y-39046660D02*
X67627500Y-58096660D01*
X67627500Y-58096660D02*
X48577500Y-58096660D01*
X48577500Y-58096660D02*
X48577500Y-39046660D01*
X234552500Y-41571660D02*
X236552500Y-41571660D01*
X236552500Y-41571660D02*
X236552500Y-43571660D01*
X234552500Y-55571660D02*
X236552500Y-55571660D01*
X236552500Y-55571660D02*
X236552500Y-53571660D01*
X222552500Y-53571660D02*
X222552500Y-55571660D01*
X222552500Y-55571660D02*
X224552500Y-55571660D01*
X224552500Y-41571660D02*
X222552500Y-41571660D01*
X222552500Y-41571660D02*
X222552500Y-43571660D01*
X220027500Y-39046660D02*
X239077500Y-39046660D01*
X239077500Y-39046660D02*
X239077500Y-58096660D01*
X239077500Y-58096660D02*
X220027500Y-58096660D01*
X220027500Y-58096660D02*
X220027500Y-39046660D01*
X215502500Y-41571660D02*
X217502500Y-41571660D01*
X217502500Y-41571660D02*
X217502500Y-43571660D01*
X215502500Y-55571660D02*
X217502500Y-55571660D01*
X217502500Y-55571660D02*
X217502500Y-53571660D01*
X203502500Y-53571660D02*
X203502500Y-55571660D01*
X203502500Y-55571660D02*
X205502500Y-55571660D01*
X205502500Y-41571660D02*
X203502500Y-41571660D01*
X203502500Y-41571660D02*
X203502500Y-43571660D01*
X200977500Y-39046660D02*
X220027500Y-39046660D01*
X220027500Y-39046660D02*
X220027500Y-58096660D01*
X220027500Y-58096660D02*
X200977500Y-58096660D01*
X200977500Y-58096660D02*
X200977500Y-39046660D01*
X172629840Y-79653880D02*
X174629840Y-79653880D01*
X174629840Y-79653880D02*
X174629840Y-81653880D01*
X172629840Y-93653880D02*
X174629840Y-93653880D01*
X174629840Y-93653880D02*
X174629840Y-91653880D01*
X160629840Y-91653880D02*
X160629840Y-93653880D01*
X160629840Y-93653880D02*
X162629840Y-93653880D01*
X162629840Y-79653880D02*
X160629840Y-79653880D01*
X160629840Y-79653880D02*
X160629840Y-81653880D01*
X158104840Y-77128880D02*
X177154840Y-77128880D01*
X177154840Y-77128880D02*
X177154840Y-96178880D01*
X177154840Y-96178880D02*
X158104840Y-96178880D01*
X158104840Y-96178880D02*
X158104840Y-77128880D01*
X244077500Y-22521660D02*
X246077500Y-22521660D01*
X246077500Y-22521660D02*
X246077500Y-24521660D01*
X244077500Y-36521660D02*
X246077500Y-36521660D01*
X246077500Y-36521660D02*
X246077500Y-34521660D01*
X232077500Y-34521660D02*
X232077500Y-36521660D01*
X232077500Y-36521660D02*
X234077500Y-36521660D01*
X234077500Y-22521660D02*
X232077500Y-22521660D01*
X232077500Y-22521660D02*
X232077500Y-24521660D01*
X229552500Y-19996660D02*
X248602500Y-19996660D01*
X248602500Y-19996660D02*
X248602500Y-39046660D01*
X248602500Y-39046660D02*
X229552500Y-39046660D01*
X229552500Y-39046660D02*
X229552500Y-19996660D01*
X275029940Y-98716580D02*
X277029940Y-98716580D01*
X277029940Y-98716580D02*
X277029940Y-100716580D01*
X275029940Y-112716580D02*
X277029940Y-112716580D01*
X277029940Y-112716580D02*
X277029940Y-110716580D01*
X263029940Y-110716580D02*
X263029940Y-112716580D01*
X263029940Y-112716580D02*
X265029940Y-112716580D01*
X265029940Y-98716580D02*
X263029940Y-98716580D01*
X263029940Y-98716580D02*
X263029940Y-100716580D01*
X258123690Y-96191580D02*
X281936190Y-96191580D01*
X281936190Y-96191580D02*
X281936190Y-115241580D01*
X281936190Y-115241580D02*
X258123690Y-115241580D01*
X258123690Y-115241580D02*
X258123690Y-96191580D01*
X191679840Y-79653880D02*
X193679840Y-79653880D01*
X193679840Y-79653880D02*
X193679840Y-81653880D01*
X191679840Y-93653880D02*
X193679840Y-93653880D01*
X193679840Y-93653880D02*
X193679840Y-91653880D01*
X179679840Y-91653880D02*
X179679840Y-93653880D01*
X179679840Y-93653880D02*
X181679840Y-93653880D01*
X181679840Y-79653880D02*
X179679840Y-79653880D01*
X179679840Y-79653880D02*
X179679840Y-81653880D01*
X177154840Y-77128880D02*
X196204840Y-77128880D01*
X196204840Y-77128880D02*
X196204840Y-96178880D01*
X196204840Y-96178880D02*
X177154840Y-96178880D01*
X177154840Y-96178880D02*
X177154840Y-77128880D01*
X220267540Y-60621660D02*
X222267540Y-60621660D01*
X222267540Y-60621660D02*
X222267540Y-62621660D01*
X220267540Y-74621660D02*
X222267540Y-74621660D01*
X222267540Y-74621660D02*
X222267540Y-72621660D01*
X208267540Y-72621660D02*
X208267540Y-74621660D01*
X208267540Y-74621660D02*
X210267540Y-74621660D01*
X210267540Y-60621660D02*
X208267540Y-60621660D01*
X208267540Y-60621660D02*
X208267540Y-62621660D01*
X205742540Y-58096660D02*
X224792540Y-58096660D01*
X224792540Y-58096660D02*
X224792540Y-77146660D01*
X224792540Y-77146660D02*
X205742540Y-77146660D01*
X205742540Y-77146660D02*
X205742540Y-58096660D01*
X201217540Y-60621660D02*
X203217540Y-60621660D01*
X203217540Y-60621660D02*
X203217540Y-62621660D01*
X201217540Y-74621660D02*
X203217540Y-74621660D01*
X203217540Y-74621660D02*
X203217540Y-72621660D01*
X189217540Y-72621660D02*
X189217540Y-74621660D01*
X189217540Y-74621660D02*
X191217540Y-74621660D01*
X191217540Y-60621660D02*
X189217540Y-60621660D01*
X189217540Y-60621660D02*
X189217540Y-62621660D01*
X186692540Y-58096660D02*
X205742540Y-58096660D01*
X205742540Y-58096660D02*
X205742540Y-77146660D01*
X205742540Y-77146660D02*
X186692540Y-77146660D01*
X186692540Y-77146660D02*
X186692540Y-58096660D01*
X182167540Y-60621660D02*
X184167540Y-60621660D01*
X184167540Y-60621660D02*
X184167540Y-62621660D01*
X182167540Y-74621660D02*
X184167540Y-74621660D01*
X184167540Y-74621660D02*
X184167540Y-72621660D01*
X170167540Y-72621660D02*
X170167540Y-74621660D01*
X170167540Y-74621660D02*
X172167540Y-74621660D01*
X172167540Y-60621660D02*
X170167540Y-60621660D01*
X170167540Y-60621660D02*
X170167540Y-62621660D01*
X167642540Y-58096660D02*
X186692540Y-58096660D01*
X186692540Y-58096660D02*
X186692540Y-77146660D01*
X186692540Y-77146660D02*
X167642540Y-77146660D01*
X167642540Y-77146660D02*
X167642540Y-58096660D01*
X196452500Y-41571660D02*
X198452500Y-41571660D01*
X198452500Y-41571660D02*
X198452500Y-43571660D01*
X196452500Y-55571660D02*
X198452500Y-55571660D01*
X198452500Y-55571660D02*
X198452500Y-53571660D01*
X184452500Y-53571660D02*
X184452500Y-55571660D01*
X184452500Y-55571660D02*
X186452500Y-55571660D01*
X186452500Y-41571660D02*
X184452500Y-41571660D01*
X184452500Y-41571660D02*
X184452500Y-43571660D01*
X181927500Y-39046660D02*
X200977500Y-39046660D01*
X200977500Y-39046660D02*
X200977500Y-58096660D01*
X200977500Y-58096660D02*
X181927500Y-58096660D01*
X181927500Y-58096660D02*
X181927500Y-39046660D01*
X163117540Y-60621660D02*
X165117540Y-60621660D01*
X165117540Y-60621660D02*
X165117540Y-62621660D01*
X163117540Y-74621660D02*
X165117540Y-74621660D01*
X165117540Y-74621660D02*
X165117540Y-72621660D01*
X151117540Y-72621660D02*
X151117540Y-74621660D01*
X151117540Y-74621660D02*
X153117540Y-74621660D01*
X153117540Y-60621660D02*
X151117540Y-60621660D01*
X151117540Y-60621660D02*
X151117540Y-62621660D01*
X148592540Y-58096660D02*
X167642540Y-58096660D01*
X167642540Y-58096660D02*
X167642540Y-77146660D01*
X167642540Y-77146660D02*
X148592540Y-77146660D01*
X148592540Y-77146660D02*
X148592540Y-58096660D01*
X144067540Y-60621660D02*
X146067540Y-60621660D01*
X146067540Y-60621660D02*
X146067540Y-62621660D01*
X144067540Y-74621660D02*
X146067540Y-74621660D01*
X146067540Y-74621660D02*
X146067540Y-72621660D01*
X132067540Y-72621660D02*
X132067540Y-74621660D01*
X132067540Y-74621660D02*
X134067540Y-74621660D01*
X134067540Y-60621660D02*
X132067540Y-60621660D01*
X132067540Y-60621660D02*
X132067540Y-62621660D01*
X129542540Y-58096660D02*
X148592540Y-58096660D01*
X148592540Y-58096660D02*
X148592540Y-77146660D01*
X148592540Y-77146660D02*
X129542540Y-77146660D01*
X129542540Y-77146660D02*
X129542540Y-58096660D01*
X125017540Y-60621660D02*
X127017540Y-60621660D01*
X127017540Y-60621660D02*
X127017540Y-62621660D01*
X125017540Y-74621660D02*
X127017540Y-74621660D01*
X127017540Y-74621660D02*
X127017540Y-72621660D01*
X113017540Y-72621660D02*
X113017540Y-74621660D01*
X113017540Y-74621660D02*
X115017540Y-74621660D01*
X115017540Y-60621660D02*
X113017540Y-60621660D01*
X113017540Y-60621660D02*
X113017540Y-62621660D01*
X110492540Y-58096660D02*
X129542540Y-58096660D01*
X129542540Y-58096660D02*
X129542540Y-77146660D01*
X129542540Y-77146660D02*
X110492540Y-77146660D01*
X110492540Y-77146660D02*
X110492540Y-58096660D01*
X34527500Y-22521660D02*
X36527500Y-22521660D01*
X36527500Y-22521660D02*
X36527500Y-24521660D01*
X34527500Y-36521660D02*
X36527500Y-36521660D01*
X36527500Y-36521660D02*
X36527500Y-34521660D01*
X22527500Y-34521660D02*
X22527500Y-36521660D01*
X22527500Y-36521660D02*
X24527500Y-36521660D01*
X24527500Y-22521660D02*
X22527500Y-22521660D01*
X22527500Y-22521660D02*
X22527500Y-24521660D01*
X20002500Y-19996660D02*
X39052500Y-19996660D01*
X39052500Y-19996660D02*
X39052500Y-39046660D01*
X39052500Y-39046660D02*
X20002500Y-39046660D01*
X20002500Y-39046660D02*
X20002500Y-19996660D01*
X263127500Y-22521660D02*
X265127500Y-22521660D01*
X265127500Y-22521660D02*
X265127500Y-24521660D01*
X263127500Y-36521660D02*
X265127500Y-36521660D01*
X265127500Y-36521660D02*
X265127500Y-34521660D01*
X251127500Y-34521660D02*
X251127500Y-36521660D01*
X251127500Y-36521660D02*
X253127500Y-36521660D01*
X253127500Y-22521660D02*
X251127500Y-22521660D01*
X251127500Y-22521660D02*
X251127500Y-24521660D01*
X248602500Y-19996660D02*
X267652500Y-19996660D01*
X267652500Y-19996660D02*
X267652500Y-39046660D01*
X267652500Y-39046660D02*
X248602500Y-39046660D01*
X248602500Y-39046660D02*
X248602500Y-19996660D01*
X289340300Y-60619120D02*
X291340300Y-60619120D01*
X291340300Y-60619120D02*
X291340300Y-62619120D01*
X289340300Y-74619120D02*
X291340300Y-74619120D01*
X291340300Y-74619120D02*
X291340300Y-72619120D01*
X277340300Y-72619120D02*
X277340300Y-74619120D01*
X277340300Y-74619120D02*
X279340300Y-74619120D01*
X279340300Y-60619120D02*
X277340300Y-60619120D01*
X277340300Y-60619120D02*
X277340300Y-62619120D01*
X262909050Y-58094120D02*
X305771550Y-58094120D01*
X305771550Y-58094120D02*
X305771550Y-77144120D01*
X262909050Y-77144120D02*
X305771550Y-77144120D01*
X262909050Y-77144120D02*
X262909050Y-58094120D01*
X101202500Y-41571660D02*
X103202500Y-41571660D01*
X103202500Y-41571660D02*
X103202500Y-43571660D01*
X101202500Y-55571660D02*
X103202500Y-55571660D01*
X103202500Y-55571660D02*
X103202500Y-53571660D01*
X89202500Y-53571660D02*
X89202500Y-55571660D01*
X89202500Y-55571660D02*
X91202500Y-55571660D01*
X91202500Y-41571660D02*
X89202500Y-41571660D01*
X89202500Y-41571660D02*
X89202500Y-43571660D01*
X86677500Y-39046660D02*
X105727500Y-39046660D01*
X105727500Y-39046660D02*
X105727500Y-58096660D01*
X105727500Y-58096660D02*
X86677500Y-58096660D01*
X86677500Y-58096660D02*
X86677500Y-39046660D01*
X229779840Y-79653880D02*
X231779840Y-79653880D01*
X231779840Y-79653880D02*
X231779840Y-81653880D01*
X229779840Y-93653880D02*
X231779840Y-93653880D01*
X231779840Y-93653880D02*
X231779840Y-91653880D01*
X217779840Y-91653880D02*
X217779840Y-93653880D01*
X217779840Y-93653880D02*
X219779840Y-93653880D01*
X219779840Y-79653880D02*
X217779840Y-79653880D01*
X217779840Y-79653880D02*
X217779840Y-81653880D01*
X215254840Y-77128880D02*
X234304840Y-77128880D01*
X234304840Y-77128880D02*
X234304840Y-96178880D01*
X234304840Y-96178880D02*
X215254840Y-96178880D01*
X215254840Y-96178880D02*
X215254840Y-77128880D01*
X105967540Y-60621660D02*
X107967540Y-60621660D01*
X107967540Y-60621660D02*
X107967540Y-62621660D01*
X105967540Y-74621660D02*
X107967540Y-74621660D01*
X107967540Y-74621660D02*
X107967540Y-72621660D01*
X93967540Y-72621660D02*
X93967540Y-74621660D01*
X93967540Y-74621660D02*
X95967540Y-74621660D01*
X95967540Y-60621660D02*
X93967540Y-60621660D01*
X93967540Y-60621660D02*
X93967540Y-62621660D01*
X91442540Y-58096660D02*
X110492540Y-58096660D01*
X110492540Y-58096660D02*
X110492540Y-77146660D01*
X110492540Y-77146660D02*
X91442540Y-77146660D01*
X91442540Y-77146660D02*
X91442540Y-58096660D01*
X36915100Y-98716580D02*
X38915100Y-98716580D01*
X38915100Y-98716580D02*
X38915100Y-100716580D01*
X36915100Y-112716580D02*
X38915100Y-112716580D01*
X38915100Y-112716580D02*
X38915100Y-110716580D01*
X24915100Y-110716580D02*
X24915100Y-112716580D01*
X24915100Y-112716580D02*
X26915100Y-112716580D01*
X26915100Y-98716580D02*
X24915100Y-98716580D01*
X24915100Y-98716580D02*
X24915100Y-100716580D01*
X20008850Y-96191580D02*
X43821350Y-96191580D01*
X43821350Y-96191580D02*
X43821350Y-115241580D01*
X43821350Y-115241580D02*
X20008850Y-115241580D01*
X20008850Y-115241580D02*
X20008850Y-96191580D01*
X298834820Y-98716580D02*
X300834820Y-98716580D01*
X300834820Y-98716580D02*
X300834820Y-100716580D01*
X298834820Y-112716580D02*
X300834820Y-112716580D01*
X300834820Y-112716580D02*
X300834820Y-110716580D01*
X286834820Y-110716580D02*
X286834820Y-112716580D01*
X286834820Y-112716580D02*
X288834820Y-112716580D01*
X288834820Y-98716580D02*
X286834820Y-98716580D01*
X286834820Y-98716580D02*
X286834820Y-100716580D01*
X281928570Y-96191580D02*
X305741070Y-96191580D01*
X305741070Y-96191580D02*
X305741070Y-115241580D01*
X305741070Y-115241580D02*
X281928570Y-115241580D01*
X281928570Y-115241580D02*
X281928570Y-96191580D01*
X210729840Y-79653880D02*
X212729840Y-79653880D01*
X212729840Y-79653880D02*
X212729840Y-81653880D01*
X210729840Y-93653880D02*
X212729840Y-93653880D01*
X212729840Y-93653880D02*
X212729840Y-91653880D01*
X198729840Y-91653880D02*
X198729840Y-93653880D01*
X198729840Y-93653880D02*
X200729840Y-93653880D01*
X200729840Y-79653880D02*
X198729840Y-79653880D01*
X198729840Y-79653880D02*
X198729840Y-81653880D01*
X196204840Y-77128880D02*
X215254840Y-77128880D01*
X215254840Y-77128880D02*
X215254840Y-96178880D01*
X215254840Y-96178880D02*
X196204840Y-96178880D01*
X196204840Y-96178880D02*
X196204840Y-77128880D01*
X41664900Y-60631820D02*
X43664900Y-60631820D01*
X43664900Y-60631820D02*
X43664900Y-62631820D01*
X41664900Y-74631820D02*
X43664900Y-74631820D01*
X43664900Y-74631820D02*
X43664900Y-72631820D01*
X29664900Y-72631820D02*
X29664900Y-74631820D01*
X29664900Y-74631820D02*
X31664900Y-74631820D01*
X31664900Y-60631820D02*
X29664900Y-60631820D01*
X29664900Y-60631820D02*
X29664900Y-62631820D01*
X19996150Y-58106820D02*
X53333650Y-58106820D01*
X53333650Y-58106820D02*
X53333650Y-77156820D01*
X53333650Y-77156820D02*
X19996150Y-77156820D01*
X19996150Y-77156820D02*
X19996150Y-58106820D01*
X115479840Y-79653880D02*
X117479840Y-79653880D01*
X117479840Y-79653880D02*
X117479840Y-81653880D01*
X115479840Y-93653880D02*
X117479840Y-93653880D01*
X117479840Y-93653880D02*
X117479840Y-91653880D01*
X103479840Y-91653880D02*
X103479840Y-93653880D01*
X103479840Y-93653880D02*
X105479840Y-93653880D01*
X105479840Y-79653880D02*
X103479840Y-79653880D01*
X103479840Y-79653880D02*
X103479840Y-81653880D01*
X100954840Y-77128880D02*
X120004840Y-77128880D01*
X120004840Y-77128880D02*
X120004840Y-96178880D01*
X120004840Y-96178880D02*
X100954840Y-96178880D01*
X100954840Y-96178880D02*
X100954840Y-77128880D01*
X296472500Y-41586660D02*
X298472500Y-41586660D01*
X298472500Y-41586660D02*
X298472500Y-43586660D01*
X296472500Y-55586660D02*
X298472500Y-55586660D01*
X298472500Y-55586660D02*
X298472500Y-53586660D01*
X284472500Y-53586660D02*
X284472500Y-55586660D01*
X284472500Y-55586660D02*
X286472500Y-55586660D01*
X286472500Y-41586660D02*
X284472500Y-41586660D01*
X284472500Y-41586660D02*
X284472500Y-43586660D01*
X277185000Y-39061660D02*
X305760000Y-39061660D01*
X305760000Y-39061660D02*
X305760000Y-58111660D01*
X305760000Y-58111660D02*
X277185000Y-58111660D01*
X277185000Y-58111660D02*
X277185000Y-39061660D01*
X291702500Y-22521660D02*
X293702500Y-22521660D01*
X293702500Y-22521660D02*
X293702500Y-24521660D01*
X291702500Y-36521660D02*
X293702500Y-36521660D01*
X293702500Y-36521660D02*
X293702500Y-34521660D01*
X279702500Y-34521660D02*
X279702500Y-36521660D01*
X279702500Y-36521660D02*
X281702500Y-36521660D01*
X281702500Y-22521660D02*
X279702500Y-22521660D01*
X279702500Y-22521660D02*
X279702500Y-24521660D01*
X267652500Y-19996660D02*
X305752500Y-19996660D01*
X305752500Y-19996660D02*
X305752500Y-39046660D01*
X267652500Y-39046660D02*
X305752500Y-39046660D01*
X267652500Y-39046660D02*
X267652500Y-19996660D01*
X153579840Y-79653880D02*
X155579840Y-79653880D01*
X155579840Y-79653880D02*
X155579840Y-81653880D01*
X153579840Y-93653880D02*
X155579840Y-93653880D01*
X155579840Y-93653880D02*
X155579840Y-91653880D01*
X141579840Y-91653880D02*
X141579840Y-93653880D01*
X141579840Y-93653880D02*
X143579840Y-93653880D01*
X143579840Y-79653880D02*
X141579840Y-79653880D01*
X141579840Y-79653880D02*
X141579840Y-81653880D01*
X139054840Y-77128880D02*
X158104840Y-77128880D01*
X158104840Y-77128880D02*
X158104840Y-96178880D01*
X158104840Y-96178880D02*
X139054840Y-96178880D01*
X139054840Y-96178880D02*
X139054840Y-77128880D01*
X84573120Y-98716580D02*
X86573120Y-98716580D01*
X86573120Y-98716580D02*
X86573120Y-100716580D01*
X84573120Y-112716580D02*
X86573120Y-112716580D01*
X86573120Y-112716580D02*
X86573120Y-110716580D01*
X72573120Y-110716580D02*
X72573120Y-112716580D01*
X72573120Y-112716580D02*
X74573120Y-112716580D01*
X74573120Y-98716580D02*
X72573120Y-98716580D01*
X72573120Y-98716580D02*
X72573120Y-100716580D01*
X67666870Y-96191580D02*
X91479370Y-96191580D01*
X91479370Y-96191580D02*
X91479370Y-115241580D01*
X91479370Y-115241580D02*
X67666870Y-115241580D01*
X67666870Y-115241580D02*
X67666870Y-96191580D01*
X227453200Y-98696260D02*
X229453200Y-98696260D01*
X229453200Y-98696260D02*
X229453200Y-100696260D01*
X227453200Y-112696260D02*
X229453200Y-112696260D01*
X229453200Y-112696260D02*
X229453200Y-110696260D01*
X215453200Y-110696260D02*
X215453200Y-112696260D01*
X215453200Y-112696260D02*
X217453200Y-112696260D01*
X217453200Y-98696260D02*
X215453200Y-98696260D01*
X215453200Y-98696260D02*
X215453200Y-100696260D01*
X210546950Y-96171260D02*
X234359450Y-96171260D01*
X234359450Y-96171260D02*
X234359450Y-115221260D01*
X234359450Y-115221260D02*
X210546950Y-115221260D01*
X210546950Y-115221260D02*
X210546950Y-96171260D01*
X67867540Y-60621660D02*
X69867540Y-60621660D01*
X69867540Y-60621660D02*
X69867540Y-62621660D01*
X67867540Y-74621660D02*
X69867540Y-74621660D01*
X69867540Y-74621660D02*
X69867540Y-72621660D01*
X55867540Y-72621660D02*
X55867540Y-74621660D01*
X55867540Y-74621660D02*
X57867540Y-74621660D01*
X57867540Y-60621660D02*
X55867540Y-60621660D01*
X55867540Y-60621660D02*
X55867540Y-62621660D01*
X53342540Y-58096660D02*
X72392540Y-58096660D01*
X72392540Y-58096660D02*
X72392540Y-77146660D01*
X72392540Y-77146660D02*
X53342540Y-77146660D01*
X53342540Y-77146660D02*
X53342540Y-58096660D01*
X272652500Y-41571660D02*
X274652500Y-41571660D01*
X274652500Y-41571660D02*
X274652500Y-43571660D01*
X272652500Y-55571660D02*
X274652500Y-55571660D01*
X274652500Y-55571660D02*
X274652500Y-53571660D01*
X260652500Y-53571660D02*
X260652500Y-55571660D01*
X260652500Y-55571660D02*
X262652500Y-55571660D01*
X262652500Y-41571660D02*
X260652500Y-41571660D01*
X260652500Y-41571660D02*
X260652500Y-43571660D01*
X258127500Y-39046660D02*
X277177500Y-39046660D01*
X277177500Y-39046660D02*
X277177500Y-58096660D01*
X277177500Y-58096660D02*
X258127500Y-58096660D01*
X258127500Y-58096660D02*
X258127500Y-39046660D01*
X327389500Y-79614000D02*
X329389500Y-79614000D01*
X329389500Y-79614000D02*
X329389500Y-81614000D01*
X327389500Y-93614000D02*
X329389500Y-93614000D01*
X329389500Y-93614000D02*
X329389500Y-91614000D01*
X315389500Y-91614000D02*
X315389500Y-93614000D01*
X315389500Y-93614000D02*
X317389500Y-93614000D01*
X317389500Y-79614000D02*
X315389500Y-79614000D01*
X315389500Y-79614000D02*
X315389500Y-81614000D01*
X312864500Y-77089000D02*
X331914500Y-77089000D01*
X331914500Y-77089000D02*
X331914500Y-96139000D01*
X331914500Y-96139000D02*
X312864500Y-96139000D01*
X312864500Y-96139000D02*
X312864500Y-77089000D01*
X327389500Y-98721660D02*
X329389500Y-98721660D01*
X329389500Y-98721660D02*
X329389500Y-100721660D01*
X327389500Y-112721660D02*
X329389500Y-112721660D01*
X329389500Y-112721660D02*
X329389500Y-110721660D01*
X315389500Y-110721660D02*
X315389500Y-112721660D01*
X315389500Y-112721660D02*
X317389500Y-112721660D01*
X317389500Y-98721660D02*
X315389500Y-98721660D01*
X315389500Y-98721660D02*
X315389500Y-100721660D01*
X312864500Y-96196660D02*
X331914500Y-96196660D01*
X331914500Y-96196660D02*
X331914500Y-115246660D01*
X331914500Y-115246660D02*
X312864500Y-115246660D01*
X312864500Y-115246660D02*
X312864500Y-96196660D01*
X205977500Y-22521660D02*
X207977500Y-22521660D01*
X207977500Y-22521660D02*
X207977500Y-24521660D01*
X205977500Y-36521660D02*
X207977500Y-36521660D01*
X207977500Y-36521660D02*
X207977500Y-34521660D01*
X193977500Y-34521660D02*
X193977500Y-36521660D01*
X193977500Y-36521660D02*
X195977500Y-36521660D01*
X195977500Y-22521660D02*
X193977500Y-22521660D01*
X193977500Y-22521660D02*
X193977500Y-24521660D01*
X191452500Y-19996660D02*
X210502500Y-19996660D01*
X210502500Y-19996660D02*
X210502500Y-39046660D01*
X210502500Y-39046660D02*
X191452500Y-39046660D01*
X191452500Y-39046660D02*
X191452500Y-19996660D01*
X186927500Y-22521660D02*
X188927500Y-22521660D01*
X188927500Y-22521660D02*
X188927500Y-24521660D01*
X186927500Y-36521660D02*
X188927500Y-36521660D01*
X188927500Y-36521660D02*
X188927500Y-34521660D01*
X174927500Y-34521660D02*
X174927500Y-36521660D01*
X174927500Y-36521660D02*
X176927500Y-36521660D01*
X176927500Y-22521660D02*
X174927500Y-22521660D01*
X174927500Y-22521660D02*
X174927500Y-24521660D01*
X172402500Y-19996660D02*
X191452500Y-19996660D01*
X191452500Y-19996660D02*
X191452500Y-39046660D01*
X191452500Y-39046660D02*
X172402500Y-39046660D01*
X172402500Y-39046660D02*
X172402500Y-19996660D01*
X167877500Y-22521660D02*
X169877500Y-22521660D01*
X169877500Y-22521660D02*
X169877500Y-24521660D01*
X167877500Y-36521660D02*
X169877500Y-36521660D01*
X169877500Y-36521660D02*
X169877500Y-34521660D01*
X155877500Y-34521660D02*
X155877500Y-36521660D01*
X155877500Y-36521660D02*
X157877500Y-36521660D01*
X157877500Y-22521660D02*
X155877500Y-22521660D01*
X155877500Y-22521660D02*
X155877500Y-24521660D01*
X153352500Y-19996660D02*
X172402500Y-19996660D01*
X172402500Y-19996660D02*
X172402500Y-39046660D01*
X172402500Y-39046660D02*
X153352500Y-39046660D01*
X153352500Y-39046660D02*
X153352500Y-19996660D01*
X148827500Y-22521660D02*
X150827500Y-22521660D01*
X150827500Y-22521660D02*
X150827500Y-24521660D01*
X148827500Y-36521660D02*
X150827500Y-36521660D01*
X150827500Y-36521660D02*
X150827500Y-34521660D01*
X136827500Y-34521660D02*
X136827500Y-36521660D01*
X136827500Y-36521660D02*
X138827500Y-36521660D01*
X138827500Y-22521660D02*
X136827500Y-22521660D01*
X136827500Y-22521660D02*
X136827500Y-24521660D01*
X134302500Y-19996660D02*
X153352500Y-19996660D01*
X153352500Y-19996660D02*
X153352500Y-39046660D01*
X153352500Y-39046660D02*
X134302500Y-39046660D01*
X134302500Y-39046660D02*
X134302500Y-19996660D01*
X129777500Y-22521660D02*
X131777500Y-22521660D01*
X131777500Y-22521660D02*
X131777500Y-24521660D01*
X129777500Y-36521660D02*
X131777500Y-36521660D01*
X131777500Y-36521660D02*
X131777500Y-34521660D01*
X117777500Y-34521660D02*
X117777500Y-36521660D01*
X117777500Y-36521660D02*
X119777500Y-36521660D01*
X119777500Y-22521660D02*
X117777500Y-22521660D01*
X117777500Y-22521660D02*
X117777500Y-24521660D01*
X115252500Y-19996660D02*
X134302500Y-19996660D01*
X134302500Y-19996660D02*
X134302500Y-39046660D01*
X134302500Y-39046660D02*
X115252500Y-39046660D01*
X115252500Y-39046660D02*
X115252500Y-19996660D01*
X110727500Y-22521660D02*
X112727500Y-22521660D01*
X112727500Y-22521660D02*
X112727500Y-24521660D01*
X110727500Y-36521660D02*
X112727500Y-36521660D01*
X112727500Y-36521660D02*
X112727500Y-34521660D01*
X98727500Y-34521660D02*
X98727500Y-36521660D01*
X98727500Y-36521660D02*
X100727500Y-36521660D01*
X100727500Y-22521660D02*
X98727500Y-22521660D01*
X98727500Y-22521660D02*
X98727500Y-24521660D01*
X96202500Y-19996660D02*
X115252500Y-19996660D01*
X115252500Y-19996660D02*
X115252500Y-39046660D01*
X115252500Y-39046660D02*
X96202500Y-39046660D01*
X96202500Y-39046660D02*
X96202500Y-19996660D01*
X91677500Y-22521660D02*
X93677500Y-22521660D01*
X93677500Y-22521660D02*
X93677500Y-24521660D01*
X91677500Y-36521660D02*
X93677500Y-36521660D01*
X93677500Y-36521660D02*
X93677500Y-34521660D01*
X79677500Y-34521660D02*
X79677500Y-36521660D01*
X79677500Y-36521660D02*
X81677500Y-36521660D01*
X81677500Y-22521660D02*
X79677500Y-22521660D01*
X79677500Y-22521660D02*
X79677500Y-24521660D01*
X77152500Y-19996660D02*
X96202500Y-19996660D01*
X96202500Y-19996660D02*
X96202500Y-39046660D01*
X96202500Y-39046660D02*
X77152500Y-39046660D01*
X77152500Y-39046660D02*
X77152500Y-19996660D01*
X72627500Y-22521660D02*
X74627500Y-22521660D01*
X74627500Y-22521660D02*
X74627500Y-24521660D01*
X72627500Y-36521660D02*
X74627500Y-36521660D01*
X74627500Y-36521660D02*
X74627500Y-34521660D01*
X60627500Y-34521660D02*
X60627500Y-36521660D01*
X60627500Y-36521660D02*
X62627500Y-36521660D01*
X62627500Y-22521660D02*
X60627500Y-22521660D01*
X60627500Y-22521660D02*
X60627500Y-24521660D01*
X58102500Y-19996660D02*
X77152500Y-19996660D01*
X77152500Y-19996660D02*
X77152500Y-39046660D01*
X77152500Y-39046660D02*
X58102500Y-39046660D01*
X58102500Y-39046660D02*
X58102500Y-19996660D01*
X53577500Y-22521660D02*
X55577500Y-22521660D01*
X55577500Y-22521660D02*
X55577500Y-24521660D01*
X53577500Y-36521660D02*
X55577500Y-36521660D01*
X55577500Y-36521660D02*
X55577500Y-34521660D01*
X41577500Y-34521660D02*
X41577500Y-36521660D01*
X41577500Y-36521660D02*
X43577500Y-36521660D01*
X43577500Y-22521660D02*
X41577500Y-22521660D01*
X41577500Y-22521660D02*
X41577500Y-24521660D01*
X39052500Y-19996660D02*
X58102500Y-19996660D01*
X58102500Y-19996660D02*
X58102500Y-39046660D01*
X58102500Y-39046660D02*
X39052500Y-39046660D01*
X39052500Y-39046660D02*
X39052500Y-19996660D01*
X225027500Y-22521660D02*
X227027500Y-22521660D01*
X227027500Y-22521660D02*
X227027500Y-24521660D01*
X225027500Y-36521660D02*
X227027500Y-36521660D01*
X227027500Y-36521660D02*
X227027500Y-34521660D01*
X213027500Y-34521660D02*
X213027500Y-36521660D01*
X213027500Y-36521660D02*
X215027500Y-36521660D01*
X215027500Y-22521660D02*
X213027500Y-22521660D01*
X213027500Y-22521660D02*
X213027500Y-24521660D01*
X210502500Y-19996660D02*
X229552500Y-19996660D01*
X229552500Y-19996660D02*
X229552500Y-39046660D01*
X229552500Y-39046660D02*
X210502500Y-39046660D01*
X210502500Y-39046660D02*
X210502500Y-19996660D01*
D13*
X159415000Y-95631000D02*
G75*
G03X159415000Y-95631000I-1300000J0D01*
G01*
X111790000Y-58801000D02*
G75*
G03X111790000Y-58801000I-1300000J0D01*
G01*
X245140000Y-58674000D02*
G75*
G03X245140000Y-58674000I-1300000J0D01*
G01*
M02*
