  0
SECTION
  2
HEADER
  9
$ANGBASE
  50
0.0
  9
$ANGDIR
  70
1
  9
$MEASUREMENT
  70
1
  0
ENDSEC
  0
SECTION
  2
TABLES
  0
TABLE
  2
LTYPE
  70
4
  0
LTYPE
  5
40F
  2
CONTINUOUS
  70
0
  3
Solid line
  72
65
  73
0
  40
0.0
  0
LTYPE
  5
410
  2
DASHDOT
 70
0
  3
Dash Dot ____ _ ____ _
 72
65
 73
4
 40
2.0
 49
1.25
 49
-0.25
 49
0.25
 49
-0.25
  0
LTYPE
  5
411
  2
DASHED
 70
0
  3
Dashed __ __ __ __ __
 72
65
 73
2
 40
0.75
 49
0.5
 49
-0.25
  0
LTYPE
  5
43B
  2
DOTTED
 70
0
  3
Dotted .  .  .  .
 72
65
 73
2
 40
0.2
 49
0.0
 49
-0.2
  0
ENDTAB
  0
TABLE
  2
STYLE
  70
4
  0
STYLE
  2
KICAD
  70
0
  40
0
  41
1
  42
1
  50
0
  71
0
  3
isocp.shx
  0
STYLE
  2
KICADB
  70
0
  40
0
  41
1
  42
1
  50
0
  71
0
  3
isocp.shx
  0
STYLE
  2
KICADI
  70
0
  40
0
  41
1
  42
1
  50
15
  71
0
  3
isocp.shx
  0
STYLE
  2
KICADBI
  70
0
  40
0
  41
1
  42
1
  50
15
  71
0
  3
isocp.shx
  0
ENDTAB
  0
TABLE
  2
LAYER
  70
1
  0
LAYER
  2
BLACK
  70
0
  62
7
  6
CONTINUOUS
  0
ENDTAB
  0
ENDSEC
  0
SECTION
  2
ENTITIES
0
LINE
8
BLACK
6
CONTINUOUS
10
317.653
20
-53.9973
11
328.653
21
-53.9973
0
LINE
8
BLACK
6
CONTINUOUS
10
328.653
20
-53.9973
11
328.653
21
-65.5973
0
LINE
8
BLACK
6
CONTINUOUS
10
328.653
20
-65.5973
11
316.653
21
-65.5973
0
LINE
8
BLACK
6
CONTINUOUS
10
316.653
20
-65.5973
11
316.653
21
-55.0973
0
LINE
8
BLACK
6
CONTINUOUS
10
316.653
20
-55.0973
11
317.653
21
-53.9973
0
LINE
8
BLACK
6
CONTINUOUS
10
322.653
20
-56.7973
11
322.653
21
-62.7973
0
LINE
8
BLACK
6
CONTINUOUS
10
319.653
20
-59.7973
11
325.653
21
-59.7973
0
LINE
8
BLACK
6
CONTINUOUS
10
253.602
20
-41.5717
11
255.602
21
-41.5717
0
LINE
8
BLACK
6
CONTINUOUS
10
255.602
20
-41.5717
11
255.602
21
-43.5717
0
LINE
8
BLACK
6
CONTINUOUS
10
253.602
20
-55.5717
11
255.602
21
-55.5717
0
LINE
8
BLACK
6
CONTINUOUS
10
255.602
20
-55.5717
11
255.602
21
-53.5717
0
LINE
8
BLACK
6
CONTINUOUS
10
241.602
20
-53.5717
11
241.602
21
-55.5717
0
LINE
8
BLACK
6
CONTINUOUS
10
241.602
20
-55.5717
11
243.602
21
-55.5717
0
LINE
8
BLACK
6
CONTINUOUS
10
243.602
20
-41.5717
11
241.602
21
-41.5717
0
LINE
8
BLACK
6
CONTINUOUS
10
241.602
20
-41.5717
11
241.602
21
-43.5717
0
LINE
8
BLACK
6
CONTINUOUS
10
239.077
20
-39.0467
11
258.127
21
-39.0467
0
LINE
8
BLACK
6
CONTINUOUS
10
258.127
20
-39.0467
11
258.127
21
-58.0967
0
LINE
8
BLACK
6
CONTINUOUS
10
258.127
20
-58.0967
11
239.077
21
-58.0967
0
LINE
8
BLACK
6
CONTINUOUS
10
239.077
20
-58.0967
11
239.077
21
-39.0467
0
LINE
8
BLACK
6
CONTINUOUS
10
156.023
20
-98.7115
11
158.023
21
-98.7115
0
LINE
8
BLACK
6
CONTINUOUS
10
158.023
20
-98.7115
11
158.023
21
-100.712
0
LINE
8
BLACK
6
CONTINUOUS
10
156.023
20
-112.712
11
158.023
21
-112.712
0
LINE
8
BLACK
6
CONTINUOUS
10
158.023
20
-112.712
11
158.023
21
-110.712
0
LINE
8
BLACK
6
CONTINUOUS
10
144.023
20
-110.712
11
144.023
21
-112.712
0
LINE
8
BLACK
6
CONTINUOUS
10
144.023
20
-112.712
11
146.023
21
-112.712
0
LINE
8
BLACK
6
CONTINUOUS
10
146.023
20
-98.7115
11
144.023
21
-98.7115
0
LINE
8
BLACK
6
CONTINUOUS
10
144.023
20
-98.7115
11
144.023
21
-100.712
0
LINE
8
BLACK
6
CONTINUOUS
10
91.4921
20
-96.1865
11
210.555
21
-96.1865
0
LINE
8
BLACK
6
CONTINUOUS
10
210.555
20
-96.1865
11
210.555
21
-115.236
0
LINE
8
BLACK
6
CONTINUOUS
10
91.4921
20
-115.236
11
210.555
21
-115.236
0
LINE
8
BLACK
6
CONTINUOUS
10
91.4921
20
-115.236
11
91.4921
21
-96.1865
0
LINE
8
BLACK
6
CONTINUOUS
10
321.85
20
-15.621
11
321.85
21
-20.701
0
LINE
8
BLACK
6
CONTINUOUS
10
314.484
20
-15.621
11
321.85
21
-15.621
0
LINE
8
BLACK
6
CONTINUOUS
10
314.484
20
-20.701
11
314.484
21
-15.621
0
LINE
8
BLACK
6
CONTINUOUS
10
321.85
20
-20.701
11
314.484
21
-20.701
0
LINE
8
BLACK
6
CONTINUOUS
10
77.3798
20
-79.6539
11
79.3798
21
-79.6539
0
LINE
8
BLACK
6
CONTINUOUS
10
79.3798
20
-79.6539
11
79.3798
21
-81.6539
0
LINE
8
BLACK
6
CONTINUOUS
10
77.3798
20
-93.6539
11
79.3798
21
-93.6539
0
LINE
8
BLACK
6
CONTINUOUS
10
79.3798
20
-93.6539
11
79.3798
21
-91.6539
0
LINE
8
BLACK
6
CONTINUOUS
10
65.3798
20
-91.6539
11
65.3798
21
-93.6539
0
LINE
8
BLACK
6
CONTINUOUS
10
65.3798
20
-93.6539
11
67.3798
21
-93.6539
0
LINE
8
BLACK
6
CONTINUOUS
10
67.3798
20
-79.6539
11
65.3798
21
-79.6539
0
LINE
8
BLACK
6
CONTINUOUS
10
65.3798
20
-79.6539
11
65.3798
21
-81.6539
0
LINE
8
BLACK
6
CONTINUOUS
10
62.8548
20
-77.1289
11
81.9048
21
-77.1289
0
LINE
8
BLACK
6
CONTINUOUS
10
81.9048
20
-77.1289
11
81.9048
21
-96.1789
0
LINE
8
BLACK
6
CONTINUOUS
10
81.9048
20
-96.1789
11
62.8548
21
-96.1789
0
LINE
8
BLACK
6
CONTINUOUS
10
62.8548
20
-96.1789
11
62.8548
21
-77.1289
0
LINE
8
BLACK
6
CONTINUOUS
10
158.352
20
-41.5717
11
160.352
21
-41.5717
0
LINE
8
BLACK
6
CONTINUOUS
10
160.352
20
-41.5717
11
160.352
21
-43.5717
0
LINE
8
BLACK
6
CONTINUOUS
10
158.352
20
-55.5717
11
160.352
21
-55.5717
0
LINE
8
BLACK
6
CONTINUOUS
10
160.352
20
-55.5717
11
160.352
21
-53.5717
0
LINE
8
BLACK
6
CONTINUOUS
10
146.352
20
-53.5717
11
146.352
21
-55.5717
0
LINE
8
BLACK
6
CONTINUOUS
10
146.352
20
-55.5717
11
148.352
21
-55.5717
0
LINE
8
BLACK
6
CONTINUOUS
10
148.352
20
-41.5717
11
146.352
21
-41.5717
0
LINE
8
BLACK
6
CONTINUOUS
10
146.352
20
-41.5717
11
146.352
21
-43.5717
0
LINE
8
BLACK
6
CONTINUOUS
10
143.827
20
-39.0467
11
162.877
21
-39.0467
0
LINE
8
BLACK
6
CONTINUOUS
10
162.877
20
-39.0467
11
162.877
21
-58.0967
0
LINE
8
BLACK
6
CONTINUOUS
10
162.877
20
-58.0967
11
143.827
21
-58.0967
0
LINE
8
BLACK
6
CONTINUOUS
10
143.827
20
-58.0967
11
143.827
21
-39.0467
0
LINE
8
BLACK
6
CONTINUOUS
10
96.4298
20
-79.6539
11
98.4298
21
-79.6539
0
LINE
8
BLACK
6
CONTINUOUS
10
98.4298
20
-79.6539
11
98.4298
21
-81.6539
0
LINE
8
BLACK
6
CONTINUOUS
10
96.4298
20
-93.6539
11
98.4298
21
-93.6539
0
LINE
8
BLACK
6
CONTINUOUS
10
98.4298
20
-93.6539
11
98.4298
21
-91.6539
0
LINE
8
BLACK
6
CONTINUOUS
10
84.4298
20
-91.6539
11
84.4298
21
-93.6539
0
LINE
8
BLACK
6
CONTINUOUS
10
84.4298
20
-93.6539
11
86.4298
21
-93.6539
0
LINE
8
BLACK
6
CONTINUOUS
10
86.4298
20
-79.6539
11
84.4298
21
-79.6539
0
LINE
8
BLACK
6
CONTINUOUS
10
84.4298
20
-79.6539
11
84.4298
21
-81.6539
0
LINE
8
BLACK
6
CONTINUOUS
10
81.9048
20
-77.1289
11
100.955
21
-77.1289
0
LINE
8
BLACK
6
CONTINUOUS
10
100.955
20
-77.1289
11
100.955
21
-96.1789
0
LINE
8
BLACK
6
CONTINUOUS
10
100.955
20
-96.1789
11
81.9048
21
-96.1789
0
LINE
8
BLACK
6
CONTINUOUS
10
81.9048
20
-96.1789
11
81.9048
21
-77.1289
0
LINE
8
BLACK
6
CONTINUOUS
10
60.7454
20
-98.7166
11
62.7454
21
-98.7166
0
LINE
8
BLACK
6
CONTINUOUS
10
62.7454
20
-98.7166
11
62.7454
21
-100.717
0
LINE
8
BLACK
6
CONTINUOUS
10
60.7454
20
-112.717
11
62.7454
21
-112.717
0
LINE
8
BLACK
6
CONTINUOUS
10
62.7454
20
-112.717
11
62.7454
21
-110.717
0
LINE
8
BLACK
6
CONTINUOUS
10
48.7454
20
-110.717
11
48.7454
21
-112.717
0
LINE
8
BLACK
6
CONTINUOUS
10
48.7454
20
-112.717
11
50.7454
21
-112.717
0
LINE
8
BLACK
6
CONTINUOUS
10
50.7454
20
-98.7166
11
48.7454
21
-98.7166
0
LINE
8
BLACK
6
CONTINUOUS
10
48.7454
20
-98.7166
11
48.7454
21
-100.717
0
LINE
8
BLACK
6
CONTINUOUS
10
43.8391
20
-96.1916
11
67.6516
21
-96.1916
0
LINE
8
BLACK
6
CONTINUOUS
10
67.6516
20
-96.1916
11
67.6516
21
-115.242
0
LINE
8
BLACK
6
CONTINUOUS
10
67.6516
20
-115.242
11
43.8391
21
-115.242
0
LINE
8
BLACK
6
CONTINUOUS
10
43.8391
20
-115.242
11
43.8391
21
-96.1916
0
LINE
8
BLACK
6
CONTINUOUS
10
251.223
20
-98.7166
11
253.223
21
-98.7166
0
LINE
8
BLACK
6
CONTINUOUS
10
253.223
20
-98.7166
11
253.223
21
-100.717
0
LINE
8
BLACK
6
CONTINUOUS
10
251.223
20
-112.717
11
253.223
21
-112.717
0
LINE
8
BLACK
6
CONTINUOUS
10
253.223
20
-112.717
11
253.223
21
-110.717
0
LINE
8
BLACK
6
CONTINUOUS
10
239.223
20
-110.717
11
239.223
21
-112.717
0
LINE
8
BLACK
6
CONTINUOUS
10
239.223
20
-112.717
11
241.223
21
-112.717
0
LINE
8
BLACK
6
CONTINUOUS
10
241.223
20
-98.7166
11
239.223
21
-98.7166
0
LINE
8
BLACK
6
CONTINUOUS
10
239.223
20
-98.7166
11
239.223
21
-100.717
0
LINE
8
BLACK
6
CONTINUOUS
10
234.316
20
-96.1916
11
258.129
21
-96.1916
0
LINE
8
BLACK
6
CONTINUOUS
10
258.129
20
-96.1916
11
258.129
21
-115.242
0
LINE
8
BLACK
6
CONTINUOUS
10
258.129
20
-115.242
11
234.316
21
-115.242
0
LINE
8
BLACK
6
CONTINUOUS
10
234.316
20
-115.242
11
234.316
21
-96.1916
0
LINE
8
BLACK
6
CONTINUOUS
10
82.1525
20
-41.5717
11
84.1525
21
-41.5717
0
LINE
8
BLACK
6
CONTINUOUS
10
84.1525
20
-41.5717
11
84.1525
21
-43.5717
0
LINE
8
BLACK
6
CONTINUOUS
10
82.1525
20
-55.5717
11
84.1525
21
-55.5717
0
LINE
8
BLACK
6
CONTINUOUS
10
84.1525
20
-55.5717
11
84.1525
21
-53.5717
0
LINE
8
BLACK
6
CONTINUOUS
10
70.1525
20
-53.5717
11
70.1525
21
-55.5717
0
LINE
8
BLACK
6
CONTINUOUS
10
70.1525
20
-55.5717
11
72.1525
21
-55.5717
0
LINE
8
BLACK
6
CONTINUOUS
10
72.1525
20
-41.5717
11
70.1525
21
-41.5717
0
LINE
8
BLACK
6
CONTINUOUS
10
70.1525
20
-41.5717
11
70.1525
21
-43.5717
0
LINE
8
BLACK
6
CONTINUOUS
10
67.6275
20
-39.0467
11
86.6775
21
-39.0467
0
LINE
8
BLACK
6
CONTINUOUS
10
86.6775
20
-39.0467
11
86.6775
21
-58.0967
0
LINE
8
BLACK
6
CONTINUOUS
10
86.6775
20
-58.0967
11
67.6275
21
-58.0967
0
LINE
8
BLACK
6
CONTINUOUS
10
67.6275
20
-58.0967
11
67.6275
21
-39.0467
0
LINE
8
BLACK
6
CONTINUOUS
10
134.53
20
-79.6539
11
136.53
21
-79.6539
0
LINE
8
BLACK
6
CONTINUOUS
10
136.53
20
-79.6539
11
136.53
21
-81.6539
0
LINE
8
BLACK
6
CONTINUOUS
10
134.53
20
-93.6539
11
136.53
21
-93.6539
0
LINE
8
BLACK
6
CONTINUOUS
10
136.53
20
-93.6539
11
136.53
21
-91.6539
0
LINE
8
BLACK
6
CONTINUOUS
10
122.53
20
-91.6539
11
122.53
21
-93.6539
0
LINE
8
BLACK
6
CONTINUOUS
10
122.53
20
-93.6539
11
124.53
21
-93.6539
0
LINE
8
BLACK
6
CONTINUOUS
10
124.53
20
-79.6539
11
122.53
21
-79.6539
0
LINE
8
BLACK
6
CONTINUOUS
10
122.53
20
-79.6539
11
122.53
21
-81.6539
0
LINE
8
BLACK
6
CONTINUOUS
10
120.005
20
-77.1289
11
139.055
21
-77.1289
0
LINE
8
BLACK
6
CONTINUOUS
10
139.055
20
-77.1289
11
139.055
21
-96.1789
0
LINE
8
BLACK
6
CONTINUOUS
10
139.055
20
-96.1789
11
120.005
21
-96.1789
0
LINE
8
BLACK
6
CONTINUOUS
10
120.005
20
-96.1789
11
120.005
21
-77.1289
0
LINE
8
BLACK
6
CONTINUOUS
10
177.403
20
-41.5717
11
179.403
21
-41.5717
0
LINE
8
BLACK
6
CONTINUOUS
10
179.403
20
-41.5717
11
179.403
21
-43.5717
0
LINE
8
BLACK
6
CONTINUOUS
10
177.403
20
-55.5717
11
179.403
21
-55.5717
0
LINE
8
BLACK
6
CONTINUOUS
10
179.403
20
-55.5717
11
179.403
21
-53.5717
0
LINE
8
BLACK
6
CONTINUOUS
10
165.403
20
-53.5717
11
165.403
21
-55.5717
0
LINE
8
BLACK
6
CONTINUOUS
10
165.403
20
-55.5717
11
167.403
21
-55.5717
0
LINE
8
BLACK
6
CONTINUOUS
10
167.403
20
-41.5717
11
165.403
21
-41.5717
0
LINE
8
BLACK
6
CONTINUOUS
10
165.403
20
-41.5717
11
165.403
21
-43.5717
0
LINE
8
BLACK
6
CONTINUOUS
10
162.877
20
-39.0467
11
181.927
21
-39.0467
0
LINE
8
BLACK
6
CONTINUOUS
10
181.927
20
-39.0467
11
181.927
21
-58.0967
0
LINE
8
BLACK
6
CONTINUOUS
10
181.927
20
-58.0967
11
162.877
21
-58.0967
0
LINE
8
BLACK
6
CONTINUOUS
10
162.877
20
-58.0967
11
162.877
21
-39.0467
0
LINE
8
BLACK
6
CONTINUOUS
10
39.2824
20
-41.5793
11
41.2824
21
-41.5793
0
LINE
8
BLACK
6
CONTINUOUS
10
41.2824
20
-41.5793
11
41.2824
21
-43.5793
0
LINE
8
BLACK
6
CONTINUOUS
10
39.2824
20
-55.5793
11
41.2824
21
-55.5793
0
LINE
8
BLACK
6
CONTINUOUS
10
41.2824
20
-55.5793
11
41.2824
21
-53.5793
0
LINE
8
BLACK
6
CONTINUOUS
10
27.2824
20
-53.5793
11
27.2824
21
-55.5793
0
LINE
8
BLACK
6
CONTINUOUS
10
27.2824
20
-55.5793
11
29.2824
21
-55.5793
0
LINE
8
BLACK
6
CONTINUOUS
10
29.2824
20
-41.5793
11
27.2824
21
-41.5793
0
LINE
8
BLACK
6
CONTINUOUS
10
27.2824
20
-41.5793
11
27.2824
21
-43.5793
0
LINE
8
BLACK
6
CONTINUOUS
10
19.9949
20
-39.0543
11
48.5699
21
-39.0543
0
LINE
8
BLACK
6
CONTINUOUS
10
48.5699
20
-39.0543
11
48.5699
21
-58.1043
0
LINE
8
BLACK
6
CONTINUOUS
10
48.5699
20
-58.1043
11
19.9949
21
-58.1043
0
LINE
8
BLACK
6
CONTINUOUS
10
19.9949
20
-58.1043
11
19.9949
21
-39.0543
0
LINE
8
BLACK
6
CONTINUOUS
10
139.302
20
-41.5717
11
141.302
21
-41.5717
0
LINE
8
BLACK
6
CONTINUOUS
10
141.302
20
-41.5717
11
141.302
21
-43.5717
0
LINE
8
BLACK
6
CONTINUOUS
10
139.302
20
-55.5717
11
141.302
21
-55.5717
0
LINE
8
BLACK
6
CONTINUOUS
10
141.302
20
-55.5717
11
141.302
21
-53.5717
0
LINE
8
BLACK
6
CONTINUOUS
10
127.302
20
-53.5717
11
127.302
21
-55.5717
0
LINE
8
BLACK
6
CONTINUOUS
10
127.302
20
-55.5717
11
129.302
21
-55.5717
0
LINE
8
BLACK
6
CONTINUOUS
10
129.302
20
-41.5717
11
127.302
21
-41.5717
0
LINE
8
BLACK
6
CONTINUOUS
10
127.302
20
-41.5717
11
127.302
21
-43.5717
0
LINE
8
BLACK
6
CONTINUOUS
10
124.777
20
-39.0467
11
143.827
21
-39.0467
0
LINE
8
BLACK
6
CONTINUOUS
10
143.827
20
-39.0467
11
143.827
21
-58.0967
0
LINE
8
BLACK
6
CONTINUOUS
10
143.827
20
-58.0967
11
124.777
21
-58.0967
0
LINE
8
BLACK
6
CONTINUOUS
10
124.777
20
-58.0967
11
124.777
21
-39.0467
0
LINE
8
BLACK
6
CONTINUOUS
10
248.83
20
-79.6539
11
250.83
21
-79.6539
0
LINE
8
BLACK
6
CONTINUOUS
10
250.83
20
-79.6539
11
250.83
21
-81.6539
0
LINE
8
BLACK
6
CONTINUOUS
10
248.83
20
-93.6539
11
250.83
21
-93.6539
0
LINE
8
BLACK
6
CONTINUOUS
10
250.83
20
-93.6539
11
250.83
21
-91.6539
0
LINE
8
BLACK
6
CONTINUOUS
10
236.83
20
-91.6539
11
236.83
21
-93.6539
0
LINE
8
BLACK
6
CONTINUOUS
10
236.83
20
-93.6539
11
238.83
21
-93.6539
0
LINE
8
BLACK
6
CONTINUOUS
10
238.83
20
-79.6539
11
236.83
21
-79.6539
0
LINE
8
BLACK
6
CONTINUOUS
10
236.83
20
-79.6539
11
236.83
21
-81.6539
0
LINE
8
BLACK
6
CONTINUOUS
10
234.305
20
-77.1289
11
253.355
21
-77.1289
0
LINE
8
BLACK
6
CONTINUOUS
10
253.355
20
-77.1289
11
253.355
21
-96.1789
0
LINE
8
BLACK
6
CONTINUOUS
10
253.355
20
-96.1789
11
234.305
21
-96.1789
0
LINE
8
BLACK
6
CONTINUOUS
10
234.305
20
-96.1789
11
234.305
21
-77.1289
0
LINE
8
BLACK
6
CONTINUOUS
10
46.4274
20
-79.6742
11
48.4274
21
-79.6742
0
LINE
8
BLACK
6
CONTINUOUS
10
48.4274
20
-79.6742
11
48.4274
21
-81.6742
0
LINE
8
BLACK
6
CONTINUOUS
10
46.4274
20
-93.6742
11
48.4274
21
-93.6742
0
LINE
8
BLACK
6
CONTINUOUS
10
48.4274
20
-93.6742
11
48.4274
21
-91.6742
0
LINE
8
BLACK
6
CONTINUOUS
10
34.4274
20
-91.6742
11
34.4274
21
-93.6742
0
LINE
8
BLACK
6
CONTINUOUS
10
34.4274
20
-93.6742
11
36.4274
21
-93.6742
0
LINE
8
BLACK
6
CONTINUOUS
10
36.4274
20
-79.6742
11
34.4274
21
-79.6742
0
LINE
8
BLACK
6
CONTINUOUS
10
34.4274
20
-79.6742
11
34.4274
21
-81.6742
0
LINE
8
BLACK
6
CONTINUOUS
10
19.9962
20
-77.1492
11
62.8586
21
-77.1492
0
LINE
8
BLACK
6
CONTINUOUS
10
62.8586
20
-77.1492
11
62.8586
21
-96.1992
0
LINE
8
BLACK
6
CONTINUOUS
10
19.9962
20
-96.1992
11
62.8586
21
-96.1992
0
LINE
8
BLACK
6
CONTINUOUS
10
19.9962
20
-96.1992
11
19.9962
21
-77.1492
0
LINE
8
BLACK
6
CONTINUOUS
10
284.552
20
-79.659
11
286.552
21
-79.659
0
LINE
8
BLACK
6
CONTINUOUS
10
286.552
20
-79.659
11
286.552
21
-81.659
0
LINE
8
BLACK
6
CONTINUOUS
10
284.552
20
-93.659
11
286.552
21
-93.659
0
LINE
8
BLACK
6
CONTINUOUS
10
286.552
20
-93.659
11
286.552
21
-91.659
0
LINE
8
BLACK
6
CONTINUOUS
10
272.552
20
-91.659
11
272.552
21
-93.659
0
LINE
8
BLACK
6
CONTINUOUS
10
272.552
20
-93.659
11
274.552
21
-93.659
0
LINE
8
BLACK
6
CONTINUOUS
10
274.552
20
-79.659
11
272.552
21
-79.659
0
LINE
8
BLACK
6
CONTINUOUS
10
272.552
20
-79.659
11
272.552
21
-81.659
0
LINE
8
BLACK
6
CONTINUOUS
10
253.359
20
-77.134
11
305.746
21
-77.134
0
LINE
8
BLACK
6
CONTINUOUS
10
305.746
20
-77.134
11
305.746
21
-96.184
0
LINE
8
BLACK
6
CONTINUOUS
10
253.359
20
-96.184
11
305.746
21
-96.184
0
LINE
8
BLACK
6
CONTINUOUS
10
253.359
20
-96.184
11
253.359
21
-77.134
0
LINE
8
BLACK
6
CONTINUOUS
10
239.318
20
-60.6217
11
241.318
21
-60.6217
0
LINE
8
BLACK
6
CONTINUOUS
10
241.318
20
-60.6217
11
241.318
21
-62.6217
0
LINE
8
BLACK
6
CONTINUOUS
10
239.318
20
-74.6217
11
241.318
21
-74.6217
0
LINE
8
BLACK
6
CONTINUOUS
10
241.318
20
-74.6217
11
241.318
21
-72.6217
0
LINE
8
BLACK
6
CONTINUOUS
10
227.318
20
-72.6217
11
227.318
21
-74.6217
0
LINE
8
BLACK
6
CONTINUOUS
10
227.318
20
-74.6217
11
229.318
21
-74.6217
0
LINE
8
BLACK
6
CONTINUOUS
10
229.318
20
-60.6217
11
227.318
21
-60.6217
0
LINE
8
BLACK
6
CONTINUOUS
10
227.318
20
-60.6217
11
227.318
21
-62.6217
0
LINE
8
BLACK
6
CONTINUOUS
10
224.793
20
-58.0967
11
243.843
21
-58.0967
0
LINE
8
BLACK
6
CONTINUOUS
10
243.843
20
-58.0967
11
243.843
21
-77.1467
0
LINE
8
BLACK
6
CONTINUOUS
10
243.843
20
-77.1467
11
224.793
21
-77.1467
0
LINE
8
BLACK
6
CONTINUOUS
10
224.793
20
-77.1467
11
224.793
21
-58.0967
0
LINE
8
BLACK
6
CONTINUOUS
10
86.9175
20
-60.6217
11
88.9175
21
-60.6217
0
LINE
8
BLACK
6
CONTINUOUS
10
88.9175
20
-60.6217
11
88.9175
21
-62.6217
0
LINE
8
BLACK
6
CONTINUOUS
10
86.9175
20
-74.6217
11
88.9175
21
-74.6217
0
LINE
8
BLACK
6
CONTINUOUS
10
88.9175
20
-74.6217
11
88.9175
21
-72.6217
0
LINE
8
BLACK
6
CONTINUOUS
10
74.9175
20
-72.6217
11
74.9175
21
-74.6217
0
LINE
8
BLACK
6
CONTINUOUS
10
74.9175
20
-74.6217
11
76.9175
21
-74.6217
0
LINE
8
BLACK
6
CONTINUOUS
10
76.9175
20
-60.6217
11
74.9175
21
-60.6217
0
LINE
8
BLACK
6
CONTINUOUS
10
74.9175
20
-60.6217
11
74.9175
21
-62.6217
0
LINE
8
BLACK
6
CONTINUOUS
10
72.3925
20
-58.0967
11
91.4425
21
-58.0967
0
LINE
8
BLACK
6
CONTINUOUS
10
91.4425
20
-58.0967
11
91.4425
21
-77.1467
0
LINE
8
BLACK
6
CONTINUOUS
10
91.4425
20
-77.1467
11
72.3925
21
-77.1467
0
LINE
8
BLACK
6
CONTINUOUS
10
72.3925
20
-77.1467
11
72.3925
21
-58.0967
0
LINE
8
BLACK
6
CONTINUOUS
10
120.252
20
-41.5717
11
122.252
21
-41.5717
0
LINE
8
BLACK
6
CONTINUOUS
10
122.252
20
-41.5717
11
122.252
21
-43.5717
0
LINE
8
BLACK
6
CONTINUOUS
10
120.252
20
-55.5717
11
122.252
21
-55.5717
0
LINE
8
BLACK
6
CONTINUOUS
10
122.252
20
-55.5717
11
122.252
21
-53.5717
0
LINE
8
BLACK
6
CONTINUOUS
10
108.252
20
-53.5717
11
108.252
21
-55.5717
0
LINE
8
BLACK
6
CONTINUOUS
10
108.252
20
-55.5717
11
110.252
21
-55.5717
0
LINE
8
BLACK
6
CONTINUOUS
10
110.252
20
-41.5717
11
108.252
21
-41.5717
0
LINE
8
BLACK
6
CONTINUOUS
10
108.252
20
-41.5717
11
108.252
21
-43.5717
0
LINE
8
BLACK
6
CONTINUOUS
10
105.727
20
-39.0467
11
124.777
21
-39.0467
0
LINE
8
BLACK
6
CONTINUOUS
10
124.777
20
-39.0467
11
124.777
21
-58.0967
0
LINE
8
BLACK
6
CONTINUOUS
10
124.777
20
-58.0967
11
105.727
21
-58.0967
0
LINE
8
BLACK
6
CONTINUOUS
10
105.727
20
-58.0967
11
105.727
21
-39.0467
0
LINE
8
BLACK
6
CONTINUOUS
10
258.368
20
-60.6217
11
260.368
21
-60.6217
0
LINE
8
BLACK
6
CONTINUOUS
10
260.368
20
-60.6217
11
260.368
21
-62.6217
0
LINE
8
BLACK
6
CONTINUOUS
10
258.368
20
-74.6217
11
260.368
21
-74.6217
0
LINE
8
BLACK
6
CONTINUOUS
10
260.368
20
-74.6217
11
260.368
21
-72.6217
0
LINE
8
BLACK
6
CONTINUOUS
10
246.368
20
-72.6217
11
246.368
21
-74.6217
0
LINE
8
BLACK
6
CONTINUOUS
10
246.368
20
-74.6217
11
248.368
21
-74.6217
0
LINE
8
BLACK
6
CONTINUOUS
10
248.368
20
-60.6217
11
246.368
21
-60.6217
0
LINE
8
BLACK
6
CONTINUOUS
10
246.368
20
-60.6217
11
246.368
21
-62.6217
0
LINE
8
BLACK
6
CONTINUOUS
10
243.843
20
-58.0967
11
262.893
21
-58.0967
0
LINE
8
BLACK
6
CONTINUOUS
10
262.893
20
-58.0967
11
262.893
21
-77.1467
0
LINE
8
BLACK
6
CONTINUOUS
10
262.893
20
-77.1467
11
243.843
21
-77.1467
0
LINE
8
BLACK
6
CONTINUOUS
10
243.843
20
-77.1467
11
243.843
21
-58.0967
0
LINE
8
BLACK
6
CONTINUOUS
10
63.1025
20
-41.5717
11
65.1025
21
-41.5717
0
LINE
8
BLACK
6
CONTINUOUS
10
65.1025
20
-41.5717
11
65.1025
21
-43.5717
0
LINE
8
BLACK
6
CONTINUOUS
10
63.1025
20
-55.5717
11
65.1025
21
-55.5717
0
LINE
8
BLACK
6
CONTINUOUS
10
65.1025
20
-55.5717
11
65.1025
21
-53.5717
0
LINE
8
BLACK
6
CONTINUOUS
10
51.1025
20
-53.5717
11
51.1025
21
-55.5717
0
LINE
8
BLACK
6
CONTINUOUS
10
51.1025
20
-55.5717
11
53.1025
21
-55.5717
0
LINE
8
BLACK
6
CONTINUOUS
10
53.1025
20
-41.5717
11
51.1025
21
-41.5717
0
LINE
8
BLACK
6
CONTINUOUS
10
51.1025
20
-41.5717
11
51.1025
21
-43.5717
0
LINE
8
BLACK
6
CONTINUOUS
10
48.5775
20
-39.0467
11
67.6275
21
-39.0467
0
LINE
8
BLACK
6
CONTINUOUS
10
67.6275
20
-39.0467
11
67.6275
21
-58.0967
0
LINE
8
BLACK
6
CONTINUOUS
10
67.6275
20
-58.0967
11
48.5775
21
-58.0967
0
LINE
8
BLACK
6
CONTINUOUS
10
48.5775
20
-58.0967
11
48.5775
21
-39.0467
0
LINE
8
BLACK
6
CONTINUOUS
10
234.552
20
-41.5717
11
236.552
21
-41.5717
0
LINE
8
BLACK
6
CONTINUOUS
10
236.552
20
-41.5717
11
236.552
21
-43.5717
0
LINE
8
BLACK
6
CONTINUOUS
10
234.552
20
-55.5717
11
236.552
21
-55.5717
0
LINE
8
BLACK
6
CONTINUOUS
10
236.552
20
-55.5717
11
236.552
21
-53.5717
0
LINE
8
BLACK
6
CONTINUOUS
10
222.552
20
-53.5717
11
222.552
21
-55.5717
0
LINE
8
BLACK
6
CONTINUOUS
10
222.552
20
-55.5717
11
224.552
21
-55.5717
0
LINE
8
BLACK
6
CONTINUOUS
10
224.552
20
-41.5717
11
222.552
21
-41.5717
0
LINE
8
BLACK
6
CONTINUOUS
10
222.552
20
-41.5717
11
222.552
21
-43.5717
0
LINE
8
BLACK
6
CONTINUOUS
10
220.028
20
-39.0467
11
239.077
21
-39.0467
0
LINE
8
BLACK
6
CONTINUOUS
10
239.077
20
-39.0467
11
239.077
21
-58.0967
0
LINE
8
BLACK
6
CONTINUOUS
10
239.077
20
-58.0967
11
220.028
21
-58.0967
0
LINE
8
BLACK
6
CONTINUOUS
10
220.028
20
-58.0967
11
220.028
21
-39.0467
0
LINE
8
BLACK
6
CONTINUOUS
10
215.502
20
-41.5717
11
217.502
21
-41.5717
0
LINE
8
BLACK
6
CONTINUOUS
10
217.502
20
-41.5717
11
217.502
21
-43.5717
0
LINE
8
BLACK
6
CONTINUOUS
10
215.502
20
-55.5717
11
217.502
21
-55.5717
0
LINE
8
BLACK
6
CONTINUOUS
10
217.502
20
-55.5717
11
217.502
21
-53.5717
0
LINE
8
BLACK
6
CONTINUOUS
10
203.502
20
-53.5717
11
203.502
21
-55.5717
0
LINE
8
BLACK
6
CONTINUOUS
10
203.502
20
-55.5717
11
205.502
21
-55.5717
0
LINE
8
BLACK
6
CONTINUOUS
10
205.502
20
-41.5717
11
203.502
21
-41.5717
0
LINE
8
BLACK
6
CONTINUOUS
10
203.502
20
-41.5717
11
203.502
21
-43.5717
0
LINE
8
BLACK
6
CONTINUOUS
10
200.977
20
-39.0467
11
220.028
21
-39.0467
0
LINE
8
BLACK
6
CONTINUOUS
10
220.028
20
-39.0467
11
220.028
21
-58.0967
0
LINE
8
BLACK
6
CONTINUOUS
10
220.028
20
-58.0967
11
200.977
21
-58.0967
0
LINE
8
BLACK
6
CONTINUOUS
10
200.977
20
-58.0967
11
200.977
21
-39.0467
0
LINE
8
BLACK
6
CONTINUOUS
10
172.63
20
-79.6539
11
174.63
21
-79.6539
0
LINE
8
BLACK
6
CONTINUOUS
10
174.63
20
-79.6539
11
174.63
21
-81.6539
0
LINE
8
BLACK
6
CONTINUOUS
10
172.63
20
-93.6539
11
174.63
21
-93.6539
0
LINE
8
BLACK
6
CONTINUOUS
10
174.63
20
-93.6539
11
174.63
21
-91.6539
0
LINE
8
BLACK
6
CONTINUOUS
10
160.63
20
-91.6539
11
160.63
21
-93.6539
0
LINE
8
BLACK
6
CONTINUOUS
10
160.63
20
-93.6539
11
162.63
21
-93.6539
0
LINE
8
BLACK
6
CONTINUOUS
10
162.63
20
-79.6539
11
160.63
21
-79.6539
0
LINE
8
BLACK
6
CONTINUOUS
10
160.63
20
-79.6539
11
160.63
21
-81.6539
0
LINE
8
BLACK
6
CONTINUOUS
10
158.105
20
-77.1289
11
177.155
21
-77.1289
0
LINE
8
BLACK
6
CONTINUOUS
10
177.155
20
-77.1289
11
177.155
21
-96.1789
0
LINE
8
BLACK
6
CONTINUOUS
10
177.155
20
-96.1789
11
158.105
21
-96.1789
0
LINE
8
BLACK
6
CONTINUOUS
10
158.105
20
-96.1789
11
158.105
21
-77.1289
0
LINE
8
BLACK
6
CONTINUOUS
10
244.077
20
-22.5217
11
246.077
21
-22.5217
0
LINE
8
BLACK
6
CONTINUOUS
10
246.077
20
-22.5217
11
246.077
21
-24.5217
0
LINE
8
BLACK
6
CONTINUOUS
10
244.077
20
-36.5217
11
246.077
21
-36.5217
0
LINE
8
BLACK
6
CONTINUOUS
10
246.077
20
-36.5217
11
246.077
21
-34.5217
0
LINE
8
BLACK
6
CONTINUOUS
10
232.077
20
-34.5217
11
232.077
21
-36.5217
0
LINE
8
BLACK
6
CONTINUOUS
10
232.077
20
-36.5217
11
234.077
21
-36.5217
0
LINE
8
BLACK
6
CONTINUOUS
10
234.077
20
-22.5217
11
232.077
21
-22.5217
0
LINE
8
BLACK
6
CONTINUOUS
10
232.077
20
-22.5217
11
232.077
21
-24.5217
0
LINE
8
BLACK
6
CONTINUOUS
10
229.552
20
-19.9967
11
248.602
21
-19.9967
0
LINE
8
BLACK
6
CONTINUOUS
10
248.602
20
-19.9967
11
248.602
21
-39.0467
0
LINE
8
BLACK
6
CONTINUOUS
10
248.602
20
-39.0467
11
229.552
21
-39.0467
0
LINE
8
BLACK
6
CONTINUOUS
10
229.552
20
-39.0467
11
229.552
21
-19.9967
0
LINE
8
BLACK
6
CONTINUOUS
10
275.03
20
-98.7166
11
277.03
21
-98.7166
0
LINE
8
BLACK
6
CONTINUOUS
10
277.03
20
-98.7166
11
277.03
21
-100.717
0
LINE
8
BLACK
6
CONTINUOUS
10
275.03
20
-112.717
11
277.03
21
-112.717
0
LINE
8
BLACK
6
CONTINUOUS
10
277.03
20
-112.717
11
277.03
21
-110.717
0
LINE
8
BLACK
6
CONTINUOUS
10
263.03
20
-110.717
11
263.03
21
-112.717
0
LINE
8
BLACK
6
CONTINUOUS
10
263.03
20
-112.717
11
265.03
21
-112.717
0
LINE
8
BLACK
6
CONTINUOUS
10
265.03
20
-98.7166
11
263.03
21
-98.7166
0
LINE
8
BLACK
6
CONTINUOUS
10
263.03
20
-98.7166
11
263.03
21
-100.717
0
LINE
8
BLACK
6
CONTINUOUS
10
258.124
20
-96.1916
11
281.936
21
-96.1916
0
LINE
8
BLACK
6
CONTINUOUS
10
281.936
20
-96.1916
11
281.936
21
-115.242
0
LINE
8
BLACK
6
CONTINUOUS
10
281.936
20
-115.242
11
258.124
21
-115.242
0
LINE
8
BLACK
6
CONTINUOUS
10
258.124
20
-115.242
11
258.124
21
-96.1916
0
LINE
8
BLACK
6
CONTINUOUS
10
191.68
20
-79.6539
11
193.68
21
-79.6539
0
LINE
8
BLACK
6
CONTINUOUS
10
193.68
20
-79.6539
11
193.68
21
-81.6539
0
LINE
8
BLACK
6
CONTINUOUS
10
191.68
20
-93.6539
11
193.68
21
-93.6539
0
LINE
8
BLACK
6
CONTINUOUS
10
193.68
20
-93.6539
11
193.68
21
-91.6539
0
LINE
8
BLACK
6
CONTINUOUS
10
179.68
20
-91.6539
11
179.68
21
-93.6539
0
LINE
8
BLACK
6
CONTINUOUS
10
179.68
20
-93.6539
11
181.68
21
-93.6539
0
LINE
8
BLACK
6
CONTINUOUS
10
181.68
20
-79.6539
11
179.68
21
-79.6539
0
LINE
8
BLACK
6
CONTINUOUS
10
179.68
20
-79.6539
11
179.68
21
-81.6539
0
LINE
8
BLACK
6
CONTINUOUS
10
177.155
20
-77.1289
11
196.205
21
-77.1289
0
LINE
8
BLACK
6
CONTINUOUS
10
196.205
20
-77.1289
11
196.205
21
-96.1789
0
LINE
8
BLACK
6
CONTINUOUS
10
196.205
20
-96.1789
11
177.155
21
-96.1789
0
LINE
8
BLACK
6
CONTINUOUS
10
177.155
20
-96.1789
11
177.155
21
-77.1289
0
LINE
8
BLACK
6
CONTINUOUS
10
220.268
20
-60.6217
11
222.268
21
-60.6217
0
LINE
8
BLACK
6
CONTINUOUS
10
222.268
20
-60.6217
11
222.268
21
-62.6217
0
LINE
8
BLACK
6
CONTINUOUS
10
220.268
20
-74.6217
11
222.268
21
-74.6217
0
LINE
8
BLACK
6
CONTINUOUS
10
222.268
20
-74.6217
11
222.268
21
-72.6217
0
LINE
8
BLACK
6
CONTINUOUS
10
208.268
20
-72.6217
11
208.268
21
-74.6217
0
LINE
8
BLACK
6
CONTINUOUS
10
208.268
20
-74.6217
11
210.268
21
-74.6217
0
LINE
8
BLACK
6
CONTINUOUS
10
210.268
20
-60.6217
11
208.268
21
-60.6217
0
LINE
8
BLACK
6
CONTINUOUS
10
208.268
20
-60.6217
11
208.268
21
-62.6217
0
LINE
8
BLACK
6
CONTINUOUS
10
205.743
20
-58.0967
11
224.793
21
-58.0967
0
LINE
8
BLACK
6
CONTINUOUS
10
224.793
20
-58.0967
11
224.793
21
-77.1467
0
LINE
8
BLACK
6
CONTINUOUS
10
224.793
20
-77.1467
11
205.743
21
-77.1467
0
LINE
8
BLACK
6
CONTINUOUS
10
205.743
20
-77.1467
11
205.743
21
-58.0967
0
LINE
8
BLACK
6
CONTINUOUS
10
201.218
20
-60.6217
11
203.218
21
-60.6217
0
LINE
8
BLACK
6
CONTINUOUS
10
203.218
20
-60.6217
11
203.218
21
-62.6217
0
LINE
8
BLACK
6
CONTINUOUS
10
201.218
20
-74.6217
11
203.218
21
-74.6217
0
LINE
8
BLACK
6
CONTINUOUS
10
203.218
20
-74.6217
11
203.218
21
-72.6217
0
LINE
8
BLACK
6
CONTINUOUS
10
189.218
20
-72.6217
11
189.218
21
-74.6217
0
LINE
8
BLACK
6
CONTINUOUS
10
189.218
20
-74.6217
11
191.218
21
-74.6217
0
LINE
8
BLACK
6
CONTINUOUS
10
191.218
20
-60.6217
11
189.218
21
-60.6217
0
LINE
8
BLACK
6
CONTINUOUS
10
189.218
20
-60.6217
11
189.218
21
-62.6217
0
LINE
8
BLACK
6
CONTINUOUS
10
186.693
20
-58.0967
11
205.743
21
-58.0967
0
LINE
8
BLACK
6
CONTINUOUS
10
205.743
20
-58.0967
11
205.743
21
-77.1467
0
LINE
8
BLACK
6
CONTINUOUS
10
205.743
20
-77.1467
11
186.693
21
-77.1467
0
LINE
8
BLACK
6
CONTINUOUS
10
186.693
20
-77.1467
11
186.693
21
-58.0967
0
LINE
8
BLACK
6
CONTINUOUS
10
182.168
20
-60.6217
11
184.168
21
-60.6217
0
LINE
8
BLACK
6
CONTINUOUS
10
184.168
20
-60.6217
11
184.168
21
-62.6217
0
LINE
8
BLACK
6
CONTINUOUS
10
182.168
20
-74.6217
11
184.168
21
-74.6217
0
LINE
8
BLACK
6
CONTINUOUS
10
184.168
20
-74.6217
11
184.168
21
-72.6217
0
LINE
8
BLACK
6
CONTINUOUS
10
170.168
20
-72.6217
11
170.168
21
-74.6217
0
LINE
8
BLACK
6
CONTINUOUS
10
170.168
20
-74.6217
11
172.168
21
-74.6217
0
LINE
8
BLACK
6
CONTINUOUS
10
172.168
20
-60.6217
11
170.168
21
-60.6217
0
LINE
8
BLACK
6
CONTINUOUS
10
170.168
20
-60.6217
11
170.168
21
-62.6217
0
LINE
8
BLACK
6
CONTINUOUS
10
167.643
20
-58.0967
11
186.693
21
-58.0967
0
LINE
8
BLACK
6
CONTINUOUS
10
186.693
20
-58.0967
11
186.693
21
-77.1467
0
LINE
8
BLACK
6
CONTINUOUS
10
186.693
20
-77.1467
11
167.643
21
-77.1467
0
LINE
8
BLACK
6
CONTINUOUS
10
167.643
20
-77.1467
11
167.643
21
-58.0967
0
LINE
8
BLACK
6
CONTINUOUS
10
196.452
20
-41.5717
11
198.452
21
-41.5717
0
LINE
8
BLACK
6
CONTINUOUS
10
198.452
20
-41.5717
11
198.452
21
-43.5717
0
LINE
8
BLACK
6
CONTINUOUS
10
196.452
20
-55.5717
11
198.452
21
-55.5717
0
LINE
8
BLACK
6
CONTINUOUS
10
198.452
20
-55.5717
11
198.452
21
-53.5717
0
LINE
8
BLACK
6
CONTINUOUS
10
184.452
20
-53.5717
11
184.452
21
-55.5717
0
LINE
8
BLACK
6
CONTINUOUS
10
184.452
20
-55.5717
11
186.452
21
-55.5717
0
LINE
8
BLACK
6
CONTINUOUS
10
186.452
20
-41.5717
11
184.452
21
-41.5717
0
LINE
8
BLACK
6
CONTINUOUS
10
184.452
20
-41.5717
11
184.452
21
-43.5717
0
LINE
8
BLACK
6
CONTINUOUS
10
181.927
20
-39.0467
11
200.977
21
-39.0467
0
LINE
8
BLACK
6
CONTINUOUS
10
200.977
20
-39.0467
11
200.977
21
-58.0967
0
LINE
8
BLACK
6
CONTINUOUS
10
200.977
20
-58.0967
11
181.927
21
-58.0967
0
LINE
8
BLACK
6
CONTINUOUS
10
181.927
20
-58.0967
11
181.927
21
-39.0467
0
LINE
8
BLACK
6
CONTINUOUS
10
163.118
20
-60.6217
11
165.118
21
-60.6217
0
LINE
8
BLACK
6
CONTINUOUS
10
165.118
20
-60.6217
11
165.118
21
-62.6217
0
LINE
8
BLACK
6
CONTINUOUS
10
163.118
20
-74.6217
11
165.118
21
-74.6217
0
LINE
8
BLACK
6
CONTINUOUS
10
165.118
20
-74.6217
11
165.118
21
-72.6217
0
LINE
8
BLACK
6
CONTINUOUS
10
151.118
20
-72.6217
11
151.118
21
-74.6217
0
LINE
8
BLACK
6
CONTINUOUS
10
151.118
20
-74.6217
11
153.118
21
-74.6217
0
LINE
8
BLACK
6
CONTINUOUS
10
153.118
20
-60.6217
11
151.118
21
-60.6217
0
LINE
8
BLACK
6
CONTINUOUS
10
151.118
20
-60.6217
11
151.118
21
-62.6217
0
LINE
8
BLACK
6
CONTINUOUS
10
148.593
20
-58.0967
11
167.643
21
-58.0967
0
LINE
8
BLACK
6
CONTINUOUS
10
167.643
20
-58.0967
11
167.643
21
-77.1467
0
LINE
8
BLACK
6
CONTINUOUS
10
167.643
20
-77.1467
11
148.593
21
-77.1467
0
LINE
8
BLACK
6
CONTINUOUS
10
148.593
20
-77.1467
11
148.593
21
-58.0967
0
LINE
8
BLACK
6
CONTINUOUS
10
144.068
20
-60.6217
11
146.068
21
-60.6217
0
LINE
8
BLACK
6
CONTINUOUS
10
146.068
20
-60.6217
11
146.068
21
-62.6217
0
LINE
8
BLACK
6
CONTINUOUS
10
144.068
20
-74.6217
11
146.068
21
-74.6217
0
LINE
8
BLACK
6
CONTINUOUS
10
146.068
20
-74.6217
11
146.068
21
-72.6217
0
LINE
8
BLACK
6
CONTINUOUS
10
132.068
20
-72.6217
11
132.068
21
-74.6217
0
LINE
8
BLACK
6
CONTINUOUS
10
132.068
20
-74.6217
11
134.068
21
-74.6217
0
LINE
8
BLACK
6
CONTINUOUS
10
134.068
20
-60.6217
11
132.068
21
-60.6217
0
LINE
8
BLACK
6
CONTINUOUS
10
132.068
20
-60.6217
11
132.068
21
-62.6217
0
LINE
8
BLACK
6
CONTINUOUS
10
129.543
20
-58.0967
11
148.593
21
-58.0967
0
LINE
8
BLACK
6
CONTINUOUS
10
148.593
20
-58.0967
11
148.593
21
-77.1467
0
LINE
8
BLACK
6
CONTINUOUS
10
148.593
20
-77.1467
11
129.543
21
-77.1467
0
LINE
8
BLACK
6
CONTINUOUS
10
129.543
20
-77.1467
11
129.543
21
-58.0967
0
LINE
8
BLACK
6
CONTINUOUS
10
125.018
20
-60.6217
11
127.018
21
-60.6217
0
LINE
8
BLACK
6
CONTINUOUS
10
127.018
20
-60.6217
11
127.018
21
-62.6217
0
LINE
8
BLACK
6
CONTINUOUS
10
125.018
20
-74.6217
11
127.018
21
-74.6217
0
LINE
8
BLACK
6
CONTINUOUS
10
127.018
20
-74.6217
11
127.018
21
-72.6217
0
LINE
8
BLACK
6
CONTINUOUS
10
113.018
20
-72.6217
11
113.018
21
-74.6217
0
LINE
8
BLACK
6
CONTINUOUS
10
113.018
20
-74.6217
11
115.018
21
-74.6217
0
LINE
8
BLACK
6
CONTINUOUS
10
115.018
20
-60.6217
11
113.018
21
-60.6217
0
LINE
8
BLACK
6
CONTINUOUS
10
113.018
20
-60.6217
11
113.018
21
-62.6217
0
LINE
8
BLACK
6
CONTINUOUS
10
110.493
20
-58.0967
11
129.543
21
-58.0967
0
LINE
8
BLACK
6
CONTINUOUS
10
129.543
20
-58.0967
11
129.543
21
-77.1467
0
LINE
8
BLACK
6
CONTINUOUS
10
129.543
20
-77.1467
11
110.493
21
-77.1467
0
LINE
8
BLACK
6
CONTINUOUS
10
110.493
20
-77.1467
11
110.493
21
-58.0967
0
LINE
8
BLACK
6
CONTINUOUS
10
34.5275
20
-22.5217
11
36.5275
21
-22.5217
0
LINE
8
BLACK
6
CONTINUOUS
10
36.5275
20
-22.5217
11
36.5275
21
-24.5217
0
LINE
8
BLACK
6
CONTINUOUS
10
34.5275
20
-36.5217
11
36.5275
21
-36.5217
0
LINE
8
BLACK
6
CONTINUOUS
10
36.5275
20
-36.5217
11
36.5275
21
-34.5217
0
LINE
8
BLACK
6
CONTINUOUS
10
22.5275
20
-34.5217
11
22.5275
21
-36.5217
0
LINE
8
BLACK
6
CONTINUOUS
10
22.5275
20
-36.5217
11
24.5275
21
-36.5217
0
LINE
8
BLACK
6
CONTINUOUS
10
24.5275
20
-22.5217
11
22.5275
21
-22.5217
0
LINE
8
BLACK
6
CONTINUOUS
10
22.5275
20
-22.5217
11
22.5275
21
-24.5217
0
LINE
8
BLACK
6
CONTINUOUS
10
20.0025
20
-19.9967
11
39.0525
21
-19.9967
0
LINE
8
BLACK
6
CONTINUOUS
10
39.0525
20
-19.9967
11
39.0525
21
-39.0467
0
LINE
8
BLACK
6
CONTINUOUS
10
39.0525
20
-39.0467
11
20.0025
21
-39.0467
0
LINE
8
BLACK
6
CONTINUOUS
10
20.0025
20
-39.0467
11
20.0025
21
-19.9967
0
LINE
8
BLACK
6
CONTINUOUS
10
263.127
20
-22.5217
11
265.127
21
-22.5217
0
LINE
8
BLACK
6
CONTINUOUS
10
265.127
20
-22.5217
11
265.127
21
-24.5217
0
LINE
8
BLACK
6
CONTINUOUS
10
263.127
20
-36.5217
11
265.127
21
-36.5217
0
LINE
8
BLACK
6
CONTINUOUS
10
265.127
20
-36.5217
11
265.127
21
-34.5217
0
LINE
8
BLACK
6
CONTINUOUS
10
251.127
20
-34.5217
11
251.127
21
-36.5217
0
LINE
8
BLACK
6
CONTINUOUS
10
251.127
20
-36.5217
11
253.127
21
-36.5217
0
LINE
8
BLACK
6
CONTINUOUS
10
253.127
20
-22.5217
11
251.127
21
-22.5217
0
LINE
8
BLACK
6
CONTINUOUS
10
251.127
20
-22.5217
11
251.127
21
-24.5217
0
LINE
8
BLACK
6
CONTINUOUS
10
248.602
20
-19.9967
11
267.652
21
-19.9967
0
LINE
8
BLACK
6
CONTINUOUS
10
267.652
20
-19.9967
11
267.652
21
-39.0467
0
LINE
8
BLACK
6
CONTINUOUS
10
267.652
20
-39.0467
11
248.602
21
-39.0467
0
LINE
8
BLACK
6
CONTINUOUS
10
248.602
20
-39.0467
11
248.602
21
-19.9967
0
LINE
8
BLACK
6
CONTINUOUS
10
289.34
20
-60.6191
11
291.34
21
-60.6191
0
LINE
8
BLACK
6
CONTINUOUS
10
291.34
20
-60.6191
11
291.34
21
-62.6191
0
LINE
8
BLACK
6
CONTINUOUS
10
289.34
20
-74.6191
11
291.34
21
-74.6191
0
LINE
8
BLACK
6
CONTINUOUS
10
291.34
20
-74.6191
11
291.34
21
-72.6191
0
LINE
8
BLACK
6
CONTINUOUS
10
277.34
20
-72.6191
11
277.34
21
-74.6191
0
LINE
8
BLACK
6
CONTINUOUS
10
277.34
20
-74.6191
11
279.34
21
-74.6191
0
LINE
8
BLACK
6
CONTINUOUS
10
279.34
20
-60.6191
11
277.34
21
-60.6191
0
LINE
8
BLACK
6
CONTINUOUS
10
277.34
20
-60.6191
11
277.34
21
-62.6191
0
LINE
8
BLACK
6
CONTINUOUS
10
262.909
20
-58.0941
11
305.772
21
-58.0941
0
LINE
8
BLACK
6
CONTINUOUS
10
305.772
20
-58.0941
11
305.772
21
-77.1441
0
LINE
8
BLACK
6
CONTINUOUS
10
262.909
20
-77.1441
11
305.772
21
-77.1441
0
LINE
8
BLACK
6
CONTINUOUS
10
262.909
20
-77.1441
11
262.909
21
-58.0941
0
LINE
8
BLACK
6
CONTINUOUS
10
101.203
20
-41.5717
11
103.203
21
-41.5717
0
LINE
8
BLACK
6
CONTINUOUS
10
103.203
20
-41.5717
11
103.203
21
-43.5717
0
LINE
8
BLACK
6
CONTINUOUS
10
101.203
20
-55.5717
11
103.203
21
-55.5717
0
LINE
8
BLACK
6
CONTINUOUS
10
103.203
20
-55.5717
11
103.203
21
-53.5717
0
LINE
8
BLACK
6
CONTINUOUS
10
89.2025
20
-53.5717
11
89.2025
21
-55.5717
0
LINE
8
BLACK
6
CONTINUOUS
10
89.2025
20
-55.5717
11
91.2025
21
-55.5717
0
LINE
8
BLACK
6
CONTINUOUS
10
91.2025
20
-41.5717
11
89.2025
21
-41.5717
0
LINE
8
BLACK
6
CONTINUOUS
10
89.2025
20
-41.5717
11
89.2025
21
-43.5717
0
LINE
8
BLACK
6
CONTINUOUS
10
86.6775
20
-39.0467
11
105.727
21
-39.0467
0
LINE
8
BLACK
6
CONTINUOUS
10
105.727
20
-39.0467
11
105.727
21
-58.0967
0
LINE
8
BLACK
6
CONTINUOUS
10
105.727
20
-58.0967
11
86.6775
21
-58.0967
0
LINE
8
BLACK
6
CONTINUOUS
10
86.6775
20
-58.0967
11
86.6775
21
-39.0467
0
LINE
8
BLACK
6
CONTINUOUS
10
229.78
20
-79.6539
11
231.78
21
-79.6539
0
LINE
8
BLACK
6
CONTINUOUS
10
231.78
20
-79.6539
11
231.78
21
-81.6539
0
LINE
8
BLACK
6
CONTINUOUS
10
229.78
20
-93.6539
11
231.78
21
-93.6539
0
LINE
8
BLACK
6
CONTINUOUS
10
231.78
20
-93.6539
11
231.78
21
-91.6539
0
LINE
8
BLACK
6
CONTINUOUS
10
217.78
20
-91.6539
11
217.78
21
-93.6539
0
LINE
8
BLACK
6
CONTINUOUS
10
217.78
20
-93.6539
11
219.78
21
-93.6539
0
LINE
8
BLACK
6
CONTINUOUS
10
219.78
20
-79.6539
11
217.78
21
-79.6539
0
LINE
8
BLACK
6
CONTINUOUS
10
217.78
20
-79.6539
11
217.78
21
-81.6539
0
LINE
8
BLACK
6
CONTINUOUS
10
215.255
20
-77.1289
11
234.305
21
-77.1289
0
LINE
8
BLACK
6
CONTINUOUS
10
234.305
20
-77.1289
11
234.305
21
-96.1789
0
LINE
8
BLACK
6
CONTINUOUS
10
234.305
20
-96.1789
11
215.255
21
-96.1789
0
LINE
8
BLACK
6
CONTINUOUS
10
215.255
20
-96.1789
11
215.255
21
-77.1289
0
LINE
8
BLACK
6
CONTINUOUS
10
105.968
20
-60.6217
11
107.968
21
-60.6217
0
LINE
8
BLACK
6
CONTINUOUS
10
107.968
20
-60.6217
11
107.968
21
-62.6217
0
LINE
8
BLACK
6
CONTINUOUS
10
105.968
20
-74.6217
11
107.968
21
-74.6217
0
LINE
8
BLACK
6
CONTINUOUS
10
107.968
20
-74.6217
11
107.968
21
-72.6217
0
LINE
8
BLACK
6
CONTINUOUS
10
93.9675
20
-72.6217
11
93.9675
21
-74.6217
0
LINE
8
BLACK
6
CONTINUOUS
10
93.9675
20
-74.6217
11
95.9675
21
-74.6217
0
LINE
8
BLACK
6
CONTINUOUS
10
95.9675
20
-60.6217
11
93.9675
21
-60.6217
0
LINE
8
BLACK
6
CONTINUOUS
10
93.9675
20
-60.6217
11
93.9675
21
-62.6217
0
LINE
8
BLACK
6
CONTINUOUS
10
91.4425
20
-58.0967
11
110.493
21
-58.0967
0
LINE
8
BLACK
6
CONTINUOUS
10
110.493
20
-58.0967
11
110.493
21
-77.1467
0
LINE
8
BLACK
6
CONTINUOUS
10
110.493
20
-77.1467
11
91.4425
21
-77.1467
0
LINE
8
BLACK
6
CONTINUOUS
10
91.4425
20
-77.1467
11
91.4425
21
-58.0967
0
LINE
8
BLACK
6
CONTINUOUS
10
36.9151
20
-98.7166
11
38.9151
21
-98.7166
0
LINE
8
BLACK
6
CONTINUOUS
10
38.9151
20
-98.7166
11
38.9151
21
-100.717
0
LINE
8
BLACK
6
CONTINUOUS
10
36.9151
20
-112.717
11
38.9151
21
-112.717
0
LINE
8
BLACK
6
CONTINUOUS
10
38.9151
20
-112.717
11
38.9151
21
-110.717
0
LINE
8
BLACK
6
CONTINUOUS
10
24.9151
20
-110.717
11
24.9151
21
-112.717
0
LINE
8
BLACK
6
CONTINUOUS
10
24.9151
20
-112.717
11
26.9151
21
-112.717
0
LINE
8
BLACK
6
CONTINUOUS
10
26.9151
20
-98.7166
11
24.9151
21
-98.7166
0
LINE
8
BLACK
6
CONTINUOUS
10
24.9151
20
-98.7166
11
24.9151
21
-100.717
0
LINE
8
BLACK
6
CONTINUOUS
10
20.0088
20
-96.1916
11
43.8213
21
-96.1916
0
LINE
8
BLACK
6
CONTINUOUS
10
43.8213
20
-96.1916
11
43.8213
21
-115.242
0
LINE
8
BLACK
6
CONTINUOUS
10
43.8213
20
-115.242
11
20.0088
21
-115.242
0
LINE
8
BLACK
6
CONTINUOUS
10
20.0088
20
-115.242
11
20.0088
21
-96.1916
0
LINE
8
BLACK
6
CONTINUOUS
10
298.835
20
-98.7166
11
300.835
21
-98.7166
0
LINE
8
BLACK
6
CONTINUOUS
10
300.835
20
-98.7166
11
300.835
21
-100.717
0
LINE
8
BLACK
6
CONTINUOUS
10
298.835
20
-112.717
11
300.835
21
-112.717
0
LINE
8
BLACK
6
CONTINUOUS
10
300.835
20
-112.717
11
300.835
21
-110.717
0
LINE
8
BLACK
6
CONTINUOUS
10
286.835
20
-110.717
11
286.835
21
-112.717
0
LINE
8
BLACK
6
CONTINUOUS
10
286.835
20
-112.717
11
288.835
21
-112.717
0
LINE
8
BLACK
6
CONTINUOUS
10
288.835
20
-98.7166
11
286.835
21
-98.7166
0
LINE
8
BLACK
6
CONTINUOUS
10
286.835
20
-98.7166
11
286.835
21
-100.717
0
LINE
8
BLACK
6
CONTINUOUS
10
281.929
20
-96.1916
11
305.741
21
-96.1916
0
LINE
8
BLACK
6
CONTINUOUS
10
305.741
20
-96.1916
11
305.741
21
-115.242
0
LINE
8
BLACK
6
CONTINUOUS
10
305.741
20
-115.242
11
281.929
21
-115.242
0
LINE
8
BLACK
6
CONTINUOUS
10
281.929
20
-115.242
11
281.929
21
-96.1916
0
LINE
8
BLACK
6
CONTINUOUS
10
210.73
20
-79.6539
11
212.73
21
-79.6539
0
LINE
8
BLACK
6
CONTINUOUS
10
212.73
20
-79.6539
11
212.73
21
-81.6539
0
LINE
8
BLACK
6
CONTINUOUS
10
210.73
20
-93.6539
11
212.73
21
-93.6539
0
LINE
8
BLACK
6
CONTINUOUS
10
212.73
20
-93.6539
11
212.73
21
-91.6539
0
LINE
8
BLACK
6
CONTINUOUS
10
198.73
20
-91.6539
11
198.73
21
-93.6539
0
LINE
8
BLACK
6
CONTINUOUS
10
198.73
20
-93.6539
11
200.73
21
-93.6539
0
LINE
8
BLACK
6
CONTINUOUS
10
200.73
20
-79.6539
11
198.73
21
-79.6539
0
LINE
8
BLACK
6
CONTINUOUS
10
198.73
20
-79.6539
11
198.73
21
-81.6539
0
LINE
8
BLACK
6
CONTINUOUS
10
196.205
20
-77.1289
11
215.255
21
-77.1289
0
LINE
8
BLACK
6
CONTINUOUS
10
215.255
20
-77.1289
11
215.255
21
-96.1789
0
LINE
8
BLACK
6
CONTINUOUS
10
215.255
20
-96.1789
11
196.205
21
-96.1789
0
LINE
8
BLACK
6
CONTINUOUS
10
196.205
20
-96.1789
11
196.205
21
-77.1289
0
LINE
8
BLACK
6
CONTINUOUS
10
41.6649
20
-60.6318
11
43.6649
21
-60.6318
0
LINE
8
BLACK
6
CONTINUOUS
10
43.6649
20
-60.6318
11
43.6649
21
-62.6318
0
LINE
8
BLACK
6
CONTINUOUS
10
41.6649
20
-74.6318
11
43.6649
21
-74.6318
0
LINE
8
BLACK
6
CONTINUOUS
10
43.6649
20
-74.6318
11
43.6649
21
-72.6318
0
LINE
8
BLACK
6
CONTINUOUS
10
29.6649
20
-72.6318
11
29.6649
21
-74.6318
0
LINE
8
BLACK
6
CONTINUOUS
10
29.6649
20
-74.6318
11
31.6649
21
-74.6318
0
LINE
8
BLACK
6
CONTINUOUS
10
31.6649
20
-60.6318
11
29.6649
21
-60.6318
0
LINE
8
BLACK
6
CONTINUOUS
10
29.6649
20
-60.6318
11
29.6649
21
-62.6318
0
LINE
8
BLACK
6
CONTINUOUS
10
19.9962
20
-58.1068
11
53.3336
21
-58.1068
0
LINE
8
BLACK
6
CONTINUOUS
10
53.3336
20
-58.1068
11
53.3336
21
-77.1568
0
LINE
8
BLACK
6
CONTINUOUS
10
53.3336
20
-77.1568
11
19.9962
21
-77.1568
0
LINE
8
BLACK
6
CONTINUOUS
10
19.9962
20
-77.1568
11
19.9962
21
-58.1068
0
LINE
8
BLACK
6
CONTINUOUS
10
115.48
20
-79.6539
11
117.48
21
-79.6539
0
LINE
8
BLACK
6
CONTINUOUS
10
117.48
20
-79.6539
11
117.48
21
-81.6539
0
LINE
8
BLACK
6
CONTINUOUS
10
115.48
20
-93.6539
11
117.48
21
-93.6539
0
LINE
8
BLACK
6
CONTINUOUS
10
117.48
20
-93.6539
11
117.48
21
-91.6539
0
LINE
8
BLACK
6
CONTINUOUS
10
103.48
20
-91.6539
11
103.48
21
-93.6539
0
LINE
8
BLACK
6
CONTINUOUS
10
103.48
20
-93.6539
11
105.48
21
-93.6539
0
LINE
8
BLACK
6
CONTINUOUS
10
105.48
20
-79.6539
11
103.48
21
-79.6539
0
LINE
8
BLACK
6
CONTINUOUS
10
103.48
20
-79.6539
11
103.48
21
-81.6539
0
LINE
8
BLACK
6
CONTINUOUS
10
100.955
20
-77.1289
11
120.005
21
-77.1289
0
LINE
8
BLACK
6
CONTINUOUS
10
120.005
20
-77.1289
11
120.005
21
-96.1789
0
LINE
8
BLACK
6
CONTINUOUS
10
120.005
20
-96.1789
11
100.955
21
-96.1789
0
LINE
8
BLACK
6
CONTINUOUS
10
100.955
20
-96.1789
11
100.955
21
-77.1289
0
LINE
8
BLACK
6
CONTINUOUS
10
296.472
20
-41.5867
11
298.472
21
-41.5867
0
LINE
8
BLACK
6
CONTINUOUS
10
298.472
20
-41.5867
11
298.472
21
-43.5867
0
LINE
8
BLACK
6
CONTINUOUS
10
296.472
20
-55.5867
11
298.472
21
-55.5867
0
LINE
8
BLACK
6
CONTINUOUS
10
298.472
20
-55.5867
11
298.472
21
-53.5867
0
LINE
8
BLACK
6
CONTINUOUS
10
284.472
20
-53.5867
11
284.472
21
-55.5867
0
LINE
8
BLACK
6
CONTINUOUS
10
284.472
20
-55.5867
11
286.472
21
-55.5867
0
LINE
8
BLACK
6
CONTINUOUS
10
286.472
20
-41.5867
11
284.472
21
-41.5867
0
LINE
8
BLACK
6
CONTINUOUS
10
284.472
20
-41.5867
11
284.472
21
-43.5867
0
LINE
8
BLACK
6
CONTINUOUS
10
277.185
20
-39.0617
11
305.76
21
-39.0617
0
LINE
8
BLACK
6
CONTINUOUS
10
305.76
20
-39.0617
11
305.76
21
-58.1117
0
LINE
8
BLACK
6
CONTINUOUS
10
305.76
20
-58.1117
11
277.185
21
-58.1117
0
LINE
8
BLACK
6
CONTINUOUS
10
277.185
20
-58.1117
11
277.185
21
-39.0617
0
LINE
8
BLACK
6
CONTINUOUS
10
291.702
20
-22.5217
11
293.702
21
-22.5217
0
LINE
8
BLACK
6
CONTINUOUS
10
293.702
20
-22.5217
11
293.702
21
-24.5217
0
LINE
8
BLACK
6
CONTINUOUS
10
291.702
20
-36.5217
11
293.702
21
-36.5217
0
LINE
8
BLACK
6
CONTINUOUS
10
293.702
20
-36.5217
11
293.702
21
-34.5217
0
LINE
8
BLACK
6
CONTINUOUS
10
279.702
20
-34.5217
11
279.702
21
-36.5217
0
LINE
8
BLACK
6
CONTINUOUS
10
279.702
20
-36.5217
11
281.702
21
-36.5217
0
LINE
8
BLACK
6
CONTINUOUS
10
281.702
20
-22.5217
11
279.702
21
-22.5217
0
LINE
8
BLACK
6
CONTINUOUS
10
279.702
20
-22.5217
11
279.702
21
-24.5217
0
LINE
8
BLACK
6
CONTINUOUS
10
267.652
20
-19.9967
11
305.752
21
-19.9967
0
LINE
8
BLACK
6
CONTINUOUS
10
305.752
20
-19.9967
11
305.752
21
-39.0467
0
LINE
8
BLACK
6
CONTINUOUS
10
267.652
20
-39.0467
11
305.752
21
-39.0467
0
LINE
8
BLACK
6
CONTINUOUS
10
267.652
20
-39.0467
11
267.652
21
-19.9967
0
LINE
8
BLACK
6
CONTINUOUS
10
153.58
20
-79.6539
11
155.58
21
-79.6539
0
LINE
8
BLACK
6
CONTINUOUS
10
155.58
20
-79.6539
11
155.58
21
-81.6539
0
LINE
8
BLACK
6
CONTINUOUS
10
153.58
20
-93.6539
11
155.58
21
-93.6539
0
LINE
8
BLACK
6
CONTINUOUS
10
155.58
20
-93.6539
11
155.58
21
-91.6539
0
LINE
8
BLACK
6
CONTINUOUS
10
141.58
20
-91.6539
11
141.58
21
-93.6539
0
LINE
8
BLACK
6
CONTINUOUS
10
141.58
20
-93.6539
11
143.58
21
-93.6539
0
LINE
8
BLACK
6
CONTINUOUS
10
143.58
20
-79.6539
11
141.58
21
-79.6539
0
LINE
8
BLACK
6
CONTINUOUS
10
141.58
20
-79.6539
11
141.58
21
-81.6539
0
LINE
8
BLACK
6
CONTINUOUS
10
139.055
20
-77.1289
11
158.105
21
-77.1289
0
LINE
8
BLACK
6
CONTINUOUS
10
158.105
20
-77.1289
11
158.105
21
-96.1789
0
LINE
8
BLACK
6
CONTINUOUS
10
158.105
20
-96.1789
11
139.055
21
-96.1789
0
LINE
8
BLACK
6
CONTINUOUS
10
139.055
20
-96.1789
11
139.055
21
-77.1289
0
LINE
8
BLACK
6
CONTINUOUS
10
84.5731
20
-98.7166
11
86.5731
21
-98.7166
0
LINE
8
BLACK
6
CONTINUOUS
10
86.5731
20
-98.7166
11
86.5731
21
-100.717
0
LINE
8
BLACK
6
CONTINUOUS
10
84.5731
20
-112.717
11
86.5731
21
-112.717
0
LINE
8
BLACK
6
CONTINUOUS
10
86.5731
20
-112.717
11
86.5731
21
-110.717
0
LINE
8
BLACK
6
CONTINUOUS
10
72.5731
20
-110.717
11
72.5731
21
-112.717
0
LINE
8
BLACK
6
CONTINUOUS
10
72.5731
20
-112.717
11
74.5731
21
-112.717
0
LINE
8
BLACK
6
CONTINUOUS
10
74.5731
20
-98.7166
11
72.5731
21
-98.7166
0
LINE
8
BLACK
6
CONTINUOUS
10
72.5731
20
-98.7166
11
72.5731
21
-100.717
0
LINE
8
BLACK
6
CONTINUOUS
10
67.6669
20
-96.1916
11
91.4794
21
-96.1916
0
LINE
8
BLACK
6
CONTINUOUS
10
91.4794
20
-96.1916
11
91.4794
21
-115.242
0
LINE
8
BLACK
6
CONTINUOUS
10
91.4794
20
-115.242
11
67.6669
21
-115.242
0
LINE
8
BLACK
6
CONTINUOUS
10
67.6669
20
-115.242
11
67.6669
21
-96.1916
0
LINE
8
BLACK
6
CONTINUOUS
10
227.453
20
-98.6963
11
229.453
21
-98.6963
0
LINE
8
BLACK
6
CONTINUOUS
10
229.453
20
-98.6963
11
229.453
21
-100.696
0
LINE
8
BLACK
6
CONTINUOUS
10
227.453
20
-112.696
11
229.453
21
-112.696
0
LINE
8
BLACK
6
CONTINUOUS
10
229.453
20
-112.696
11
229.453
21
-110.696
0
LINE
8
BLACK
6
CONTINUOUS
10
215.453
20
-110.696
11
215.453
21
-112.696
0
LINE
8
BLACK
6
CONTINUOUS
10
215.453
20
-112.696
11
217.453
21
-112.696
0
LINE
8
BLACK
6
CONTINUOUS
10
217.453
20
-98.6963
11
215.453
21
-98.6963
0
LINE
8
BLACK
6
CONTINUOUS
10
215.453
20
-98.6963
11
215.453
21
-100.696
0
LINE
8
BLACK
6
CONTINUOUS
10
210.547
20
-96.1713
11
234.359
21
-96.1713
0
LINE
8
BLACK
6
CONTINUOUS
10
234.359
20
-96.1713
11
234.359
21
-115.221
0
LINE
8
BLACK
6
CONTINUOUS
10
234.359
20
-115.221
11
210.547
21
-115.221
0
LINE
8
BLACK
6
CONTINUOUS
10
210.547
20
-115.221
11
210.547
21
-96.1713
0
LINE
8
BLACK
6
CONTINUOUS
10
67.8675
20
-60.6217
11
69.8675
21
-60.6217
0
LINE
8
BLACK
6
CONTINUOUS
10
69.8675
20
-60.6217
11
69.8675
21
-62.6217
0
LINE
8
BLACK
6
CONTINUOUS
10
67.8675
20
-74.6217
11
69.8675
21
-74.6217
0
LINE
8
BLACK
6
CONTINUOUS
10
69.8675
20
-74.6217
11
69.8675
21
-72.6217
0
LINE
8
BLACK
6
CONTINUOUS
10
55.8675
20
-72.6217
11
55.8675
21
-74.6217
0
LINE
8
BLACK
6
CONTINUOUS
10
55.8675
20
-74.6217
11
57.8675
21
-74.6217
0
LINE
8
BLACK
6
CONTINUOUS
10
57.8675
20
-60.6217
11
55.8675
21
-60.6217
0
LINE
8
BLACK
6
CONTINUOUS
10
55.8675
20
-60.6217
11
55.8675
21
-62.6217
0
LINE
8
BLACK
6
CONTINUOUS
10
53.3425
20
-58.0967
11
72.3925
21
-58.0967
0
LINE
8
BLACK
6
CONTINUOUS
10
72.3925
20
-58.0967
11
72.3925
21
-77.1467
0
LINE
8
BLACK
6
CONTINUOUS
10
72.3925
20
-77.1467
11
53.3425
21
-77.1467
0
LINE
8
BLACK
6
CONTINUOUS
10
53.3425
20
-77.1467
11
53.3425
21
-58.0967
0
LINE
8
BLACK
6
CONTINUOUS
10
272.652
20
-41.5717
11
274.652
21
-41.5717
0
LINE
8
BLACK
6
CONTINUOUS
10
274.652
20
-41.5717
11
274.652
21
-43.5717
0
LINE
8
BLACK
6
CONTINUOUS
10
272.652
20
-55.5717
11
274.652
21
-55.5717
0
LINE
8
BLACK
6
CONTINUOUS
10
274.652
20
-55.5717
11
274.652
21
-53.5717
0
LINE
8
BLACK
6
CONTINUOUS
10
260.652
20
-53.5717
11
260.652
21
-55.5717
0
LINE
8
BLACK
6
CONTINUOUS
10
260.652
20
-55.5717
11
262.652
21
-55.5717
0
LINE
8
BLACK
6
CONTINUOUS
10
262.652
20
-41.5717
11
260.652
21
-41.5717
0
LINE
8
BLACK
6
CONTINUOUS
10
260.652
20
-41.5717
11
260.652
21
-43.5717
0
LINE
8
BLACK
6
CONTINUOUS
10
258.127
20
-39.0467
11
277.178
21
-39.0467
0
LINE
8
BLACK
6
CONTINUOUS
10
277.178
20
-39.0467
11
277.178
21
-58.0967
0
LINE
8
BLACK
6
CONTINUOUS
10
277.178
20
-58.0967
11
258.127
21
-58.0967
0
LINE
8
BLACK
6
CONTINUOUS
10
258.127
20
-58.0967
11
258.127
21
-39.0467
0
LINE
8
BLACK
6
CONTINUOUS
10
327.389
20
-79.614
11
329.389
21
-79.614
0
LINE
8
BLACK
6
CONTINUOUS
10
329.389
20
-79.614
11
329.389
21
-81.614
0
LINE
8
BLACK
6
CONTINUOUS
10
327.389
20
-93.614
11
329.389
21
-93.614
0
LINE
8
BLACK
6
CONTINUOUS
10
329.389
20
-93.614
11
329.389
21
-91.614
0
LINE
8
BLACK
6
CONTINUOUS
10
315.389
20
-91.614
11
315.389
21
-93.614
0
LINE
8
BLACK
6
CONTINUOUS
10
315.389
20
-93.614
11
317.389
21
-93.614
0
LINE
8
BLACK
6
CONTINUOUS
10
317.389
20
-79.614
11
315.389
21
-79.614
0
LINE
8
BLACK
6
CONTINUOUS
10
315.389
20
-79.614
11
315.389
21
-81.614
0
LINE
8
BLACK
6
CONTINUOUS
10
312.864
20
-77.089
11
331.914
21
-77.089
0
LINE
8
BLACK
6
CONTINUOUS
10
331.914
20
-77.089
11
331.914
21
-96.139
0
LINE
8
BLACK
6
CONTINUOUS
10
331.914
20
-96.139
11
312.864
21
-96.139
0
LINE
8
BLACK
6
CONTINUOUS
10
312.864
20
-96.139
11
312.864
21
-77.089
0
LINE
8
BLACK
6
CONTINUOUS
10
327.389
20
-98.7217
11
329.389
21
-98.7217
0
LINE
8
BLACK
6
CONTINUOUS
10
329.389
20
-98.7217
11
329.389
21
-100.722
0
LINE
8
BLACK
6
CONTINUOUS
10
327.389
20
-112.722
11
329.389
21
-112.722
0
LINE
8
BLACK
6
CONTINUOUS
10
329.389
20
-112.722
11
329.389
21
-110.722
0
LINE
8
BLACK
6
CONTINUOUS
10
315.389
20
-110.722
11
315.389
21
-112.722
0
LINE
8
BLACK
6
CONTINUOUS
10
315.389
20
-112.722
11
317.389
21
-112.722
0
LINE
8
BLACK
6
CONTINUOUS
10
317.389
20
-98.7217
11
315.389
21
-98.7217
0
LINE
8
BLACK
6
CONTINUOUS
10
315.389
20
-98.7217
11
315.389
21
-100.722
0
LINE
8
BLACK
6
CONTINUOUS
10
312.864
20
-96.1967
11
331.914
21
-96.1967
0
LINE
8
BLACK
6
CONTINUOUS
10
331.914
20
-96.1967
11
331.914
21
-115.247
0
LINE
8
BLACK
6
CONTINUOUS
10
331.914
20
-115.247
11
312.864
21
-115.247
0
LINE
8
BLACK
6
CONTINUOUS
10
312.864
20
-115.247
11
312.864
21
-96.1967
0
LINE
8
BLACK
6
CONTINUOUS
10
205.977
20
-22.5217
11
207.977
21
-22.5217
0
LINE
8
BLACK
6
CONTINUOUS
10
207.977
20
-22.5217
11
207.977
21
-24.5217
0
LINE
8
BLACK
6
CONTINUOUS
10
205.977
20
-36.5217
11
207.977
21
-36.5217
0
LINE
8
BLACK
6
CONTINUOUS
10
207.977
20
-36.5217
11
207.977
21
-34.5217
0
LINE
8
BLACK
6
CONTINUOUS
10
193.977
20
-34.5217
11
193.977
21
-36.5217
0
LINE
8
BLACK
6
CONTINUOUS
10
193.977
20
-36.5217
11
195.977
21
-36.5217
0
LINE
8
BLACK
6
CONTINUOUS
10
195.977
20
-22.5217
11
193.977
21
-22.5217
0
LINE
8
BLACK
6
CONTINUOUS
10
193.977
20
-22.5217
11
193.977
21
-24.5217
0
LINE
8
BLACK
6
CONTINUOUS
10
191.452
20
-19.9967
11
210.502
21
-19.9967
0
LINE
8
BLACK
6
CONTINUOUS
10
210.502
20
-19.9967
11
210.502
21
-39.0467
0
LINE
8
BLACK
6
CONTINUOUS
10
210.502
20
-39.0467
11
191.452
21
-39.0467
0
LINE
8
BLACK
6
CONTINUOUS
10
191.452
20
-39.0467
11
191.452
21
-19.9967
0
LINE
8
BLACK
6
CONTINUOUS
10
186.927
20
-22.5217
11
188.927
21
-22.5217
0
LINE
8
BLACK
6
CONTINUOUS
10
188.927
20
-22.5217
11
188.927
21
-24.5217
0
LINE
8
BLACK
6
CONTINUOUS
10
186.927
20
-36.5217
11
188.927
21
-36.5217
0
LINE
8
BLACK
6
CONTINUOUS
10
188.927
20
-36.5217
11
188.927
21
-34.5217
0
LINE
8
BLACK
6
CONTINUOUS
10
174.927
20
-34.5217
11
174.927
21
-36.5217
0
LINE
8
BLACK
6
CONTINUOUS
10
174.927
20
-36.5217
11
176.927
21
-36.5217
0
LINE
8
BLACK
6
CONTINUOUS
10
176.927
20
-22.5217
11
174.927
21
-22.5217
0
LINE
8
BLACK
6
CONTINUOUS
10
174.927
20
-22.5217
11
174.927
21
-24.5217
0
LINE
8
BLACK
6
CONTINUOUS
10
172.403
20
-19.9967
11
191.452
21
-19.9967
0
LINE
8
BLACK
6
CONTINUOUS
10
191.452
20
-19.9967
11
191.452
21
-39.0467
0
LINE
8
BLACK
6
CONTINUOUS
10
191.452
20
-39.0467
11
172.403
21
-39.0467
0
LINE
8
BLACK
6
CONTINUOUS
10
172.403
20
-39.0467
11
172.403
21
-19.9967
0
LINE
8
BLACK
6
CONTINUOUS
10
167.877
20
-22.5217
11
169.877
21
-22.5217
0
LINE
8
BLACK
6
CONTINUOUS
10
169.877
20
-22.5217
11
169.877
21
-24.5217
0
LINE
8
BLACK
6
CONTINUOUS
10
167.877
20
-36.5217
11
169.877
21
-36.5217
0
LINE
8
BLACK
6
CONTINUOUS
10
169.877
20
-36.5217
11
169.877
21
-34.5217
0
LINE
8
BLACK
6
CONTINUOUS
10
155.877
20
-34.5217
11
155.877
21
-36.5217
0
LINE
8
BLACK
6
CONTINUOUS
10
155.877
20
-36.5217
11
157.877
21
-36.5217
0
LINE
8
BLACK
6
CONTINUOUS
10
157.877
20
-22.5217
11
155.877
21
-22.5217
0
LINE
8
BLACK
6
CONTINUOUS
10
155.877
20
-22.5217
11
155.877
21
-24.5217
0
LINE
8
BLACK
6
CONTINUOUS
10
153.352
20
-19.9967
11
172.403
21
-19.9967
0
LINE
8
BLACK
6
CONTINUOUS
10
172.403
20
-19.9967
11
172.403
21
-39.0467
0
LINE
8
BLACK
6
CONTINUOUS
10
172.403
20
-39.0467
11
153.352
21
-39.0467
0
LINE
8
BLACK
6
CONTINUOUS
10
153.352
20
-39.0467
11
153.352
21
-19.9967
0
LINE
8
BLACK
6
CONTINUOUS
10
148.827
20
-22.5217
11
150.827
21
-22.5217
0
LINE
8
BLACK
6
CONTINUOUS
10
150.827
20
-22.5217
11
150.827
21
-24.5217
0
LINE
8
BLACK
6
CONTINUOUS
10
148.827
20
-36.5217
11
150.827
21
-36.5217
0
LINE
8
BLACK
6
CONTINUOUS
10
150.827
20
-36.5217
11
150.827
21
-34.5217
0
LINE
8
BLACK
6
CONTINUOUS
10
136.827
20
-34.5217
11
136.827
21
-36.5217
0
LINE
8
BLACK
6
CONTINUOUS
10
136.827
20
-36.5217
11
138.827
21
-36.5217
0
LINE
8
BLACK
6
CONTINUOUS
10
138.827
20
-22.5217
11
136.827
21
-22.5217
0
LINE
8
BLACK
6
CONTINUOUS
10
136.827
20
-22.5217
11
136.827
21
-24.5217
0
LINE
8
BLACK
6
CONTINUOUS
10
134.302
20
-19.9967
11
153.352
21
-19.9967
0
LINE
8
BLACK
6
CONTINUOUS
10
153.352
20
-19.9967
11
153.352
21
-39.0467
0
LINE
8
BLACK
6
CONTINUOUS
10
153.352
20
-39.0467
11
134.302
21
-39.0467
0
LINE
8
BLACK
6
CONTINUOUS
10
134.302
20
-39.0467
11
134.302
21
-19.9967
0
LINE
8
BLACK
6
CONTINUOUS
10
129.778
20
-22.5217
11
131.778
21
-22.5217
0
LINE
8
BLACK
6
CONTINUOUS
10
131.778
20
-22.5217
11
131.778
21
-24.5217
0
LINE
8
BLACK
6
CONTINUOUS
10
129.778
20
-36.5217
11
131.778
21
-36.5217
0
LINE
8
BLACK
6
CONTINUOUS
10
131.778
20
-36.5217
11
131.778
21
-34.5217
0
LINE
8
BLACK
6
CONTINUOUS
10
117.777
20
-34.5217
11
117.777
21
-36.5217
0
LINE
8
BLACK
6
CONTINUOUS
10
117.777
20
-36.5217
11
119.777
21
-36.5217
0
LINE
8
BLACK
6
CONTINUOUS
10
119.777
20
-22.5217
11
117.777
21
-22.5217
0
LINE
8
BLACK
6
CONTINUOUS
10
117.777
20
-22.5217
11
117.777
21
-24.5217
0
LINE
8
BLACK
6
CONTINUOUS
10
115.252
20
-19.9967
11
134.302
21
-19.9967
0
LINE
8
BLACK
6
CONTINUOUS
10
134.302
20
-19.9967
11
134.302
21
-39.0467
0
LINE
8
BLACK
6
CONTINUOUS
10
134.302
20
-39.0467
11
115.252
21
-39.0467
0
LINE
8
BLACK
6
CONTINUOUS
10
115.252
20
-39.0467
11
115.252
21
-19.9967
0
LINE
8
BLACK
6
CONTINUOUS
10
110.727
20
-22.5217
11
112.727
21
-22.5217
0
LINE
8
BLACK
6
CONTINUOUS
10
112.727
20
-22.5217
11
112.727
21
-24.5217
0
LINE
8
BLACK
6
CONTINUOUS
10
110.727
20
-36.5217
11
112.727
21
-36.5217
0
LINE
8
BLACK
6
CONTINUOUS
10
112.727
20
-36.5217
11
112.727
21
-34.5217
0
LINE
8
BLACK
6
CONTINUOUS
10
98.7275
20
-34.5217
11
98.7275
21
-36.5217
0
LINE
8
BLACK
6
CONTINUOUS
10
98.7275
20
-36.5217
11
100.727
21
-36.5217
0
LINE
8
BLACK
6
CONTINUOUS
10
100.727
20
-22.5217
11
98.7275
21
-22.5217
0
LINE
8
BLACK
6
CONTINUOUS
10
98.7275
20
-22.5217
11
98.7275
21
-24.5217
0
LINE
8
BLACK
6
CONTINUOUS
10
96.2025
20
-19.9967
11
115.252
21
-19.9967
0
LINE
8
BLACK
6
CONTINUOUS
10
115.252
20
-19.9967
11
115.252
21
-39.0467
0
LINE
8
BLACK
6
CONTINUOUS
10
115.252
20
-39.0467
11
96.2025
21
-39.0467
0
LINE
8
BLACK
6
CONTINUOUS
10
96.2025
20
-39.0467
11
96.2025
21
-19.9967
0
LINE
8
BLACK
6
CONTINUOUS
10
91.6775
20
-22.5217
11
93.6775
21
-22.5217
0
LINE
8
BLACK
6
CONTINUOUS
10
93.6775
20
-22.5217
11
93.6775
21
-24.5217
0
LINE
8
BLACK
6
CONTINUOUS
10
91.6775
20
-36.5217
11
93.6775
21
-36.5217
0
LINE
8
BLACK
6
CONTINUOUS
10
93.6775
20
-36.5217
11
93.6775
21
-34.5217
0
LINE
8
BLACK
6
CONTINUOUS
10
79.6775
20
-34.5217
11
79.6775
21
-36.5217
0
LINE
8
BLACK
6
CONTINUOUS
10
79.6775
20
-36.5217
11
81.6775
21
-36.5217
0
LINE
8
BLACK
6
CONTINUOUS
10
81.6775
20
-22.5217
11
79.6775
21
-22.5217
0
LINE
8
BLACK
6
CONTINUOUS
10
79.6775
20
-22.5217
11
79.6775
21
-24.5217
0
LINE
8
BLACK
6
CONTINUOUS
10
77.1525
20
-19.9967
11
96.2025
21
-19.9967
0
LINE
8
BLACK
6
CONTINUOUS
10
96.2025
20
-19.9967
11
96.2025
21
-39.0467
0
LINE
8
BLACK
6
CONTINUOUS
10
96.2025
20
-39.0467
11
77.1525
21
-39.0467
0
LINE
8
BLACK
6
CONTINUOUS
10
77.1525
20
-39.0467
11
77.1525
21
-19.9967
0
LINE
8
BLACK
6
CONTINUOUS
10
72.6275
20
-22.5217
11
74.6275
21
-22.5217
0
LINE
8
BLACK
6
CONTINUOUS
10
74.6275
20
-22.5217
11
74.6275
21
-24.5217
0
LINE
8
BLACK
6
CONTINUOUS
10
72.6275
20
-36.5217
11
74.6275
21
-36.5217
0
LINE
8
BLACK
6
CONTINUOUS
10
74.6275
20
-36.5217
11
74.6275
21
-34.5217
0
LINE
8
BLACK
6
CONTINUOUS
10
60.6275
20
-34.5217
11
60.6275
21
-36.5217
0
LINE
8
BLACK
6
CONTINUOUS
10
60.6275
20
-36.5217
11
62.6275
21
-36.5217
0
LINE
8
BLACK
6
CONTINUOUS
10
62.6275
20
-22.5217
11
60.6275
21
-22.5217
0
LINE
8
BLACK
6
CONTINUOUS
10
60.6275
20
-22.5217
11
60.6275
21
-24.5217
0
LINE
8
BLACK
6
CONTINUOUS
10
58.1025
20
-19.9967
11
77.1525
21
-19.9967
0
LINE
8
BLACK
6
CONTINUOUS
10
77.1525
20
-19.9967
11
77.1525
21
-39.0467
0
LINE
8
BLACK
6
CONTINUOUS
10
77.1525
20
-39.0467
11
58.1025
21
-39.0467
0
LINE
8
BLACK
6
CONTINUOUS
10
58.1025
20
-39.0467
11
58.1025
21
-19.9967
0
LINE
8
BLACK
6
CONTINUOUS
10
53.5775
20
-22.5217
11
55.5775
21
-22.5217
0
LINE
8
BLACK
6
CONTINUOUS
10
55.5775
20
-22.5217
11
55.5775
21
-24.5217
0
LINE
8
BLACK
6
CONTINUOUS
10
53.5775
20
-36.5217
11
55.5775
21
-36.5217
0
LINE
8
BLACK
6
CONTINUOUS
10
55.5775
20
-36.5217
11
55.5775
21
-34.5217
0
LINE
8
BLACK
6
CONTINUOUS
10
41.5775
20
-34.5217
11
41.5775
21
-36.5217
0
LINE
8
BLACK
6
CONTINUOUS
10
41.5775
20
-36.5217
11
43.5775
21
-36.5217
0
LINE
8
BLACK
6
CONTINUOUS
10
43.5775
20
-22.5217
11
41.5775
21
-22.5217
0
LINE
8
BLACK
6
CONTINUOUS
10
41.5775
20
-22.5217
11
41.5775
21
-24.5217
0
LINE
8
BLACK
6
CONTINUOUS
10
39.0525
20
-19.9967
11
58.1025
21
-19.9967
0
LINE
8
BLACK
6
CONTINUOUS
10
58.1025
20
-19.9967
11
58.1025
21
-39.0467
0
LINE
8
BLACK
6
CONTINUOUS
10
58.1025
20
-39.0467
11
39.0525
21
-39.0467
0
LINE
8
BLACK
6
CONTINUOUS
10
39.0525
20
-39.0467
11
39.0525
21
-19.9967
0
LINE
8
BLACK
6
CONTINUOUS
10
225.028
20
-22.5217
11
227.028
21
-22.5217
0
LINE
8
BLACK
6
CONTINUOUS
10
227.028
20
-22.5217
11
227.028
21
-24.5217
0
LINE
8
BLACK
6
CONTINUOUS
10
225.028
20
-36.5217
11
227.028
21
-36.5217
0
LINE
8
BLACK
6
CONTINUOUS
10
227.028
20
-36.5217
11
227.028
21
-34.5217
0
LINE
8
BLACK
6
CONTINUOUS
10
213.028
20
-34.5217
11
213.028
21
-36.5217
0
LINE
8
BLACK
6
CONTINUOUS
10
213.028
20
-36.5217
11
215.028
21
-36.5217
0
LINE
8
BLACK
6
CONTINUOUS
10
215.028
20
-22.5217
11
213.028
21
-22.5217
0
LINE
8
BLACK
6
CONTINUOUS
10
213.028
20
-22.5217
11
213.028
21
-24.5217
0
LINE
8
BLACK
6
CONTINUOUS
10
210.502
20
-19.9967
11
229.552
21
-19.9967
0
LINE
8
BLACK
6
CONTINUOUS
10
229.552
20
-19.9967
11
229.552
21
-39.0467
0
LINE
8
BLACK
6
CONTINUOUS
10
229.552
20
-39.0467
11
210.502
21
-39.0467
0
LINE
8
BLACK
6
CONTINUOUS
10
210.502
20
-39.0467
11
210.502
21
-19.9967
0
CIRCLE
8
BLACK
10
158.115
20
-95.631
40
1.35
0
CIRCLE
8
BLACK
10
110.49
20
-58.801
40
1.35
0
CIRCLE
8
BLACK
10
243.84
20
-58.674
40
1.35
  0
ENDSEC
  0
EOF
