M48
; DRILL file {KiCad (5.1.5)-3} date 3/15/2020 7:12:37 PM
; FORMAT={-:-/ absolute / inch / decimal}
; #@! TF.CreationDate,2020-03-15T19:12:37-07:00
; #@! TF.GenerationSoftware,Kicad,Pcbnew,(5.1.5)-3
; #@! TF.FileFunction,NonPlated,1,2,NPTH
FMAT,2
INCH
T1C0.0689
T2C0.1063
T3C0.1200
T4C0.1570
%
G90
G05
T1
X3.5875Y-1.9123
X3.9875Y-1.9123
X8.6496Y-3.4116
X9.0496Y-3.4116
X1.1497Y-1.9126
X1.5497Y-1.9126
X2.8375Y-1.9123
X3.2375Y-1.9123
X7.5251Y-2.6623
X7.9251Y-2.6623
X1.9947Y-4.1621
X2.3947Y-4.1621
X6.7751Y-2.6623
X7.1751Y-2.6623
X1.7125Y-1.1623
X2.1125Y-1.1623
X8.4625Y-1.1623
X8.8625Y-1.1623
X0.9625Y-1.1623
X1.3625Y-1.1623
X9.5875Y-1.9123
X9.9875Y-1.9123
X4.1496Y-3.4116
X4.5496Y-3.4116
X10.806Y-3.4118
X11.206Y-3.4118
X3.0251Y-2.6623
X3.4251Y-2.6623
X3.3996Y-3.4116
X3.7996Y-3.4116
X4.5251Y-2.6623
X4.9251Y-2.6623
X7.1496Y-3.4116
X7.5496Y-3.4116
X12.4925Y-4.1623
X12.8925Y-4.1623
X2.9328Y-4.1621
X3.3328Y-4.1621
X7.8996Y-3.4116
X8.2996Y-3.4116
X9.9625Y-1.1623
X10.3625Y-1.1623
X5.8375Y-1.9123
X6.2375Y-1.9123
X9.0251Y-2.6623
X9.4251Y-2.6623
X5.2751Y-2.6623
X5.6751Y-2.6623
X5.0875Y-1.9123
X5.4875Y-1.9123
X9.2125Y-1.1623
X9.6125Y-1.1623
X2.4625Y-1.1623
X2.8625Y-1.1623
X5.6496Y-3.4116
X6.0496Y-3.4116
X1.0565Y-4.1621
X1.4565Y-4.1621
X2.2751Y-2.6623
X2.6751Y-2.6623
X9.7751Y-2.6623
X10.1751Y-2.6623
X1.431Y-3.4124
X1.831Y-3.4124
X6.0251Y-2.6623
X6.4251Y-2.6623
X8.2751Y-2.6623
X8.6751Y-2.6623
X4.7125Y-1.1623
X5.1125Y-1.1623
X3.9625Y-1.1623
X4.3625Y-1.1623
X11.0875Y-1.1623
X11.4875Y-1.1623
X5.7458Y-4.1619
X6.1458Y-4.1619
X10.9945Y-2.6622
X11.3945Y-2.6622
X11.3683Y-4.1621
X11.7683Y-4.1621
X6.5875Y-1.9123
X6.9875Y-1.9123
X8.8375Y-1.9123
X9.2375Y-1.9123
X4.3375Y-1.9123
X4.7375Y-1.9123
X6.3996Y-3.4116
X6.7996Y-3.4116
X6.2125Y-1.1623
X6.6125Y-1.1623
X3.2125Y-1.1623
X3.6125Y-1.1623
X5.4625Y-1.1623
X5.8625Y-1.1623
X11.2753Y-1.9129
X11.6753Y-1.9129
X10.3375Y-1.9123
X10.7375Y-1.9123
X3.7751Y-2.6623
X4.1751Y-2.6623
X9.4938Y-4.1621
X9.8938Y-4.1621
X2.0875Y-1.9123
X2.4875Y-1.9123
X8.0875Y-1.9123
X8.4875Y-1.9123
X12.4925Y-3.41
X12.8925Y-3.41
X7.7125Y-1.1623
X8.1125Y-1.1623
X1.2435Y-2.6627
X1.6435Y-2.6627
X8.558Y-4.1613
X8.958Y-4.1613
X2.6496Y-3.4116
X3.0496Y-3.4116
X4.8996Y-3.4116
X5.2996Y-3.4116
X10.4311Y-4.1621
X10.8311Y-4.1621
X9.3996Y-3.4116
X9.7996Y-3.4116
X7.3375Y-1.9123
X7.7375Y-1.9123
X6.9625Y-1.1623
X7.3625Y-1.1623
T2
X9.6Y-2.31
X4.35Y-2.315
X6.225Y-3.765
T3
X10.536Y-3.1368
X11.476Y-3.1368
X1.161Y-3.1374
X2.101Y-3.1374
X10.8175Y-0.8873
X11.7575Y-0.8873
X3.9773Y-3.8869
X7.9143Y-3.8869
X10.7245Y-2.3872
X11.6645Y-2.3872
T4
X11.4753Y-1.9129
X10.5375Y-1.9123
X3.9751Y-2.6623
X9.6938Y-4.1621
X2.2875Y-1.9123
X8.2875Y-1.9123
X12.6925Y-3.41
X7.9125Y-1.1623
X1.4435Y-2.6627
X8.758Y-4.1613
X2.8496Y-3.4116
X5.0996Y-3.4116
X10.6311Y-4.1621
X9.5996Y-3.4116
X7.5375Y-1.9123
X7.1625Y-1.1623
X3.7875Y-1.9123
X8.8496Y-3.4116
X1.3497Y-1.9126
X3.0375Y-1.9123
X7.7251Y-2.6623
X2.1947Y-4.1621
X6.9751Y-2.6623
X1.9125Y-1.1623
X8.6625Y-1.1623
X1.1625Y-1.1623
X9.7875Y-1.9123
X4.3496Y-3.4116
X10.536Y-3.7368
X11.006Y-3.4118
X11.476Y-3.7368
X3.2251Y-2.6623
X3.5996Y-3.4116
X4.7251Y-2.6623
X7.3496Y-3.4116
X12.6925Y-4.1623
X3.1328Y-4.1621
X8.0996Y-3.4116
X10.1625Y-1.1623
X6.0375Y-1.9123
X9.2251Y-2.6623
X5.4751Y-2.6623
X5.2875Y-1.9123
X9.4125Y-1.1623
X2.6625Y-1.1623
X5.8496Y-3.4116
X1.2565Y-4.1621
X2.4751Y-2.6623
X9.9751Y-2.6623
X1.161Y-3.7374
X1.631Y-3.4124
X2.101Y-3.7374
X6.2251Y-2.6623
X8.4751Y-2.6623
X4.9125Y-1.1623
X4.1625Y-1.1623
X10.8175Y-1.4873
X11.2875Y-1.1623
X11.7575Y-1.4873
X3.9773Y-4.4869
X5.9458Y-4.1619
X7.9143Y-4.4869
X10.7245Y-2.9872
X11.1945Y-2.6622
X11.6645Y-2.9872
X11.5683Y-4.1621
X6.7875Y-1.9123
X9.0375Y-1.9123
X4.5375Y-1.9123
X6.5996Y-3.4116
X6.4125Y-1.1623
X3.4125Y-1.1623
X5.6625Y-1.1623
T0
M30
