M48
; DRILL file {KiCad (5.1.5)-3} date 3/15/2020 7:12:37 PM
; FORMAT={-:-/ absolute / inch / decimal}
; #@! TF.CreationDate,2020-03-15T19:12:37-07:00
; #@! TF.GenerationSoftware,Kicad,Pcbnew,(5.1.5)-3
; #@! TF.FileFunction,Plated,1,2,PTH
FMAT,2
INCH
T1C0.0157
T2C0.0276
T3C0.0315
T4C0.0315
T5C0.0394
T6C0.0430
T7C0.0579
T8C0.0591
%
G90
G05
T1
X11.4688Y-2.875
X11.9688Y-2.9375
X11.9688Y-3.0938
X12.0625Y-2.0312
X12.1562Y-2.9375
X12.3438Y-2.2188
X12.5Y-2.2188
X12.5Y-2.2188
T2
X4.725Y-3.2665
X4.725Y-3.5735
X4.165Y-1.7715
X4.165Y-2.0785
X8.85Y-2.5165
X8.85Y-2.8235
X0.84Y-4.0165
X0.84Y-4.3235
X4.35Y-2.5165
X4.35Y-2.8235
X2.29Y-1.0215
X2.29Y-1.3285
X10.16Y-1.7678
X10.16Y-2.0748
X3.79Y-1.0215
X3.79Y-1.3285
X0.84Y-1.7715
X0.84Y-2.0785
X8.665Y-1.7665
X8.665Y-2.0735
X2.665Y-1.7715
X2.665Y-2.0785
X10.35Y-2.5165
X10.35Y-2.8235
X8.475Y-3.2665
X8.475Y-3.5735
X7.165Y-1.7665
X7.165Y-2.0735
X4.54Y-1.0215
X4.54Y-1.3285
X9.415Y-1.7665
X9.415Y-2.0735
X10.165Y-4.0165
X10.165Y-4.3235
X9.975Y-3.2665
X9.975Y-3.5735
X3.975Y-3.2665
X3.975Y-3.5735
X5.85Y-2.5165
X5.85Y-2.8235
X12.975Y-2.6791
X12.975Y-2.9861
X5.1Y-2.5165
X5.1Y-2.8235
X9.23Y-4.0165
X9.23Y-4.3235
X1.73Y-4.0165
X1.73Y-4.3235
X2.1Y-2.5165
X2.1Y-2.8235
X5.475Y-3.2665
X5.475Y-3.5735
X10.54Y-1.0215
X10.54Y-1.3285
X9.225Y-3.2665
X9.225Y-3.5735
X1.915Y-1.7715
X1.915Y-2.0785
X0.84Y-2.5165
X0.84Y-2.8235
X6.6Y-2.5165
X6.6Y-2.8235
X7.35Y-2.5165
X7.35Y-2.8235
X8.29Y-1.0215
X8.29Y-1.3285
X3.225Y-3.2665
X3.225Y-3.5735
X0.84Y-1.0215
X0.84Y-1.3285
X12.32Y-4.0165
X12.32Y-4.3235
X7.54Y-1.0215
X7.54Y-1.3285
X9.04Y-1.0215
X9.04Y-1.3285
X9.6Y-2.5165
X9.6Y-2.8235
X7.725Y-3.2665
X7.725Y-3.5735
X3.6Y-2.5165
X3.6Y-2.8235
X6.975Y-3.2665
X6.975Y-3.5735
X3.04Y-1.0215
X3.04Y-1.3285
X8.29Y-4.0165
X8.29Y-4.3235
X5.29Y-1.0215
X5.29Y-1.3285
X3.605Y-4.0165
X3.605Y-4.3235
X4.915Y-1.7665
X4.915Y-2.0735
X6.225Y-3.2665
X6.225Y-3.5735
X0.84Y-3.2615
X0.84Y-3.5685
X3.415Y-1.7715
X3.415Y-2.0785
X8.1Y-2.5165
X8.1Y-2.8235
X5.665Y-1.7665
X5.665Y-2.0735
X2.665Y-4.0165
X2.665Y-4.3235
X6.04Y-1.0215
X6.04Y-1.3285
X12.32Y-3.2665
X12.32Y-3.5735
X6.415Y-1.7665
X6.415Y-2.0735
X7.915Y-1.7665
X7.915Y-2.0735
X2.85Y-2.5165
X2.85Y-2.8235
X11.1Y-4.0165
X11.1Y-4.3235
X9.79Y-1.0215
X9.79Y-1.3285
X1.54Y-1.0215
X1.54Y-1.3285
X2.48Y-3.2665
X2.48Y-3.5735
X10.915Y-1.7665
X10.915Y-2.0735
X6.79Y-1.0215
X6.79Y-1.3285
T3
X12.265Y-2.215
X12.265Y-2.515
X12.75Y-2.6826
X12.75Y-2.9826
X12.55Y-2.6826
X12.55Y-2.9826
T4
X12.1302Y-2.7591
X12.4002Y-2.7591
X12.2652Y-2.7591
T5
X12.4076Y-2.2558
X12.4076Y-2.3542
X12.4076Y-2.4527
X12.9785Y-2.2558
X12.9785Y-2.4527
T6
X12.2312Y-0.825
X12.2312Y-0.925
X12.2312Y-1.025
X12.2312Y-1.125
X12.2312Y-1.225
X12.2312Y-1.325
X12.2312Y-1.425
X12.2312Y-1.525
X12.2312Y-1.625
X12.2312Y-1.725
X12.2312Y-1.825
X12.2402Y-1.925
X12.3312Y-1.925
X12.4313Y-1.925
X12.5312Y-1.925
X12.6312Y-1.925
X12.7312Y-1.925
X12.8312Y-0.825
X12.8312Y-0.925
X12.8312Y-1.025
X12.8312Y-1.125
X12.8312Y-1.225
X12.8312Y-1.325
X12.8312Y-1.425
X12.8312Y-1.525
X12.8312Y-1.625
X12.8312Y-1.725
X12.8312Y-1.825
X12.8312Y-1.925
T7
X11.1375Y-1.0623
X11.1891Y-1.0048
X11.3859Y-0.9851
X11.3875Y-0.9623
X5.7958Y-4.0619
X5.8474Y-4.0044
X6.0442Y-3.9847
X6.0458Y-3.9619
X11.0445Y-2.5622
X11.0961Y-2.5047
X11.2929Y-2.485
X11.2945Y-2.4622
X11.4183Y-4.0621
X11.4699Y-4.0046
X11.6667Y-3.9849
X11.6683Y-3.9621
X6.6375Y-1.8123
X6.6891Y-1.7548
X6.8859Y-1.7351
X6.8875Y-1.7123
X8.8875Y-1.8123
X8.9391Y-1.7548
X9.1359Y-1.7351
X9.1375Y-1.7123
X4.3875Y-1.8123
X4.4391Y-1.7548
X4.6359Y-1.7351
X4.6375Y-1.7123
X6.4496Y-3.3116
X6.5012Y-3.2541
X6.698Y-3.2344
X6.6996Y-3.2116
X6.2625Y-1.0623
X6.3141Y-1.0048
X6.5109Y-0.9851
X6.5125Y-0.9623
X3.2625Y-1.0623
X3.3141Y-1.0048
X3.5109Y-0.9851
X3.5125Y-0.9623
X5.5125Y-1.0623
X5.5641Y-1.0048
X5.7609Y-0.9851
X5.7625Y-0.9623
X11.3253Y-1.8129
X11.3769Y-1.7554
X11.5737Y-1.7357
X11.5753Y-1.7129
X10.3875Y-1.8123
X10.4391Y-1.7548
X10.6359Y-1.7351
X10.6375Y-1.7123
X3.8251Y-2.5623
X3.8767Y-2.5048
X4.0735Y-2.4851
X4.0751Y-2.4623
X9.5438Y-4.0621
X9.5954Y-4.0046
X9.7922Y-3.9849
X9.7938Y-3.9621
X2.1375Y-1.8123
X2.1891Y-1.7548
X2.3859Y-1.7351
X2.3875Y-1.7123
X8.1375Y-1.8123
X8.1891Y-1.7548
X8.3859Y-1.7351
X8.3875Y-1.7123
X12.5425Y-3.31
X12.5941Y-3.2525
X12.7909Y-3.2328
X12.7925Y-3.21
X7.7625Y-1.0623
X7.8141Y-1.0048
X8.0109Y-0.9851
X8.0125Y-0.9623
X1.2935Y-2.5627
X1.3451Y-2.5052
X1.5419Y-2.4855
X1.5435Y-2.4627
X8.608Y-4.0613
X8.6596Y-4.0038
X8.8564Y-3.9841
X8.858Y-3.9613
X2.6996Y-3.3116
X2.7512Y-3.2541
X2.948Y-3.2344
X2.9496Y-3.2116
X4.9496Y-3.3116
X5.0012Y-3.2541
X5.198Y-3.2344
X5.1996Y-3.2116
X10.4811Y-4.0621
X10.5327Y-4.0046
X10.7295Y-3.9849
X10.7311Y-3.9621
X9.4496Y-3.3116
X9.5012Y-3.2541
X9.698Y-3.2344
X9.6996Y-3.2116
X7.3875Y-1.8123
X7.4391Y-1.7548
X7.6359Y-1.7351
X7.6375Y-1.7123
X7.0125Y-1.0623
X7.0641Y-1.0048
X7.2609Y-0.9851
X7.2625Y-0.9623
X3.6375Y-1.8123
X3.6891Y-1.7548
X3.8859Y-1.7351
X3.8875Y-1.7123
X8.6996Y-3.3116
X8.7512Y-3.2541
X8.948Y-3.2344
X8.9496Y-3.2116
X1.1997Y-1.8126
X1.2513Y-1.7551
X1.4481Y-1.7354
X1.4497Y-1.7126
X2.8875Y-1.8123
X2.9391Y-1.7548
X3.1359Y-1.7351
X3.1375Y-1.7123
X7.5751Y-2.5623
X7.6267Y-2.5048
X7.8235Y-2.4851
X7.8251Y-2.4623
X2.0447Y-4.0621
X2.0963Y-4.0046
X2.2931Y-3.9849
X2.2947Y-3.9621
X6.8251Y-2.5623
X6.8767Y-2.5048
X7.0735Y-2.4851
X7.0751Y-2.4623
X1.7625Y-1.0623
X1.8141Y-1.0048
X2.0109Y-0.9851
X2.0125Y-0.9623
X8.5125Y-1.0623
X8.5641Y-1.0048
X8.7609Y-0.9851
X8.7625Y-0.9623
X1.0125Y-1.0623
X1.0641Y-1.0048
X1.2609Y-0.9851
X1.2625Y-0.9623
X9.6375Y-1.8123
X9.6891Y-1.7548
X9.8859Y-1.7351
X9.8875Y-1.7123
X4.1996Y-3.3116
X4.2512Y-3.2541
X4.448Y-3.2344
X4.4496Y-3.2116
X10.856Y-3.3118
X10.9076Y-3.2543
X11.1044Y-3.2346
X11.106Y-3.2118
X3.0751Y-2.5623
X3.1267Y-2.5048
X3.3235Y-2.4851
X3.3251Y-2.4623
X3.4496Y-3.3116
X3.5012Y-3.2541
X3.698Y-3.2344
X3.6996Y-3.2116
X4.5751Y-2.5623
X4.6267Y-2.5048
X4.8235Y-2.4851
X4.8251Y-2.4623
X7.1996Y-3.3116
X7.2512Y-3.2541
X7.448Y-3.2344
X7.4496Y-3.2116
X12.5425Y-4.0623
X12.5941Y-4.0048
X12.7909Y-3.9851
X12.7925Y-3.9623
X2.9828Y-4.0621
X3.0344Y-4.0046
X3.2312Y-3.9849
X3.2328Y-3.9621
X7.9496Y-3.3116
X8.0012Y-3.2541
X8.198Y-3.2344
X8.1996Y-3.2116
X10.0125Y-1.0623
X10.0641Y-1.0048
X10.2609Y-0.9851
X10.2625Y-0.9623
X5.8875Y-1.8123
X5.9391Y-1.7548
X6.1359Y-1.7351
X6.1375Y-1.7123
X9.0751Y-2.5623
X9.1267Y-2.5048
X9.3235Y-2.4851
X9.3251Y-2.4623
X5.3251Y-2.5623
X5.3767Y-2.5048
X5.5735Y-2.4851
X5.5751Y-2.4623
X5.1375Y-1.8123
X5.1891Y-1.7548
X5.3859Y-1.7351
X5.3875Y-1.7123
X9.2625Y-1.0623
X9.3141Y-1.0048
X9.5109Y-0.9851
X9.5125Y-0.9623
X2.5125Y-1.0623
X2.5641Y-1.0048
X2.7609Y-0.9851
X2.7625Y-0.9623
X5.6996Y-3.3116
X5.7512Y-3.2541
X5.948Y-3.2344
X5.9496Y-3.2116
X1.1065Y-4.0621
X1.1581Y-4.0046
X1.3549Y-3.9849
X1.3565Y-3.9621
X2.3251Y-2.5623
X2.3767Y-2.5048
X2.5735Y-2.4851
X2.5751Y-2.4623
X9.8251Y-2.5623
X9.8767Y-2.5048
X10.0735Y-2.4851
X10.0751Y-2.4623
X1.481Y-3.3124
X1.5326Y-3.2549
X1.7294Y-3.2352
X1.731Y-3.2124
X6.0751Y-2.5623
X6.1267Y-2.5048
X6.3235Y-2.4851
X6.3251Y-2.4623
X8.3251Y-2.5623
X8.3767Y-2.5048
X8.5735Y-2.4851
X8.5751Y-2.4623
X4.7625Y-1.0623
X4.8141Y-1.0048
X5.0109Y-0.9851
X5.0125Y-0.9623
X4.0125Y-1.0623
X4.0641Y-1.0048
X4.2609Y-0.9851
X4.2625Y-0.9623
T8
G00X12.6773Y-2.1338
M15
G01X12.7285Y-2.1338
M16
G05
G00X12.6773Y-2.5747
M15
G01X12.7285Y-2.5747
M16
G05
T0
M30
