G04 #@! TF.GenerationSoftware,KiCad,Pcbnew,(5.1.5)-3*
G04 #@! TF.CreationDate,2020-03-15T19:25:50-07:00*
G04 #@! TF.ProjectId,keyboard-layout,6b657962-6f61-4726-942d-6c61796f7574,rev?*
G04 #@! TF.SameCoordinates,Original*
G04 #@! TF.FileFunction,Copper,L2,Bot*
G04 #@! TF.FilePolarity,Positive*
%FSLAX46Y46*%
G04 Gerber Fmt 4.6, Leading zero omitted, Abs format (unit mm)*
G04 Created by KiCad (PCBNEW (5.1.5)-3) date 2020-03-15 19:25:50*
%MOMM*%
%LPD*%
G04 APERTURE LIST*
%ADD10R,2.000000X2.000000*%
%ADD11C,2.000000*%
%ADD12R,3.200000X2.000000*%
%ADD13C,2.250000*%
%ADD14C,2.250000*%
%ADD15R,1.752600X1.752600*%
%ADD16C,1.752600*%
%ADD17C,1.600000*%
%ADD18R,1.600000X1.600000*%
%ADD19C,1.998980*%
%ADD20O,1.600000X1.600000*%
%ADD21C,0.800000*%
%ADD22C,0.254000*%
%ADD23C,0.381000*%
G04 APERTURE END LIST*
D10*
X315153040Y-57297320D03*
D11*
X315153040Y-59797320D03*
X315153040Y-62297320D03*
D12*
X322653040Y-54197320D03*
X322653040Y-65397320D03*
D11*
X329653040Y-57297320D03*
X329653040Y-62297320D03*
D13*
X251102500Y-44071660D02*
X251142500Y-43491660D01*
D14*
X251142500Y-43491660D03*
D13*
X244792500Y-46031660D02*
X246102502Y-44571660D01*
D14*
X246102500Y-44571660D03*
D13*
X153523320Y-101211500D02*
X153563320Y-100631500D01*
D14*
X153563320Y-100631500D03*
D13*
X147213320Y-103171500D02*
X148523322Y-101711500D01*
D14*
X148523320Y-101711500D03*
D15*
X310673750Y-20955000D03*
D16*
X310673750Y-23495000D03*
X310673750Y-26035000D03*
X310673750Y-28575000D03*
X310673750Y-31115000D03*
X310673750Y-33655000D03*
X310673750Y-36195000D03*
X310673750Y-38735000D03*
X310673750Y-41275000D03*
X310673750Y-43815000D03*
X310673750Y-46355000D03*
X325913750Y-48895000D03*
X325913750Y-46355000D03*
X325913750Y-43815000D03*
X325913750Y-41275000D03*
X325913750Y-38735000D03*
X325913750Y-36195000D03*
X325913750Y-33655000D03*
X325913750Y-31115000D03*
X325913750Y-28575000D03*
X325913750Y-26035000D03*
X325913750Y-23495000D03*
X310902350Y-48895000D03*
X325913750Y-20955000D03*
X323373750Y-48895000D03*
X320833750Y-48895000D03*
X318293750Y-48895000D03*
X315753750Y-48895000D03*
X313213750Y-48895000D03*
D17*
X329565000Y-68048040D03*
D18*
X329565000Y-75848040D03*
D19*
X308107080Y-70081140D03*
D20*
X311531000Y-56261000D03*
D17*
X311531000Y-63881000D03*
D20*
X318770000Y-75758040D03*
D17*
X318770000Y-68138040D03*
D20*
X323850000Y-75758040D03*
D17*
X323850000Y-68138040D03*
D19*
X311536080Y-70081140D03*
D13*
X74879840Y-82153880D02*
X74919840Y-81573880D01*
D14*
X74919840Y-81573880D03*
D13*
X68569840Y-84113880D02*
X69879842Y-82653880D01*
D14*
X69879840Y-82653880D03*
D13*
X155852500Y-44071660D02*
X155892500Y-43491660D01*
D14*
X155892500Y-43491660D03*
D13*
X149542500Y-46031660D02*
X150852502Y-44571660D01*
D14*
X150852500Y-44571660D03*
D13*
X93929840Y-82153880D02*
X93969840Y-81573880D01*
D14*
X93969840Y-81573880D03*
D13*
X87619840Y-84113880D02*
X88929842Y-82653880D01*
D14*
X88929840Y-82653880D03*
D13*
X58245380Y-101216580D02*
X58285380Y-100636580D01*
D14*
X58285380Y-100636580D03*
D13*
X51935380Y-103176580D02*
X53245382Y-101716580D01*
D14*
X53245380Y-101716580D03*
D13*
X248722520Y-101216580D02*
X248762520Y-100636580D01*
D14*
X248762520Y-100636580D03*
D13*
X242412520Y-103176580D02*
X243722522Y-101716580D01*
D14*
X243722520Y-101716580D03*
D13*
X79652500Y-44071660D02*
X79692500Y-43491660D01*
D14*
X79692500Y-43491660D03*
D13*
X73342500Y-46031660D02*
X74652502Y-44571660D01*
D14*
X74652500Y-44571660D03*
D13*
X132029840Y-82153880D02*
X132069840Y-81573880D01*
D14*
X132069840Y-81573880D03*
D13*
X125719840Y-84113880D02*
X127029842Y-82653880D01*
D14*
X127029840Y-82653880D03*
D13*
X174902500Y-44071660D02*
X174942500Y-43491660D01*
D14*
X174942500Y-43491660D03*
D13*
X168592500Y-46031660D02*
X169902502Y-44571660D01*
D14*
X169902500Y-44571660D03*
D13*
X36782380Y-44079280D02*
X36822380Y-43499280D01*
D14*
X36822380Y-43499280D03*
D13*
X30472380Y-46039280D02*
X31782382Y-44579280D01*
D14*
X31782380Y-44579280D03*
D13*
X136802500Y-44071660D02*
X136842500Y-43491660D01*
D14*
X136842500Y-43491660D03*
D13*
X130492500Y-46031660D02*
X131802502Y-44571660D01*
D14*
X131802500Y-44571660D03*
D13*
X246329840Y-82153880D02*
X246369840Y-81573880D01*
D14*
X246369840Y-81573880D03*
D13*
X240019840Y-84113880D02*
X241329842Y-82653880D01*
D14*
X241329840Y-82653880D03*
D13*
X43927400Y-82174200D02*
X43967400Y-81594200D01*
D14*
X43967400Y-81594200D03*
D13*
X37617400Y-84134200D02*
X38927402Y-82674200D01*
D14*
X38927400Y-82674200D03*
D13*
X282052400Y-82158960D02*
X282092400Y-81578960D01*
D14*
X282092400Y-81578960D03*
D13*
X275742400Y-84118960D02*
X277052402Y-82658960D01*
D14*
X277052400Y-82658960D03*
D13*
X236817540Y-63121660D02*
X236857540Y-62541660D01*
D14*
X236857540Y-62541660D03*
D13*
X230507540Y-65081660D02*
X231817542Y-63621660D01*
D14*
X231817540Y-63621660D03*
D13*
X84417540Y-63121660D02*
X84457540Y-62541660D01*
D14*
X84457540Y-62541660D03*
D13*
X78107540Y-65081660D02*
X79417542Y-63621660D01*
D14*
X79417540Y-63621660D03*
D13*
X117752500Y-44071660D02*
X117792500Y-43491660D01*
D14*
X117792500Y-43491660D03*
D13*
X111442500Y-46031660D02*
X112752502Y-44571660D01*
D14*
X112752500Y-44571660D03*
D13*
X255867540Y-63121660D02*
X255907540Y-62541660D01*
D14*
X255907540Y-62541660D03*
D13*
X249557540Y-65081660D02*
X250867542Y-63621660D01*
D14*
X250867540Y-63621660D03*
D13*
X60602500Y-44071660D02*
X60642500Y-43491660D01*
D14*
X60642500Y-43491660D03*
D13*
X54292500Y-46031660D02*
X55602502Y-44571660D01*
D14*
X55602500Y-44571660D03*
D13*
X232052500Y-44071660D02*
X232092500Y-43491660D01*
D14*
X232092500Y-43491660D03*
D13*
X225742500Y-46031660D02*
X227052502Y-44571660D01*
D14*
X227052500Y-44571660D03*
D13*
X213002500Y-44071660D02*
X213042500Y-43491660D01*
D14*
X213042500Y-43491660D03*
D13*
X206692500Y-46031660D02*
X208002502Y-44571660D01*
D14*
X208002500Y-44571660D03*
D13*
X170129840Y-82153880D02*
X170169840Y-81573880D01*
D14*
X170169840Y-81573880D03*
D13*
X163819840Y-84113880D02*
X165129842Y-82653880D01*
D14*
X165129840Y-82653880D03*
D13*
X241577500Y-25021660D02*
X241617500Y-24441660D01*
D14*
X241617500Y-24441660D03*
D13*
X235267500Y-26981660D02*
X236577502Y-25521660D01*
D14*
X236577500Y-25521660D03*
D13*
X272529940Y-101216580D02*
X272569940Y-100636580D01*
D14*
X272569940Y-100636580D03*
D13*
X266219940Y-103176580D02*
X267529942Y-101716580D01*
D14*
X267529940Y-101716580D03*
D13*
X189179840Y-82153880D02*
X189219840Y-81573880D01*
D14*
X189219840Y-81573880D03*
D13*
X182869840Y-84113880D02*
X184179842Y-82653880D01*
D14*
X184179840Y-82653880D03*
D13*
X217767540Y-63121660D02*
X217807540Y-62541660D01*
D14*
X217807540Y-62541660D03*
D13*
X211457540Y-65081660D02*
X212767542Y-63621660D01*
D14*
X212767540Y-63621660D03*
D13*
X198717540Y-63121660D02*
X198757540Y-62541660D01*
D14*
X198757540Y-62541660D03*
D13*
X192407540Y-65081660D02*
X193717542Y-63621660D01*
D14*
X193717540Y-63621660D03*
D13*
X179667540Y-63121660D02*
X179707540Y-62541660D01*
D14*
X179707540Y-62541660D03*
D13*
X173357540Y-65081660D02*
X174667542Y-63621660D01*
D14*
X174667540Y-63621660D03*
D13*
X193952500Y-44071660D02*
X193992500Y-43491660D01*
D14*
X193992500Y-43491660D03*
D13*
X187642500Y-46031660D02*
X188952502Y-44571660D01*
D14*
X188952500Y-44571660D03*
D13*
X160617540Y-63121660D02*
X160657540Y-62541660D01*
D14*
X160657540Y-62541660D03*
D13*
X154307540Y-65081660D02*
X155617542Y-63621660D01*
D14*
X155617540Y-63621660D03*
D13*
X141567540Y-63121660D02*
X141607540Y-62541660D01*
D14*
X141607540Y-62541660D03*
D13*
X135257540Y-65081660D02*
X136567542Y-63621660D01*
D14*
X136567540Y-63621660D03*
D13*
X122517540Y-63121660D02*
X122557540Y-62541660D01*
D14*
X122557540Y-62541660D03*
D13*
X116207540Y-65081660D02*
X117517542Y-63621660D01*
D14*
X117517540Y-63621660D03*
D13*
X32027500Y-25021660D02*
X32067500Y-24441660D01*
D14*
X32067500Y-24441660D03*
D13*
X25717500Y-26981660D02*
X27027502Y-25521660D01*
D14*
X27027500Y-25521660D03*
D13*
X260627500Y-25021660D02*
X260667500Y-24441660D01*
D14*
X260667500Y-24441660D03*
D13*
X254317500Y-26981660D02*
X255627502Y-25521660D01*
D14*
X255627500Y-25521660D03*
D13*
X286840300Y-63119120D02*
X286880300Y-62539120D01*
D14*
X286880300Y-62539120D03*
D13*
X280530300Y-65079120D02*
X281840302Y-63619120D01*
D14*
X281840300Y-63619120D03*
D13*
X98702500Y-44071660D02*
X98742500Y-43491660D01*
D14*
X98742500Y-43491660D03*
D13*
X92392500Y-46031660D02*
X93702502Y-44571660D01*
D14*
X93702500Y-44571660D03*
D13*
X227279840Y-82153880D02*
X227319840Y-81573880D01*
D14*
X227319840Y-81573880D03*
D13*
X220969840Y-84113880D02*
X222279842Y-82653880D01*
D14*
X222279840Y-82653880D03*
D13*
X103467540Y-63121660D02*
X103507540Y-62541660D01*
D14*
X103507540Y-62541660D03*
D13*
X97157540Y-65081660D02*
X98467542Y-63621660D01*
D14*
X98467540Y-63621660D03*
D13*
X34415100Y-101216580D02*
X34455100Y-100636580D01*
D14*
X34455100Y-100636580D03*
D13*
X28105100Y-103176580D02*
X29415102Y-101716580D01*
D14*
X29415100Y-101716580D03*
D13*
X296334820Y-101216580D02*
X296374820Y-100636580D01*
D14*
X296374820Y-100636580D03*
D13*
X290024820Y-103176580D02*
X291334822Y-101716580D01*
D14*
X291334820Y-101716580D03*
D13*
X208229840Y-82153880D02*
X208269840Y-81573880D01*
D14*
X208269840Y-81573880D03*
D13*
X201919840Y-84113880D02*
X203229842Y-82653880D01*
D14*
X203229840Y-82653880D03*
D13*
X39164900Y-63131820D02*
X39204900Y-62551820D01*
D14*
X39204900Y-62551820D03*
D13*
X32854900Y-65091820D02*
X34164902Y-63631820D01*
D14*
X34164900Y-63631820D03*
D13*
X112979840Y-82153880D02*
X113019840Y-81573880D01*
D14*
X113019840Y-81573880D03*
D13*
X106669840Y-84113880D02*
X107979842Y-82653880D01*
D14*
X107979840Y-82653880D03*
D13*
X293972500Y-44086660D02*
X294012500Y-43506660D01*
D14*
X294012500Y-43506660D03*
D13*
X287662500Y-46046660D02*
X288972502Y-44586660D01*
D14*
X288972500Y-44586660D03*
D13*
X289202500Y-25021660D02*
X289242500Y-24441660D01*
D14*
X289242500Y-24441660D03*
D13*
X282892500Y-26981660D02*
X284202502Y-25521660D01*
D14*
X284202500Y-25521660D03*
D13*
X151079840Y-82153880D02*
X151119840Y-81573880D01*
D14*
X151119840Y-81573880D03*
D13*
X144769840Y-84113880D02*
X146079842Y-82653880D01*
D14*
X146079840Y-82653880D03*
D13*
X82073120Y-101216580D02*
X82113120Y-100636580D01*
D14*
X82113120Y-100636580D03*
D13*
X75763120Y-103176580D02*
X77073122Y-101716580D01*
D14*
X77073120Y-101716580D03*
D13*
X224953200Y-101196260D02*
X224993200Y-100616260D01*
D14*
X224993200Y-100616260D03*
D13*
X218643200Y-103156260D02*
X219953202Y-101696260D01*
D14*
X219953200Y-101696260D03*
D13*
X65367540Y-63121660D02*
X65407540Y-62541660D01*
D14*
X65407540Y-62541660D03*
D13*
X59057540Y-65081660D02*
X60367542Y-63621660D01*
D14*
X60367540Y-63621660D03*
D13*
X270152500Y-44071660D02*
X270192500Y-43491660D01*
D14*
X270192500Y-43491660D03*
D13*
X263842500Y-46031660D02*
X265152502Y-44571660D01*
D14*
X265152500Y-44571660D03*
D13*
X324889500Y-82114000D02*
X324929500Y-81534000D01*
D14*
X324929500Y-81534000D03*
D13*
X318579500Y-84074000D02*
X319889502Y-82614000D01*
D14*
X319889500Y-82614000D03*
D13*
X324889500Y-101221660D02*
X324929500Y-100641660D01*
D14*
X324929500Y-100641660D03*
D13*
X318579500Y-103181660D02*
X319889502Y-101721660D01*
D14*
X319889500Y-101721660D03*
D13*
X203477500Y-25021660D02*
X203517500Y-24441660D01*
D14*
X203517500Y-24441660D03*
D13*
X197167500Y-26981660D02*
X198477502Y-25521660D01*
D14*
X198477500Y-25521660D03*
D13*
X184427500Y-25021660D02*
X184467500Y-24441660D01*
D14*
X184467500Y-24441660D03*
D13*
X178117500Y-26981660D02*
X179427502Y-25521660D01*
D14*
X179427500Y-25521660D03*
D13*
X165377500Y-25021660D02*
X165417500Y-24441660D01*
D14*
X165417500Y-24441660D03*
D13*
X159067500Y-26981660D02*
X160377502Y-25521660D01*
D14*
X160377500Y-25521660D03*
D13*
X146327500Y-25021660D02*
X146367500Y-24441660D01*
D14*
X146367500Y-24441660D03*
D13*
X140017500Y-26981660D02*
X141327502Y-25521660D01*
D14*
X141327500Y-25521660D03*
D13*
X127277500Y-25021660D02*
X127317500Y-24441660D01*
D14*
X127317500Y-24441660D03*
D13*
X120967500Y-26981660D02*
X122277502Y-25521660D01*
D14*
X122277500Y-25521660D03*
D13*
X108227500Y-25021660D02*
X108267500Y-24441660D01*
D14*
X108267500Y-24441660D03*
D13*
X101917500Y-26981660D02*
X103227502Y-25521660D01*
D14*
X103227500Y-25521660D03*
D13*
X89177500Y-25021660D02*
X89217500Y-24441660D01*
D14*
X89217500Y-24441660D03*
D13*
X82867500Y-26981660D02*
X84177502Y-25521660D01*
D14*
X84177500Y-25521660D03*
D13*
X70127500Y-25021660D02*
X70167500Y-24441660D01*
D14*
X70167500Y-24441660D03*
D13*
X63817500Y-26981660D02*
X65127502Y-25521660D01*
D14*
X65127500Y-25521660D03*
D13*
X51077500Y-25021660D02*
X51117500Y-24441660D01*
D14*
X51117500Y-24441660D03*
D13*
X44767500Y-26981660D02*
X46077502Y-25521660D01*
D14*
X46077500Y-25521660D03*
D13*
X222527500Y-25021660D02*
X222567500Y-24441660D01*
D14*
X222567500Y-24441660D03*
D13*
X216217500Y-26981660D02*
X217527502Y-25521660D01*
D14*
X217527500Y-25521660D03*
D19*
X314965080Y-70081140D03*
D17*
X62992000Y-82968000D03*
D18*
X62992000Y-90768000D03*
D17*
X143891000Y-44868000D03*
D18*
X143891000Y-52668000D03*
D17*
X81915000Y-82968000D03*
D18*
X81915000Y-90768000D03*
D17*
X43942000Y-102018000D03*
D18*
X43942000Y-109818000D03*
D17*
X234442000Y-102018000D03*
D18*
X234442000Y-109818000D03*
D17*
X67691000Y-44995000D03*
D18*
X67691000Y-52795000D03*
D17*
X120015000Y-82968000D03*
D18*
X120015000Y-90768000D03*
D17*
X162941000Y-44868000D03*
D18*
X162941000Y-52668000D03*
D17*
X21336000Y-44995000D03*
D18*
X21336000Y-52795000D03*
D17*
X124841000Y-44868000D03*
D18*
X124841000Y-52668000D03*
D17*
X234315000Y-82968000D03*
D18*
X234315000Y-90768000D03*
D17*
X21336000Y-82841000D03*
D18*
X21336000Y-90641000D03*
D17*
X253365000Y-82968000D03*
D18*
X253365000Y-90768000D03*
D17*
X224790000Y-63918000D03*
D18*
X224790000Y-71718000D03*
D17*
X72390000Y-63918000D03*
D18*
X72390000Y-71718000D03*
D17*
X105791000Y-44995000D03*
D18*
X105791000Y-52795000D03*
D17*
X243840000Y-63918000D03*
D18*
X243840000Y-71718000D03*
D17*
X48641000Y-44995000D03*
D18*
X48641000Y-52795000D03*
D17*
X220091000Y-44868000D03*
D18*
X220091000Y-52668000D03*
D17*
X201041000Y-44868000D03*
D18*
X201041000Y-52668000D03*
D17*
X158115000Y-82968000D03*
D18*
X158115000Y-90768000D03*
D17*
X229616000Y-25945000D03*
D18*
X229616000Y-33745000D03*
D17*
X258191000Y-102018000D03*
D18*
X258191000Y-109818000D03*
D17*
X177165000Y-82968000D03*
D18*
X177165000Y-90768000D03*
D17*
X205740000Y-63918000D03*
D18*
X205740000Y-71718000D03*
D17*
X186690000Y-63918000D03*
D18*
X186690000Y-71718000D03*
D17*
X167640000Y-63918000D03*
D18*
X167640000Y-71718000D03*
D17*
X181991000Y-44868000D03*
D18*
X181991000Y-52668000D03*
D17*
X148590000Y-63918000D03*
D18*
X148590000Y-71718000D03*
D17*
X129540000Y-63918000D03*
D18*
X129540000Y-71718000D03*
D17*
X110490000Y-63918000D03*
D18*
X110490000Y-71718000D03*
D17*
X248666000Y-25945000D03*
D18*
X248666000Y-33745000D03*
D17*
X262890000Y-63918000D03*
D18*
X262890000Y-71718000D03*
D17*
X86741000Y-44995000D03*
D18*
X86741000Y-52795000D03*
D17*
X215265000Y-82968000D03*
D18*
X215265000Y-90768000D03*
D17*
X91440000Y-63918000D03*
D18*
X91440000Y-71718000D03*
D17*
X21336000Y-102018000D03*
D18*
X21336000Y-109818000D03*
D17*
X281940000Y-102018000D03*
D18*
X281940000Y-109818000D03*
D17*
X196215000Y-82968000D03*
D18*
X196215000Y-90768000D03*
D17*
X21336000Y-63918000D03*
D18*
X21336000Y-71718000D03*
D17*
X100965000Y-82968000D03*
D18*
X100965000Y-90768000D03*
D17*
X277241000Y-44868000D03*
D18*
X277241000Y-52668000D03*
D17*
X267716000Y-25945000D03*
D18*
X267716000Y-33745000D03*
D17*
X139065000Y-82968000D03*
D18*
X139065000Y-90768000D03*
D17*
X67691000Y-102018000D03*
D18*
X67691000Y-109818000D03*
D17*
X210566000Y-102018000D03*
D18*
X210566000Y-109818000D03*
D17*
X53340000Y-63918000D03*
D18*
X53340000Y-71718000D03*
D17*
X21336000Y-25945000D03*
D18*
X21336000Y-33745000D03*
D17*
X258064000Y-44901000D03*
D18*
X258064000Y-52701000D03*
D17*
X239141000Y-44868000D03*
D18*
X239141000Y-52668000D03*
D17*
X312928000Y-82968000D03*
D18*
X312928000Y-90768000D03*
D17*
X312928000Y-102018000D03*
D18*
X312928000Y-109818000D03*
D17*
X91567000Y-102018000D03*
D18*
X91567000Y-109818000D03*
D17*
X191516000Y-25945000D03*
D18*
X191516000Y-33745000D03*
D17*
X172466000Y-25945000D03*
D18*
X172466000Y-33745000D03*
D17*
X153416000Y-25945000D03*
D18*
X153416000Y-33745000D03*
D17*
X134366000Y-25945000D03*
D18*
X134366000Y-33745000D03*
D17*
X115316000Y-25945000D03*
D18*
X115316000Y-33745000D03*
D17*
X96266000Y-25945000D03*
D18*
X96266000Y-33745000D03*
D17*
X77216000Y-25945000D03*
D18*
X77216000Y-33745000D03*
D17*
X58166000Y-25945000D03*
D18*
X58166000Y-33745000D03*
D17*
X39116000Y-25945000D03*
D18*
X39116000Y-33745000D03*
D17*
X210566000Y-25945000D03*
D18*
X210566000Y-33745000D03*
D21*
X304006250Y-78581250D03*
X291306250Y-73025000D03*
X306387500Y-51593750D03*
X313531250Y-56356250D03*
X308768750Y-74612500D03*
X304006250Y-74612500D03*
X317500000Y-56356250D03*
X317500000Y-56356250D03*
D22*
X295550496Y-78581250D02*
X291306250Y-74337004D01*
X304006250Y-78581250D02*
X295550496Y-78581250D01*
X291306250Y-74337004D02*
X291306250Y-73025000D01*
D23*
X315964569Y-69081651D02*
X314965080Y-70081140D01*
X316543541Y-68502679D02*
X315964569Y-69081651D01*
X316543541Y-61187821D02*
X316543541Y-68502679D01*
X315153040Y-59797320D02*
X316543541Y-61187821D01*
X307181250Y-28575000D02*
X306387500Y-29368750D01*
X306387500Y-29368750D02*
X306387500Y-51593750D01*
X313738827Y-59797320D02*
X315153040Y-59797320D01*
X313531250Y-59589743D02*
X313738827Y-59797320D01*
X313531250Y-56356250D02*
X313531250Y-59589743D01*
X307181250Y-28575000D02*
X310673750Y-28575000D01*
D22*
X216217500Y-36506660D02*
X225742500Y-46031660D01*
X216217500Y-26981660D02*
X216217500Y-36506660D01*
X225742500Y-60316620D02*
X230507540Y-65081660D01*
X225742500Y-46031660D02*
X225742500Y-60316620D01*
X230507540Y-74601580D02*
X240019840Y-84113880D01*
X230507540Y-65081660D02*
X230507540Y-74601580D01*
X256917606Y-103176580D02*
X266219940Y-103176580D01*
X240019840Y-86278814D02*
X256917606Y-103176580D01*
X240019840Y-84113880D02*
X240019840Y-86278814D01*
X319881250Y-49847500D02*
X320833750Y-48895000D01*
X318722251Y-55133999D02*
X319881250Y-53975000D01*
X305593750Y-58737500D02*
X309197251Y-55133999D01*
X305593750Y-73025000D02*
X305593750Y-58737500D01*
X309562500Y-76993750D02*
X305593750Y-73025000D01*
X266219940Y-113026190D02*
X267833490Y-114639740D01*
X266219940Y-103176580D02*
X266219940Y-113026190D01*
X309197251Y-55133999D02*
X318722251Y-55133999D01*
X267833490Y-114639740D02*
X309562500Y-114639740D01*
X319881250Y-53975000D02*
X319881250Y-49847500D01*
X309562500Y-114639740D02*
X309562500Y-76993750D01*
X44767500Y-36506660D02*
X54292500Y-46031660D01*
X44767500Y-26981660D02*
X44767500Y-36506660D01*
X54292500Y-60316620D02*
X59057540Y-65081660D01*
X54292500Y-46031660D02*
X54292500Y-60316620D01*
X68569840Y-81343880D02*
X68569840Y-84113880D01*
X59057540Y-71831580D02*
X68569840Y-81343880D01*
X59057540Y-65081660D02*
X59057540Y-71831580D01*
X53376370Y-103176580D02*
X51935380Y-103176580D01*
X68569840Y-87983110D02*
X53376370Y-103176580D01*
X68569840Y-84113880D02*
X68569840Y-87983110D01*
X320833750Y-31115000D02*
X325913750Y-31115000D01*
X44767500Y-26670000D02*
X53047831Y-18389669D01*
X314325000Y-24606250D02*
X320833750Y-31115000D01*
X312375822Y-18389669D02*
X314325000Y-20338847D01*
X44767500Y-26981660D02*
X44767500Y-26670000D01*
X314325000Y-20338847D02*
X314325000Y-24606250D01*
X53047831Y-18389669D02*
X312375822Y-18389669D01*
X73342500Y-38576250D02*
X73342500Y-46031660D01*
X63817500Y-29051250D02*
X73342500Y-38576250D01*
X63817500Y-26981660D02*
X63817500Y-29051250D01*
X73342500Y-60316620D02*
X78107540Y-65081660D01*
X73342500Y-46031660D02*
X73342500Y-60316620D01*
X78107540Y-74601580D02*
X87619840Y-84113880D01*
X78107540Y-65081660D02*
X78107540Y-74601580D01*
X87551841Y-91387859D02*
X75763120Y-103176580D01*
X87551841Y-86279409D02*
X87551841Y-91387859D01*
X87619840Y-86211410D02*
X87551841Y-86279409D01*
X87619840Y-84113880D02*
X87619840Y-86211410D01*
X322580000Y-33655000D02*
X325913750Y-33655000D01*
X63817500Y-26981660D02*
X63817500Y-26670000D01*
X63817500Y-26670000D02*
X71643821Y-18843679D01*
X71643821Y-18843679D02*
X312187765Y-18843679D01*
X313660173Y-20316087D02*
X313660173Y-24735173D01*
X313660173Y-24735173D02*
X322580000Y-33655000D01*
X312187765Y-18843679D02*
X313660173Y-20316087D01*
X82867500Y-36506660D02*
X92392500Y-46031660D01*
X82867500Y-26981660D02*
X82867500Y-36506660D01*
X92392500Y-60316620D02*
X97157540Y-65081660D01*
X92392500Y-46031660D02*
X92392500Y-60316620D01*
X97157540Y-74601580D02*
X106669840Y-84113880D01*
X97157540Y-65081660D02*
X97157540Y-74601580D01*
X324440520Y-36195000D02*
X325913750Y-36195000D01*
X313191510Y-24945990D02*
X324440520Y-36195000D01*
X82867500Y-26670000D02*
X90239811Y-19297689D01*
X311999708Y-19297689D02*
X313206163Y-20504144D01*
X82867500Y-26981660D02*
X82867500Y-26670000D01*
X90239811Y-19297689D02*
X311999708Y-19297689D01*
X313206163Y-24931337D02*
X313191510Y-24945990D01*
X313206163Y-20504144D02*
X313206163Y-24931337D01*
X101917500Y-36506660D02*
X111442500Y-46031660D01*
X101917500Y-26981660D02*
X101917500Y-36506660D01*
X116207540Y-74601580D02*
X125719840Y-84113880D01*
X116207540Y-65081660D02*
X116207540Y-74601580D01*
X142612526Y-103171500D02*
X147213320Y-103171500D01*
X125719840Y-86278814D02*
X142612526Y-103171500D01*
X125719840Y-84113880D02*
X125719840Y-86278814D01*
X312737500Y-25558750D02*
X325913750Y-38735000D01*
X311811651Y-19751699D02*
X312737500Y-20677548D01*
X101917500Y-26981660D02*
X109147461Y-19751699D01*
X312737500Y-20677548D02*
X312737500Y-25558750D01*
X109147461Y-19751699D02*
X311811651Y-19751699D01*
X112167001Y-46756161D02*
X112167001Y-55525001D01*
X111442500Y-46031660D02*
X112167001Y-46756161D01*
X117517540Y-60875540D02*
X117517540Y-63621660D01*
X112167001Y-55525001D02*
X117517540Y-60875540D01*
X120967500Y-36506660D02*
X130492500Y-46031660D01*
X120967500Y-26981660D02*
X120967500Y-36506660D01*
X130492500Y-60316620D02*
X135257540Y-65081660D01*
X130492500Y-46031660D02*
X130492500Y-60316620D01*
X135257540Y-74601580D02*
X144769840Y-84113880D01*
X135257540Y-65081660D02*
X135257540Y-74601580D01*
X144769840Y-84113880D02*
X144769840Y-86278814D01*
X156900974Y-100258974D02*
X144769840Y-88127840D01*
X158750000Y-100258974D02*
X156900974Y-100258974D01*
X144769840Y-88127840D02*
X144769840Y-84113880D01*
X331787500Y-41275000D02*
X333375000Y-42862500D01*
X325913750Y-41275000D02*
X331787500Y-41275000D01*
X333375000Y-42862500D02*
X333375000Y-112712500D01*
X333375000Y-112712500D02*
X328612500Y-117475000D01*
X158750000Y-117475000D02*
X158750000Y-100258974D01*
X328612500Y-117475000D02*
X158750000Y-117475000D01*
X140017500Y-36506660D02*
X149542500Y-46031660D01*
X140017500Y-26981660D02*
X140017500Y-36506660D01*
X149542500Y-60316620D02*
X154307540Y-65081660D01*
X149542500Y-46031660D02*
X149542500Y-60316620D01*
X163819840Y-81343880D02*
X163819840Y-84113880D01*
X154307540Y-71831580D02*
X163819840Y-81343880D01*
X154307540Y-65081660D02*
X154307540Y-71831580D01*
X332285990Y-43815000D02*
X325913750Y-43815000D01*
X332920990Y-44450000D02*
X332285990Y-43815000D01*
X163819840Y-116988590D02*
X163852240Y-117020990D01*
X332920990Y-112524444D02*
X332920990Y-44450000D01*
X163852240Y-117020990D02*
X328424444Y-117020990D01*
X163819840Y-84113880D02*
X163819840Y-116988590D01*
X328424444Y-117020990D02*
X332920990Y-112524444D01*
X159067500Y-36506660D02*
X168592500Y-46031660D01*
X159067500Y-26981660D02*
X159067500Y-36506660D01*
X168592500Y-60316620D02*
X173357540Y-65081660D01*
X168592500Y-46031660D02*
X168592500Y-60316620D01*
X173357540Y-74601580D02*
X182869840Y-84113880D01*
X173357540Y-65081660D02*
X173357540Y-74601580D01*
X331990730Y-46355000D02*
X325913750Y-46355000D01*
X332466980Y-46831250D02*
X331990730Y-46355000D01*
X182869840Y-116373910D02*
X183062910Y-116566980D01*
X182869840Y-84113880D02*
X182869840Y-116373910D01*
X183062910Y-116566980D02*
X328236388Y-116566980D01*
X328236388Y-116566980D02*
X332466980Y-112336388D01*
X332466980Y-112336388D02*
X332466980Y-46831250D01*
X178117500Y-36506660D02*
X187642500Y-46031660D01*
X178117500Y-26981660D02*
X178117500Y-36506660D01*
X187642500Y-60316620D02*
X192407540Y-65081660D01*
X187642500Y-46031660D02*
X187642500Y-60316620D01*
X192407540Y-74601580D02*
X201919840Y-84113880D01*
X192407540Y-65081660D02*
X192407540Y-74601580D01*
X201919840Y-86432900D02*
X218643200Y-103156260D01*
X201919840Y-84113880D02*
X201919840Y-86432900D01*
X218643200Y-115455700D02*
X218643200Y-103156260D01*
X219075000Y-115887500D02*
X218643200Y-115455700D01*
X331470000Y-48895000D02*
X331787500Y-49212500D01*
X331787500Y-112373802D02*
X328273802Y-115887500D01*
X325913750Y-48895000D02*
X331470000Y-48895000D01*
X331787500Y-49212500D02*
X331787500Y-112373802D01*
X328273802Y-115887500D02*
X219075000Y-115887500D01*
X197167500Y-36506660D02*
X206692500Y-46031660D01*
X197167500Y-26981660D02*
X197167500Y-36506660D01*
X206692500Y-60316620D02*
X211457540Y-65081660D01*
X206692500Y-46031660D02*
X206692500Y-60316620D01*
X211457540Y-74601580D02*
X220969840Y-84113880D01*
X211457540Y-65081660D02*
X211457540Y-74601580D01*
X237867606Y-103176580D02*
X242412520Y-103176580D01*
X220969840Y-86278814D02*
X237867606Y-103176580D01*
X220969840Y-84113880D02*
X220969840Y-86278814D01*
X242412520Y-103176580D02*
X242412520Y-114618770D01*
X242887500Y-115093750D02*
X328425486Y-115093750D01*
X242412520Y-114618770D02*
X242887500Y-115093750D01*
X331333490Y-112185746D02*
X331333490Y-51933490D01*
X328425486Y-115093750D02*
X331333490Y-112185746D01*
X326412240Y-51933490D02*
X323373750Y-48895000D01*
X331333490Y-51933490D02*
X326412240Y-51933490D01*
X254317500Y-36506660D02*
X263842500Y-46031660D01*
X254317500Y-26981660D02*
X254317500Y-36506660D01*
X280530300Y-64884394D02*
X280530300Y-65079120D01*
X263842500Y-48196594D02*
X280530300Y-64884394D01*
X263842500Y-46031660D02*
X263842500Y-48196594D01*
X318579500Y-84074000D02*
X318579500Y-103181660D01*
X309072117Y-53975000D02*
X315118750Y-53975000D01*
X280530300Y-67244054D02*
X285517496Y-72231250D01*
X315118750Y-53975000D02*
X315753750Y-53340000D01*
X280530300Y-65079120D02*
X280530300Y-67244054D01*
X315753750Y-53340000D02*
X315753750Y-48895000D01*
X304951684Y-58095433D02*
X309072117Y-53975000D01*
X304685730Y-72231250D02*
X304685730Y-58361386D01*
X304685730Y-58361386D02*
X304951684Y-58095433D01*
X318579500Y-84074000D02*
X318230250Y-84074000D01*
X318230250Y-84074000D02*
X308768750Y-74612500D01*
X304006250Y-74612500D02*
X304006250Y-72231250D01*
X285517496Y-72231250D02*
X304006250Y-72231250D01*
X304006250Y-72231250D02*
X304685730Y-72231250D01*
X235267500Y-36506660D02*
X244792500Y-46031660D01*
X235267500Y-26981660D02*
X235267500Y-36506660D01*
X249557540Y-67246594D02*
X266429906Y-84118960D01*
X266429906Y-84118960D02*
X275742400Y-84118960D01*
X249557540Y-65081660D02*
X249557540Y-67246594D01*
X275742400Y-88894160D02*
X290024820Y-103176580D01*
X275742400Y-84118960D02*
X275742400Y-88894160D01*
X290024820Y-113018570D02*
X291191980Y-114185730D01*
X290024820Y-103176580D02*
X290024820Y-113018570D01*
X291191980Y-114185730D02*
X309108490Y-114185730D01*
X309108490Y-77181806D02*
X305139740Y-73213057D01*
X309108490Y-114185730D02*
X309108490Y-77181806D01*
X305139740Y-58549443D02*
X309009194Y-54679989D01*
X305139740Y-73213057D02*
X305139740Y-58549443D01*
X309009194Y-54679989D02*
X317500000Y-54679989D01*
X318293750Y-53886239D02*
X318293750Y-48895000D01*
X317500000Y-54679989D02*
X318293750Y-53886239D01*
X244792500Y-46031660D02*
X244792500Y-52768500D01*
X250867540Y-58843540D02*
X250867540Y-63621660D01*
X244792500Y-52768500D02*
X250867540Y-58843540D01*
X282892500Y-41276660D02*
X287662500Y-46046660D01*
X282892500Y-26981660D02*
X282892500Y-41276660D01*
X312737500Y-53181250D02*
X313213750Y-52705000D01*
X313213750Y-52705000D02*
X313213750Y-48895000D01*
X287662500Y-55887500D02*
X289718750Y-57943750D01*
X304461299Y-57943750D02*
X309223799Y-53181250D01*
X287662500Y-46046660D02*
X287662500Y-55887500D01*
X289718750Y-57943750D02*
X304461299Y-57943750D01*
X309223799Y-53181250D02*
X312737500Y-53181250D01*
X329653040Y-62297320D02*
X323441070Y-62297320D01*
X323441070Y-62297320D02*
X317500000Y-56356250D01*
X25717500Y-41284400D02*
X30472380Y-46039280D01*
X25717500Y-26981660D02*
X25717500Y-41284400D01*
X30472380Y-62709300D02*
X32854900Y-65091820D01*
X30472380Y-46039280D02*
X30472380Y-62709300D01*
X32854900Y-79371700D02*
X37617400Y-84134200D01*
X32854900Y-65091820D02*
X32854900Y-79371700D01*
X37549401Y-86275599D02*
X37549401Y-93732279D01*
X37549401Y-93732279D02*
X28105100Y-103176580D01*
X37617400Y-86207600D02*
X37549401Y-86275599D01*
X37617400Y-84134200D02*
X37617400Y-86207600D01*
X312563879Y-17935659D02*
X33658091Y-17935659D01*
X25717500Y-25876250D02*
X25717500Y-26981660D01*
X325913750Y-20955000D02*
X315583220Y-20955000D01*
X33658091Y-17935659D02*
X25717500Y-25876250D01*
X315583220Y-20955000D02*
X312563879Y-17935659D01*
X321591629Y-67011039D02*
X317042289Y-67011039D01*
X323850000Y-68138040D02*
X322718630Y-68138040D01*
X322718630Y-68138040D02*
X321591629Y-67011039D01*
X316407040Y-57297320D02*
X315153040Y-57297320D01*
X317042289Y-57932569D02*
X316407040Y-57297320D01*
X317042289Y-67011039D02*
X317042289Y-57932569D01*
M02*
