G04 #@! TF.GenerationSoftware,KiCad,Pcbnew,(5.1.5)-3*
G04 #@! TF.CreationDate,2020-03-15T19:25:50-07:00*
G04 #@! TF.ProjectId,keyboard-layout,6b657962-6f61-4726-942d-6c61796f7574,rev?*
G04 #@! TF.SameCoordinates,Original*
G04 #@! TF.FileFunction,Soldermask,Top*
G04 #@! TF.FilePolarity,Negative*
%FSLAX46Y46*%
G04 Gerber Fmt 4.6, Leading zero omitted, Abs format (unit mm)*
G04 Created by KiCad (PCBNEW (5.1.5)-3) date 2020-03-15 19:25:50*
%MOMM*%
%LPD*%
G04 APERTURE LIST*
%ADD10R,2.000000X2.000000*%
%ADD11C,2.000000*%
%ADD12R,3.200000X2.000000*%
%ADD13C,2.700000*%
%ADD14C,3.987800*%
%ADD15C,1.750000*%
%ADD16C,3.048000*%
%ADD17R,1.752600X1.752600*%
%ADD18C,1.752600*%
%ADD19R,3.250000X2.000000*%
%ADD20R,2.000000X3.250000*%
%ADD21C,1.600000*%
%ADD22R,1.600000X1.600000*%
%ADD23R,1.200000X1.200000*%
%ADD24C,1.998980*%
%ADD25O,1.600000X1.600000*%
G04 APERTURE END LIST*
D10*
X315153040Y-57297320D03*
D11*
X315153040Y-59797320D03*
X315153040Y-62297320D03*
D12*
X322653040Y-54197320D03*
X322653040Y-65397320D03*
D11*
X329653040Y-57297320D03*
X329653040Y-62297320D03*
D13*
X158115000Y-95631000D03*
D14*
X248602500Y-48571660D03*
D15*
X243522500Y-48571660D03*
X253682500Y-48571660D03*
D13*
X110490000Y-58801000D03*
X243840000Y-58674000D03*
D14*
X151023320Y-105711500D03*
D15*
X145943320Y-105711500D03*
X156103320Y-105711500D03*
D16*
X101023420Y-98726500D03*
X201023220Y-98726500D03*
D14*
X101023420Y-113966500D03*
X201023220Y-113966500D03*
D17*
X310673750Y-20955000D03*
D18*
X310673750Y-23495000D03*
X310673750Y-26035000D03*
X310673750Y-28575000D03*
X310673750Y-31115000D03*
X310673750Y-33655000D03*
X310673750Y-36195000D03*
X310673750Y-38735000D03*
X310673750Y-41275000D03*
X310673750Y-43815000D03*
X310673750Y-46355000D03*
X325913750Y-48895000D03*
X325913750Y-46355000D03*
X325913750Y-43815000D03*
X325913750Y-41275000D03*
X325913750Y-38735000D03*
X325913750Y-36195000D03*
X325913750Y-33655000D03*
X325913750Y-31115000D03*
X325913750Y-28575000D03*
X325913750Y-26035000D03*
X325913750Y-23495000D03*
X310902350Y-48895000D03*
X325913750Y-20955000D03*
X323373750Y-48895000D03*
X320833750Y-48895000D03*
X318293750Y-48895000D03*
X315753750Y-48895000D03*
X313213750Y-48895000D03*
D19*
X308895750Y-20955000D03*
X308895750Y-23495000D03*
X308895750Y-26035000D03*
X308895750Y-28575000D03*
X308895750Y-31115000D03*
X308895750Y-33655000D03*
X308895750Y-36195000D03*
X308895750Y-38735000D03*
X308895750Y-41275000D03*
X308895750Y-43815000D03*
X308895750Y-46355000D03*
X308895750Y-48895000D03*
X327691750Y-48895000D03*
X327691750Y-46355000D03*
X327691750Y-43815000D03*
X327691750Y-41275000D03*
X327691750Y-38735000D03*
X327691750Y-36195000D03*
X327691750Y-33655000D03*
X327691750Y-31115000D03*
X327691750Y-28575000D03*
X327691750Y-26035000D03*
X327691750Y-23495000D03*
X327691750Y-20955000D03*
D20*
X313213750Y-50800000D03*
X315753750Y-50800000D03*
X318293750Y-50800000D03*
X320833750Y-50800000D03*
X323373750Y-50800000D03*
D21*
X329565000Y-68048040D03*
D22*
X329565000Y-75848040D03*
D23*
X329565000Y-73523040D03*
X329565000Y-70373040D03*
D24*
X308107080Y-70081140D03*
D25*
X311531000Y-56261000D03*
D21*
X311531000Y-63881000D03*
D25*
X318770000Y-75758040D03*
D21*
X318770000Y-68138040D03*
D25*
X323850000Y-75758040D03*
D21*
X323850000Y-68138040D03*
D24*
X311536080Y-70081140D03*
D14*
X72379840Y-86653880D03*
D15*
X67299840Y-86653880D03*
X77459840Y-86653880D03*
D14*
X153352500Y-48571660D03*
D15*
X148272500Y-48571660D03*
X158432500Y-48571660D03*
D14*
X91429840Y-86653880D03*
D15*
X86349840Y-86653880D03*
X96509840Y-86653880D03*
D14*
X55745380Y-105716580D03*
D15*
X50665380Y-105716580D03*
X60825380Y-105716580D03*
D14*
X246222520Y-105716580D03*
D15*
X241142520Y-105716580D03*
X251302520Y-105716580D03*
D14*
X77152500Y-48571660D03*
D15*
X72072500Y-48571660D03*
X82232500Y-48571660D03*
D14*
X129529840Y-86653880D03*
D15*
X124449840Y-86653880D03*
X134609840Y-86653880D03*
D14*
X172402500Y-48571660D03*
D15*
X167322500Y-48571660D03*
X177482500Y-48571660D03*
D14*
X34282380Y-48579280D03*
D15*
X29202380Y-48579280D03*
X39362380Y-48579280D03*
D14*
X134302500Y-48571660D03*
D15*
X129222500Y-48571660D03*
X139382500Y-48571660D03*
D14*
X243829840Y-86653880D03*
D15*
X238749840Y-86653880D03*
X248909840Y-86653880D03*
D14*
X41427400Y-86674200D03*
D15*
X36347400Y-86674200D03*
X46507400Y-86674200D03*
D16*
X29489400Y-79689200D03*
X53365400Y-79689200D03*
D14*
X29489400Y-94929200D03*
X53365400Y-94929200D03*
X279552400Y-86658960D03*
D15*
X274472400Y-86658960D03*
X284632400Y-86658960D03*
D16*
X267614400Y-79673960D03*
X291490400Y-79673960D03*
D14*
X267614400Y-94913960D03*
X291490400Y-94913960D03*
X234317540Y-67621660D03*
D15*
X229237540Y-67621660D03*
X239397540Y-67621660D03*
D14*
X81917540Y-67621660D03*
D15*
X76837540Y-67621660D03*
X86997540Y-67621660D03*
D14*
X115252500Y-48571660D03*
D15*
X110172500Y-48571660D03*
X120332500Y-48571660D03*
D14*
X253367540Y-67621660D03*
D15*
X248287540Y-67621660D03*
X258447540Y-67621660D03*
D14*
X58102500Y-48571660D03*
D15*
X53022500Y-48571660D03*
X63182500Y-48571660D03*
D14*
X229552500Y-48571660D03*
D15*
X224472500Y-48571660D03*
X234632500Y-48571660D03*
D14*
X210502500Y-48571660D03*
D15*
X205422500Y-48571660D03*
X215582500Y-48571660D03*
D14*
X167629840Y-86653880D03*
D15*
X162549840Y-86653880D03*
X172709840Y-86653880D03*
D14*
X239077500Y-29521660D03*
D15*
X233997500Y-29521660D03*
X244157500Y-29521660D03*
D14*
X270029940Y-105716580D03*
D15*
X264949940Y-105716580D03*
X275109940Y-105716580D03*
D14*
X186679840Y-86653880D03*
D15*
X181599840Y-86653880D03*
X191759840Y-86653880D03*
D14*
X215267540Y-67621660D03*
D15*
X210187540Y-67621660D03*
X220347540Y-67621660D03*
D14*
X196217540Y-67621660D03*
D15*
X191137540Y-67621660D03*
X201297540Y-67621660D03*
D14*
X177167540Y-67621660D03*
D15*
X172087540Y-67621660D03*
X182247540Y-67621660D03*
D14*
X191452500Y-48571660D03*
D15*
X186372500Y-48571660D03*
X196532500Y-48571660D03*
D14*
X158117540Y-67621660D03*
D15*
X153037540Y-67621660D03*
X163197540Y-67621660D03*
D14*
X139067540Y-67621660D03*
D15*
X133987540Y-67621660D03*
X144147540Y-67621660D03*
D14*
X120017540Y-67621660D03*
D15*
X114937540Y-67621660D03*
X125097540Y-67621660D03*
D14*
X29527500Y-29521660D03*
D15*
X24447500Y-29521660D03*
X34607500Y-29521660D03*
D14*
X258127500Y-29521660D03*
D15*
X253047500Y-29521660D03*
X263207500Y-29521660D03*
D14*
X284340300Y-67619120D03*
D15*
X279260300Y-67619120D03*
X289420300Y-67619120D03*
D16*
X272402300Y-60634120D03*
X296278300Y-60634120D03*
D14*
X272402300Y-75874120D03*
X296278300Y-75874120D03*
X96202500Y-48571660D03*
D15*
X91122500Y-48571660D03*
X101282500Y-48571660D03*
D14*
X224779840Y-86653880D03*
D15*
X219699840Y-86653880D03*
X229859840Y-86653880D03*
D14*
X100967540Y-67621660D03*
D15*
X95887540Y-67621660D03*
X106047540Y-67621660D03*
D14*
X31915100Y-105716580D03*
D15*
X26835100Y-105716580D03*
X36995100Y-105716580D03*
D14*
X293834820Y-105716580D03*
D15*
X288754820Y-105716580D03*
X298914820Y-105716580D03*
D14*
X205729840Y-86653880D03*
D15*
X200649840Y-86653880D03*
X210809840Y-86653880D03*
D14*
X36664900Y-67631820D03*
D15*
X31584900Y-67631820D03*
X41744900Y-67631820D03*
D14*
X110479840Y-86653880D03*
D15*
X105399840Y-86653880D03*
X115559840Y-86653880D03*
D14*
X291472500Y-48586660D03*
D15*
X286392500Y-48586660D03*
X296552500Y-48586660D03*
D14*
X286702500Y-29521660D03*
D15*
X281622500Y-29521660D03*
X291782500Y-29521660D03*
D16*
X274764500Y-22536660D03*
X298640500Y-22536660D03*
D14*
X274764500Y-37776660D03*
X298640500Y-37776660D03*
X148579840Y-86653880D03*
D15*
X143499840Y-86653880D03*
X153659840Y-86653880D03*
D14*
X79573120Y-105716580D03*
D15*
X74493120Y-105716580D03*
X84653120Y-105716580D03*
D14*
X222453200Y-105696260D03*
D15*
X217373200Y-105696260D03*
X227533200Y-105696260D03*
D14*
X62867540Y-67621660D03*
D15*
X57787540Y-67621660D03*
X67947540Y-67621660D03*
D14*
X267652500Y-48571660D03*
D15*
X262572500Y-48571660D03*
X272732500Y-48571660D03*
D14*
X322389500Y-86614000D03*
D15*
X317309500Y-86614000D03*
X327469500Y-86614000D03*
D14*
X322389500Y-105721660D03*
D15*
X317309500Y-105721660D03*
X327469500Y-105721660D03*
D14*
X200977500Y-29521660D03*
D15*
X195897500Y-29521660D03*
X206057500Y-29521660D03*
D14*
X181927500Y-29521660D03*
D15*
X176847500Y-29521660D03*
X187007500Y-29521660D03*
D14*
X162877500Y-29521660D03*
D15*
X157797500Y-29521660D03*
X167957500Y-29521660D03*
D14*
X143827500Y-29521660D03*
D15*
X138747500Y-29521660D03*
X148907500Y-29521660D03*
D14*
X124777500Y-29521660D03*
D15*
X119697500Y-29521660D03*
X129857500Y-29521660D03*
D14*
X105727500Y-29521660D03*
D15*
X100647500Y-29521660D03*
X110807500Y-29521660D03*
D14*
X86677500Y-29521660D03*
D15*
X81597500Y-29521660D03*
X91757500Y-29521660D03*
D14*
X67627500Y-29521660D03*
D15*
X62547500Y-29521660D03*
X72707500Y-29521660D03*
D14*
X48577500Y-29521660D03*
D15*
X43497500Y-29521660D03*
X53657500Y-29521660D03*
D14*
X220027500Y-29521660D03*
D15*
X214947500Y-29521660D03*
X225107500Y-29521660D03*
D24*
X314965080Y-70081140D03*
D21*
X62992000Y-82968000D03*
D22*
X62992000Y-90768000D03*
D23*
X62992000Y-88443000D03*
X62992000Y-85293000D03*
D21*
X143891000Y-44868000D03*
D22*
X143891000Y-52668000D03*
D23*
X143891000Y-50343000D03*
X143891000Y-47193000D03*
D21*
X81915000Y-82968000D03*
D22*
X81915000Y-90768000D03*
D23*
X81915000Y-88443000D03*
X81915000Y-85293000D03*
D21*
X43942000Y-102018000D03*
D22*
X43942000Y-109818000D03*
D23*
X43942000Y-107493000D03*
X43942000Y-104343000D03*
D21*
X234442000Y-102018000D03*
D22*
X234442000Y-109818000D03*
D23*
X234442000Y-107493000D03*
X234442000Y-104343000D03*
D21*
X67691000Y-44995000D03*
D22*
X67691000Y-52795000D03*
D23*
X67691000Y-50470000D03*
X67691000Y-47320000D03*
D21*
X120015000Y-82968000D03*
D22*
X120015000Y-90768000D03*
D23*
X120015000Y-88443000D03*
X120015000Y-85293000D03*
D21*
X162941000Y-44868000D03*
D22*
X162941000Y-52668000D03*
D23*
X162941000Y-50343000D03*
X162941000Y-47193000D03*
D21*
X21336000Y-44995000D03*
D22*
X21336000Y-52795000D03*
D23*
X21336000Y-50470000D03*
X21336000Y-47320000D03*
D21*
X124841000Y-44868000D03*
D22*
X124841000Y-52668000D03*
D23*
X124841000Y-50343000D03*
X124841000Y-47193000D03*
D21*
X234315000Y-82968000D03*
D22*
X234315000Y-90768000D03*
D23*
X234315000Y-88443000D03*
X234315000Y-85293000D03*
D21*
X21336000Y-82841000D03*
D22*
X21336000Y-90641000D03*
D23*
X21336000Y-88316000D03*
X21336000Y-85166000D03*
D21*
X253365000Y-82968000D03*
D22*
X253365000Y-90768000D03*
D23*
X253365000Y-88443000D03*
X253365000Y-85293000D03*
D21*
X224790000Y-63918000D03*
D22*
X224790000Y-71718000D03*
D23*
X224790000Y-69393000D03*
X224790000Y-66243000D03*
D21*
X72390000Y-63918000D03*
D22*
X72390000Y-71718000D03*
D23*
X72390000Y-69393000D03*
X72390000Y-66243000D03*
D21*
X105791000Y-44995000D03*
D22*
X105791000Y-52795000D03*
D23*
X105791000Y-50470000D03*
X105791000Y-47320000D03*
D21*
X243840000Y-63918000D03*
D22*
X243840000Y-71718000D03*
D23*
X243840000Y-69393000D03*
X243840000Y-66243000D03*
D21*
X48641000Y-44995000D03*
D22*
X48641000Y-52795000D03*
D23*
X48641000Y-50470000D03*
X48641000Y-47320000D03*
D21*
X220091000Y-44868000D03*
D22*
X220091000Y-52668000D03*
D23*
X220091000Y-50343000D03*
X220091000Y-47193000D03*
D21*
X201041000Y-44868000D03*
D22*
X201041000Y-52668000D03*
D23*
X201041000Y-50343000D03*
X201041000Y-47193000D03*
D21*
X158115000Y-82968000D03*
D22*
X158115000Y-90768000D03*
D23*
X158115000Y-88443000D03*
X158115000Y-85293000D03*
D21*
X229616000Y-25945000D03*
D22*
X229616000Y-33745000D03*
D23*
X229616000Y-31420000D03*
X229616000Y-28270000D03*
D21*
X258191000Y-102018000D03*
D22*
X258191000Y-109818000D03*
D23*
X258191000Y-107493000D03*
X258191000Y-104343000D03*
D21*
X177165000Y-82968000D03*
D22*
X177165000Y-90768000D03*
D23*
X177165000Y-88443000D03*
X177165000Y-85293000D03*
D21*
X205740000Y-63918000D03*
D22*
X205740000Y-71718000D03*
D23*
X205740000Y-69393000D03*
X205740000Y-66243000D03*
D21*
X186690000Y-63918000D03*
D22*
X186690000Y-71718000D03*
D23*
X186690000Y-69393000D03*
X186690000Y-66243000D03*
D21*
X167640000Y-63918000D03*
D22*
X167640000Y-71718000D03*
D23*
X167640000Y-69393000D03*
X167640000Y-66243000D03*
D21*
X181991000Y-44868000D03*
D22*
X181991000Y-52668000D03*
D23*
X181991000Y-50343000D03*
X181991000Y-47193000D03*
D21*
X148590000Y-63918000D03*
D22*
X148590000Y-71718000D03*
D23*
X148590000Y-69393000D03*
X148590000Y-66243000D03*
D21*
X129540000Y-63918000D03*
D22*
X129540000Y-71718000D03*
D23*
X129540000Y-69393000D03*
X129540000Y-66243000D03*
D21*
X110490000Y-63918000D03*
D22*
X110490000Y-71718000D03*
D23*
X110490000Y-69393000D03*
X110490000Y-66243000D03*
D21*
X248666000Y-25945000D03*
D22*
X248666000Y-33745000D03*
D23*
X248666000Y-31420000D03*
X248666000Y-28270000D03*
D21*
X262890000Y-63918000D03*
D22*
X262890000Y-71718000D03*
D23*
X262890000Y-69393000D03*
X262890000Y-66243000D03*
D21*
X86741000Y-44995000D03*
D22*
X86741000Y-52795000D03*
D23*
X86741000Y-50470000D03*
X86741000Y-47320000D03*
D21*
X215265000Y-82968000D03*
D22*
X215265000Y-90768000D03*
D23*
X215265000Y-88443000D03*
X215265000Y-85293000D03*
D21*
X91440000Y-63918000D03*
D22*
X91440000Y-71718000D03*
D23*
X91440000Y-69393000D03*
X91440000Y-66243000D03*
D21*
X21336000Y-102018000D03*
D22*
X21336000Y-109818000D03*
D23*
X21336000Y-107493000D03*
X21336000Y-104343000D03*
D21*
X281940000Y-102018000D03*
D22*
X281940000Y-109818000D03*
D23*
X281940000Y-107493000D03*
X281940000Y-104343000D03*
D21*
X196215000Y-82968000D03*
D22*
X196215000Y-90768000D03*
D23*
X196215000Y-88443000D03*
X196215000Y-85293000D03*
D21*
X21336000Y-63918000D03*
D22*
X21336000Y-71718000D03*
D23*
X21336000Y-69393000D03*
X21336000Y-66243000D03*
D21*
X100965000Y-82968000D03*
D22*
X100965000Y-90768000D03*
D23*
X100965000Y-88443000D03*
X100965000Y-85293000D03*
D21*
X277241000Y-44868000D03*
D22*
X277241000Y-52668000D03*
D23*
X277241000Y-50343000D03*
X277241000Y-47193000D03*
D21*
X267716000Y-25945000D03*
D22*
X267716000Y-33745000D03*
D23*
X267716000Y-31420000D03*
X267716000Y-28270000D03*
D21*
X139065000Y-82968000D03*
D22*
X139065000Y-90768000D03*
D23*
X139065000Y-88443000D03*
X139065000Y-85293000D03*
D21*
X67691000Y-102018000D03*
D22*
X67691000Y-109818000D03*
D23*
X67691000Y-107493000D03*
X67691000Y-104343000D03*
D21*
X210566000Y-102018000D03*
D22*
X210566000Y-109818000D03*
D23*
X210566000Y-107493000D03*
X210566000Y-104343000D03*
D21*
X53340000Y-63918000D03*
D22*
X53340000Y-71718000D03*
D23*
X53340000Y-69393000D03*
X53340000Y-66243000D03*
D21*
X21336000Y-25945000D03*
D22*
X21336000Y-33745000D03*
D23*
X21336000Y-31420000D03*
X21336000Y-28270000D03*
D21*
X258064000Y-44901000D03*
D22*
X258064000Y-52701000D03*
D23*
X258064000Y-50376000D03*
X258064000Y-47226000D03*
D21*
X239141000Y-44868000D03*
D22*
X239141000Y-52668000D03*
D23*
X239141000Y-50343000D03*
X239141000Y-47193000D03*
D21*
X312928000Y-82968000D03*
D22*
X312928000Y-90768000D03*
D23*
X312928000Y-88443000D03*
X312928000Y-85293000D03*
D21*
X312928000Y-102018000D03*
D22*
X312928000Y-109818000D03*
D23*
X312928000Y-107493000D03*
X312928000Y-104343000D03*
D21*
X91567000Y-102018000D03*
D22*
X91567000Y-109818000D03*
D23*
X91567000Y-107493000D03*
X91567000Y-104343000D03*
D21*
X191516000Y-25945000D03*
D22*
X191516000Y-33745000D03*
D23*
X191516000Y-31420000D03*
X191516000Y-28270000D03*
D21*
X172466000Y-25945000D03*
D22*
X172466000Y-33745000D03*
D23*
X172466000Y-31420000D03*
X172466000Y-28270000D03*
D21*
X153416000Y-25945000D03*
D22*
X153416000Y-33745000D03*
D23*
X153416000Y-31420000D03*
X153416000Y-28270000D03*
D21*
X134366000Y-25945000D03*
D22*
X134366000Y-33745000D03*
D23*
X134366000Y-31420000D03*
X134366000Y-28270000D03*
D21*
X115316000Y-25945000D03*
D22*
X115316000Y-33745000D03*
D23*
X115316000Y-31420000D03*
X115316000Y-28270000D03*
D21*
X96266000Y-25945000D03*
D22*
X96266000Y-33745000D03*
D23*
X96266000Y-31420000D03*
X96266000Y-28270000D03*
D21*
X77216000Y-25945000D03*
D22*
X77216000Y-33745000D03*
D23*
X77216000Y-31420000D03*
X77216000Y-28270000D03*
D21*
X58166000Y-25945000D03*
D22*
X58166000Y-33745000D03*
D23*
X58166000Y-31420000D03*
X58166000Y-28270000D03*
D21*
X39116000Y-25945000D03*
D22*
X39116000Y-33745000D03*
D23*
X39116000Y-31420000D03*
X39116000Y-28270000D03*
D21*
X210566000Y-25945000D03*
D22*
X210566000Y-33745000D03*
D23*
X210566000Y-31420000D03*
X210566000Y-28270000D03*
M02*
