  0
SECTION
  2
HEADER
  9
$ANGBASE
  50
0.0
  9
$ANGDIR
  70
1
  9
$MEASUREMENT
  70
1
  0
ENDSEC
  0
SECTION
  2
TABLES
  0
TABLE
  2
LTYPE
  70
4
  0
LTYPE
  5
40F
  2
CONTINUOUS
  70
0
  3
Solid line
  72
65
  73
0
  40
0.0
  0
LTYPE
  5
410
  2
DASHDOT
 70
0
  3
Dash Dot ____ _ ____ _
 72
65
 73
4
 40
2.0
 49
1.25
 49
-0.25
 49
0.25
 49
-0.25
  0
LTYPE
  5
411
  2
DASHED
 70
0
  3
Dashed __ __ __ __ __
 72
65
 73
2
 40
0.75
 49
0.5
 49
-0.25
  0
LTYPE
  5
43B
  2
DOTTED
 70
0
  3
Dotted .  .  .  .
 72
65
 73
2
 40
0.2
 49
0.0
 49
-0.2
  0
ENDTAB
  0
TABLE
  2
STYLE
  70
4
  0
STYLE
  2
KICAD
  70
0
  40
0
  41
1
  42
1
  50
0
  71
0
  3
isocp.shx
  0
STYLE
  2
KICADB
  70
0
  40
0
  41
1
  42
1
  50
0
  71
0
  3
isocp.shx
  0
STYLE
  2
KICADI
  70
0
  40
0
  41
1
  42
1
  50
15
  71
0
  3
isocp.shx
  0
STYLE
  2
KICADBI
  70
0
  40
0
  41
1
  42
1
  50
15
  71
0
  3
isocp.shx
  0
ENDTAB
  0
TABLE
  2
LAYER
  70
1
  0
LAYER
  2
BLACK
  70
0
  62
7
  6
CONTINUOUS
  0
ENDTAB
  0
ENDSEC
  0
SECTION
  2
ENTITIES
0
LINE
8
BLACK
6
CONTINUOUS
10
333.238
20
-17.6245
11
333.241
21
-17.6271
0
LINE
8
BLACK
6
CONTINUOUS
10
333.241
20
-17.6271
11
333.245
21
-17.6296
0
LINE
8
BLACK
6
CONTINUOUS
10
333.245
20
-17.6296
11
333.85
21
-18.123
0
LINE
8
BLACK
6
CONTINUOUS
10
333.85
20
-18.123
11
333.851
21
-18.1234
0
LINE
8
BLACK
6
CONTINUOUS
10
333.851
20
-18.1234
11
333.854
21
-18.1266
0
LINE
8
BLACK
6
CONTINUOUS
10
333.854
20
-18.1266
11
333.857
21
-18.1298
0
LINE
8
BLACK
6
CONTINUOUS
10
333.857
20
-18.1298
11
334.355
21
-18.7314
0
LINE
8
BLACK
6
CONTINUOUS
10
334.355
20
-18.7314
11
334.355
21
-18.7314
0
LINE
8
BLACK
6
CONTINUOUS
10
334.355
20
-18.7314
11
334.355
21
-18.7314
0
LINE
8
BLACK
6
CONTINUOUS
10
334.355
20
-18.7314
11
334.355
21
-18.7319
0
LINE
8
BLACK
6
CONTINUOUS
10
334.355
20
-18.7319
11
334.358
21
-18.7357
0
LINE
8
BLACK
6
CONTINUOUS
10
334.358
20
-18.7357
11
334.36
21
-18.7394
0
LINE
8
BLACK
6
CONTINUOUS
10
334.36
20
-18.7394
11
334.731
21
-19.4261
0
LINE
8
BLACK
6
CONTINUOUS
10
334.731
20
-19.4261
11
334.731
21
-19.4262
0
LINE
8
BLACK
6
CONTINUOUS
10
334.731
20
-19.4262
11
334.731
21
-19.4262
0
LINE
8
BLACK
6
CONTINUOUS
10
334.731
20
-19.4262
11
334.732
21
-19.4268
0
LINE
8
BLACK
6
CONTINUOUS
10
334.732
20
-19.4268
11
334.733
21
-19.4309
0
LINE
8
BLACK
6
CONTINUOUS
10
334.733
20
-19.4309
11
334.735
21
-19.4352
0
LINE
8
BLACK
6
CONTINUOUS
10
334.735
20
-19.4352
11
334.966
21
-20.1809
0
LINE
8
BLACK
6
CONTINUOUS
10
334.966
20
-20.1809
11
334.966
21
-20.1816
0
LINE
8
BLACK
6
CONTINUOUS
10
334.966
20
-20.1816
11
334.967
21
-20.186
0
LINE
8
BLACK
6
CONTINUOUS
10
334.967
20
-20.186
11
334.968
21
-20.1905
0
LINE
8
BLACK
6
CONTINUOUS
10
334.968
20
-20.1905
11
335.05
21
-20.9668
0
LINE
8
BLACK
6
CONTINUOUS
10
335.05
20
-20.9668
11
335.05
21
-20.9675
0
LINE
8
BLACK
6
CONTINUOUS
10
335.05
20
-20.9675
11
335.05
21
-20.9697
0
LINE
8
BLACK
6
CONTINUOUS
10
335.05
20
-20.9697
11
335.05
21
-20.9719
0
LINE
8
BLACK
6
CONTINUOUS
10
335.05
20
-20.9719
11
335.05
21
-20.9975
0
LINE
8
BLACK
6
CONTINUOUS
10
335.05
20
-20.9975
11
335.05
21
-20.9976
0
LINE
8
BLACK
6
CONTINUOUS
10
335.05
20
-20.9976
11
335.05
21
-114.002
0
LINE
8
BLACK
6
CONTINUOUS
10
335.05
20
-114.002
11
335.05
21
-114.005
0
LINE
8
BLACK
6
CONTINUOUS
10
335.05
20
-114.005
11
335.05
21
-114.005
0
LINE
8
BLACK
6
CONTINUOUS
10
335.05
20
-114.005
11
334.974
21
-114.782
0
LINE
8
BLACK
6
CONTINUOUS
10
334.974
20
-114.782
11
334.974
21
-114.782
0
LINE
8
BLACK
6
CONTINUOUS
10
334.974
20
-114.782
11
334.974
21
-114.782
0
LINE
8
BLACK
6
CONTINUOUS
10
334.974
20
-114.782
11
334.974
21
-114.783
0
LINE
8
BLACK
6
CONTINUOUS
10
334.974
20
-114.783
11
334.973
21
-114.787
0
LINE
8
BLACK
6
CONTINUOUS
10
334.973
20
-114.787
11
334.972
21
-114.791
0
LINE
8
BLACK
6
CONTINUOUS
10
334.972
20
-114.791
11
334.746
21
-115.539
0
LINE
8
BLACK
6
CONTINUOUS
10
334.746
20
-115.539
11
334.746
21
-115.539
0
LINE
8
BLACK
6
CONTINUOUS
10
334.746
20
-115.539
11
334.746
21
-115.539
0
LINE
8
BLACK
6
CONTINUOUS
10
334.746
20
-115.539
11
334.746
21
-115.539
0
LINE
8
BLACK
6
CONTINUOUS
10
334.746
20
-115.539
11
334.744
21
-115.544
0
LINE
8
BLACK
6
CONTINUOUS
10
334.744
20
-115.544
11
334.742
21
-115.548
0
LINE
8
BLACK
6
CONTINUOUS
10
334.742
20
-115.548
11
334.376
21
-116.237
0
LINE
8
BLACK
6
CONTINUOUS
10
334.376
20
-116.237
11
334.375
21
-116.238
0
LINE
8
BLACK
6
CONTINUOUS
10
334.375
20
-116.238
11
334.373
21
-116.241
0
LINE
8
BLACK
6
CONTINUOUS
10
334.373
20
-116.241
11
334.37
21
-116.245
0
LINE
8
BLACK
6
CONTINUOUS
10
334.37
20
-116.245
11
333.877
21
-116.85
0
LINE
8
BLACK
6
CONTINUOUS
10
333.877
20
-116.85
11
333.877
21
-116.85
0
LINE
8
BLACK
6
CONTINUOUS
10
333.877
20
-116.85
11
333.877
21
-116.85
0
LINE
8
BLACK
6
CONTINUOUS
10
333.877
20
-116.85
11
333.877
21
-116.851
0
LINE
8
BLACK
6
CONTINUOUS
10
333.877
20
-116.851
11
333.873
21
-116.854
0
LINE
8
BLACK
6
CONTINUOUS
10
333.873
20
-116.854
11
333.87
21
-116.857
0
LINE
8
BLACK
6
CONTINUOUS
10
333.87
20
-116.857
11
333.269
21
-117.355
0
LINE
8
BLACK
6
CONTINUOUS
10
333.269
20
-117.355
11
333.268
21
-117.355
0
LINE
8
BLACK
6
CONTINUOUS
10
333.268
20
-117.355
11
333.264
21
-117.358
0
LINE
8
BLACK
6
CONTINUOUS
10
333.264
20
-117.358
11
333.261
21
-117.36
0
LINE
8
BLACK
6
CONTINUOUS
10
333.261
20
-117.36
11
332.574
21
-117.731
0
LINE
8
BLACK
6
CONTINUOUS
10
332.574
20
-117.731
11
332.574
21
-117.731
0
LINE
8
BLACK
6
CONTINUOUS
10
332.574
20
-117.731
11
332.574
21
-117.731
0
LINE
8
BLACK
6
CONTINUOUS
10
332.574
20
-117.731
11
332.573
21
-117.732
0
LINE
8
BLACK
6
CONTINUOUS
10
332.573
20
-117.732
11
332.569
21
-117.733
0
LINE
8
BLACK
6
CONTINUOUS
10
332.569
20
-117.733
11
332.565
21
-117.735
0
LINE
8
BLACK
6
CONTINUOUS
10
332.565
20
-117.735
11
331.819
21
-117.966
0
LINE
8
BLACK
6
CONTINUOUS
10
331.819
20
-117.966
11
331.819
21
-117.966
0
LINE
8
BLACK
6
CONTINUOUS
10
331.819
20
-117.966
11
331.818
21
-117.966
0
LINE
8
BLACK
6
CONTINUOUS
10
331.818
20
-117.966
11
331.814
21
-117.967
0
LINE
8
BLACK
6
CONTINUOUS
10
331.814
20
-117.967
11
331.81
21
-117.968
0
LINE
8
BLACK
6
CONTINUOUS
10
331.81
20
-117.968
11
331.033
21
-118.05
0
LINE
8
BLACK
6
CONTINUOUS
10
331.033
20
-118.05
11
331.032
21
-118.05
0
LINE
8
BLACK
6
CONTINUOUS
10
331.032
20
-118.05
11
331.03
21
-118.05
0
LINE
8
BLACK
6
CONTINUOUS
10
331.03
20
-118.05
11
331.028
21
-118.05
0
LINE
8
BLACK
6
CONTINUOUS
10
331.028
20
-118.05
11
331.003
21
-118.05
0
LINE
8
BLACK
6
CONTINUOUS
10
331.003
20
-118.05
11
331.002
21
-118.05
0
LINE
8
BLACK
6
CONTINUOUS
10
331.002
20
-118.05
11
20.9976
21
-118.05
0
LINE
8
BLACK
6
CONTINUOUS
10
20.9976
20
-118.05
11
20.9951
21
-118.05
0
LINE
8
BLACK
6
CONTINUOUS
10
20.9951
20
-118.05
11
20.9951
21
-118.05
0
LINE
8
BLACK
6
CONTINUOUS
10
20.9951
20
-118.05
11
20.2182
21
-117.974
0
LINE
8
BLACK
6
CONTINUOUS
10
20.2182
20
-117.974
11
20.2182
21
-117.974
0
LINE
8
BLACK
6
CONTINUOUS
10
20.2182
20
-117.974
11
20.2182
21
-117.974
0
LINE
8
BLACK
6
CONTINUOUS
10
20.2182
20
-117.974
11
20.2175
21
-117.974
0
LINE
8
BLACK
6
CONTINUOUS
10
20.2175
20
-117.974
11
20.2131
21
-117.973
0
LINE
8
BLACK
6
CONTINUOUS
10
20.2131
20
-117.973
11
20.2086
21
-117.972
0
LINE
8
BLACK
6
CONTINUOUS
10
20.2086
20
-117.972
11
19.4613
21
-117.746
0
LINE
8
BLACK
6
CONTINUOUS
10
19.4613
20
-117.746
11
19.4613
21
-117.746
0
LINE
8
BLACK
6
CONTINUOUS
10
19.4613
20
-117.746
11
19.4613
21
-117.746
0
LINE
8
BLACK
6
CONTINUOUS
10
19.4613
20
-117.746
11
19.4606
21
-117.746
0
LINE
8
BLACK
6
CONTINUOUS
10
19.4606
20
-117.746
11
19.4565
21
-117.744
0
LINE
8
BLACK
6
CONTINUOUS
10
19.4565
20
-117.744
11
19.4522
21
-117.742
0
LINE
8
BLACK
6
CONTINUOUS
10
19.4522
20
-117.742
11
18.763
21
-117.376
0
LINE
8
BLACK
6
CONTINUOUS
10
18.763
20
-117.376
11
18.7623
21
-117.375
0
LINE
8
BLACK
6
CONTINUOUS
10
18.7623
20
-117.375
11
18.7586
21
-117.373
0
LINE
8
BLACK
6
CONTINUOUS
10
18.7586
20
-117.373
11
18.7548
21
-117.37
0
LINE
8
BLACK
6
CONTINUOUS
10
18.7548
20
-117.37
11
18.1499
21
-116.877
0
LINE
8
BLACK
6
CONTINUOUS
10
18.1499
20
-116.877
11
18.1499
21
-116.877
0
LINE
8
BLACK
6
CONTINUOUS
10
18.1499
20
-116.877
11
18.1499
21
-116.877
0
LINE
8
BLACK
6
CONTINUOUS
10
18.1499
20
-116.877
11
18.1493
21
-116.877
0
LINE
8
BLACK
6
CONTINUOUS
10
18.1493
20
-116.877
11
18.1462
21
-116.873
0
LINE
8
BLACK
6
CONTINUOUS
10
18.1462
20
-116.873
11
18.1429
21
-116.87
0
LINE
8
BLACK
6
CONTINUOUS
10
18.1429
20
-116.87
11
17.6453
21
-116.269
0
LINE
8
BLACK
6
CONTINUOUS
10
17.6453
20
-116.269
11
17.6449
21
-116.268
0
LINE
8
BLACK
6
CONTINUOUS
10
17.6449
20
-116.268
11
17.6424
21
-116.264
0
LINE
8
BLACK
6
CONTINUOUS
10
17.6424
20
-116.264
11
17.6399
21
-116.261
0
LINE
8
BLACK
6
CONTINUOUS
10
17.6399
20
-116.261
11
17.2686
21
-115.574
0
LINE
8
BLACK
6
CONTINUOUS
10
17.2686
20
-115.574
11
17.2686
21
-115.574
0
LINE
8
BLACK
6
CONTINUOUS
10
17.2686
20
-115.574
11
17.2686
21
-115.574
0
LINE
8
BLACK
6
CONTINUOUS
10
17.2686
20
-115.574
11
17.2682
21
-115.573
0
LINE
8
BLACK
6
CONTINUOUS
10
17.2682
20
-115.573
11
17.2665
21
-115.569
0
LINE
8
BLACK
6
CONTINUOUS
10
17.2665
20
-115.569
11
17.2648
21
-115.565
0
LINE
8
BLACK
6
CONTINUOUS
10
17.2648
20
-115.565
11
17.0339
21
-114.819
0
LINE
8
BLACK
6
CONTINUOUS
10
17.0339
20
-114.819
11
17.0337
21
-114.818
0
LINE
8
BLACK
6
CONTINUOUS
10
17.0337
20
-114.818
11
17.0329
21
-114.814
0
LINE
8
BLACK
6
CONTINUOUS
10
17.0329
20
-114.814
11
17.032
21
-114.81
0
LINE
8
BLACK
6
CONTINUOUS
10
17.032
20
-114.81
11
16.9504
21
-114.033
0
LINE
8
BLACK
6
CONTINUOUS
10
16.9504
20
-114.033
11
16.9503
21
-114.032
0
LINE
8
BLACK
6
CONTINUOUS
10
16.9503
20
-114.032
11
16.9503
21
-114.03
0
LINE
8
BLACK
6
CONTINUOUS
10
16.9503
20
-114.03
11
16.9501
21
-114.028
0
LINE
8
BLACK
6
CONTINUOUS
10
16.9501
20
-114.028
11
16.95
21
-114.003
0
LINE
8
BLACK
6
CONTINUOUS
10
16.95
20
-114.003
11
16.95
21
-114.002
0
LINE
8
BLACK
6
CONTINUOUS
10
16.95
20
-114.002
11
16.95
21
-114
0
LINE
8
BLACK
6
CONTINUOUS
10
16.95
20
-114
11
16.95
21
-114
0
LINE
8
BLACK
6
CONTINUOUS
10
16.95
20
-114
11
16.95
21
-114
0
LINE
8
BLACK
6
CONTINUOUS
10
16.95
20
-114
11
16.95
21
-20.9976
0
LINE
8
BLACK
6
CONTINUOUS
10
16.95
20
-20.9976
11
16.9502
21
-20.9951
0
LINE
8
BLACK
6
CONTINUOUS
10
16.9502
20
-20.9951
11
17.0264
21
-20.2182
0
LINE
8
BLACK
6
CONTINUOUS
10
17.0264
20
-20.2182
11
17.0264
21
-20.2182
0
LINE
8
BLACK
6
CONTINUOUS
10
17.0264
20
-20.2182
11
17.0264
21
-20.2182
0
LINE
8
BLACK
6
CONTINUOUS
10
17.0264
20
-20.2182
11
17.0265
21
-20.2175
0
LINE
8
BLACK
6
CONTINUOUS
10
17.0265
20
-20.2175
11
17.0274
21
-20.2131
0
LINE
8
BLACK
6
CONTINUOUS
10
17.0274
20
-20.2131
11
17.0283
21
-20.2086
0
LINE
8
BLACK
6
CONTINUOUS
10
17.0283
20
-20.2086
11
17.2539
21
-19.4613
0
LINE
8
BLACK
6
CONTINUOUS
10
17.2539
20
-19.4613
11
17.2542
21
-19.4606
0
LINE
8
BLACK
6
CONTINUOUS
10
17.2542
20
-19.4606
11
17.2559
21
-19.4565
0
LINE
8
BLACK
6
CONTINUOUS
10
17.2559
20
-19.4565
11
17.2577
21
-19.4522
0
LINE
8
BLACK
6
CONTINUOUS
10
17.2577
20
-19.4522
11
17.6242
21
-18.763
0
LINE
8
BLACK
6
CONTINUOUS
10
17.6242
20
-18.763
11
17.6245
21
-18.7623
0
LINE
8
BLACK
6
CONTINUOUS
10
17.6245
20
-18.7623
11
17.6271
21
-18.7586
0
LINE
8
BLACK
6
CONTINUOUS
10
17.6271
20
-18.7586
11
17.6296
21
-18.7548
0
LINE
8
BLACK
6
CONTINUOUS
10
17.6296
20
-18.7548
11
18.123
21
-18.1499
0
LINE
8
BLACK
6
CONTINUOUS
10
18.123
20
-18.1499
11
18.1234
21
-18.1493
0
LINE
8
BLACK
6
CONTINUOUS
10
18.1234
20
-18.1493
11
18.1266
21
-18.1462
0
LINE
8
BLACK
6
CONTINUOUS
10
18.1266
20
-18.1462
11
18.1298
21
-18.1429
0
LINE
8
BLACK
6
CONTINUOUS
10
18.1298
20
-18.1429
11
18.7314
21
-17.6453
0
LINE
8
BLACK
6
CONTINUOUS
10
18.7314
20
-17.6453
11
18.7314
21
-17.6453
0
LINE
8
BLACK
6
CONTINUOUS
10
18.7314
20
-17.6453
11
18.7314
21
-17.6453
0
LINE
8
BLACK
6
CONTINUOUS
10
18.7314
20
-17.6453
11
18.7319
21
-17.6449
0
LINE
8
BLACK
6
CONTINUOUS
10
18.7319
20
-17.6449
11
18.7357
21
-17.6424
0
LINE
8
BLACK
6
CONTINUOUS
10
18.7357
20
-17.6424
11
18.7394
21
-17.6399
0
LINE
8
BLACK
6
CONTINUOUS
10
18.7394
20
-17.6399
11
19.4261
21
-17.2686
0
LINE
8
BLACK
6
CONTINUOUS
10
19.4261
20
-17.2686
11
19.4262
21
-17.2686
0
LINE
8
BLACK
6
CONTINUOUS
10
19.4262
20
-17.2686
11
19.4262
21
-17.2686
0
LINE
8
BLACK
6
CONTINUOUS
10
19.4262
20
-17.2686
11
19.4268
21
-17.2682
0
LINE
8
BLACK
6
CONTINUOUS
10
19.4268
20
-17.2682
11
19.4309
21
-17.2666
0
LINE
8
BLACK
6
CONTINUOUS
10
19.4309
20
-17.2666
11
19.4352
21
-17.2648
0
LINE
8
BLACK
6
CONTINUOUS
10
19.4352
20
-17.2648
11
20.1809
21
-17.0339
0
LINE
8
BLACK
6
CONTINUOUS
10
20.1809
20
-17.0339
11
20.1816
21
-17.0337
0
LINE
8
BLACK
6
CONTINUOUS
10
20.1816
20
-17.0337
11
20.186
21
-17.0329
0
LINE
8
BLACK
6
CONTINUOUS
10
20.186
20
-17.0329
11
20.1905
21
-17.032
0
LINE
8
BLACK
6
CONTINUOUS
10
20.1905
20
-17.032
11
20.9668
21
-16.9504
0
LINE
8
BLACK
6
CONTINUOUS
10
20.9668
20
-16.9504
11
20.9675
21
-16.9503
0
LINE
8
BLACK
6
CONTINUOUS
10
20.9675
20
-16.9503
11
20.9697
21
-16.9503
0
LINE
8
BLACK
6
CONTINUOUS
10
20.9697
20
-16.9503
11
20.9719
21
-16.9501
0
LINE
8
BLACK
6
CONTINUOUS
10
20.9719
20
-16.9501
11
20.9975
21
-16.95
0
LINE
8
BLACK
6
CONTINUOUS
10
20.9975
20
-16.95
11
20.9976
21
-16.95
0
LINE
8
BLACK
6
CONTINUOUS
10
20.9976
20
-16.95
11
331.002
21
-16.95
0
LINE
8
BLACK
6
CONTINUOUS
10
331.002
20
-16.95
11
331.005
21
-16.9502
0
LINE
8
BLACK
6
CONTINUOUS
10
331.005
20
-16.9502
11
331.005
21
-16.9502
0
LINE
8
BLACK
6
CONTINUOUS
10
331.005
20
-16.9502
11
331.782
21
-17.0264
0
LINE
8
BLACK
6
CONTINUOUS
10
331.782
20
-17.0264
11
331.782
21
-17.0264
0
LINE
8
BLACK
6
CONTINUOUS
10
331.782
20
-17.0264
11
331.782
21
-17.0264
0
LINE
8
BLACK
6
CONTINUOUS
10
331.782
20
-17.0264
11
331.783
21
-17.0265
0
LINE
8
BLACK
6
CONTINUOUS
10
331.783
20
-17.0265
11
331.787
21
-17.0274
0
LINE
8
BLACK
6
CONTINUOUS
10
331.787
20
-17.0274
11
331.791
21
-17.0283
0
LINE
8
BLACK
6
CONTINUOUS
10
331.791
20
-17.0283
11
332.539
21
-17.2539
0
LINE
8
BLACK
6
CONTINUOUS
10
332.539
20
-17.2539
11
332.539
21
-17.2542
0
LINE
8
BLACK
6
CONTINUOUS
10
332.539
20
-17.2542
11
332.544
21
-17.2559
0
LINE
8
BLACK
6
CONTINUOUS
10
332.544
20
-17.2559
11
332.548
21
-17.2577
0
LINE
8
BLACK
6
CONTINUOUS
10
332.548
20
-17.2577
11
333.237
21
-17.6242
0
LINE
8
BLACK
6
CONTINUOUS
10
333.237
20
-17.6242
11
333.237
21
-17.6242
0
LINE
8
BLACK
6
CONTINUOUS
10
333.237
20
-17.6242
11
333.238
21
-17.6245
0
LINE
8
BLACK
6
CONTINUOUS
10
21.0002
20
-17.05
11
20.9748
21
-17.0501
0
LINE
8
BLACK
6
CONTINUOUS
10
20.9748
20
-17.0501
11
20.2058
21
-17.1309
0
LINE
8
BLACK
6
CONTINUOUS
10
20.2058
20
-17.1309
11
19.4694
21
-17.3589
0
LINE
8
BLACK
6
CONTINUOUS
10
19.4694
20
-17.3589
11
18.7913
21
-17.7255
0
LINE
8
BLACK
6
CONTINUOUS
10
18.7913
20
-17.7255
11
18.1974
21
-18.2169
0
LINE
8
BLACK
6
CONTINUOUS
10
18.1974
20
-18.2169
11
17.7102
21
-18.8142
0
LINE
8
BLACK
6
CONTINUOUS
10
17.7102
20
-18.8142
11
17.3483
21
-19.4949
0
LINE
8
BLACK
6
CONTINUOUS
10
17.3483
20
-19.4949
11
17.1255
21
-20.2328
0
LINE
8
BLACK
6
CONTINUOUS
10
17.1255
20
-20.2328
11
17.05
21
-21.0024
0
LINE
8
BLACK
6
CONTINUOUS
10
17.05
20
-21.0024
11
17.05
21
-114
0
LINE
8
BLACK
6
CONTINUOUS
10
17.05
20
-114
11
17.0501
21
-114.025
0
LINE
8
BLACK
6
CONTINUOUS
10
17.0501
20
-114.025
11
17.1309
21
-114.794
0
LINE
8
BLACK
6
CONTINUOUS
10
17.1309
20
-114.794
11
17.3589
21
-115.531
0
LINE
8
BLACK
6
CONTINUOUS
10
17.3589
20
-115.531
11
17.7255
21
-116.209
0
LINE
8
BLACK
6
CONTINUOUS
10
17.7255
20
-116.209
11
18.2169
21
-116.803
0
LINE
8
BLACK
6
CONTINUOUS
10
18.2169
20
-116.803
11
18.8142
21
-117.29
0
LINE
8
BLACK
6
CONTINUOUS
10
18.8142
20
-117.29
11
19.4949
21
-117.652
0
LINE
8
BLACK
6
CONTINUOUS
10
19.4949
20
-117.652
11
20.2328
21
-117.875
0
LINE
8
BLACK
6
CONTINUOUS
10
20.2328
20
-117.875
11
21.0024
21
-117.95
0
LINE
8
BLACK
6
CONTINUOUS
10
21.0024
20
-117.95
11
331
21
-117.95
0
LINE
8
BLACK
6
CONTINUOUS
10
331
20
-117.95
11
331.025
21
-117.95
0
LINE
8
BLACK
6
CONTINUOUS
10
331.025
20
-117.95
11
331.794
21
-117.869
0
LINE
8
BLACK
6
CONTINUOUS
10
331.794
20
-117.869
11
332.531
21
-117.641
0
LINE
8
BLACK
6
CONTINUOUS
10
332.531
20
-117.641
11
333.209
21
-117.275
0
LINE
8
BLACK
6
CONTINUOUS
10
333.209
20
-117.275
11
333.803
21
-116.783
0
LINE
8
BLACK
6
CONTINUOUS
10
333.803
20
-116.783
11
334.29
21
-116.186
0
LINE
8
BLACK
6
CONTINUOUS
10
334.29
20
-116.186
11
334.652
21
-115.505
0
LINE
8
BLACK
6
CONTINUOUS
10
334.652
20
-115.505
11
334.875
21
-114.767
0
LINE
8
BLACK
6
CONTINUOUS
10
334.875
20
-114.767
11
334.95
21
-113.998
0
LINE
8
BLACK
6
CONTINUOUS
10
334.95
20
-113.998
11
334.95
21
-21.0002
0
LINE
8
BLACK
6
CONTINUOUS
10
334.95
20
-21.0002
11
334.95
21
-21.0002
0
LINE
8
BLACK
6
CONTINUOUS
10
334.95
20
-21.0002
11
334.95
21
-20.9748
0
LINE
8
BLACK
6
CONTINUOUS
10
334.95
20
-20.9748
11
334.869
21
-20.2058
0
LINE
8
BLACK
6
CONTINUOUS
10
334.869
20
-20.2058
11
334.641
21
-19.4694
0
LINE
8
BLACK
6
CONTINUOUS
10
334.641
20
-19.4694
11
334.274
21
-18.7913
0
LINE
8
BLACK
6
CONTINUOUS
10
334.274
20
-18.7913
11
333.783
21
-18.1974
0
LINE
8
BLACK
6
CONTINUOUS
10
333.783
20
-18.1974
11
333.186
21
-17.7102
0
LINE
8
BLACK
6
CONTINUOUS
10
333.186
20
-17.7102
11
332.505
21
-17.3483
0
LINE
8
BLACK
6
CONTINUOUS
10
332.505
20
-17.3483
11
331.767
21
-17.1255
0
LINE
8
BLACK
6
CONTINUOUS
10
331.767
20
-17.1255
11
330.998
21
-17.05
0
LINE
8
BLACK
6
CONTINUOUS
10
330.998
20
-17.05
11
21.0002
21
-17.05
  0
ENDSEC
  0
EOF
