G04 #@! TF.GenerationSoftware,KiCad,Pcbnew,(5.1.5)-3*
G04 #@! TF.CreationDate,2020-03-15T19:25:50-07:00*
G04 #@! TF.ProjectId,keyboard-layout,6b657962-6f61-4726-942d-6c61796f7574,rev?*
G04 #@! TF.SameCoordinates,Original*
G04 #@! TF.FileFunction,Soldermask,Bot*
G04 #@! TF.FilePolarity,Negative*
%FSLAX46Y46*%
G04 Gerber Fmt 4.6, Leading zero omitted, Abs format (unit mm)*
G04 Created by KiCad (PCBNEW (5.1.5)-3) date 2020-03-15 19:25:50*
%MOMM*%
%LPD*%
G04 APERTURE LIST*
%ADD10R,2.000000X2.000000*%
%ADD11C,2.000000*%
%ADD12R,3.200000X2.000000*%
%ADD13C,2.700000*%
%ADD14C,2.250000*%
%ADD15C,2.250000*%
%ADD16C,3.987800*%
%ADD17C,1.750000*%
%ADD18C,3.048000*%
%ADD19R,1.752600X1.752600*%
%ADD20C,1.752600*%
%ADD21C,1.600000*%
%ADD22R,1.600000X1.600000*%
%ADD23C,1.998980*%
%ADD24O,1.600000X1.600000*%
G04 APERTURE END LIST*
D10*
X315153040Y-57297320D03*
D11*
X315153040Y-59797320D03*
X315153040Y-62297320D03*
D12*
X322653040Y-54197320D03*
X322653040Y-65397320D03*
D11*
X329653040Y-57297320D03*
X329653040Y-62297320D03*
D13*
X158115000Y-95631000D03*
D14*
X251102500Y-44071660D02*
X251142500Y-43491660D01*
D15*
X251142500Y-43491660D03*
D14*
X244792500Y-46031660D02*
X246102502Y-44571660D01*
D16*
X248602500Y-48571660D03*
D15*
X246102500Y-44571660D03*
D17*
X243522500Y-48571660D03*
X253682500Y-48571660D03*
D13*
X110490000Y-58801000D03*
X243840000Y-58674000D03*
D14*
X153523320Y-101211500D02*
X153563320Y-100631500D01*
D15*
X153563320Y-100631500D03*
D14*
X147213320Y-103171500D02*
X148523322Y-101711500D01*
D16*
X151023320Y-105711500D03*
D15*
X148523320Y-101711500D03*
D17*
X145943320Y-105711500D03*
X156103320Y-105711500D03*
D18*
X101023420Y-98726500D03*
X201023220Y-98726500D03*
D16*
X101023420Y-113966500D03*
X201023220Y-113966500D03*
D19*
X310673750Y-20955000D03*
D20*
X310673750Y-23495000D03*
X310673750Y-26035000D03*
X310673750Y-28575000D03*
X310673750Y-31115000D03*
X310673750Y-33655000D03*
X310673750Y-36195000D03*
X310673750Y-38735000D03*
X310673750Y-41275000D03*
X310673750Y-43815000D03*
X310673750Y-46355000D03*
X325913750Y-48895000D03*
X325913750Y-46355000D03*
X325913750Y-43815000D03*
X325913750Y-41275000D03*
X325913750Y-38735000D03*
X325913750Y-36195000D03*
X325913750Y-33655000D03*
X325913750Y-31115000D03*
X325913750Y-28575000D03*
X325913750Y-26035000D03*
X325913750Y-23495000D03*
X310902350Y-48895000D03*
X325913750Y-20955000D03*
X323373750Y-48895000D03*
X320833750Y-48895000D03*
X318293750Y-48895000D03*
X315753750Y-48895000D03*
X313213750Y-48895000D03*
D21*
X329565000Y-68048040D03*
D22*
X329565000Y-75848040D03*
D23*
X308107080Y-70081140D03*
D24*
X311531000Y-56261000D03*
D21*
X311531000Y-63881000D03*
D24*
X318770000Y-75758040D03*
D21*
X318770000Y-68138040D03*
D24*
X323850000Y-75758040D03*
D21*
X323850000Y-68138040D03*
D23*
X311536080Y-70081140D03*
D14*
X74879840Y-82153880D02*
X74919840Y-81573880D01*
D15*
X74919840Y-81573880D03*
D14*
X68569840Y-84113880D02*
X69879842Y-82653880D01*
D16*
X72379840Y-86653880D03*
D15*
X69879840Y-82653880D03*
D17*
X67299840Y-86653880D03*
X77459840Y-86653880D03*
D14*
X155852500Y-44071660D02*
X155892500Y-43491660D01*
D15*
X155892500Y-43491660D03*
D14*
X149542500Y-46031660D02*
X150852502Y-44571660D01*
D16*
X153352500Y-48571660D03*
D15*
X150852500Y-44571660D03*
D17*
X148272500Y-48571660D03*
X158432500Y-48571660D03*
D14*
X93929840Y-82153880D02*
X93969840Y-81573880D01*
D15*
X93969840Y-81573880D03*
D14*
X87619840Y-84113880D02*
X88929842Y-82653880D01*
D16*
X91429840Y-86653880D03*
D15*
X88929840Y-82653880D03*
D17*
X86349840Y-86653880D03*
X96509840Y-86653880D03*
D14*
X58245380Y-101216580D02*
X58285380Y-100636580D01*
D15*
X58285380Y-100636580D03*
D14*
X51935380Y-103176580D02*
X53245382Y-101716580D01*
D16*
X55745380Y-105716580D03*
D15*
X53245380Y-101716580D03*
D17*
X50665380Y-105716580D03*
X60825380Y-105716580D03*
D14*
X248722520Y-101216580D02*
X248762520Y-100636580D01*
D15*
X248762520Y-100636580D03*
D14*
X242412520Y-103176580D02*
X243722522Y-101716580D01*
D16*
X246222520Y-105716580D03*
D15*
X243722520Y-101716580D03*
D17*
X241142520Y-105716580D03*
X251302520Y-105716580D03*
D14*
X79652500Y-44071660D02*
X79692500Y-43491660D01*
D15*
X79692500Y-43491660D03*
D14*
X73342500Y-46031660D02*
X74652502Y-44571660D01*
D16*
X77152500Y-48571660D03*
D15*
X74652500Y-44571660D03*
D17*
X72072500Y-48571660D03*
X82232500Y-48571660D03*
D14*
X132029840Y-82153880D02*
X132069840Y-81573880D01*
D15*
X132069840Y-81573880D03*
D14*
X125719840Y-84113880D02*
X127029842Y-82653880D01*
D16*
X129529840Y-86653880D03*
D15*
X127029840Y-82653880D03*
D17*
X124449840Y-86653880D03*
X134609840Y-86653880D03*
D14*
X174902500Y-44071660D02*
X174942500Y-43491660D01*
D15*
X174942500Y-43491660D03*
D14*
X168592500Y-46031660D02*
X169902502Y-44571660D01*
D16*
X172402500Y-48571660D03*
D15*
X169902500Y-44571660D03*
D17*
X167322500Y-48571660D03*
X177482500Y-48571660D03*
D14*
X36782380Y-44079280D02*
X36822380Y-43499280D01*
D15*
X36822380Y-43499280D03*
D14*
X30472380Y-46039280D02*
X31782382Y-44579280D01*
D16*
X34282380Y-48579280D03*
D15*
X31782380Y-44579280D03*
D17*
X29202380Y-48579280D03*
X39362380Y-48579280D03*
D14*
X136802500Y-44071660D02*
X136842500Y-43491660D01*
D15*
X136842500Y-43491660D03*
D14*
X130492500Y-46031660D02*
X131802502Y-44571660D01*
D16*
X134302500Y-48571660D03*
D15*
X131802500Y-44571660D03*
D17*
X129222500Y-48571660D03*
X139382500Y-48571660D03*
D14*
X246329840Y-82153880D02*
X246369840Y-81573880D01*
D15*
X246369840Y-81573880D03*
D14*
X240019840Y-84113880D02*
X241329842Y-82653880D01*
D16*
X243829840Y-86653880D03*
D15*
X241329840Y-82653880D03*
D17*
X238749840Y-86653880D03*
X248909840Y-86653880D03*
D14*
X43927400Y-82174200D02*
X43967400Y-81594200D01*
D15*
X43967400Y-81594200D03*
D14*
X37617400Y-84134200D02*
X38927402Y-82674200D01*
D16*
X41427400Y-86674200D03*
D15*
X38927400Y-82674200D03*
D17*
X36347400Y-86674200D03*
X46507400Y-86674200D03*
D18*
X29489400Y-79689200D03*
X53365400Y-79689200D03*
D16*
X29489400Y-94929200D03*
X53365400Y-94929200D03*
D14*
X282052400Y-82158960D02*
X282092400Y-81578960D01*
D15*
X282092400Y-81578960D03*
D14*
X275742400Y-84118960D02*
X277052402Y-82658960D01*
D16*
X279552400Y-86658960D03*
D15*
X277052400Y-82658960D03*
D17*
X274472400Y-86658960D03*
X284632400Y-86658960D03*
D18*
X267614400Y-79673960D03*
X291490400Y-79673960D03*
D16*
X267614400Y-94913960D03*
X291490400Y-94913960D03*
D14*
X236817540Y-63121660D02*
X236857540Y-62541660D01*
D15*
X236857540Y-62541660D03*
D14*
X230507540Y-65081660D02*
X231817542Y-63621660D01*
D16*
X234317540Y-67621660D03*
D15*
X231817540Y-63621660D03*
D17*
X229237540Y-67621660D03*
X239397540Y-67621660D03*
D14*
X84417540Y-63121660D02*
X84457540Y-62541660D01*
D15*
X84457540Y-62541660D03*
D14*
X78107540Y-65081660D02*
X79417542Y-63621660D01*
D16*
X81917540Y-67621660D03*
D15*
X79417540Y-63621660D03*
D17*
X76837540Y-67621660D03*
X86997540Y-67621660D03*
D14*
X117752500Y-44071660D02*
X117792500Y-43491660D01*
D15*
X117792500Y-43491660D03*
D14*
X111442500Y-46031660D02*
X112752502Y-44571660D01*
D16*
X115252500Y-48571660D03*
D15*
X112752500Y-44571660D03*
D17*
X110172500Y-48571660D03*
X120332500Y-48571660D03*
D14*
X255867540Y-63121660D02*
X255907540Y-62541660D01*
D15*
X255907540Y-62541660D03*
D14*
X249557540Y-65081660D02*
X250867542Y-63621660D01*
D16*
X253367540Y-67621660D03*
D15*
X250867540Y-63621660D03*
D17*
X248287540Y-67621660D03*
X258447540Y-67621660D03*
D14*
X60602500Y-44071660D02*
X60642500Y-43491660D01*
D15*
X60642500Y-43491660D03*
D14*
X54292500Y-46031660D02*
X55602502Y-44571660D01*
D16*
X58102500Y-48571660D03*
D15*
X55602500Y-44571660D03*
D17*
X53022500Y-48571660D03*
X63182500Y-48571660D03*
D14*
X232052500Y-44071660D02*
X232092500Y-43491660D01*
D15*
X232092500Y-43491660D03*
D14*
X225742500Y-46031660D02*
X227052502Y-44571660D01*
D16*
X229552500Y-48571660D03*
D15*
X227052500Y-44571660D03*
D17*
X224472500Y-48571660D03*
X234632500Y-48571660D03*
D14*
X213002500Y-44071660D02*
X213042500Y-43491660D01*
D15*
X213042500Y-43491660D03*
D14*
X206692500Y-46031660D02*
X208002502Y-44571660D01*
D16*
X210502500Y-48571660D03*
D15*
X208002500Y-44571660D03*
D17*
X205422500Y-48571660D03*
X215582500Y-48571660D03*
D14*
X170129840Y-82153880D02*
X170169840Y-81573880D01*
D15*
X170169840Y-81573880D03*
D14*
X163819840Y-84113880D02*
X165129842Y-82653880D01*
D16*
X167629840Y-86653880D03*
D15*
X165129840Y-82653880D03*
D17*
X162549840Y-86653880D03*
X172709840Y-86653880D03*
D14*
X241577500Y-25021660D02*
X241617500Y-24441660D01*
D15*
X241617500Y-24441660D03*
D14*
X235267500Y-26981660D02*
X236577502Y-25521660D01*
D16*
X239077500Y-29521660D03*
D15*
X236577500Y-25521660D03*
D17*
X233997500Y-29521660D03*
X244157500Y-29521660D03*
D14*
X272529940Y-101216580D02*
X272569940Y-100636580D01*
D15*
X272569940Y-100636580D03*
D14*
X266219940Y-103176580D02*
X267529942Y-101716580D01*
D16*
X270029940Y-105716580D03*
D15*
X267529940Y-101716580D03*
D17*
X264949940Y-105716580D03*
X275109940Y-105716580D03*
D14*
X189179840Y-82153880D02*
X189219840Y-81573880D01*
D15*
X189219840Y-81573880D03*
D14*
X182869840Y-84113880D02*
X184179842Y-82653880D01*
D16*
X186679840Y-86653880D03*
D15*
X184179840Y-82653880D03*
D17*
X181599840Y-86653880D03*
X191759840Y-86653880D03*
D14*
X217767540Y-63121660D02*
X217807540Y-62541660D01*
D15*
X217807540Y-62541660D03*
D14*
X211457540Y-65081660D02*
X212767542Y-63621660D01*
D16*
X215267540Y-67621660D03*
D15*
X212767540Y-63621660D03*
D17*
X210187540Y-67621660D03*
X220347540Y-67621660D03*
D14*
X198717540Y-63121660D02*
X198757540Y-62541660D01*
D15*
X198757540Y-62541660D03*
D14*
X192407540Y-65081660D02*
X193717542Y-63621660D01*
D16*
X196217540Y-67621660D03*
D15*
X193717540Y-63621660D03*
D17*
X191137540Y-67621660D03*
X201297540Y-67621660D03*
D14*
X179667540Y-63121660D02*
X179707540Y-62541660D01*
D15*
X179707540Y-62541660D03*
D14*
X173357540Y-65081660D02*
X174667542Y-63621660D01*
D16*
X177167540Y-67621660D03*
D15*
X174667540Y-63621660D03*
D17*
X172087540Y-67621660D03*
X182247540Y-67621660D03*
D14*
X193952500Y-44071660D02*
X193992500Y-43491660D01*
D15*
X193992500Y-43491660D03*
D14*
X187642500Y-46031660D02*
X188952502Y-44571660D01*
D16*
X191452500Y-48571660D03*
D15*
X188952500Y-44571660D03*
D17*
X186372500Y-48571660D03*
X196532500Y-48571660D03*
D14*
X160617540Y-63121660D02*
X160657540Y-62541660D01*
D15*
X160657540Y-62541660D03*
D14*
X154307540Y-65081660D02*
X155617542Y-63621660D01*
D16*
X158117540Y-67621660D03*
D15*
X155617540Y-63621660D03*
D17*
X153037540Y-67621660D03*
X163197540Y-67621660D03*
D14*
X141567540Y-63121660D02*
X141607540Y-62541660D01*
D15*
X141607540Y-62541660D03*
D14*
X135257540Y-65081660D02*
X136567542Y-63621660D01*
D16*
X139067540Y-67621660D03*
D15*
X136567540Y-63621660D03*
D17*
X133987540Y-67621660D03*
X144147540Y-67621660D03*
D14*
X122517540Y-63121660D02*
X122557540Y-62541660D01*
D15*
X122557540Y-62541660D03*
D14*
X116207540Y-65081660D02*
X117517542Y-63621660D01*
D16*
X120017540Y-67621660D03*
D15*
X117517540Y-63621660D03*
D17*
X114937540Y-67621660D03*
X125097540Y-67621660D03*
D14*
X32027500Y-25021660D02*
X32067500Y-24441660D01*
D15*
X32067500Y-24441660D03*
D14*
X25717500Y-26981660D02*
X27027502Y-25521660D01*
D16*
X29527500Y-29521660D03*
D15*
X27027500Y-25521660D03*
D17*
X24447500Y-29521660D03*
X34607500Y-29521660D03*
D14*
X260627500Y-25021660D02*
X260667500Y-24441660D01*
D15*
X260667500Y-24441660D03*
D14*
X254317500Y-26981660D02*
X255627502Y-25521660D01*
D16*
X258127500Y-29521660D03*
D15*
X255627500Y-25521660D03*
D17*
X253047500Y-29521660D03*
X263207500Y-29521660D03*
D14*
X286840300Y-63119120D02*
X286880300Y-62539120D01*
D15*
X286880300Y-62539120D03*
D14*
X280530300Y-65079120D02*
X281840302Y-63619120D01*
D16*
X284340300Y-67619120D03*
D15*
X281840300Y-63619120D03*
D17*
X279260300Y-67619120D03*
X289420300Y-67619120D03*
D18*
X272402300Y-60634120D03*
X296278300Y-60634120D03*
D16*
X272402300Y-75874120D03*
X296278300Y-75874120D03*
D14*
X98702500Y-44071660D02*
X98742500Y-43491660D01*
D15*
X98742500Y-43491660D03*
D14*
X92392500Y-46031660D02*
X93702502Y-44571660D01*
D16*
X96202500Y-48571660D03*
D15*
X93702500Y-44571660D03*
D17*
X91122500Y-48571660D03*
X101282500Y-48571660D03*
D14*
X227279840Y-82153880D02*
X227319840Y-81573880D01*
D15*
X227319840Y-81573880D03*
D14*
X220969840Y-84113880D02*
X222279842Y-82653880D01*
D16*
X224779840Y-86653880D03*
D15*
X222279840Y-82653880D03*
D17*
X219699840Y-86653880D03*
X229859840Y-86653880D03*
D14*
X103467540Y-63121660D02*
X103507540Y-62541660D01*
D15*
X103507540Y-62541660D03*
D14*
X97157540Y-65081660D02*
X98467542Y-63621660D01*
D16*
X100967540Y-67621660D03*
D15*
X98467540Y-63621660D03*
D17*
X95887540Y-67621660D03*
X106047540Y-67621660D03*
D14*
X34415100Y-101216580D02*
X34455100Y-100636580D01*
D15*
X34455100Y-100636580D03*
D14*
X28105100Y-103176580D02*
X29415102Y-101716580D01*
D16*
X31915100Y-105716580D03*
D15*
X29415100Y-101716580D03*
D17*
X26835100Y-105716580D03*
X36995100Y-105716580D03*
D14*
X296334820Y-101216580D02*
X296374820Y-100636580D01*
D15*
X296374820Y-100636580D03*
D14*
X290024820Y-103176580D02*
X291334822Y-101716580D01*
D16*
X293834820Y-105716580D03*
D15*
X291334820Y-101716580D03*
D17*
X288754820Y-105716580D03*
X298914820Y-105716580D03*
D14*
X208229840Y-82153880D02*
X208269840Y-81573880D01*
D15*
X208269840Y-81573880D03*
D14*
X201919840Y-84113880D02*
X203229842Y-82653880D01*
D16*
X205729840Y-86653880D03*
D15*
X203229840Y-82653880D03*
D17*
X200649840Y-86653880D03*
X210809840Y-86653880D03*
D14*
X39164900Y-63131820D02*
X39204900Y-62551820D01*
D15*
X39204900Y-62551820D03*
D14*
X32854900Y-65091820D02*
X34164902Y-63631820D01*
D16*
X36664900Y-67631820D03*
D15*
X34164900Y-63631820D03*
D17*
X31584900Y-67631820D03*
X41744900Y-67631820D03*
D14*
X112979840Y-82153880D02*
X113019840Y-81573880D01*
D15*
X113019840Y-81573880D03*
D14*
X106669840Y-84113880D02*
X107979842Y-82653880D01*
D16*
X110479840Y-86653880D03*
D15*
X107979840Y-82653880D03*
D17*
X105399840Y-86653880D03*
X115559840Y-86653880D03*
D14*
X293972500Y-44086660D02*
X294012500Y-43506660D01*
D15*
X294012500Y-43506660D03*
D14*
X287662500Y-46046660D02*
X288972502Y-44586660D01*
D16*
X291472500Y-48586660D03*
D15*
X288972500Y-44586660D03*
D17*
X286392500Y-48586660D03*
X296552500Y-48586660D03*
D14*
X289202500Y-25021660D02*
X289242500Y-24441660D01*
D15*
X289242500Y-24441660D03*
D14*
X282892500Y-26981660D02*
X284202502Y-25521660D01*
D16*
X286702500Y-29521660D03*
D15*
X284202500Y-25521660D03*
D17*
X281622500Y-29521660D03*
X291782500Y-29521660D03*
D18*
X274764500Y-22536660D03*
X298640500Y-22536660D03*
D16*
X274764500Y-37776660D03*
X298640500Y-37776660D03*
D14*
X151079840Y-82153880D02*
X151119840Y-81573880D01*
D15*
X151119840Y-81573880D03*
D14*
X144769840Y-84113880D02*
X146079842Y-82653880D01*
D16*
X148579840Y-86653880D03*
D15*
X146079840Y-82653880D03*
D17*
X143499840Y-86653880D03*
X153659840Y-86653880D03*
D14*
X82073120Y-101216580D02*
X82113120Y-100636580D01*
D15*
X82113120Y-100636580D03*
D14*
X75763120Y-103176580D02*
X77073122Y-101716580D01*
D16*
X79573120Y-105716580D03*
D15*
X77073120Y-101716580D03*
D17*
X74493120Y-105716580D03*
X84653120Y-105716580D03*
D14*
X224953200Y-101196260D02*
X224993200Y-100616260D01*
D15*
X224993200Y-100616260D03*
D14*
X218643200Y-103156260D02*
X219953202Y-101696260D01*
D16*
X222453200Y-105696260D03*
D15*
X219953200Y-101696260D03*
D17*
X217373200Y-105696260D03*
X227533200Y-105696260D03*
D14*
X65367540Y-63121660D02*
X65407540Y-62541660D01*
D15*
X65407540Y-62541660D03*
D14*
X59057540Y-65081660D02*
X60367542Y-63621660D01*
D16*
X62867540Y-67621660D03*
D15*
X60367540Y-63621660D03*
D17*
X57787540Y-67621660D03*
X67947540Y-67621660D03*
D14*
X270152500Y-44071660D02*
X270192500Y-43491660D01*
D15*
X270192500Y-43491660D03*
D14*
X263842500Y-46031660D02*
X265152502Y-44571660D01*
D16*
X267652500Y-48571660D03*
D15*
X265152500Y-44571660D03*
D17*
X262572500Y-48571660D03*
X272732500Y-48571660D03*
D14*
X324889500Y-82114000D02*
X324929500Y-81534000D01*
D15*
X324929500Y-81534000D03*
D14*
X318579500Y-84074000D02*
X319889502Y-82614000D01*
D16*
X322389500Y-86614000D03*
D15*
X319889500Y-82614000D03*
D17*
X317309500Y-86614000D03*
X327469500Y-86614000D03*
D14*
X324889500Y-101221660D02*
X324929500Y-100641660D01*
D15*
X324929500Y-100641660D03*
D14*
X318579500Y-103181660D02*
X319889502Y-101721660D01*
D16*
X322389500Y-105721660D03*
D15*
X319889500Y-101721660D03*
D17*
X317309500Y-105721660D03*
X327469500Y-105721660D03*
D14*
X203477500Y-25021660D02*
X203517500Y-24441660D01*
D15*
X203517500Y-24441660D03*
D14*
X197167500Y-26981660D02*
X198477502Y-25521660D01*
D16*
X200977500Y-29521660D03*
D15*
X198477500Y-25521660D03*
D17*
X195897500Y-29521660D03*
X206057500Y-29521660D03*
D14*
X184427500Y-25021660D02*
X184467500Y-24441660D01*
D15*
X184467500Y-24441660D03*
D14*
X178117500Y-26981660D02*
X179427502Y-25521660D01*
D16*
X181927500Y-29521660D03*
D15*
X179427500Y-25521660D03*
D17*
X176847500Y-29521660D03*
X187007500Y-29521660D03*
D14*
X165377500Y-25021660D02*
X165417500Y-24441660D01*
D15*
X165417500Y-24441660D03*
D14*
X159067500Y-26981660D02*
X160377502Y-25521660D01*
D16*
X162877500Y-29521660D03*
D15*
X160377500Y-25521660D03*
D17*
X157797500Y-29521660D03*
X167957500Y-29521660D03*
D14*
X146327500Y-25021660D02*
X146367500Y-24441660D01*
D15*
X146367500Y-24441660D03*
D14*
X140017500Y-26981660D02*
X141327502Y-25521660D01*
D16*
X143827500Y-29521660D03*
D15*
X141327500Y-25521660D03*
D17*
X138747500Y-29521660D03*
X148907500Y-29521660D03*
D14*
X127277500Y-25021660D02*
X127317500Y-24441660D01*
D15*
X127317500Y-24441660D03*
D14*
X120967500Y-26981660D02*
X122277502Y-25521660D01*
D16*
X124777500Y-29521660D03*
D15*
X122277500Y-25521660D03*
D17*
X119697500Y-29521660D03*
X129857500Y-29521660D03*
D14*
X108227500Y-25021660D02*
X108267500Y-24441660D01*
D15*
X108267500Y-24441660D03*
D14*
X101917500Y-26981660D02*
X103227502Y-25521660D01*
D16*
X105727500Y-29521660D03*
D15*
X103227500Y-25521660D03*
D17*
X100647500Y-29521660D03*
X110807500Y-29521660D03*
D14*
X89177500Y-25021660D02*
X89217500Y-24441660D01*
D15*
X89217500Y-24441660D03*
D14*
X82867500Y-26981660D02*
X84177502Y-25521660D01*
D16*
X86677500Y-29521660D03*
D15*
X84177500Y-25521660D03*
D17*
X81597500Y-29521660D03*
X91757500Y-29521660D03*
D14*
X70127500Y-25021660D02*
X70167500Y-24441660D01*
D15*
X70167500Y-24441660D03*
D14*
X63817500Y-26981660D02*
X65127502Y-25521660D01*
D16*
X67627500Y-29521660D03*
D15*
X65127500Y-25521660D03*
D17*
X62547500Y-29521660D03*
X72707500Y-29521660D03*
D14*
X51077500Y-25021660D02*
X51117500Y-24441660D01*
D15*
X51117500Y-24441660D03*
D14*
X44767500Y-26981660D02*
X46077502Y-25521660D01*
D16*
X48577500Y-29521660D03*
D15*
X46077500Y-25521660D03*
D17*
X43497500Y-29521660D03*
X53657500Y-29521660D03*
D14*
X222527500Y-25021660D02*
X222567500Y-24441660D01*
D15*
X222567500Y-24441660D03*
D14*
X216217500Y-26981660D02*
X217527502Y-25521660D01*
D16*
X220027500Y-29521660D03*
D15*
X217527500Y-25521660D03*
D17*
X214947500Y-29521660D03*
X225107500Y-29521660D03*
D23*
X314965080Y-70081140D03*
D21*
X62992000Y-82968000D03*
D22*
X62992000Y-90768000D03*
D21*
X143891000Y-44868000D03*
D22*
X143891000Y-52668000D03*
D21*
X81915000Y-82968000D03*
D22*
X81915000Y-90768000D03*
D21*
X43942000Y-102018000D03*
D22*
X43942000Y-109818000D03*
D21*
X234442000Y-102018000D03*
D22*
X234442000Y-109818000D03*
D21*
X67691000Y-44995000D03*
D22*
X67691000Y-52795000D03*
D21*
X120015000Y-82968000D03*
D22*
X120015000Y-90768000D03*
D21*
X162941000Y-44868000D03*
D22*
X162941000Y-52668000D03*
D21*
X21336000Y-44995000D03*
D22*
X21336000Y-52795000D03*
D21*
X124841000Y-44868000D03*
D22*
X124841000Y-52668000D03*
D21*
X234315000Y-82968000D03*
D22*
X234315000Y-90768000D03*
D21*
X21336000Y-82841000D03*
D22*
X21336000Y-90641000D03*
D21*
X253365000Y-82968000D03*
D22*
X253365000Y-90768000D03*
D21*
X224790000Y-63918000D03*
D22*
X224790000Y-71718000D03*
D21*
X72390000Y-63918000D03*
D22*
X72390000Y-71718000D03*
D21*
X105791000Y-44995000D03*
D22*
X105791000Y-52795000D03*
D21*
X243840000Y-63918000D03*
D22*
X243840000Y-71718000D03*
D21*
X48641000Y-44995000D03*
D22*
X48641000Y-52795000D03*
D21*
X220091000Y-44868000D03*
D22*
X220091000Y-52668000D03*
D21*
X201041000Y-44868000D03*
D22*
X201041000Y-52668000D03*
D21*
X158115000Y-82968000D03*
D22*
X158115000Y-90768000D03*
D21*
X229616000Y-25945000D03*
D22*
X229616000Y-33745000D03*
D21*
X258191000Y-102018000D03*
D22*
X258191000Y-109818000D03*
D21*
X177165000Y-82968000D03*
D22*
X177165000Y-90768000D03*
D21*
X205740000Y-63918000D03*
D22*
X205740000Y-71718000D03*
D21*
X186690000Y-63918000D03*
D22*
X186690000Y-71718000D03*
D21*
X167640000Y-63918000D03*
D22*
X167640000Y-71718000D03*
D21*
X181991000Y-44868000D03*
D22*
X181991000Y-52668000D03*
D21*
X148590000Y-63918000D03*
D22*
X148590000Y-71718000D03*
D21*
X129540000Y-63918000D03*
D22*
X129540000Y-71718000D03*
D21*
X110490000Y-63918000D03*
D22*
X110490000Y-71718000D03*
D21*
X248666000Y-25945000D03*
D22*
X248666000Y-33745000D03*
D21*
X262890000Y-63918000D03*
D22*
X262890000Y-71718000D03*
D21*
X86741000Y-44995000D03*
D22*
X86741000Y-52795000D03*
D21*
X215265000Y-82968000D03*
D22*
X215265000Y-90768000D03*
D21*
X91440000Y-63918000D03*
D22*
X91440000Y-71718000D03*
D21*
X21336000Y-102018000D03*
D22*
X21336000Y-109818000D03*
D21*
X281940000Y-102018000D03*
D22*
X281940000Y-109818000D03*
D21*
X196215000Y-82968000D03*
D22*
X196215000Y-90768000D03*
D21*
X21336000Y-63918000D03*
D22*
X21336000Y-71718000D03*
D21*
X100965000Y-82968000D03*
D22*
X100965000Y-90768000D03*
D21*
X277241000Y-44868000D03*
D22*
X277241000Y-52668000D03*
D21*
X267716000Y-25945000D03*
D22*
X267716000Y-33745000D03*
D21*
X139065000Y-82968000D03*
D22*
X139065000Y-90768000D03*
D21*
X67691000Y-102018000D03*
D22*
X67691000Y-109818000D03*
D21*
X210566000Y-102018000D03*
D22*
X210566000Y-109818000D03*
D21*
X53340000Y-63918000D03*
D22*
X53340000Y-71718000D03*
D21*
X21336000Y-25945000D03*
D22*
X21336000Y-33745000D03*
D21*
X258064000Y-44901000D03*
D22*
X258064000Y-52701000D03*
D21*
X239141000Y-44868000D03*
D22*
X239141000Y-52668000D03*
D21*
X312928000Y-82968000D03*
D22*
X312928000Y-90768000D03*
D21*
X312928000Y-102018000D03*
D22*
X312928000Y-109818000D03*
D21*
X91567000Y-102018000D03*
D22*
X91567000Y-109818000D03*
D21*
X191516000Y-25945000D03*
D22*
X191516000Y-33745000D03*
D21*
X172466000Y-25945000D03*
D22*
X172466000Y-33745000D03*
D21*
X153416000Y-25945000D03*
D22*
X153416000Y-33745000D03*
D21*
X134366000Y-25945000D03*
D22*
X134366000Y-33745000D03*
D21*
X115316000Y-25945000D03*
D22*
X115316000Y-33745000D03*
D21*
X96266000Y-25945000D03*
D22*
X96266000Y-33745000D03*
D21*
X77216000Y-25945000D03*
D22*
X77216000Y-33745000D03*
D21*
X58166000Y-25945000D03*
D22*
X58166000Y-33745000D03*
D21*
X39116000Y-25945000D03*
D22*
X39116000Y-33745000D03*
D21*
X210566000Y-25945000D03*
D22*
X210566000Y-33745000D03*
M02*
