G04 #@! TF.GenerationSoftware,KiCad,Pcbnew,(5.1.5)-3*
G04 #@! TF.CreationDate,2020-03-15T19:25:50-07:00*
G04 #@! TF.ProjectId,keyboard-layout,6b657962-6f61-4726-942d-6c61796f7574,rev?*
G04 #@! TF.SameCoordinates,Original*
G04 #@! TF.FileFunction,Paste,Top*
G04 #@! TF.FilePolarity,Positive*
%FSLAX46Y46*%
G04 Gerber Fmt 4.6, Leading zero omitted, Abs format (unit mm)*
G04 Created by KiCad (PCBNEW (5.1.5)-3) date 2020-03-15 19:25:50*
%MOMM*%
%LPD*%
G04 APERTURE LIST*
%ADD10R,3.250000X2.000000*%
%ADD11R,2.000000X3.250000*%
%ADD12R,1.200000X1.200000*%
G04 APERTURE END LIST*
D10*
X308895750Y-20955000D03*
X308895750Y-23495000D03*
X308895750Y-26035000D03*
X308895750Y-28575000D03*
X308895750Y-31115000D03*
X308895750Y-33655000D03*
X308895750Y-36195000D03*
X308895750Y-38735000D03*
X308895750Y-41275000D03*
X308895750Y-43815000D03*
X308895750Y-46355000D03*
X308895750Y-48895000D03*
X327691750Y-48895000D03*
X327691750Y-46355000D03*
X327691750Y-43815000D03*
X327691750Y-41275000D03*
X327691750Y-38735000D03*
X327691750Y-36195000D03*
X327691750Y-33655000D03*
X327691750Y-31115000D03*
X327691750Y-28575000D03*
X327691750Y-26035000D03*
X327691750Y-23495000D03*
X327691750Y-20955000D03*
D11*
X313213750Y-50800000D03*
X315753750Y-50800000D03*
X318293750Y-50800000D03*
X320833750Y-50800000D03*
X323373750Y-50800000D03*
D12*
X329565000Y-73523040D03*
X329565000Y-70373040D03*
X62992000Y-88443000D03*
X62992000Y-85293000D03*
X143891000Y-50343000D03*
X143891000Y-47193000D03*
X81915000Y-88443000D03*
X81915000Y-85293000D03*
X43942000Y-107493000D03*
X43942000Y-104343000D03*
X234442000Y-107493000D03*
X234442000Y-104343000D03*
X67691000Y-50470000D03*
X67691000Y-47320000D03*
X120015000Y-88443000D03*
X120015000Y-85293000D03*
X162941000Y-50343000D03*
X162941000Y-47193000D03*
X21336000Y-50470000D03*
X21336000Y-47320000D03*
X124841000Y-50343000D03*
X124841000Y-47193000D03*
X234315000Y-88443000D03*
X234315000Y-85293000D03*
X21336000Y-88316000D03*
X21336000Y-85166000D03*
X253365000Y-88443000D03*
X253365000Y-85293000D03*
X224790000Y-69393000D03*
X224790000Y-66243000D03*
X72390000Y-69393000D03*
X72390000Y-66243000D03*
X105791000Y-50470000D03*
X105791000Y-47320000D03*
X243840000Y-69393000D03*
X243840000Y-66243000D03*
X48641000Y-50470000D03*
X48641000Y-47320000D03*
X220091000Y-50343000D03*
X220091000Y-47193000D03*
X201041000Y-50343000D03*
X201041000Y-47193000D03*
X158115000Y-88443000D03*
X158115000Y-85293000D03*
X229616000Y-31420000D03*
X229616000Y-28270000D03*
X258191000Y-107493000D03*
X258191000Y-104343000D03*
X177165000Y-88443000D03*
X177165000Y-85293000D03*
X205740000Y-69393000D03*
X205740000Y-66243000D03*
X186690000Y-69393000D03*
X186690000Y-66243000D03*
X167640000Y-69393000D03*
X167640000Y-66243000D03*
X181991000Y-50343000D03*
X181991000Y-47193000D03*
X148590000Y-69393000D03*
X148590000Y-66243000D03*
X129540000Y-69393000D03*
X129540000Y-66243000D03*
X110490000Y-69393000D03*
X110490000Y-66243000D03*
X248666000Y-31420000D03*
X248666000Y-28270000D03*
X262890000Y-69393000D03*
X262890000Y-66243000D03*
X86741000Y-50470000D03*
X86741000Y-47320000D03*
X215265000Y-88443000D03*
X215265000Y-85293000D03*
X91440000Y-69393000D03*
X91440000Y-66243000D03*
X21336000Y-107493000D03*
X21336000Y-104343000D03*
X281940000Y-107493000D03*
X281940000Y-104343000D03*
X196215000Y-88443000D03*
X196215000Y-85293000D03*
X21336000Y-69393000D03*
X21336000Y-66243000D03*
X100965000Y-88443000D03*
X100965000Y-85293000D03*
X277241000Y-50343000D03*
X277241000Y-47193000D03*
X267716000Y-31420000D03*
X267716000Y-28270000D03*
X139065000Y-88443000D03*
X139065000Y-85293000D03*
X67691000Y-107493000D03*
X67691000Y-104343000D03*
X210566000Y-107493000D03*
X210566000Y-104343000D03*
X53340000Y-69393000D03*
X53340000Y-66243000D03*
X21336000Y-31420000D03*
X21336000Y-28270000D03*
X258064000Y-50376000D03*
X258064000Y-47226000D03*
X239141000Y-50343000D03*
X239141000Y-47193000D03*
X312928000Y-88443000D03*
X312928000Y-85293000D03*
X312928000Y-107493000D03*
X312928000Y-104343000D03*
X91567000Y-107493000D03*
X91567000Y-104343000D03*
X191516000Y-31420000D03*
X191516000Y-28270000D03*
X172466000Y-31420000D03*
X172466000Y-28270000D03*
X153416000Y-31420000D03*
X153416000Y-28270000D03*
X134366000Y-31420000D03*
X134366000Y-28270000D03*
X115316000Y-31420000D03*
X115316000Y-28270000D03*
X96266000Y-31420000D03*
X96266000Y-28270000D03*
X77216000Y-31420000D03*
X77216000Y-28270000D03*
X58166000Y-31420000D03*
X58166000Y-28270000D03*
X39116000Y-31420000D03*
X39116000Y-28270000D03*
X210566000Y-31420000D03*
X210566000Y-28270000D03*
M02*
