0
SECTION
2
HEADER
9
$INSUNITS
70
4
9
$ACADVER
1
AC1014
9
$HANDSEED
5
FFFF
0
ENDSEC
0
SECTION
2
TABLES
0
TABLE
2
VPORT
5
8
100
AcDbSymbolTable
0
ENDTAB
0
TABLE
2
LTYPE
5
5
100
AcDbSymbolTable
0
LTYPE
5
14
100
AcDbSymbolTableRecord
100
AcDbLinetypeTableRecord
2
BYBLOCK
70
0
0
LTYPE
5
15
100
AcDbSymbolTableRecord
100
AcDbLinetypeTableRecord
2
BYLAYER
70
0
0
ENDTAB
0
TABLE
2
LAYER
5
2
100
AcDbSymbolTable
70
2
0
LAYER
5
50
100
AcDbSymbolTableRecord
100
AcDbLayerTableRecord
2
0
70
0
6
CONTINUOUS
0
ENDTAB
0
TABLE
2
STYLE
5
3
100
AcDbSymbolTable
70
1
0
STYLE
5
11
100
AcDbSymbolTableRecord
100
AcDbTextStyleTableRecord
2
STANDARD
70
0
0
ENDTAB
0
TABLE
2
VIEW
5
6
100
AcDbSymbolTable
70
0
0
ENDTAB
0
TABLE
2
UCS
5
7
100
AcDbSymbolTable
70
0
0
ENDTAB
0
TABLE
2
APPID
5
9
100
AcDbSymbolTable
70
2
0
APPID
5
12
100
AcDbSymbolTableRecord
100
AcDbRegAppTableRecord
2
ACAD
70
0
0
ENDTAB
0
TABLE
2
DIMSTYLE
5
A
100
AcDbSymbolTable
70
1
0
ENDTAB
0
TABLE
2
BLOCK_RECORD
5
1
100
AcDbSymbolTable
70
1
0
BLOCK_RECORD
5
1F
100
AcDbSymbolTableRecord
100
AcDbBlockTableRecord
2
*MODEL_SPACE
0
BLOCK_RECORD
5
1B
100
AcDbSymbolTableRecord
100
AcDbBlockTableRecord
2
*PAPER_SPACE
0
ENDTAB
0
ENDSEC
0
SECTION
2
BLOCKS
0
BLOCK
5
20
100
AcDbEntity
100
AcDbBlockBegin
2
*MODEL_SPACE
0
ENDBLK
5
21
100
AcDbEntity
100
AcDbBlockEnd
0
BLOCK
5
1C
100
AcDbEntity
100
AcDbBlockBegin
2
*PAPER_SPACE
0
ENDBLK
5
1D
100
AcDbEntity
100
AcDbBlockEnd
0
ENDSEC
0
SECTION
2
ENTITIES
0
LWPOLYLINE
5
100
100
AcDbEntity
8
0
100
AcDbPolyline
90
4
70
1
43
0.0
10
-329.31400000000002
20
79.688999999999993
10
-315.46400000000006
20
79.688999999999993
10
-315.46400000000006
20
93.538999999999987
10
-329.31400000000002
20
93.538999999999987
0
LWPOLYLINE
5
101
100
AcDbEntity
8
0
100
AcDbPolyline
90
48
70
1
43
0.0
10
-286.47700000000003
20
88.899499999999989
10
-288.15240000000006
20
88.899499999999989
10
-288.15240000000006
20
93.368499999999983
10
-289.87639999999999
20
93.368499999999983
10
-289.87639999999999
20
94.349699999999984
10
-293.02639999999997
20
94.349699999999984
10
-293.02639999999997
20
93.368499999999983
10
-294.75139999999999
20
93.368499999999983
10
-294.75139999999999
20
87.098399999999998
10
-295.57740000000001
20
87.098399999999998
10
-295.57740000000001
20
84.448599999999985
10
-294.75139999999999
20
84.448599999999985
10
-294.75139999999999
20
81.219599999999986
10
-293.02639999999997
20
81.219599999999986
10
-293.02639999999997
20
80.299199999999985
10
-289.87639999999999
20
80.299199999999985
10
-289.87639999999999
20
81.219599999999986
10
-288.15240000000006
20
81.219599999999986
10
-288.15240000000006
20
84.448599999999985
10
-286.47700000000003
20
84.448599999999985
10
-286.47700000000009
20
79.733999999999995
10
-272.62700000000001
20
79.733999999999995
10
-272.62700000000001
20
84.448599999999985
10
-270.95140000000004
20
84.448599999999985
10
-270.95140000000004
20
81.219599999999986
10
-269.22640000000001
20
81.219599999999986
10
-269.22640000000001
20
80.299199999999985
10
-266.07639999999998
20
80.299199999999985
10
-266.07639999999998
20
81.219599999999986
10
-264.35240000000005
20
81.219599999999986
10
-264.35240000000005
20
84.448599999999985
10
-263.52640000000002
20
84.448599999999985
10
-263.52640000000002
20
87.098399999999998
10
-264.35240000000005
20
87.098399999999998
10
-264.35240000000005
20
93.368499999999983
10
-266.07639999999998
20
93.368499999999983
10
-266.07639999999998
20
94.349699999999984
10
-269.22640000000001
20
94.349699999999984
10
-269.22640000000001
20
93.368499999999983
10
-270.95140000000004
20
93.368499999999983
10
-270.95140000000004
20
88.899499999999989
10
-272.62700000000001
20
88.899499999999989
10
-272.62700000000001
20
93.584000000000003
10
-272.62740000000002
20
93.584000000000003
10
-272.62740000000002
20
93.598599999999976
10
-286.47640000000001
20
93.598599999999976
10
-286.47640000000001
20
93.584000000000003
10
-286.47700000000009
20
93.584000000000003
0
LWPOLYLINE
5
102
100
AcDbEntity
8
0
100
AcDbPolyline
90
4
70
1
43
0.0
10
-250.75500000000005
20
79.728899999999996
10
-236.90500000000009
20
79.728899999999996
10
-236.90500000000009
20
93.57889999999999
10
-250.75500000000005
20
93.57889999999999
0
LWPOLYLINE
5
103
100
AcDbEntity
8
0
100
AcDbPolyline
90
4
70
1
43
0.0
10
-222.19300000000001
20
60.696700000000007
10
-208.34300000000002
20
60.696700000000007
10
-208.34300000000002
20
74.546700000000001
10
-222.19300000000001
20
74.546700000000001
0
LWPOLYLINE
5
104
100
AcDbEntity
8
0
100
AcDbPolyline
90
4
70
1
43
0.0
10
-184.09300000000002
20
60.696700000000007
10
-170.24299999999999
20
60.696700000000007
10
-170.24299999999999
20
74.546700000000001
10
-184.09300000000002
20
74.546700000000001
0
LWPOLYLINE
5
105
100
AcDbEntity
8
0
100
AcDbPolyline
90
4
70
1
43
0.0
10
-126.94299999999998
20
60.696700000000007
10
-113.093
20
60.696700000000007
10
-113.093
20
74.546700000000001
10
-126.94299999999998
20
74.546700000000001
0
LWPOLYLINE
5
106
100
AcDbEntity
8
0
100
AcDbPolyline
90
4
70
1
43
0.0
10
-155.50500000000002
20
79.728899999999996
10
-141.65500000000003
20
79.728899999999996
10
-141.65500000000003
20
93.57889999999999
10
-155.50500000000002
20
93.57889999999999
0
LWPOLYLINE
5
107
100
AcDbEntity
8
0
100
AcDbPolyline
90
4
70
1
43
0.0
10
-98.354800000000012
20
79.728899999999996
10
-84.504800000000003
20
79.728899999999996
10
-84.504800000000003
20
93.57889999999999
10
-98.354800000000012
20
93.57889999999999
0
LWPOLYLINE
5
108
100
AcDbEntity
8
0
100
AcDbPolyline
90
4
70
1
43
0.0
10
-24.990099999999998
20
112.64200000000002
10
-38.840100000000007
20
112.64200000000002
10
-38.840100000000007
20
98.791600000000003
10
-24.990099999999998
20
98.791600000000003
0
LWPOLYLINE
5
109
100
AcDbEntity
8
0
100
AcDbPolyline
90
4
70
1
43
0.0
10
-22.602499999999999
20
36.446700000000007
10
-36.452500000000008
20
36.446700000000007
10
-36.452500000000008
20
22.596699999999998
10
-22.602499999999999
20
22.596699999999998
0
LWPOLYLINE
5
110
100
AcDbEntity
8
0
100
AcDbPolyline
90
4
70
1
43
0.0
10
-84.077500000000001
20
41.646700000000003
10
-70.227500000000006
20
41.646700000000003
10
-70.227500000000006
20
55.496699999999997
10
-84.077500000000001
20
55.496699999999997
0
LWPOLYLINE
5
111
100
AcDbEntity
8
0
100
AcDbPolyline
90
4
70
1
43
0.0
10
-122.17700000000001
20
41.646700000000003
10
-108.32700000000003
20
41.646700000000003
10
-108.32700000000003
20
55.496699999999997
10
-122.17700000000001
20
55.496699999999997
0
LWPOLYLINE
5
112
100
AcDbEntity
8
0
100
AcDbPolyline
90
4
70
1
43
0.0
10
-160.27699999999999
20
41.646700000000003
10
-146.42700000000002
20
41.646700000000003
10
-146.42700000000002
20
55.496699999999997
10
-160.27699999999999
20
55.496699999999997
0
LWPOLYLINE
5
113
100
AcDbEntity
8
0
100
AcDbPolyline
90
4
70
1
43
0.0
10
-198.37700000000001
20
41.646700000000003
10
-184.52699999999999
20
41.646700000000003
10
-184.52699999999999
20
55.496699999999997
10
-198.37700000000001
20
55.496699999999997
0
LWPOLYLINE
5
114
100
AcDbEntity
8
0
100
AcDbPolyline
90
4
70
1
43
0.0
10
-236.47700000000009
20
41.646700000000003
10
-222.62700000000001
20
41.646700000000003
10
-222.62700000000001
20
55.496699999999997
10
-236.47700000000009
20
55.496699999999997
0
LWPOLYLINE
5
115
100
AcDbEntity
8
0
100
AcDbPolyline
90
4
70
1
43
0.0
10
-274.577
20
41.646700000000003
10
-260.72700000000003
20
41.646700000000003
10
-260.72700000000003
20
55.496699999999997
10
-274.577
20
55.496699999999997
0
LWPOLYLINE
5
116
100
AcDbEntity
8
0
100
AcDbPolyline
90
4
70
1
43
0.0
10
-298.39699999999999
20
41.661700000000003
10
-284.54700000000003
20
41.661700000000003
10
-284.54700000000003
20
55.511699999999998
10
-298.39699999999999
20
55.511699999999998
0
LWPOLYLINE
5
117
100
AcDbEntity
8
0
100
AcDbPolyline
90
4
70
1
43
0.0
10
-246.00200000000001
20
22.596699999999998
10
-232.15200000000004
20
22.596699999999998
10
-232.15200000000004
20
36.446700000000007
10
-246.00200000000001
20
36.446700000000007
0
LWPOLYLINE
5
118
100
AcDbEntity
8
0
100
AcDbPolyline
90
4
70
1
43
0.0
10
-207.90200000000002
20
22.596699999999998
10
-194.05200000000002
20
22.596699999999998
10
-194.05200000000002
20
36.446700000000007
10
-207.90200000000002
20
36.446700000000007
0
LWPOLYLINE
5
119
100
AcDbEntity
8
0
100
AcDbPolyline
90
4
70
1
43
0.0
10
-169.80199999999999
20
22.596699999999998
10
-155.95200000000003
20
22.596699999999998
10
-155.95200000000003
20
36.446700000000007
10
-169.80199999999999
20
36.446700000000007
0
LWPOLYLINE
5
120
100
AcDbEntity
8
0
100
AcDbPolyline
90
4
70
1
43
0.0
10
-131.703
20
36.446700000000007
10
-131.703
20
22.596699999999998
10
-117.85200000000002
20
22.596699999999998
10
-117.85200000000002
20
36.446700000000007
0
LWPOLYLINE
5
121
100
AcDbEntity
8
0
100
AcDbPolyline
90
4
70
1
43
0.0
10
-93.602499999999992
20
22.596699999999998
10
-79.752499999999998
20
22.596699999999998
10
-79.752499999999998
20
36.446700000000007
10
-93.602499999999992
20
36.446700000000007
0
LWPOLYLINE
5
122
100
AcDbEntity
8
0
100
AcDbPolyline
90
4
70
1
43
0.0
10
-41.652500000000003
20
36.446700000000007
10
-55.502499999999998
20
36.446700000000007
10
-55.502499999999998
20
22.596699999999998
10
-41.652500000000003
20
22.596699999999998
0
LWPOLYLINE
5
123
100
AcDbEntity
8
0
100
AcDbPolyline
90
44
70
1
43
0.0
10
-48.352399999999996
20
93.59920000000001
10
-48.352399999999996
20
88.899499999999989
10
-50.0274
20
88.899499999999989
10
-50.0274
20
93.368499999999983
10
-51.751400000000004
20
93.368499999999983
10
-51.751400000000004
20
94.349699999999984
10
-54.901700000000005
20
94.349699999999984
10
-54.901700000000005
20
93.368499999999983
10
-56.6267
20
93.368499999999983
10
-56.6267
20
87.098399999999998
10
-57.452200000000005
20
87.098399999999998
10
-57.452200000000005
20
84.448599999999985
10
-56.6267
20
84.448599999999985
10
-56.6267
20
81.219599999999986
10
-54.901700000000005
20
81.219599999999986
10
-54.901700000000005
20
80.299199999999985
10
-51.751400000000004
20
80.299199999999985
10
-51.751400000000004
20
81.219599999999986
10
-50.0274
20
81.219599999999986
10
-50.0274
20
84.448599999999985
10
-48.352399999999996
20
84.448599999999985
10
-48.352399999999996
20
79.749200000000002
10
-34.502400000000002
20
79.749200000000002
10
-34.502400000000002
20
84.448599999999985
10
-32.826700000000002
20
84.448599999999985
10
-32.826700000000002
20
81.219599999999986
10
-31.101400000000005
20
81.219599999999986
10
-31.101400000000005
20
80.299199999999985
10
-27.951200000000004
20
80.299199999999985
10
-27.951200000000004
20
81.219599999999986
10
-26.227300000000003
20
81.219599999999986
10
-26.227300000000003
20
84.448599999999985
10
-25.401899999999998
20
84.448599999999985
10
-25.401899999999998
20
87.098399999999998
10
-26.227300000000003
20
87.098399999999998
10
-26.227300000000003
20
93.368499999999983
10
-27.951200000000004
20
93.368499999999983
10
-27.951200000000004
20
94.349699999999984
10
-31.101400000000005
20
94.349699999999984
10
-31.101400000000005
20
93.368499999999983
10
-32.826700000000002
20
93.368499999999983
10
-32.826700000000002
20
88.899499999999989
10
-34.502400000000002
20
88.899499999999989
10
-34.502400000000002
20
93.59920000000001
0
LWPOLYLINE
5
124
100
AcDbEntity
8
0
100
AcDbPolyline
90
4
70
1
43
0.0
10
-79.3048
20
79.728899999999996
10
-65.454800000000006
20
79.728899999999996
10
-65.454800000000006
20
93.57889999999999
10
-79.3048
20
93.57889999999999
0
LWPOLYLINE
5
125
100
AcDbEntity
8
0
100
AcDbPolyline
90
4
70
1
43
0.0
10
-136.45500000000001
20
79.728899999999996
10
-122.605
20
79.728899999999996
10
-122.605
20
93.57889999999999
10
-136.45500000000001
20
93.57889999999999
0
LWPOLYLINE
5
126
100
AcDbEntity
8
0
100
AcDbPolyline
90
4
70
1
43
0.0
10
-107.89299999999999
20
60.696700000000007
10
-94.042500000000018
20
60.696700000000007
10
-94.042500000000018
20
74.546700000000001
10
-107.89299999999999
20
74.546700000000001
0
LWPOLYLINE
5
127
100
AcDbEntity
8
0
100
AcDbPolyline
90
4
70
1
43
0.0
10
-174.55500000000001
20
79.728899999999996
10
-160.70499999999998
20
79.728899999999996
10
-160.70499999999998
20
93.57889999999999
10
-174.55500000000001
20
93.57889999999999
0
LWPOLYLINE
5
128
100
AcDbEntity
8
0
100
AcDbPolyline
90
4
70
1
43
0.0
10
-212.655
20
79.728899999999996
10
-198.80500000000001
20
79.728899999999996
10
-198.80500000000001
20
93.57889999999999
10
-212.655
20
93.57889999999999
0
LWPOLYLINE
5
129
100
AcDbEntity
8
0
100
AcDbPolyline
90
4
70
1
43
0.0
10
-239.298
20
112.64200000000002
10
-253.14799999999997
20
112.64200000000002
10
-253.14799999999997
20
98.791600000000003
10
-239.298
20
98.791600000000003
0
LWPOLYLINE
5
130
100
AcDbEntity
8
0
100
AcDbPolyline
90
48
70
1
43
0.0
10
-277.41500000000002
20
60.694100000000013
10
-277.41499999999996
20
60.69919999999999
10
-277.38839999999999
20
60.69919999999999
10
-277.38839999999999
20
65.398599999999988
10
-275.71440000000001
20
65.398599999999988
10
-275.71440000000001
20
62.169599999999988
10
-273.98939999999999
20
62.169599999999988
10
-273.98939999999999
20
61.249199999999988
10
-270.83839999999998
20
61.249199999999988
10
-270.83839999999998
20
62.169599999999988
10
-269.11340000000001
20
62.169599999999988
10
-269.11340000000001
20
65.398599999999988
10
-268.2894
20
65.398599999999988
10
-268.2894
20
68.048299999999983
10
-269.11340000000001
20
68.048299999999983
10
-269.11340000000001
20
74.318499999999986
10
-270.83839999999998
20
74.318499999999986
10
-270.83839999999998
20
75.299599999999998
10
-273.98939999999999
20
75.299599999999998
10
-273.98939999999999
20
74.318499999999986
10
-275.71440000000001
20
74.318499999999986
10
-275.71440000000001
20
69.849599999999981
10
-277.38839999999999
20
69.849599999999981
10
-277.38839999999999
20
74.548599999999979
10
-291.23939999999999
20
74.548599999999979
10
-291.23939999999999
20
74.5441
10
-291.26499999999999
20
74.5441
10
-291.26499999999999
20
69.849599999999981
10
-292.91339999999997
20
69.849599999999981
10
-292.91339999999997
20
74.318499999999986
10
-294.63839999999999
20
74.318499999999986
10
-294.63839999999999
20
75.299599999999998
10
-297.7894
20
75.299599999999998
10
-297.7894
20
74.318499999999986
10
-299.51440000000002
20
74.318499999999986
10
-299.51440000000002
20
68.048299999999983
10
-300.33839999999998
20
68.048299999999983
10
-300.33839999999998
20
65.398599999999988
10
-299.51440000000002
20
65.398599999999988
10
-299.51440000000002
20
62.169599999999988
10
-297.7894
20
62.169599999999988
10
-297.7894
20
61.249199999999988
10
-294.63839999999999
20
61.249199999999988
10
-294.63839999999999
20
62.169599999999988
10
-292.91339999999997
20
62.169599999999988
10
-292.91339999999997
20
65.398599999999988
10
-291.26499999999999
20
65.398599999999988
10
-291.26499999999999
20
60.694100000000013
0
LWPOLYLINE
5
131
100
AcDbEntity
8
0
100
AcDbPolyline
90
4
70
1
43
0.0
10
-329.31400000000002
20
98.796700000000016
10
-315.46400000000006
20
98.796700000000016
10
-315.46400000000006
20
112.64700000000002
10
-329.31400000000002
20
112.64700000000002
0
LWPOLYLINE
5
132
100
AcDbEntity
8
0
100
AcDbPolyline
90
4
70
1
43
0.0
10
-263.10499999999996
20
112.64200000000002
10
-276.95500000000004
20
112.64200000000002
10
-276.95500000000004
20
98.791600000000003
10
-263.10499999999996
20
98.791600000000003
0
LWPOLYLINE
5
133
100
AcDbEntity
8
0
100
AcDbPolyline
90
4
70
1
43
0.0
10
-241.24299999999999
20
60.696700000000007
10
-227.393
20
60.696700000000007
10
-227.393
20
74.546700000000001
10
-241.24299999999999
20
74.546700000000001
0
LWPOLYLINE
5
134
100
AcDbEntity
8
0
100
AcDbPolyline
90
4
70
1
43
0.0
10
-231.70500000000004
20
79.728899999999996
10
-217.85500000000002
20
79.728899999999996
10
-217.85500000000002
20
93.57889999999999
10
-231.70500000000004
20
93.57889999999999
0
LWPOLYLINE
5
135
100
AcDbEntity
8
0
100
AcDbPolyline
90
4
70
1
43
0.0
10
-193.60500000000002
20
79.728899999999996
10
-179.755
20
79.728899999999996
10
-179.755
20
93.57889999999999
10
-193.60500000000002
20
93.57889999999999
0
LWPOLYLINE
5
136
100
AcDbEntity
8
0
100
AcDbPolyline
90
4
70
1
43
0.0
10
-145.99299999999999
20
60.696700000000007
10
-132.143
20
60.696700000000007
10
-132.143
20
74.546700000000001
10
-145.99299999999999
20
74.546700000000001
0
LWPOLYLINE
5
137
100
AcDbEntity
8
0
100
AcDbPolyline
90
4
70
1
43
0.0
10
-69.792500000000004
20
60.696700000000007
10
-55.94250000000001
20
60.696700000000007
10
-55.94250000000001
20
74.546700000000001
10
-69.792500000000004
20
74.546700000000001
0
LWPOLYLINE
5
138
100
AcDbEntity
8
0
100
AcDbPolyline
90
4
70
1
43
0.0
10
-117.405
20
79.728899999999996
10
-103.55500000000001
20
79.728899999999996
10
-103.55500000000001
20
93.57889999999999
10
-117.405
20
93.57889999999999
0
LWPOLYLINE
5
139
100
AcDbEntity
8
0
100
AcDbPolyline
90
4
70
1
43
0.0
10
-48.820399999999999
20
112.64200000000002
10
-62.670400000000001
20
112.64200000000002
10
-62.670400000000001
20
98.791600000000003
10
-48.820399999999999
20
98.791600000000003
0
LWPOLYLINE
5
140
100
AcDbEntity
8
0
100
AcDbPolyline
90
4
70
1
43
0.0
10
-41.207400000000007
20
41.654300000000006
10
-27.357399999999998
20
41.654300000000006
10
-27.357399999999998
20
55.504300000000001
10
-41.207400000000007
20
55.504300000000001
0
LWPOLYLINE
5
141
100
AcDbEntity
8
0
100
AcDbPolyline
90
4
70
1
43
0.0
10
-74.552499999999995
20
22.596699999999998
10
-60.702500000000008
20
22.596699999999998
10
-60.702500000000008
20
36.446700000000007
10
-74.552499999999995
20
36.446700000000007
0
LWPOLYLINE
5
142
100
AcDbEntity
8
0
100
AcDbPolyline
90
4
70
1
43
0.0
10
-112.652
20
22.596699999999998
10
-98.802500000000023
20
22.596699999999998
10
-98.802500000000023
20
36.446700000000007
10
-112.652
20
36.446700000000007
0
LWPOLYLINE
5
143
100
AcDbEntity
8
0
100
AcDbPolyline
90
4
70
1
43
0.0
10
-150.75200000000001
20
22.596699999999998
10
-136.90200000000002
20
22.596699999999998
10
-136.90200000000002
20
36.446700000000007
10
-150.75200000000001
20
36.446700000000007
0
LWPOLYLINE
5
144
100
AcDbEntity
8
0
100
AcDbPolyline
90
4
70
1
43
0.0
10
-188.852
20
22.596699999999998
10
-175.00200000000004
20
22.596699999999998
10
-175.00200000000004
20
36.446700000000007
10
-188.852
20
36.446700000000007
0
LWPOLYLINE
5
145
100
AcDbEntity
8
0
100
AcDbPolyline
90
4
70
1
43
0.0
10
-226.95300000000003
20
22.596699999999998
10
-213.10300000000001
20
22.596699999999998
10
-213.10300000000001
20
36.446700000000007
10
-226.95300000000003
20
36.446700000000007
0
LWPOLYLINE
5
146
100
AcDbEntity
8
0
100
AcDbPolyline
90
4
70
1
43
0.0
10
-265.05200000000002
20
22.596699999999998
10
-251.20200000000006
20
22.596699999999998
10
-251.20200000000006
20
36.446700000000007
10
-265.05200000000002
20
36.446700000000007
0
LWPOLYLINE
5
147
100
AcDbEntity
8
0
100
AcDbPolyline
90
48
70
1
43
0.0
10
-293.62700000000001
20
31.749599999999987
10
-295.29640000000001
20
31.749599999999987
10
-295.29640000000001
20
36.218499999999985
10
-297.02139999999997
20
36.218499999999985
10
-297.02139999999997
20
37.19959999999999
10
-300.17040000000003
20
37.19959999999999
10
-300.17040000000003
20
36.218499999999985
10
-301.8954
20
36.218499999999985
10
-301.8954
20
29.948299999999985
10
-302.72139999999996
20
29.948299999999985
10
-302.72139999999996
20
27.298599999999986
10
-301.8954
20
27.298599999999986
10
-301.8954
20
24.06959999999998
10
-300.17040000000003
20
24.06959999999998
10
-300.17040000000003
20
23.14919999999999
10
-297.02139999999997
20
23.14919999999999
10
-297.02139999999997
20
24.06959999999998
10
-295.29640000000001
20
24.06959999999998
10
-295.29640000000001
20
27.298599999999986
10
-293.62700000000001
20
27.298599999999986
10
-293.62700000000007
20
22.596699999999998
10
-279.77700000000004
20
22.596699999999998
10
-279.77700000000004
20
22.599199999999975
10
-279.77139999999997
20
22.599199999999975
10
-279.77139999999997
20
27.298599999999986
10
-278.09539999999998
20
27.298599999999986
10
-278.09539999999998
20
24.06959999999998
10
-276.37139999999999
20
24.06959999999998
10
-276.37139999999999
20
23.14919999999999
10
-273.22139999999996
20
23.14919999999999
10
-273.22139999999996
20
24.06959999999998
10
-271.49639999999999
20
24.06959999999998
10
-271.49639999999999
20
27.298599999999986
10
-270.67040000000003
20
27.298599999999986
10
-270.67040000000003
20
29.948299999999985
10
-271.49639999999999
20
29.948299999999985
10
-271.49639999999999
20
36.218499999999985
10
-273.22139999999996
20
36.218499999999985
10
-273.22139999999996
20
37.19959999999999
10
-276.37139999999999
20
37.19959999999999
10
-276.37139999999999
20
36.218499999999985
10
-278.09539999999998
20
36.218499999999985
10
-278.09539999999998
20
31.749599999999987
10
-279.77139999999997
20
31.749599999999987
10
-279.77139999999997
20
36.448599999999978
10
-293.62040000000002
20
36.448599999999978
10
-293.62040000000002
20
36.446700000000007
10
-293.62700000000007
20
36.446700000000007
0
LWPOLYLINE
5
148
100
AcDbEntity
8
0
100
AcDbPolyline
90
4
70
1
43
0.0
10
-328.65300000000002
20
53.99730000000001
10
-316.65300000000002
20
53.99730000000001
10
-316.65300000000002
20
65.597300000000004
10
-328.65300000000002
20
65.597300000000004
0
LWPOLYLINE
5
149
100
AcDbEntity
8
0
100
AcDbPolyline
90
4
70
1
43
0.0
10
-255.52700000000002
20
41.646700000000003
10
-241.67700000000002
20
41.646700000000003
10
-241.67700000000002
20
55.496699999999997
10
-255.52700000000002
20
55.496699999999997
0
LWPOLYLINE
5
150
100
AcDbEntity
8
0
100
AcDbPolyline
90
4
70
1
43
0.0
10
-217.42700000000002
20
41.646700000000003
10
-203.577
20
41.646700000000003
10
-203.577
20
55.496699999999997
10
-217.42700000000002
20
55.496699999999997
0
LWPOLYLINE
5
151
100
AcDbEntity
8
0
100
AcDbPolyline
90
4
70
1
43
0.0
10
-165.47799999999998
20
55.496699999999997
10
-179.328
20
55.496699999999997
10
-179.328
20
41.646700000000003
10
-165.47799999999998
20
41.646700000000003
0
LWPOLYLINE
5
152
100
AcDbEntity
8
0
100
AcDbPolyline
90
4
70
1
43
0.0
10
-141.22700000000003
20
41.646700000000003
10
-127.37700000000002
20
41.646700000000003
10
-127.37700000000002
20
55.496699999999997
10
-141.22700000000003
20
55.496699999999997
0
LWPOLYLINE
5
153
100
AcDbEntity
8
0
100
AcDbPolyline
90
4
70
1
43
0.0
10
-103.12799999999999
20
41.646700000000003
10
-89.277500000000018
20
41.646700000000003
10
-89.277500000000018
20
55.496699999999997
10
-103.12799999999999
20
55.496699999999997
0
LWPOLYLINE
5
154
100
AcDbEntity
8
0
100
AcDbPolyline
90
4
70
1
43
0.0
10
-65.027500000000003
20
41.646700000000003
10
-51.177500000000009
20
41.646700000000003
10
-51.177500000000009
20
55.496699999999997
10
-65.027500000000003
20
55.496699999999997
0
LWPOLYLINE
5
155
100
AcDbEntity
8
0
100
AcDbPolyline
90
4
70
1
43
0.0
10
-29.739900000000002
20
74.556799999999996
10
-43.5899
20
74.556799999999996
10
-43.5899
20
60.706800000000001
10
-29.739900000000002
20
60.706800000000001
0
LWPOLYLINE
5
156
100
AcDbEntity
8
0
100
AcDbPolyline
90
4
70
1
43
0.0
10
-72.648099999999999
20
112.64200000000002
10
-86.498100000000008
20
112.64200000000002
10
-86.498100000000008
20
98.791600000000003
10
-72.648099999999999
20
98.791600000000003
0
LWPOLYLINE
5
157
100
AcDbEntity
8
0
100
AcDbPolyline
90
44
70
1
43
0.0
10
-99.448100000000011
20
113.38751000000001
10
-102.59910000000005
20
113.38751000000001
10
-102.59910000000005
20
112.40633
10
-104.32410000000004
20
112.40633
10
-104.32410000000004
20
107.93595999999999
10
-144.09810000000004
20
107.93595999999999
10
-144.09810000000004
20
112.63648000000002
10
-157.94910000000004
20
112.63648000000002
10
-157.94910000000004
20
107.93595999999999
10
-197.72340000000003
20
107.93595999999999
10
-197.72340000000003
20
112.40633
10
-199.44850000000005
20
112.40633
10
-199.44850000000005
20
113.38751000000001
10
-202.59880000000007
20
113.38751000000001
10
-202.59880000000007
20
112.40633
10
-204.32420000000005
20
112.40633
10
-204.32420000000005
20
106.13625999999999
10
-205.14830000000003
20
106.13625999999999
10
-205.14830000000003
20
103.48625999999999
10
-204.32420000000005
20
103.48625999999999
10
-204.32420000000005
20
100.25756
10
-202.59880000000007
20
100.25756
10
-202.59880000000007
20
99.336959999999991
10
-199.44850000000005
20
99.336959999999991
10
-199.44850000000005
20
100.25756
10
-197.72340000000003
20
100.25756
10
-197.72340000000003
20
103.48625999999999
10
-157.94910000000004
20
103.48625999999999
10
-157.94910000000004
20
98.787159999999986
10
-144.09810000000004
20
98.787159999999986
10
-144.09810000000004
20
103.48625999999999
10
-104.32410000000004
20
103.48625999999999
10
-104.32410000000004
20
100.25756
10
-102.59910000000005
20
100.25756
10
-102.59910000000005
20
99.336959999999991
10
-99.448100000000011
20
99.336959999999991
10
-99.448100000000011
20
100.25756
10
-97.723100000000017
20
100.25756
10
-97.723100000000017
20
103.48625999999999
10
-96.899100000000004
20
103.48625999999999
10
-96.899100000000004
20
106.13625999999999
10
-97.723100000000017
20
106.13625999999999
10
-97.723100000000017
20
112.40633
10
-99.448100000000011
20
112.40633
0
LWPOLYLINE
5
158
100
AcDbEntity
8
0
100
AcDbPolyline
90
4
70
1
43
0.0
10
-88.842500000000001
20
60.696700000000007
10
-74.992500000000007
20
60.696700000000007
10
-74.992500000000007
20
74.546700000000001
10
-88.842500000000001
20
74.546700000000001
0
LWPOLYLINE
5
159
100
AcDbEntity
8
0
100
AcDbPolyline
90
4
70
1
43
0.0
10
-165.04300000000001
20
60.696700000000007
10
-151.19300000000001
20
60.696700000000007
10
-151.19300000000001
20
74.546700000000001
10
-165.04300000000001
20
74.546700000000001
0
LWPOLYLINE
5
160
100
AcDbEntity
8
0
100
AcDbPolyline
90
4
70
1
43
0.0
10
-203.143
20
60.696700000000007
10
-189.29300000000001
20
60.696700000000007
10
-189.29300000000001
20
74.546700000000001
10
-203.143
20
74.546700000000001
0
LWPOLYLINE
5
161
100
AcDbEntity
8
0
100
AcDbPolyline
90
4
70
1
43
0.0
10
-215.52800000000002
20
112.62100000000001
10
-229.37800000000004
20
112.62100000000001
10
-229.37800000000004
20
98.771300000000011
10
-215.52800000000002
20
98.771300000000011
0
LWPOLYLINE
5
162
100
AcDbEntity
8
0
100
AcDbPolyline
90
4
70
1
43
0.0
10
-260.29300000000001
20
60.696700000000007
10
-246.44300000000001
20
60.696700000000007
10
-246.44300000000001
20
74.546700000000001
10
-260.29300000000001
20
74.546700000000001
0
LWPOLYLINE
5
163
100
AcDbEntity
8
0
100
AcDbPolyline
90
4
70
1
43
0.0
10
-286.91000000000003
20
112.64200000000002
10
-300.75999999999999
20
112.64200000000002
10
-300.75999999999999
20
98.791600000000003
10
-286.91000000000003
20
98.791600000000003
0
LWPOLYLINE
5
164
100
AcDbEntity
8
0
100
AcDbPolyline
90
16
70
1
43
0.0
10
-338.02788855918948
20
15.9476460059971
10
-338.02788855918948
20
118.947645939418
42
-0.41421007130660148
10
-333.95293713017912
20
123.02264593912858
10
-17.948261167851793
20
123.02641248142146
42
-0.41412258310120725
10
-13.873212808843148
20
118.95272688074772
10
-13.839989962126838
20
15.952732558734278
42
-0.41430454266446953
10
-17.91494111190854
20
11.876418159987752
10
-311.66698716905398
20
11.872912004961091
42
-0.41421705828168187
10
-312.74200000000002
20
12.947912004884525
10
-312.74200000000002
20
21.450303333338773
42
0.41421356237309503
10
-313.16700000000003
20
21.875303333338778
10
-323.16700000000003
20
21.875303333338771
42
0.41421356237309503
10
-323.59199999999998
20
21.450303333338773
10
-323.59199999999998
20
12.947756839955595
42
-0.41421006647310338
10
-324.66698716905398
20
11.87275684003218
10
-333.95283992095221
20
11.87264600628739
42
-0.4142170582816877
0
CIRCLE
5
165
100
AcDbEntity
8
0
100
AcDbCircle
10
-17.207764719595499
20
15.244429647652915
30
0
40
1.2749999999999999
210
-0
220
0
230
1
0
CIRCLE
5
166
100
AcDbEntity
8
0
100
AcDbCircle
10
-17.241224078982039
20
119.65863750642784
30
0
40
1.2749999999999955
210
-0
220
0
230
1
0
CIRCLE
5
167
100
AcDbEntity
8
0
100
AcDbCircle
10
-110.48999999999999
20
58.801000000000023
30
0
40
1.2749999999999977
210
-0
220
0
230
1
0
CIRCLE
5
168
100
AcDbEntity
8
0
100
AcDbCircle
10
-158.11500000000001
20
95.631000000000029
30
0
40
1.2749999999999977
210
-0
220
0
230
1
0
CIRCLE
5
169
100
AcDbEntity
8
0
100
AcDbCircle
10
-243.84
20
58.674000000000021
30
0
40
1.2750000000000155
210
-0
220
0
230
1
0
CIRCLE
5
170
100
AcDbEntity
8
0
100
AcDbCircle
10
-334.65999955445864
20
119.65474850649676
30
0
40
1.275000000000051
210
-0
220
0
230
1
0
CIRCLE
5
171
100
AcDbEntity
8
0
100
AcDbCircle
10
-334.6599911204338
20
15.240535004893355
30
0
40
1.2749999999999799
210
-0
220
0
230
1
0
ENDSEC
0
SECTION
2
OBJECTS
0
DICTIONARY
5
C
100
AcDbDictionary
3
ACAD_GROUP
350
D
3
ACAD_MLINESTYLE
350
17
0
DICTIONARY
5
D
100
AcDbDictionary
0
DICTIONARY
5
1A
330
C
100
AcDbDictionary
0
DICTIONARY
5
17
100
AcDbDictionary
0
ENDSEC
0
EOF
