0
SECTION
2
HEADER
9
$INSUNITS
70
4
9
$ACADVER
1
AC1014
9
$HANDSEED
5
FFFF
0
ENDSEC
0
SECTION
2
TABLES
0
TABLE
2
VPORT
5
8
100
AcDbSymbolTable
0
ENDTAB
0
TABLE
2
LTYPE
5
5
100
AcDbSymbolTable
0
LTYPE
5
14
100
AcDbSymbolTableRecord
100
AcDbLinetypeTableRecord
2
BYBLOCK
70
0
0
LTYPE
5
15
100
AcDbSymbolTableRecord
100
AcDbLinetypeTableRecord
2
BYLAYER
70
0
0
ENDTAB
0
TABLE
2
LAYER
5
2
100
AcDbSymbolTable
70
2
0
LAYER
5
50
100
AcDbSymbolTableRecord
100
AcDbLayerTableRecord
2
0
70
0
6
CONTINUOUS
0
ENDTAB
0
TABLE
2
STYLE
5
3
100
AcDbSymbolTable
70
1
0
STYLE
5
11
100
AcDbSymbolTableRecord
100
AcDbTextStyleTableRecord
2
STANDARD
70
0
0
ENDTAB
0
TABLE
2
VIEW
5
6
100
AcDbSymbolTable
70
0
0
ENDTAB
0
TABLE
2
UCS
5
7
100
AcDbSymbolTable
70
0
0
ENDTAB
0
TABLE
2
APPID
5
9
100
AcDbSymbolTable
70
2
0
APPID
5
12
100
AcDbSymbolTableRecord
100
AcDbRegAppTableRecord
2
ACAD
70
0
0
ENDTAB
0
TABLE
2
DIMSTYLE
5
A
100
AcDbSymbolTable
70
1
0
ENDTAB
0
TABLE
2
BLOCK_RECORD
5
1
100
AcDbSymbolTable
70
1
0
BLOCK_RECORD
5
1F
100
AcDbSymbolTableRecord
100
AcDbBlockTableRecord
2
*MODEL_SPACE
0
BLOCK_RECORD
5
1B
100
AcDbSymbolTableRecord
100
AcDbBlockTableRecord
2
*PAPER_SPACE
0
ENDTAB
0
ENDSEC
0
SECTION
2
BLOCKS
0
BLOCK
5
20
100
AcDbEntity
100
AcDbBlockBegin
2
*MODEL_SPACE
0
ENDBLK
5
21
100
AcDbEntity
100
AcDbBlockEnd
0
BLOCK
5
1C
100
AcDbEntity
100
AcDbBlockBegin
2
*PAPER_SPACE
0
ENDBLK
5
1D
100
AcDbEntity
100
AcDbBlockEnd
0
ENDSEC
0
SECTION
2
ENTITIES
0
LINE
5
100
100
AcDbEntity
8
0
100
AcDbLine
10
-339.94999999999999
20
119.05
30
0
11
-339.94999999999999
21
113.99799999999999
31
0
0
LINE
5
101
100
AcDbEntity
8
0
100
AcDbLine
10
-339.94999999999999
20
113.99799999999999
30
0
11
-340.05000000000001
21
20.971900000000012
31
0
0
LINE
5
102
100
AcDbEntity
8
0
100
AcDbLine
10
-340.05000000000001
20
20.971900000000012
30
0
11
-340.05000000000001
21
15.950303333338805
31
0
0
ARC
5
103
100
AcDbEntity
8
0
100
AcDbCircle
10
-336.05000000000007
20
15.950303333338764
30
0
40
3.9999999999999858
210
0
220
0
230
1
100
AcDbArc
50
180
51
270
0
LINE
5
104
100
AcDbEntity
8
0
100
AcDbLine
10
-336.05000000000007
20
11.950303333338779
30
0
11
-15.950001472520938
21
11.950303333338804
31
0
0
ARC
5
105
100
AcDbEntity
8
0
100
AcDbCircle
10
-15.950001472520919
20
15.950303333338805
30
0
40
4.0000000000000018
210
0
220
0
230
1
100
AcDbArc
50
-90.000000000000313
51
0
0
LINE
5
106
100
AcDbEntity
8
0
100
AcDbLine
10
-11.950001472520917
20
15.950303333338805
30
0
11
-11.950001472520917
21
20.997599999999998
31
0
0
LINE
5
107
100
AcDbEntity
8
0
100
AcDbLine
10
-11.950301939781998
20
114.03200000000001
30
0
11
-11.950301939781998
21
118.95000000000002
31
0
0
ARC
5
108
100
AcDbEntity
8
0
100
AcDbCircle
10
-15.950301939782019
20
118.94999999999999
30
0
40
4.0000000000000213
210
0
220
-0
230
1
100
AcDbArc
50
0
51
89.999999999999702
0
LINE
5
109
100
AcDbEntity
8
0
100
AcDbLine
10
-15.950301939781998
20
122.95000000000002
30
0
11
-21.002399999999994
21
122.95000000000002
31
0
0
LINE
5
110
100
AcDbEntity
8
0
100
AcDbLine
10
-21.002399999999994
20
122.95000000000002
30
0
11
-331.03000000000003
21
123.05
31
0
0
LINE
5
111
100
AcDbEntity
8
0
100
AcDbLine
10
-331.03000000000003
20
123.05
30
0
11
-335.94999999999999
21
123.05000000000004
31
0
0
ARC
5
112
100
AcDbEntity
8
0
100
AcDbCircle
10
-335.94999999999999
20
119.05000000000004
30
0
40
3.9999999999999858
210
0
220
-0
230
1
100
AcDbArc
50
90
51
180
0
LWPOLYLINE
5
113
100
AcDbEntity
8
0
100
AcDbPolyline
90
14
70
1
43
0.0
10
-15.950301939781994
20
123.10000000000002
42
-0.41421356237309204
10
-11.800301939781995
20
118.95000000000002
10
-11.800301939782781
20
114.03200048444545
10
-11.800001472520918
20
20.997599999999998
10
-11.800001472520918
20
15.950303333338805
42
-0.41421356237309648
10
-15.950001472520938
20
11.800303333338803
10
-336.05000000000007
20
11.800303333338773
42
-0.41421356237309792
10
-340.20000000000005
20
15.950303333338805
10
-340.20000000000005
20
20.97198062248232
10
-340.09999999999997
20
113.99808062248228
10
-340.09999999999997
20
119.05
42
-0.41421356237309881
10
-335.94999999999999
20
123.20000000000005
10
-331.02997580862024
20
123.2
10
-21.002375808620254
20
123.10000000000002
0
CIRCLE
5
114
100
AcDbEntity
8
0
100
AcDbCircle
10
-15.646700613621816
20
15.647002474439697
30
0
40
1.1500000000000012
210
0
220
-0
230
1
0
CIRCLE
5
115
100
AcDbEntity
8
0
100
AcDbCircle
10
-15.621903006109537
20
119.3282522580277
30
0
40
1.1500000000000035
210
0
220
-0
230
1
0
CIRCLE
5
116
100
AcDbEntity
8
0
100
AcDbCircle
10
-110.48999999999999
20
58.801000000000002
30
0
40
1.199999999999998
210
0
220
-0
230
1
0
CIRCLE
5
117
100
AcDbEntity
8
0
100
AcDbCircle
10
-158.11500000000001
20
95.631
30
0
40
1.199999999999998
210
0
220
-0
230
1
0
CIRCLE
5
118
100
AcDbEntity
8
0
100
AcDbCircle
10
-243.84
20
58.673999999999999
30
0
40
1.2000000000000157
210
0
220
-0
230
1
0
CIRCLE
5
119
100
AcDbEntity
8
0
100
AcDbCircle
10
-336.27768206175222
20
15.671626270351409
30
0
40
1.1500000000000257
210
0
220
-0
230
1
0
CIRCLE
5
120
100
AcDbEntity
8
0
100
AcDbCircle
10
-336.25330085889908
20
119.35330085889916
30
0
40
1.1500000000000257
210
0
220
-0
230
1
0
ENDSEC
0
SECTION
2
OBJECTS
0
DICTIONARY
5
C
100
AcDbDictionary
3
ACAD_GROUP
350
D
3
ACAD_MLINESTYLE
350
17
0
DICTIONARY
5
D
100
AcDbDictionary
0
DICTIONARY
5
1A
330
C
100
AcDbDictionary
0
DICTIONARY
5
17
100
AcDbDictionary
0
ENDSEC
0
EOF
