<?xml version="1.0" encoding="UTF-8"?>
<!-- 2020-03-15 17:47:28 Generated by QCAD 3.24.2 SVG Exporter -->
<svg width="328.4mm" height="111.3997mm" viewBox="-340.2 -123.2 328.4 111.3997" version="1.1" xmlns="http://www.w3.org/2000/svg" style="stroke-linecap:round;stroke-linejoin:round;fill:none">
    <g transform="scale(1,-1)">
        <!-- Polyline -->
        <path d="M-293.6204,36.4486 L-293.6204,36.4467 L-293.627,36.4467 L-293.627,31.7496 L-295.2964,31.7496 L-295.2964,36.2185 L-297.0214,36.2185 L-297.0214,37.1996 L-300.1704,37.1996 L-300.1704,36.2185 L-301.8954,36.2185 L-301.8954,29.9483 L-302.7214,29.9483 L-302.7214,27.2986 L-301.8954,27.2986 L-301.8954,24.0696 L-300.1704,24.0696 L-300.1704,23.1492 L-297.0214,23.1492 L-297.0214,24.0696 L-295.2964,24.0696 L-295.2964,27.2986 L-293.627,27.2986 L-293.627,22.5967 L-279.777,22.5967 L-279.777,22.5992 L-279.7714,22.5992 L-279.7714,27.2986 L-278.0954,27.2986 L-278.0954,24.0696 L-276.3714,24.0696 L-276.3714,23.1492 L-273.2214,23.1492 L-273.2214,24.0696 L-271.4964,24.0696 L-271.4964,27.2986 L-270.6704,27.2986 L-270.6704,29.9483 L-271.4964,29.9483 L-271.4964,36.2185 L-273.2214,36.2185 L-273.2214,37.1996 L-276.3714,37.1996 L-276.3714,36.2185 L-278.0954,36.2185 L-278.0954,31.7496 L-279.7714,31.7496 L-279.7714,36.4486 Z" style="stroke:#000000;stroke-width:0;"/>
        <!-- Polyline -->
        <path d="M-286.4764,93.5986 L-286.4764,93.584 L-286.477,93.584 L-286.477,88.8995 L-288.1524,88.8995 L-288.1524,93.3685 L-289.8764,93.3685 L-289.8764,94.3497 L-293.0264,94.3497 L-293.0264,93.3685 L-294.7514,93.3685 L-294.7514,87.0984 L-295.5774,87.0984 L-295.5774,84.4486 L-294.7514,84.4486 L-294.7514,81.2196 L-293.0264,81.2196 L-293.0264,80.2992 L-289.8764,80.2992 L-289.8764,81.2196 L-288.1524,81.2196 L-288.1524,84.4486 L-286.477,84.4486 L-286.477,79.734 L-272.627,79.734 L-272.627,84.4486 L-270.9514,84.4486 L-270.9514,81.2196 L-269.2264,81.2196 L-269.2264,80.2992 L-266.0764,80.2992 L-266.0764,81.2196 L-264.3524,81.2196 L-264.3524,84.4486 L-263.5264,84.4486 L-263.5264,87.0984 L-264.3524,87.0984 L-264.3524,93.3685 L-266.0764,93.3685 L-266.0764,94.3497 L-269.2264,94.3497 L-269.2264,93.3685 L-270.9514,93.3685 L-270.9514,88.8995 L-272.627,88.8995 L-272.627,93.584 L-272.6274,93.584 L-272.6274,93.5986 Z" style="stroke:#000000;stroke-width:0;"/>
        <!-- Polyline -->
        <path d="M-292.9134,65.3986 L-291.265,65.3986 L-291.265,60.6941 L-277.415,60.6941 L-277.415,60.6992 L-277.3884,60.6992 L-277.3884,65.3986 L-275.7144,65.3986 L-275.7144,62.1696 L-273.9894,62.1696 L-273.9894,61.2492 L-270.8384,61.2492 L-270.8384,62.1696 L-269.1134,62.1696 L-269.1134,65.3986 L-268.2894,65.3986 L-268.2894,68.0483 L-269.1134,68.0483 L-269.1134,74.3185 L-270.8384,74.3185 L-270.8384,75.2996 L-273.9894,75.2996 L-273.9894,74.3185 L-275.7144,74.3185 L-275.7144,69.8496 L-277.3884,69.8496 L-277.3884,74.5486 L-291.2394,74.5486 L-291.2394,74.5441 L-291.265,74.5441 L-291.265,69.8496 L-292.9134,69.8496 L-292.9134,74.3185 L-294.6384,74.3185 L-294.6384,75.2996 L-297.7894,75.2996 L-297.7894,74.3185 L-299.5144,74.3185 L-299.5144,68.0483 L-300.3384,68.0483 L-300.3384,65.3986 L-299.5144,65.3986 L-299.5144,62.1696 L-297.7894,62.1696 L-297.7894,61.2492 L-294.6384,61.2492 L-294.6384,62.1696 L-292.9134,62.1696 Z" style="stroke:#000000;stroke-width:0;"/>
        <!-- Polyline -->
        <path d="M-32.8267,88.8995 L-34.5024,88.8995 L-34.5024,93.5992 L-48.3524,93.5992 L-48.3524,88.8995 L-50.0274,88.8995 L-50.0274,93.3685 L-51.7514,93.3685 L-51.7514,94.3497 L-54.9017,94.3497 L-54.9017,93.3685 L-56.6267,93.3685 L-56.6267,87.0984 L-57.4522,87.0984 L-57.4522,84.4486 L-56.6267,84.4486 L-56.6267,81.2196 L-54.9017,81.2196 L-54.9017,80.2992 L-51.7514,80.2992 L-51.7514,81.2196 L-50.0274,81.2196 L-50.0274,84.4486 L-48.3524,84.4486 L-48.3524,79.7492 L-34.5024,79.7492 L-34.5024,84.4486 L-32.8267,84.4486 L-32.8267,81.2196 L-31.1014,81.2196 L-31.1014,80.2992 L-27.9512,80.2992 L-27.9512,81.2196 L-26.2273,81.2196 L-26.2273,84.4486 L-25.4019,84.4486 L-25.4019,87.0984 L-26.2273,87.0984 L-26.2273,93.3685 L-27.9512,93.3685 L-27.9512,94.3497 L-31.1014,94.3497 L-31.1014,93.3685 L-32.8267,93.3685 Z" style="stroke:#000000;stroke-width:0;"/>
        <!-- Polyline -->
        <path d="M-62.6704,112.642 L-62.6704,98.7916 L-48.8204,98.7916 L-48.8204,112.642 Z" style="stroke:#000000;stroke-width:0;"/>
        <!-- Polyline -->
        <path d="M-184.527,41.6467 L-184.527,55.4967 L-198.377,55.4967 L-198.377,41.6467 Z" style="stroke:#000000;stroke-width:0;"/>
        <!-- Polyline -->
        <path d="M-203.577,41.6467 L-203.577,55.4967 L-217.427,55.4967 L-217.427,41.6467 Z" style="stroke:#000000;stroke-width:0;"/>
        <!-- Polyline -->
        <path d="M-222.627,41.6467 L-222.627,55.4967 L-236.477,55.4967 L-236.477,41.6467 Z" style="stroke:#000000;stroke-width:0;"/>
        <!-- Circle -->
        <circle cx="-15.621903006109537" cy="119.3282522580277" r="1.1500000000000044" style="stroke:#000000;stroke-width:0;"/>
        <!-- Circle -->
        <circle cx="-15.646700613621816" cy="15.647002474439697" r="1.1500000000000021" style="stroke:#000000;stroke-width:0;"/>
        <!-- Circle -->
        <circle cx="-158.115" cy="95.631" r="1.1999999999999922" style="stroke:#000000;stroke-width:0;"/>
        <!-- Circle -->
        <circle cx="-110.49" cy="58.801" r="1.1999999999999922" style="stroke:#000000;stroke-width:0;"/>
        <!-- Circle -->
        <circle cx="-336.2776820617522" cy="15.671626270351409" r="1.15000000000002" style="stroke:#000000;stroke-width:0;"/>
        <!-- Circle -->
        <circle cx="-243.84" cy="58.674" r="1.20000000000001" style="stroke:#000000;stroke-width:0;"/>
        <!-- Circle -->
        <circle cx="-336.2533008588991" cy="119.35330085889916" r="1.15000000000002" style="stroke:#000000;stroke-width:0;"/>
        <!-- Polyline -->
        <path d="M-316.653,53.9973 L-316.653,65.5973 L-328.653,65.5973 L-328.653,53.9973 Z" style="stroke:#000000;stroke-width:0;"/>
        <!-- Polyline -->
        <path d="M-36.4525,36.4467 L-36.4525,22.5967 L-22.6025,22.5967 L-22.6025,36.4467 Z" style="stroke:#000000;stroke-width:0;"/>
        <!-- Polyline -->
        <path d="M-55.5025,36.4467 L-55.5025,22.5967 L-41.6525,22.5967 L-41.6525,36.4467 Z" style="stroke:#000000;stroke-width:0;"/>
        <!-- Polyline -->
        <path d="M-60.7025,22.5967 L-60.7025,36.4467 L-74.5525,36.4467 L-74.5525,22.5967 Z" style="stroke:#000000;stroke-width:0;"/>
        <!-- Polyline -->
        <path d="M-79.7525,22.5967 L-79.7525,36.4467 L-93.6025,36.4467 L-93.6025,22.5967 Z" style="stroke:#000000;stroke-width:0;"/>
        <!-- Polyline -->
        <path d="M-98.8025,22.5967 L-98.8025,36.4467 L-112.652,36.4467 L-112.652,22.5967 Z" style="stroke:#000000;stroke-width:0;"/>
        <!-- Polyline -->
        <path d="M-131.703,22.5967 L-117.852,22.5967 L-117.852,36.4467 L-131.703,36.4467 Z" style="stroke:#000000;stroke-width:0;"/>
        <!-- Polyline -->
        <path d="M-38.8401,112.642 L-38.8401,98.7916 L-24.9901,98.7916 L-24.9901,112.642 Z" style="stroke:#000000;stroke-width:0;"/>
        <!-- Polyline -->
        <path d="M-97.7231,106.1363 L-97.7231,112.4063 L-99.4481,112.4063 L-99.4481,113.3875 L-102.5991,113.3875 L-102.5991,112.4063 L-104.3241,112.4063 L-104.3241,107.936 L-144.0981,107.936 L-144.0981,112.6365 L-157.9491,112.6365 L-157.9491,107.936 L-197.7234,107.936 L-197.7234,112.4063 L-199.4485,112.4063 L-199.4485,113.3875 L-202.5988,113.3875 L-202.5988,112.4063 L-204.3242,112.4063 L-204.3242,106.1363 L-205.1483,106.1363 L-205.1483,103.4863 L-204.3242,103.4863 L-204.3242,100.2576 L-202.5988,100.2576 L-202.5988,99.337 L-199.4485,99.337 L-199.4485,100.2576 L-197.7234,100.2576 L-197.7234,103.4863 L-157.9491,103.4863 L-157.9491,98.7872 L-144.0981,98.7872 L-144.0981,103.4863 L-104.3241,103.4863 L-104.3241,100.2576 L-102.5991,100.2576 L-102.5991,99.337 L-99.4481,99.337 L-99.4481,100.2576 L-97.7231,100.2576 L-97.7231,103.4863 L-96.8991,103.4863 L-96.8991,106.1363 Z" style="stroke:#000000;stroke-width:0;"/>
        <!-- Polyline -->
        <path d="M-251.202,22.5967 L-251.202,36.4467 L-265.052,36.4467 L-265.052,22.5967 Z" style="stroke:#000000;stroke-width:0;"/>
        <!-- Polyline -->
        <path d="M-27.3574,41.6543 L-27.3574,55.5043 L-41.2074,55.5043 L-41.2074,41.6543 Z" style="stroke:#000000;stroke-width:0;"/>
        <!-- Polyline -->
        <path d="M-51.1775,41.6467 L-51.1775,55.4967 L-65.0275,55.4967 L-65.0275,41.6467 Z" style="stroke:#000000;stroke-width:0;"/>
        <!-- Polyline -->
        <path d="M-70.2275,41.6467 L-70.2275,55.4967 L-84.0775,55.4967 L-84.0775,41.6467 Z" style="stroke:#000000;stroke-width:0;"/>
        <!-- Polyline -->
        <path d="M-89.2775,41.6467 L-89.2775,55.4967 L-103.128,55.4967 L-103.128,41.6467 Z" style="stroke:#000000;stroke-width:0;"/>
        <!-- Polyline -->
        <path d="M-108.327,41.6467 L-108.327,55.4967 L-122.177,55.4967 L-122.177,41.6467 Z" style="stroke:#000000;stroke-width:0;"/>
        <!-- Polyline -->
        <path d="M-127.377,41.6467 L-127.377,55.4967 L-141.227,55.4967 L-141.227,41.6467 Z" style="stroke:#000000;stroke-width:0;"/>
        <!-- Polyline -->
        <path d="M-146.427,41.6467 L-146.427,55.4967 L-160.277,55.4967 L-160.277,41.6467 Z" style="stroke:#000000;stroke-width:0;"/>
        <!-- Polyline -->
        <path d="M-179.328,55.4967 L-179.328,41.6467 L-165.478,41.6467 L-165.478,55.4967 Z" style="stroke:#000000;stroke-width:0;"/>
        <!-- Polyline -->
        <path d="M-232.152,22.5967 L-232.152,36.4467 L-246.002,36.4467 L-246.002,22.5967 Z" style="stroke:#000000;stroke-width:0;"/>
        <!-- Polyline -->
        <path d="M-213.103,22.5967 L-213.103,36.4467 L-226.953,36.4467 L-226.953,22.5967 Z" style="stroke:#000000;stroke-width:0;"/>
        <!-- Polyline -->
        <path d="M-194.052,22.5967 L-194.052,36.4467 L-207.902,36.4467 L-207.902,22.5967 Z" style="stroke:#000000;stroke-width:0;"/>
        <!-- Polyline -->
        <path d="M-175.002,22.5967 L-175.002,36.4467 L-188.852,36.4467 L-188.852,22.5967 Z" style="stroke:#000000;stroke-width:0;"/>
        <!-- Polyline -->
        <path d="M-155.952,22.5967 L-155.952,36.4467 L-169.802,36.4467 L-169.802,22.5967 Z" style="stroke:#000000;stroke-width:0;"/>
        <!-- Polyline -->
        <path d="M-136.902,22.5967 L-136.902,36.4467 L-150.752,36.4467 L-150.752,22.5967 Z" style="stroke:#000000;stroke-width:0;"/>
        <!-- Polyline -->
        <path d="M-229.378,112.621 L-229.378,98.7713 L-215.528,98.7713 L-215.528,112.621 Z" style="stroke:#000000;stroke-width:0;"/>
        <!-- Polyline -->
        <path d="M-253.148,112.642 L-253.148,98.7916 L-239.298,98.7916 L-239.298,112.642 Z" style="stroke:#000000;stroke-width:0;"/>
        <!-- Polyline -->
        <path d="M-276.955,112.642 L-276.955,98.7916 L-263.105,98.7916 L-263.105,112.642 Z" style="stroke:#000000;stroke-width:0;"/>
        <!-- Polyline -->
        <path d="M-300.76,112.642 L-300.76,98.7916 L-286.91,98.7916 L-286.91,112.642 Z" style="stroke:#000000;stroke-width:0;"/>
        <!-- Polyline -->
        <path d="M-315.464,98.7967 L-315.464,112.647 L-329.314,112.647 L-329.314,98.7967 Z" style="stroke:#000000;stroke-width:0;"/>
        <!-- Polyline -->
        <path d="M-315.464,79.689 L-315.464,93.539 L-329.314,93.539 L-329.314,79.689 Z" style="stroke:#000000;stroke-width:0;"/>
        <!-- Polyline -->
        <path d="M-236.905,79.7289 L-236.905,93.5789 L-250.755,93.5789 L-250.755,79.7289 Z" style="stroke:#000000;stroke-width:0;"/>
        <!-- Polyline -->
        <path d="M-217.855,79.7289 L-217.855,93.5789 L-231.705,93.5789 L-231.705,79.7289 Z" style="stroke:#000000;stroke-width:0;"/>
        <!-- Polyline -->
        <path d="M-198.805,79.7289 L-198.805,93.5789 L-212.655,93.5789 L-212.655,79.7289 Z" style="stroke:#000000;stroke-width:0;"/>
        <!-- Polyline -->
        <path d="M-179.755,79.7289 L-179.755,93.5789 L-193.605,93.5789 L-193.605,79.7289 Z" style="stroke:#000000;stroke-width:0;"/>
        <!-- Polyline -->
        <path d="M-160.705,79.7289 L-160.705,93.5789 L-174.555,93.5789 L-174.555,79.7289 Z" style="stroke:#000000;stroke-width:0;"/>
        <!-- Polyline -->
        <path d="M-141.655,79.7289 L-141.655,93.5789 L-155.505,93.5789 L-155.505,79.7289 Z" style="stroke:#000000;stroke-width:0;"/>
        <!-- Polyline -->
        <path d="M-122.605,79.7289 L-122.605,93.5789 L-136.455,93.5789 L-136.455,79.7289 Z" style="stroke:#000000;stroke-width:0;"/>
        <!-- Polyline -->
        <path d="M-103.555,79.7289 L-103.555,93.5789 L-117.405,93.5789 L-117.405,79.7289 Z" style="stroke:#000000;stroke-width:0;"/>
        <!-- Polyline -->
        <path d="M-84.5048,79.7289 L-84.5048,93.5789 L-98.3548,93.5789 L-98.3548,79.7289 Z" style="stroke:#000000;stroke-width:0;"/>
        <!-- Polyline -->
        <path d="M-65.4548,79.7289 L-65.4548,93.5789 L-79.3048,93.5789 L-79.3048,79.7289 Z" style="stroke:#000000;stroke-width:0;"/>
        <!-- Polyline -->
        <path d="M-246.443,60.6967 L-246.443,74.5467 L-260.293,74.5467 L-260.293,60.6967 Z" style="stroke:#000000;stroke-width:0;"/>
        <!-- Polyline -->
        <path d="M-227.393,60.6967 L-227.393,74.5467 L-241.243,74.5467 L-241.243,60.6967 Z" style="stroke:#000000;stroke-width:0;"/>
        <!-- Polyline -->
        <path d="M-208.343,60.6967 L-208.343,74.5467 L-222.193,74.5467 L-222.193,60.6967 Z" style="stroke:#000000;stroke-width:0;"/>
        <!-- Polyline -->
        <path d="M-189.293,60.6967 L-189.293,74.5467 L-203.143,74.5467 L-203.143,60.6967 Z" style="stroke:#000000;stroke-width:0;"/>
        <!-- Polyline -->
        <path d="M-170.243,60.6967 L-170.243,74.5467 L-184.093,74.5467 L-184.093,60.6967 Z" style="stroke:#000000;stroke-width:0;"/>
        <!-- Polyline -->
        <path d="M-151.193,60.6967 L-151.193,74.5467 L-165.043,74.5467 L-165.043,60.6967 Z" style="stroke:#000000;stroke-width:0;"/>
        <!-- Polyline -->
        <path d="M-132.143,60.6967 L-132.143,74.5467 L-145.993,74.5467 L-145.993,60.6967 Z" style="stroke:#000000;stroke-width:0;"/>
        <!-- Polyline -->
        <path d="M-113.093,60.6967 L-113.093,74.5467 L-126.943,74.5467 L-126.943,60.6967 Z" style="stroke:#000000;stroke-width:0;"/>
        <!-- Polyline -->
        <path d="M-94.0425,60.6967 L-94.0425,74.5467 L-107.893,74.5467 L-107.893,60.6967 Z" style="stroke:#000000;stroke-width:0;"/>
        <!-- Polyline -->
        <path d="M-74.9925,60.6967 L-74.9925,74.5467 L-88.8425,74.5467 L-88.8425,60.6967 Z" style="stroke:#000000;stroke-width:0;"/>
        <!-- Polyline -->
        <path d="M-55.9425,60.6967 L-55.9425,74.5467 L-69.7925,74.5467 L-69.7925,60.6967 Z" style="stroke:#000000;stroke-width:0;"/>
        <!-- Polyline -->
        <path d="M-43.5899,74.5568 L-43.5899,60.7068 L-29.7399,60.7068 L-29.7399,74.5568 Z" style="stroke:#000000;stroke-width:0;"/>
        <!-- Polyline -->
        <path d="M-284.547,41.6617 L-284.547,55.5117 L-298.397,55.5117 L-298.397,41.6617 Z" style="stroke:#000000;stroke-width:0;"/>
        <!-- Polyline -->
        <path d="M-260.727,41.6467 L-260.727,55.4967 L-274.577,55.4967 L-274.577,41.6467 Z" style="stroke:#000000;stroke-width:0;"/>
        <!-- Polyline -->
        <path d="M-241.677,41.6467 L-241.677,55.4967 L-255.527,55.4967 L-255.527,41.6467 Z" style="stroke:#000000;stroke-width:0;"/>
        <!-- Polyline -->
        <path d="M-86.4981,112.642 L-86.4981,98.7916 L-72.6481,98.7916 L-72.6481,112.642 Z" style="stroke:#000000;stroke-width:0;"/>
        <!-- Polyline -->
        <path d="M-308.817,12.9503 L-308.817,49.9505 A0.35,0.35 0 0 1 -309.167,50.3005 L-327.167,50.3005 A0.35,0.35 0 0 1 -327.517,49.9505 L-327.517,12.9503 A1.15,1.15 0 0 0 -328.667,11.8003 L-336.05,11.8003 A4.15,4.15 0 0 0 -340.2,15.9503 L-340.2,20.972 L-340.1,113.9981 L-340.1,119.05 A4.15,4.15 0 0 0 -335.95,123.2 L-331.03,123.2 L-21.0024,123.1 L-15.9503,123.1 A4.15,4.15 0 0 0 -11.8003,118.95 L-11.8003,114.032 L-11.8,20.9976 L-11.8,15.9503 A4.15,4.15 0 0 0 -15.95,11.8003 L-307.667,11.8003 A1.15,1.15 0 0 0 -308.817,12.9503" style="stroke:#000000;stroke-width:0;"/>
        <!-- Text: QCAD.org
Trial Version
Random lines added -->
        <g>
            <path d="M-178.9399,68.9473 C-178.8627,68.8941 -178.7914,68.8552 -178.7262,68.8306 L-178.7751,68.7148 C-178.8655,68.7474 -178.9556,68.7989 -179.0455,68.8692 C-179.1387,68.8172 -179.2417,68.7912 -179.3544,68.7912 C-179.4682,68.7912 -179.5715,68.8186 -179.6642,68.8735 C-179.7569,68.9285 -179.8282,69.0057 -179.8783,69.1052 C-179.9283,69.2048 -179.9534,69.3169 -179.9534,69.4416 C-179.9534,69.5658 -179.9282,69.6788 -179.8779,69.7806 C-179.8275,69.8824 -179.7559,69.9599 -179.6629,70.0132 C-179.5699,70.0664 -179.4659,70.093 -179.351,70.093 C-179.2348,70.093 -179.1301,70.0654 -179.0369,70.0101 C-178.9436,69.9549 -178.8725,69.8777 -178.8236,69.7784 C-178.7747,69.6792 -178.7503,69.5672 -178.7503,69.4425 C-178.7503,69.3389 -178.766,69.2458 -178.7975,69.1632 C-178.8289,69.0805 -178.8764,69.0086 -178.9399,68.9473 M-179.3063,69.1602 C-179.2102,69.1333 -179.131,69.0932 -179.0686,69.04 C-178.9708,69.1293 -178.9219,69.2634 -178.9219,69.4425 C-178.9219,69.5443 -178.9392,69.6333 -178.9738,69.7094 C-179.0084,69.7855 -179.059,69.8445 -179.1257,69.8866 C-179.1923,69.9286 -179.2671,69.9496 -179.3501,69.9496 C-179.4742,69.9496 -179.5772,69.9072 -179.659,69.8222 C-179.7408,69.7373 -179.7817,69.6104 -179.7817,69.4416 C-179.7817,69.278 -179.7413,69.1524 -179.6603,69.0649 C-179.5794,68.9774 -179.476,68.9336 -179.3501,68.9336 C-179.2906,68.9336 -179.2345,68.9448 -179.1819,68.9671 C-179.234,69.0008 -179.2889,69.0249 -179.3467,69.0392 Z M-177.6346,69.2537 L-177.4682,69.2116 C-177.503,69.0749 -177.5658,68.9707 -177.6565,68.8989 C-177.7472,68.8271 -177.858,68.7912 -177.989,68.7912 C-178.1246,68.7912 -178.2349,68.8188 -178.3199,68.874 C-178.4048,68.9292 -178.4695,69.0091 -178.5138,69.1138 C-178.5581,69.2185 -178.5803,69.3309 -178.5803,69.4511 C-178.5803,69.5821 -178.5553,69.6964 -178.5052,69.7939 C-178.4552,69.8914 -178.3839,69.9655 -178.2915,70.0162 C-178.1991,70.0668 -178.0975,70.0921 -177.9865,70.0921 C-177.8606,70.0921 -177.7548,70.0601 -177.669,69.996 C-177.5831,69.9319 -177.5234,69.8418 -177.4896,69.7257 L-177.6535,69.6871 C-177.6827,69.7786 -177.725,69.8452 -177.7805,69.887 C-177.836,69.9288 -177.9058,69.9496 -177.9899,69.9496 C-178.0866,69.9496 -178.1674,69.9265 -178.2323,69.8801 C-178.2973,69.8338 -178.3429,69.7716 -178.3692,69.6935 C-178.3955,69.6154 -178.4087,69.5349 -178.4087,69.4519 C-178.4087,69.3449 -178.3931,69.2516 -178.3619,69.1717 C-178.3307,69.0919 -178.2822,69.0323 -178.2165,68.9928 C-178.1507,68.9533 -178.0794,68.9336 -178.0028,68.9336 C-177.9095,68.9336 -177.8306,68.9605 -177.7659,69.0143 C-177.7013,69.0681 -177.6575,69.1479 -177.6346,69.2537 M-177.4019,68.8126 L-176.9187,70.0706 L-176.7394,70.0706 L-176.2245,68.8126 L-176.4141,68.8126 L-176.5609,69.1936 L-177.0869,69.1936 L-177.2251,68.8126 Z M-177.0389,69.3292 L-176.6124,69.3292 L-176.7437,69.6776 C-176.7837,69.7835 -176.8135,69.8704 -176.8329,69.9385 C-176.8489,69.8578 -176.8715,69.7777 -176.9007,69.6982 Z M-176.0876,68.8126 L-176.0876,70.0706 L-175.6543,70.0706 C-175.5565,70.0706 -175.4818,70.0646 -175.4303,70.0526 C-175.3582,70.036 -175.2967,70.006 -175.2458,69.9625 C-175.1794,69.9065 -175.1298,69.8348 -175.0969,69.7476 C-175.064,69.6603 -175.0476,69.5606 -175.0476,69.4485 C-175.0476,69.353 -175.0587,69.2683 -175.081,69.1945 C-175.1034,69.1207 -175.132,69.0596 -175.1669,69.0113 C-175.2018,68.9629 -175.2399,68.9249 -175.2814,68.8971 C-175.3229,68.8694 -175.373,68.8484 -175.4316,68.8341 C-175.4902,68.8198 -175.5576,68.8126 -175.6337,68.8126 Z M-175.9212,68.9611 L-175.6526,68.9611 C-175.5696,68.9611 -175.5045,68.9688 -175.4573,68.9842 C-175.4101,68.9997 -175.3725,69.0214 -175.3445,69.0495 C-175.305,69.0889 -175.2743,69.142 -175.2522,69.2086 C-175.2302,69.2753 -175.2192,69.3561 -175.2192,69.4511 C-175.2192,69.5826 -175.2408,69.6838 -175.284,69.7544 C-175.3272,69.8251 -175.3797,69.8724 -175.4415,69.8964 C-175.4861,69.9136 -175.5579,69.9222 -175.6569,69.9222 L-175.9212,69.9222 Z M-174.7951,68.8126 L-174.7951,68.9885 L-174.6191,68.9885 L-174.6191,68.8126 Z M-174.4074,69.2683 C-174.4074,69.4371 -174.3605,69.5621 -174.2667,69.6433 C-174.1883,69.7108 -174.0927,69.7446 -173.98,69.7446 C-173.8548,69.7446 -173.7524,69.7035 -173.6728,69.6214 C-173.5933,69.5393 -173.5535,69.4259 -173.5535,69.2812 C-173.5535,69.1639 -173.5711,69.0716 -173.6063,69.0044 C-173.6415,68.9372 -173.6927,68.885 -173.7599,68.8478 C-173.8272,68.8106 -173.9005,68.792 -173.98,68.792 C-174.1076,68.792 -174.2107,68.8329 -174.2894,68.9147 C-174.3681,68.9965 -174.4074,69.1144 -174.4074,69.2683 M-174.2486,69.2683 C-174.2486,69.1516 -174.2232,69.0642 -174.1723,69.0061 C-174.1214,68.9481 -174.0573,68.919 -173.98,68.919 C-173.9034,68.919 -173.8396,68.9482 -173.7887,69.0066 C-173.7378,69.0649 -173.7123,69.1539 -173.7123,69.2734 C-173.7123,69.3861 -173.7379,69.4715 -173.7891,69.5296 C-173.8403,69.5877 -173.904,69.6167 -173.98,69.6167 C-174.0573,69.6167 -174.1214,69.5878 -174.1723,69.53 C-174.2232,69.4722 -174.2486,69.385 -174.2486,69.2683 M-173.3738,68.8126 L-173.3738,69.724 L-173.2348,69.724 L-173.2348,69.5858 C-173.1993,69.6504 -173.1665,69.6931 -173.1365,69.7137 C-173.1065,69.7343 -173.0734,69.7446 -173.0374,69.7446 C-172.9853,69.7446 -172.9324,69.728 -172.8786,69.6948 L-172.9318,69.5515 C-172.9696,69.5738 -173.0074,69.5849 -173.0451,69.5849 C-173.0789,69.5849 -173.1092,69.5748 -173.1361,69.5545 C-173.163,69.5342 -173.1821,69.506 -173.1936,69.4699 C-173.2107,69.415 -173.2193,69.355 -173.2193,69.2897 L-173.2193,68.8126 Z M-172.819,68.7371 L-172.6688,68.7148 C-172.6625,68.6684 -172.645,68.6347 -172.6164,68.6135 C-172.5781,68.5849 -172.5258,68.5706 -172.4594,68.5706 C-172.3879,68.5706 -172.3327,68.5849 -172.2938,68.6135 C-172.2549,68.6421 -172.2286,68.6822 -172.2148,68.7337 C-172.2068,68.7651 -172.2031,68.8312 -172.2037,68.9319 C-172.2712,68.8524 -172.3553,68.8126 -172.456,68.8126 C-172.5813,68.8126 -172.6782,68.8578 -172.7469,68.9482 C-172.8155,69.0386 -172.8499,69.147 -172.8499,69.2734 C-172.8499,69.3604 -172.8341,69.4406 -172.8027,69.5141 C-172.7712,69.5877 -172.7256,69.6444 -172.6658,69.6845 C-172.606,69.7245 -172.5358,69.7446 -172.4551,69.7446 C-172.3476,69.7446 -172.2589,69.7011 -172.1891,69.6141 L-172.1891,69.724 L-172.0466,69.724 L-172.0466,68.9362 C-172.0466,68.7943 -172.0611,68.6938 -172.09,68.6345 C-172.1189,68.5753 -172.1646,68.5286 -172.2273,68.4942 C-172.2899,68.4599 -172.367,68.4428 -172.4585,68.4428 C-172.5672,68.4428 -172.6551,68.4672 -172.722,68.5161 C-172.7889,68.565 -172.8212,68.6387 -172.819,68.7371 M-172.6911,69.2846 C-172.6911,69.165 -172.6674,69.0778 -172.6199,69.0229 C-172.5724,68.9679 -172.5129,68.9405 -172.4414,68.9405 C-172.3704,68.9405 -172.3109,68.9678 -172.2629,69.0224 C-172.2148,69.0771 -172.1908,69.1627 -172.1908,69.2794 C-172.1908,69.391 -172.2155,69.4751 -172.265,69.5317 C-172.3145,69.5884 -172.3742,69.6167 -172.444,69.6167 C-172.5126,69.6167 -172.571,69.5888 -172.619,69.533 C-172.6671,69.4772 -172.6911,69.3944 -172.6911,69.2846" style="fill:#dd0000;fill-rule:evenodd;0"/>
            <path d="M-180.367,66.8703 L-180.367,67.9799 L-180.7815,67.9799 L-180.7815,68.1283 L-179.7843,68.1283 L-179.7843,67.9799 L-180.2005,67.9799 L-180.2005,66.8703 Z M-179.7043,66.8703 L-179.7043,67.7816 L-179.5652,67.7816 L-179.5652,67.6435 C-179.5298,67.7081 -179.497,67.7507 -179.467,67.7713 C-179.437,67.7919 -179.4039,67.8022 -179.3679,67.8022 C-179.3158,67.8022 -179.2629,67.7856 -179.2091,67.7524 L-179.2623,67.6091 C-179.3001,67.6314 -179.3378,67.6426 -179.3756,67.6426 C-179.4094,67.6426 -179.4397,67.6324 -179.4666,67.6121 C-179.4935,67.5918 -179.5126,67.5637 -179.5241,67.5276 C-179.5412,67.4727 -179.5498,67.4126 -179.5498,67.3474 L-179.5498,66.8703 Z M-179.1203,67.9507 L-179.1203,68.1283 L-178.9658,68.1283 L-178.9658,67.9507 Z M-179.1203,66.8703 L-179.1203,67.7816 L-178.9658,67.7816 L-178.9658,66.8703 Z M-178.13,66.9827 C-178.1872,66.9341 -178.2423,66.8997 -178.2952,66.8797 C-178.3481,66.8597 -178.4049,66.8497 -178.4656,66.8497 C-178.5657,66.8497 -178.6426,66.8741 -178.6964,66.9231 C-178.7502,66.972 -178.7771,67.0345 -178.7771,67.1106 C-178.7771,67.1552 -178.7669,67.1959 -178.7466,67.2328 C-178.7263,67.2697 -178.6997,67.2993 -178.6668,67.3217 C-178.6339,67.344 -178.5968,67.3608 -178.5557,67.3723 C-178.5253,67.3803 -178.4796,67.388 -178.4184,67.3955 C-178.2936,67.4103 -178.2018,67.4281 -178.1429,67.4487 C-178.1423,67.4698 -178.142,67.4833 -178.142,67.489 C-178.142,67.5519 -178.1566,67.5963 -178.1858,67.622 C-178.2253,67.6569 -178.2839,67.6744 -178.3617,67.6744 C-178.4344,67.6744 -178.488,67.6616 -178.5226,67.6362 C-178.5572,67.6107 -178.5828,67.5657 -178.5994,67.501 L-178.7505,67.5216 C-178.7367,67.5863 -178.7141,67.6385 -178.6827,67.6782 C-178.6512,67.718 -178.6057,67.7486 -178.5462,67.77 C-178.4867,67.7915 -178.4178,67.8022 -178.3394,67.8022 C-178.2616,67.8022 -178.1984,67.7931 -178.1498,67.7748 C-178.1011,67.7564 -178.0654,67.7334 -178.0425,67.7057 C-178.0196,67.6779 -178.0036,67.6429 -177.9944,67.6006 C-177.9893,67.5742 -177.9867,67.5268 -177.9867,67.4581 L-177.9867,67.2521 C-177.9867,67.1086 -177.9834,67.0177 -177.9768,66.9797 C-177.9703,66.9416 -177.9572,66.9052 -177.9378,66.8703 L-178.0991,66.8703 C-178.1151,66.9023 -178.1254,66.9398 -178.13,66.9827 M-178.1429,67.3277 C-178.199,67.3048 -178.2831,67.2853 -178.3952,67.2693 C-178.4587,67.2602 -178.5036,67.2499 -178.5299,67.2384 C-178.5562,67.227 -178.5765,67.2102 -178.5908,67.1882 C-178.6051,67.1662 -178.6123,67.1417 -178.6123,67.1148 C-178.6123,67.0737 -178.5967,67.0393 -178.5655,67.0119 C-178.5343,66.9844 -178.4887,66.9707 -178.4287,66.9707 C-178.3692,66.9707 -178.3162,66.9837 -178.2699,67.0097 C-178.2236,67.0358 -178.1895,67.0714 -178.1678,67.1166 C-178.1512,67.1515 -178.1429,67.2029 -178.1429,67.271 Z M-177.7503,66.8703 L-177.7503,68.1283 L-177.5958,68.1283 L-177.5958,66.8703 Z M-176.4822,66.8703 L-176.9696,68.1283 L-176.7894,68.1283 L-176.4625,67.2144 C-176.4362,67.1412 -176.4141,67.0725 -176.3964,67.0084 C-176.377,67.0771 -176.3544,67.1457 -176.3286,67.2144 L-175.9888,68.1283 L-175.8189,68.1283 L-176.3115,66.8703 Z M-175.1541,67.1638 L-174.9945,67.144 C-175.0197,67.0508 -175.0663,66.9784 -175.1344,66.9269 C-175.2024,66.8754 -175.2894,66.8497 -175.3952,66.8497 C-175.5285,66.8497 -175.6342,66.8907 -175.7123,66.9728 C-175.7904,67.0549 -175.8295,67.1701 -175.8295,67.3182 C-175.8295,67.4715 -175.79,67.5905 -175.711,67.6752 C-175.6321,67.7599 -175.5297,67.8022 -175.4038,67.8022 C-175.282,67.8022 -175.1824,67.7607 -175.1052,67.6778 C-175.028,67.5948 -174.9893,67.4781 -174.9893,67.3277 C-174.9893,67.3185 -174.9896,67.3048 -174.9902,67.2865 L-175.6698,67.2865 C-175.6641,67.1864 -175.6358,67.1097 -175.5849,67.0565 C-175.534,67.0033 -175.4705,66.9767 -175.3944,66.9767 C-175.3377,66.9767 -175.2894,66.9916 -175.2494,67.0213 C-175.2093,67.0511 -175.1776,67.0985 -175.1541,67.1638 M-175.6613,67.4135 L-175.1524,67.4135 C-175.1592,67.4901 -175.1787,67.5476 -175.2107,67.586 C-175.2599,67.6455 -175.3237,67.6752 -175.4021,67.6752 C-175.473,67.6752 -175.5327,67.6515 -175.581,67.604 C-175.6294,67.5565 -175.6561,67.493 -175.6613,67.4135 M-174.8018,66.8703 L-174.8018,67.7816 L-174.6628,67.7816 L-174.6628,67.6435 C-174.6274,67.7081 -174.5946,67.7507 -174.5646,67.7713 C-174.5345,67.7919 -174.5015,67.8022 -174.4655,67.8022 C-174.4134,67.8022 -174.3605,67.7856 -174.3067,67.7524 L-174.3599,67.6091 C-174.3977,67.6314 -174.4354,67.6426 -174.4732,67.6426 C-174.5069,67.6426 -174.5372,67.6324 -174.5641,67.6121 C-174.591,67.5918 -174.6102,67.5637 -174.6216,67.5276 C-174.6388,67.4727 -174.6474,67.4126 -174.6474,67.3474 L-174.6474,66.8703 Z M-174.2805,67.1423 L-174.1277,67.1663 C-174.1192,67.1051 -174.0953,67.0582 -174.0561,67.0256 C-174.0169,66.993 -173.9621,66.9767 -173.8918,66.9767 C-173.8208,66.9767 -173.7682,66.9911 -173.7339,67.02 C-173.6995,67.0489 -173.6824,67.0828 -173.6824,67.1217 C-173.6824,67.1566 -173.6975,67.1841 -173.7278,67.2041 C-173.749,67.2178 -173.8016,67.2353 -173.8857,67.2564 C-173.999,67.285 -174.0775,67.3098 -174.1213,67.3307 C-174.1651,67.3516 -174.1983,67.3804 -174.2209,67.4173 C-174.2434,67.4542 -174.2547,67.495 -174.2547,67.5396 C-174.2547,67.5802 -174.2455,67.6179 -174.2269,67.6525 C-174.2083,67.6871 -174.183,67.7158 -174.1509,67.7387 C-174.1269,67.7564 -174.0941,67.7715 -174.0527,67.7838 C-174.0112,67.7961 -173.9667,67.8022 -173.9192,67.8022 C-173.8477,67.8022 -173.7849,67.7919 -173.7309,67.7713 C-173.6768,67.7507 -173.6369,67.7228 -173.6111,67.6877 C-173.5854,67.6525 -173.5677,67.6054 -173.5579,67.5465 L-173.709,67.5259 C-173.7158,67.5728 -173.7357,67.6094 -173.7686,67.6357 C-173.8015,67.6621 -173.848,67.6752 -173.9081,67.6752 C-173.979,67.6752 -174.0296,67.6635 -174.0599,67.64 C-174.0903,67.6166 -174.1054,67.5891 -174.1054,67.5576 C-174.1054,67.5376 -174.0991,67.5196 -174.0866,67.5036 C-174.074,67.487 -174.0542,67.4733 -174.0273,67.4624 C-174.0119,67.4567 -173.9664,67.4435 -173.8909,67.4229 C-173.7816,67.3937 -173.7054,67.3699 -173.6622,67.3513 C-173.619,67.3327 -173.5851,67.3056 -173.5605,67.2702 C-173.5359,67.2347 -173.5236,67.1906 -173.5236,67.138 C-173.5236,67.0865 -173.5386,67.038 -173.5687,66.9926 C-173.5987,66.9471 -173.642,66.9119 -173.6987,66.887 C-173.7553,66.8621 -173.8194,66.8497 -173.8909,66.8497 C-174.0093,66.8497 -174.0996,66.8743 -174.1616,66.9235 C-174.2237,66.9727 -174.2633,67.0456 -174.2805,67.1423 M-173.3325,67.9507 L-173.3325,68.1283 L-173.178,68.1283 L-173.178,67.9507 Z M-173.3325,66.8703 L-173.3325,67.7816 L-173.178,67.7816 L-173.178,66.8703 Z M-172.9944,67.3259 C-172.9944,67.4947 -172.9475,67.6197 -172.8537,67.701 C-172.7753,67.7685 -172.6798,67.8022 -172.5671,67.8022 C-172.4418,67.8022 -172.3394,67.7612 -172.2599,67.6791 C-172.1803,67.597 -172.1406,67.4836 -172.1406,67.3388 C-172.1406,67.2215 -172.1582,67.1293 -172.1934,67.0621 C-172.2285,66.9948 -172.2797,66.9426 -172.347,66.9055 C-172.4142,66.8683 -172.4876,66.8497 -172.5671,66.8497 C-172.6947,66.8497 -172.7978,66.8906 -172.8764,66.9724 C-172.9551,67.0542 -172.9944,67.1721 -172.9944,67.3259 M-172.8357,67.3259 C-172.8357,67.2092 -172.8102,67.1219 -172.7593,67.0638 C-172.7084,67.0057 -172.6443,66.9767 -172.5671,66.9767 C-172.4904,66.9767 -172.4266,67.0059 -172.3757,67.0642 C-172.3248,67.1226 -172.2993,67.2115 -172.2993,67.3311 C-172.2993,67.4438 -172.3249,67.5292 -172.3761,67.5873 C-172.4273,67.6453 -172.491,67.6744 -172.5671,67.6744 C-172.6443,67.6744 -172.7084,67.6455 -172.7593,67.5877 C-172.8102,67.5299 -172.8357,67.4427 -172.8357,67.3259 M-171.9591,66.8703 L-171.9591,67.7816 L-171.8201,67.7816 L-171.8201,67.652 C-171.7531,67.7522 -171.6565,67.8022 -171.53,67.8022 C-171.4751,67.8022 -171.4246,67.7923 -171.3786,67.7726 C-171.3325,67.7529 -171.298,67.727 -171.2752,67.6949 C-171.2523,67.6629 -171.2363,67.6249 -171.2271,67.5808 C-171.2214,67.5522 -171.2185,67.5022 -171.2185,67.4306 L-171.2185,66.8703 L-171.373,66.8703 L-171.373,67.4246 C-171.373,67.4876 -171.379,67.5346 -171.391,67.5658 C-171.403,67.597 -171.4243,67.6219 -171.4549,67.6405 C-171.4855,67.6591 -171.5214,67.6683 -171.5626,67.6683 C-171.6284,67.6683 -171.6852,67.6475 -171.733,67.6057 C-171.7807,67.5639 -171.8046,67.4847 -171.8046,67.368 L-171.8046,66.8703 Z" style="fill:#dd0000;fill-rule:evenodd;0"/>
            <path d="M-183.941,64.9279 L-183.941,66.186 L-183.3832,66.186 C-183.2711,66.186 -183.1858,66.1747 -183.1275,66.1521 C-183.0691,66.1295 -183.0225,66.0896 -182.9876,66.0324 C-182.9527,65.9752 -182.9353,65.9119 -182.9353,65.8427 C-182.9353,65.7535 -182.9642,65.6782 -183.0219,65.617 C-183.0797,65.5558 -183.169,65.5169 -183.2897,65.5003 C-183.2456,65.4792 -183.2122,65.4583 -183.1893,65.4377 C-183.1407,65.3931 -183.0946,65.3373 -183.0511,65.2703 L-182.8323,64.9279 L-183.0417,64.9279 L-183.2082,65.1897 C-183.2568,65.2652 -183.2968,65.323 -183.3283,65.363 C-183.3598,65.4031 -183.3879,65.4311 -183.4128,65.4471 C-183.4377,65.4631 -183.463,65.4743 -183.4888,65.4806 C-183.5077,65.4846 -183.5385,65.4866 -183.5815,65.4866 L-183.7745,65.4866 L-183.7745,64.9279 Z M-183.7745,65.6308 L-183.4167,65.6308 C-183.3406,65.6308 -183.2811,65.6386 -183.2382,65.6544 C-183.1953,65.6701 -183.1627,65.6953 -183.1404,65.7299 C-183.1181,65.7645 -183.1069,65.8021 -183.1069,65.8427 C-183.1069,65.9022 -183.1285,65.9511 -183.1717,65.9895 C-183.2149,66.0278 -183.2831,66.047 -183.3764,66.047 L-183.7745,66.047 Z M-182.1001,65.0404 C-182.1573,64.9917 -182.2124,64.9574 -182.2653,64.9374 C-182.3182,64.9174 -182.375,64.9073 -182.4356,64.9073 C-182.5357,64.9073 -182.6127,64.9318 -182.6665,64.9807 C-182.7202,65.0296 -182.7471,65.0921 -182.7471,65.1682 C-182.7471,65.2128 -182.737,65.2536 -182.7167,65.2905 C-182.6963,65.3274 -182.6697,65.357 -182.6368,65.3793 C-182.604,65.4016 -182.5669,65.4185 -182.5257,65.43 C-182.4954,65.438 -182.4496,65.4457 -182.3884,65.4531 C-182.2637,65.468 -182.1719,65.4857 -182.113,65.5063 C-182.1124,65.5275 -182.1121,65.5409 -182.1121,65.5467 C-182.1121,65.6096 -182.1267,65.6539 -182.1559,65.6797 C-182.1953,65.7146 -182.254,65.732 -182.3318,65.732 C-182.4044,65.732 -182.4581,65.7193 -182.4927,65.6938 C-182.5273,65.6684 -182.5529,65.6233 -182.5695,65.5587 L-182.7205,65.5793 C-182.7068,65.6439 -182.6842,65.6961 -182.6527,65.7359 C-182.6213,65.7756 -182.5758,65.8062 -182.5163,65.8277 C-182.4568,65.8492 -182.3878,65.8599 -182.3095,65.8599 C-182.2317,65.8599 -182.1684,65.8507 -182.1198,65.8324 C-182.0712,65.8141 -182.0354,65.7911 -182.0126,65.7633 C-181.9897,65.7356 -181.9736,65.7006 -181.9645,65.6582 C-181.9593,65.6319 -181.9568,65.5844 -181.9568,65.5158 L-181.9568,65.3098 C-181.9568,65.1662 -181.9535,65.0754 -181.9469,65.0374 C-181.9403,64.9993 -181.9273,64.9628 -181.9079,64.9279 L-182.0692,64.9279 C-182.0852,64.96 -182.0955,64.9975 -182.1001,65.0404 M-182.113,65.3853 C-182.169,65.3624 -182.2531,65.343 -182.3652,65.327 C-182.4287,65.3178 -182.4737,65.3075 -182.5,65.2961 C-182.5263,65.2846 -182.5466,65.2679 -182.5609,65.2459 C-182.5752,65.2239 -182.5824,65.1994 -182.5824,65.1725 C-182.5824,65.1313 -182.5668,65.097 -182.5356,65.0695 C-182.5044,65.0421 -182.4588,65.0283 -182.3987,65.0283 C-182.3392,65.0283 -182.2863,65.0414 -182.24,65.0674 C-182.1936,65.0934 -182.1596,65.129 -182.1378,65.1742 C-182.1212,65.2091 -182.113,65.2606 -182.113,65.3287 Z M-181.7169,64.9279 L-181.7169,65.8393 L-181.5779,65.8393 L-181.5779,65.7097 C-181.511,65.8098 -181.4143,65.8599 -181.2879,65.8599 C-181.2329,65.8599 -181.1825,65.85 -181.1364,65.8303 C-181.0903,65.8105 -181.0559,65.7847 -181.033,65.7526 C-181.0101,65.7206 -180.9941,65.6825 -180.9849,65.6385 C-180.9792,65.6099 -180.9764,65.5598 -180.9764,65.4883 L-180.9764,64.9279 L-181.1308,64.9279 L-181.1308,65.4823 C-181.1308,65.5452 -181.1368,65.5923 -181.1488,65.6235 C-181.1609,65.6546 -181.1822,65.6795 -181.2128,65.6981 C-181.2434,65.7167 -181.2793,65.726 -181.3205,65.726 C-181.3863,65.726 -181.443,65.7051 -181.4908,65.6634 C-181.5386,65.6216 -181.5625,65.5424 -181.5625,65.4257 L-181.5625,64.9279 Z M-180.1478,64.9279 L-180.1478,65.0429 C-180.2056,64.9525 -180.2906,64.9073 -180.4027,64.9073 C-180.4754,64.9073 -180.5421,64.9274 -180.6031,64.9674 C-180.664,65.0075 -180.7112,65.0634 -180.7447,65.1352 C-180.7781,65.207 -180.7949,65.2895 -180.7949,65.3828 C-180.7949,65.4737 -180.7797,65.5562 -180.7494,65.6303 C-180.7191,65.7044 -180.6736,65.7612 -180.6129,65.8007 C-180.5523,65.8401 -180.4845,65.8599 -180.4096,65.8599 C-180.3546,65.8599 -180.3057,65.8483 -180.2628,65.8251 C-180.2199,65.802 -180.185,65.7718 -180.1581,65.7346 L-180.1581,66.186 L-180.0045,66.186 L-180.0045,64.9279 Z M-180.6361,65.3828 C-180.6361,65.266 -180.6115,65.1788 -180.5623,65.121 C-180.5131,65.0632 -180.455,65.0344 -180.3881,65.0344 C-180.3206,65.0344 -180.2632,65.062 -180.2161,65.1172 C-180.1689,65.1724 -180.1453,65.2566 -180.1453,65.3699 C-180.1453,65.4946 -180.1693,65.5861 -180.2173,65.6445 C-180.2654,65.7028 -180.3246,65.732 -180.395,65.732 C-180.4636,65.732 -180.521,65.704 -180.567,65.6479 C-180.6131,65.5919 -180.6361,65.5035 -180.6361,65.3828 M-179.8187,65.3836 C-179.8187,65.5524 -179.7718,65.6774 -179.678,65.7586 C-179.5996,65.8261 -179.5041,65.8599 -179.3914,65.8599 C-179.2661,65.8599 -179.1637,65.8188 -179.0842,65.7367 C-179.0047,65.6546 -178.9649,65.5412 -178.9649,65.3965 C-178.9649,65.2792 -178.9825,65.187 -179.0177,65.1197 C-179.0529,65.0525 -179.1041,65.0003 -179.1713,64.9631 C-179.2385,64.9259 -179.3119,64.9073 -179.3914,64.9073 C-179.519,64.9073 -179.6221,64.9483 -179.7007,65.0301 C-179.7794,65.1119 -179.8187,65.2297 -179.8187,65.3836 M-179.66,65.3836 C-179.66,65.2669 -179.6345,65.1795 -179.5836,65.1215 C-179.5327,65.0634 -179.4686,65.0344 -179.3914,65.0344 C-179.3147,65.0344 -179.2509,65.0635 -179.2,65.1219 C-179.1491,65.1802 -179.1236,65.2692 -179.1236,65.3888 C-179.1236,65.5015 -179.1492,65.5869 -179.2005,65.6449 C-179.2517,65.703 -179.3153,65.732 -179.3914,65.732 C-179.4686,65.732 -179.5327,65.7031 -179.5836,65.6453 C-179.6345,65.5876 -179.66,65.5003 -179.66,65.3836 M-178.7834,64.9279 L-178.7834,65.8393 L-178.6452,65.8393 L-178.6452,65.7114 C-178.6166,65.756 -178.5786,65.7919 -178.5311,65.8191 C-178.4836,65.8463 -178.4296,65.8599 -178.3689,65.8599 C-178.3014,65.8599 -178.2461,65.8459 -178.2029,65.8178 C-178.1597,65.7898 -178.1292,65.7506 -178.1115,65.7003 C-178.0394,65.8067 -177.9456,65.8599 -177.83,65.8599 C-177.7396,65.8599 -177.6701,65.8349 -177.6215,65.7848 C-177.5729,65.7347 -177.5485,65.6576 -177.5485,65.5535 L-177.5485,64.9279 L-177.7021,64.9279 L-177.7021,65.502 C-177.7021,65.5638 -177.7072,65.6083 -177.7172,65.6355 C-177.7272,65.6627 -177.7453,65.6845 -177.7717,65.7011 C-177.798,65.7177 -177.8289,65.726 -177.8643,65.726 C-177.9284,65.726 -177.9816,65.7047 -178.0239,65.6621 C-178.0663,65.6195 -178.0875,65.5512 -178.0875,65.4574 L-178.0875,64.9279 L-178.2419,64.9279 L-178.2419,65.5201 C-178.2419,65.5887 -178.2545,65.6402 -178.2797,65.6745 C-178.3048,65.7088 -178.346,65.726 -178.4032,65.726 C-178.4467,65.726 -178.4869,65.7146 -178.5238,65.6917 C-178.5607,65.6688 -178.5875,65.6353 -178.6041,65.5913 C-178.6206,65.5472 -178.6289,65.4837 -178.6289,65.4008 L-178.6289,64.9279 Z M-176.8312,64.9279 L-176.8312,66.186 L-176.6767,66.186 L-176.6767,64.9279 Z M-176.4304,66.0083 L-176.4304,66.186 L-176.276,66.186 L-176.276,66.0083 Z M-176.4304,64.9279 L-176.4304,65.8393 L-176.276,65.8393 L-176.276,64.9279 Z M-176.0349,64.9279 L-176.0349,65.8393 L-175.8959,65.8393 L-175.8959,65.7097 C-175.8289,65.8098 -175.7322,65.8599 -175.6058,65.8599 C-175.5509,65.8599 -175.5004,65.85 -175.4543,65.8303 C-175.4083,65.8105 -175.3738,65.7847 -175.3509,65.7526 C-175.3281,65.7206 -175.312,65.6825 -175.3029,65.6385 C-175.2972,65.6099 -175.2943,65.5598 -175.2943,65.4883 L-175.2943,64.9279 L-175.4488,64.9279 L-175.4488,65.4823 C-175.4488,65.5452 -175.4548,65.5923 -175.4668,65.6235 C-175.4788,65.6546 -175.5001,65.6795 -175.5307,65.6981 C-175.5613,65.7167 -175.5972,65.726 -175.6384,65.726 C-175.7042,65.726 -175.761,65.7051 -175.8088,65.6634 C-175.8565,65.6216 -175.8804,65.5424 -175.8804,65.4257 L-175.8804,64.9279 Z M-174.4332,65.2214 L-174.2735,65.2017 C-174.2987,65.1084 -174.3453,65.0361 -174.4134,64.9846 C-174.4815,64.9331 -174.5685,64.9073 -174.6743,64.9073 C-174.8076,64.9073 -174.9133,64.9484 -174.9914,65.0305 C-175.0695,65.1126 -175.1085,65.2277 -175.1085,65.3759 C-175.1085,65.5292 -175.069,65.6482 -174.9901,65.7329 C-174.9111,65.8175 -174.8087,65.8599 -174.6829,65.8599 C-174.561,65.8599 -174.4615,65.8184 -174.3842,65.7355 C-174.307,65.6525 -174.2684,65.5358 -174.2684,65.3853 C-174.2684,65.3762 -174.2687,65.3624 -174.2693,65.3441 L-174.9489,65.3441 C-174.9432,65.244 -174.9149,65.1674 -174.864,65.1142 C-174.813,65.061 -174.7495,65.0344 -174.6734,65.0344 C-174.6168,65.0344 -174.5685,65.0492 -174.5284,65.079 C-174.4884,65.1087 -174.4566,65.1562 -174.4332,65.2214 M-174.9403,65.4711 L-174.4314,65.4711 C-174.4383,65.5478 -174.4578,65.6053 -174.4898,65.6436 C-174.539,65.7031 -174.6028,65.7329 -174.6812,65.7329 C-174.7521,65.7329 -174.8117,65.7091 -174.8601,65.6617 C-174.9084,65.6142 -174.9352,65.5507 -174.9403,65.4711 M-174.141,65.2 L-173.9882,65.224 C-173.9796,65.1628 -173.9558,65.1159 -173.9166,65.0833 C-173.8774,65.0507 -173.8226,65.0344 -173.7522,65.0344 C-173.6813,65.0344 -173.6287,65.0488 -173.5943,65.0777 C-173.56,65.1066 -173.5429,65.1405 -173.5429,65.1794 C-173.5429,65.2143 -173.558,65.2417 -173.5883,65.2618 C-173.6095,65.2755 -173.6621,65.2929 -173.7462,65.3141 C-173.8595,65.3427 -173.938,65.3675 -173.9818,65.3883 C-174.0256,65.4092 -174.0587,65.4381 -174.0813,65.475 C-174.1039,65.5119 -174.1152,65.5527 -174.1152,65.5973 C-174.1152,65.6379 -174.1059,65.6755 -174.0873,65.7101 C-174.0687,65.7447 -174.0434,65.7735 -174.0114,65.7964 C-173.9874,65.8141 -173.9546,65.8291 -173.9131,65.8414 C-173.8717,65.8537 -173.8272,65.8599 -173.7797,65.8599 C-173.7082,65.8599 -173.6454,65.8496 -173.5913,65.829 C-173.5373,65.8084 -173.4974,65.7805 -173.4716,65.7453 C-173.4459,65.7101 -173.4281,65.6631 -173.4184,65.6042 L-173.5695,65.5836 C-173.5763,65.6305 -173.5962,65.6671 -173.6291,65.6934 C-173.662,65.7197 -173.7085,65.7329 -173.7685,65.7329 C-173.8395,65.7329 -173.8901,65.7211 -173.9204,65.6977 C-173.9508,65.6742 -173.9659,65.6468 -173.9659,65.6153 C-173.9659,65.5953 -173.9596,65.5773 -173.947,65.5612 C-173.9345,65.5447 -173.9147,65.5309 -173.8878,65.5201 C-173.8724,65.5143 -173.8269,65.5012 -173.7514,65.4806 C-173.6421,65.4514 -173.5659,65.4275 -173.5227,65.4089 C-173.4795,65.3903 -173.4456,65.3633 -173.421,65.3278 C-173.3964,65.2924 -173.3841,65.2483 -173.3841,65.1957 C-173.3841,65.1442 -173.3991,65.0957 -173.4291,65.0502 C-173.4592,65.0047 -173.5025,64.9696 -173.5592,64.9447 C-173.6158,64.9198 -173.6799,64.9073 -173.7514,64.9073 C-173.8698,64.9073 -173.9601,64.9319 -174.0221,64.9811 C-174.0842,65.0303 -174.1238,65.1033 -174.141,65.2 M-172.1102,65.0404 C-172.1674,64.9917 -172.2225,64.9574 -172.2754,64.9374 C-172.3283,64.9174 -172.3851,64.9073 -172.4458,64.9073 C-172.5459,64.9073 -172.6228,64.9318 -172.6766,64.9807 C-172.7304,65.0296 -172.7573,65.0921 -172.7573,65.1682 C-172.7573,65.2128 -172.7471,65.2536 -172.7268,65.2905 C-172.7065,65.3274 -172.6799,65.357 -172.647,65.3793 C-172.6141,65.4016 -172.5771,65.4185 -172.5359,65.43 C-172.5056,65.438 -172.4598,65.4457 -172.3986,65.4531 C-172.2739,65.468 -172.182,65.4857 -172.1231,65.5063 C-172.1225,65.5275 -172.1222,65.5409 -172.1222,65.5467 C-172.1222,65.6096 -172.1368,65.6539 -172.166,65.6797 C-172.2055,65.7146 -172.2641,65.732 -172.3419,65.732 C-172.4146,65.732 -172.4682,65.7193 -172.5028,65.6938 C-172.5374,65.6684 -172.563,65.6233 -172.5796,65.5587 L-172.7307,65.5793 C-172.7169,65.6439 -172.6943,65.6961 -172.6629,65.7359 C-172.6314,65.7756 -172.5859,65.8062 -172.5264,65.8277 C-172.4669,65.8492 -172.398,65.8599 -172.3196,65.8599 C-172.2418,65.8599 -172.1786,65.8507 -172.13,65.8324 C-172.0813,65.8141 -172.0456,65.7911 -172.0227,65.7633 C-171.9998,65.7356 -171.9838,65.7006 -171.9746,65.6582 C-171.9695,65.6319 -171.9669,65.5844 -171.9669,65.5158 L-171.9669,65.3098 C-171.9669,65.1662 -171.9636,65.0754 -171.9571,65.0374 C-171.9505,64.9993 -171.9375,64.9628 -171.918,64.9279 L-172.0793,64.9279 C-172.0954,64.96 -172.1057,64.9975 -172.1102,65.0404 M-172.1231,65.3853 C-172.1792,65.3624 -172.2633,65.343 -172.3754,65.327 C-172.4389,65.3178 -172.4838,65.3075 -172.5101,65.2961 C-172.5364,65.2846 -172.5568,65.2679 -172.5711,65.2459 C-172.5854,65.2239 -172.5925,65.1994 -172.5925,65.1725 C-172.5925,65.1313 -172.5769,65.097 -172.5457,65.0695 C-172.5146,65.0421 -172.4689,65.0283 -172.4089,65.0283 C-172.3494,65.0283 -172.2965,65.0414 -172.2501,65.0674 C-172.2038,65.0934 -172.1697,65.129 -172.148,65.1742 C-172.1314,65.2091 -172.1231,65.2606 -172.1231,65.3287 Z M-171.1358,64.9279 L-171.1358,65.0429 C-171.1936,64.9525 -171.2786,64.9073 -171.3907,64.9073 C-171.4633,64.9073 -171.5301,64.9274 -171.5911,64.9674 C-171.652,65.0075 -171.6992,65.0634 -171.7327,65.1352 C-171.7661,65.207 -171.7829,65.2895 -171.7829,65.3828 C-171.7829,65.4737 -171.7677,65.5562 -171.7374,65.6303 C-171.7071,65.7044 -171.6616,65.7612 -171.6009,65.8007 C-171.5403,65.8401 -171.4725,65.8599 -171.3976,65.8599 C-171.3426,65.8599 -171.2937,65.8483 -171.2508,65.8251 C-171.2079,65.802 -171.173,65.7718 -171.1461,65.7346 L-171.1461,66.186 L-170.9925,66.186 L-170.9925,64.9279 Z M-171.6241,65.3828 C-171.6241,65.266 -171.5995,65.1788 -171.5503,65.121 C-171.5011,65.0632 -171.443,65.0344 -171.3761,65.0344 C-171.3086,65.0344 -171.2512,65.062 -171.204,65.1172 C-171.1568,65.1724 -171.1332,65.2566 -171.1332,65.3699 C-171.1332,65.4946 -171.1573,65.5861 -171.2053,65.6445 C-171.2534,65.7028 -171.3126,65.732 -171.383,65.732 C-171.4516,65.732 -171.509,65.704 -171.555,65.6479 C-171.6011,65.5919 -171.6241,65.5035 -171.6241,65.3828 M-170.158,64.9279 L-170.158,65.0429 C-170.2158,64.9525 -170.3007,64.9073 -170.4128,64.9073 C-170.4855,64.9073 -170.5523,64.9274 -170.6132,64.9674 C-170.6742,65.0075 -170.7214,65.0634 -170.7548,65.1352 C-170.7883,65.207 -170.805,65.2895 -170.805,65.3828 C-170.805,65.4737 -170.7899,65.5562 -170.7595,65.6303 C-170.7292,65.7044 -170.6837,65.7612 -170.6231,65.8007 C-170.5625,65.8401 -170.4947,65.8599 -170.4197,65.8599 C-170.3648,65.8599 -170.3159,65.8483 -170.273,65.8251 C-170.2301,65.802 -170.1952,65.7718 -170.1683,65.7346 L-170.1683,66.186 L-170.0147,66.186 L-170.0147,64.9279 Z M-170.6463,65.3828 C-170.6463,65.266 -170.6217,65.1788 -170.5725,65.121 C-170.5233,65.0632 -170.4652,65.0344 -170.3983,65.0344 C-170.3308,65.0344 -170.2734,65.062 -170.2262,65.1172 C-170.179,65.1724 -170.1554,65.2566 -170.1554,65.3699 C-170.1554,65.4946 -170.1794,65.5861 -170.2275,65.6445 C-170.2755,65.7028 -170.3348,65.732 -170.4051,65.732 C-170.4738,65.732 -170.5311,65.704 -170.5772,65.6479 C-170.6232,65.5919 -170.6463,65.5035 -170.6463,65.3828 M-169.1475,65.2214 L-168.9879,65.2017 C-169.0131,65.1084 -169.0597,65.0361 -169.1278,64.9846 C-169.1959,64.9331 -169.2828,64.9073 -169.3887,64.9073 C-169.522,64.9073 -169.6277,64.9484 -169.7058,65.0305 C-169.7838,65.1126 -169.8229,65.2277 -169.8229,65.3759 C-169.8229,65.5292 -169.7834,65.6482 -169.7045,65.7329 C-169.6255,65.8175 -169.5231,65.8599 -169.3972,65.8599 C-169.2754,65.8599 -169.1758,65.8184 -169.0986,65.7355 C-169.0214,65.6525 -168.9828,65.5358 -168.9828,65.3853 C-168.9828,65.3762 -168.9831,65.3624 -168.9836,65.3441 L-169.6633,65.3441 C-169.6576,65.244 -169.6292,65.1674 -169.5783,65.1142 C-169.5274,65.061 -169.4639,65.0344 -169.3878,65.0344 C-169.3312,65.0344 -169.2828,65.0492 -169.2428,65.079 C-169.2027,65.1087 -169.171,65.1562 -169.1475,65.2214 M-169.6547,65.4711 L-169.1458,65.4711 C-169.1527,65.5478 -169.1721,65.6053 -169.2042,65.6436 C-169.2534,65.7031 -169.3172,65.7329 -169.3955,65.7329 C-169.4665,65.7329 -169.5261,65.7091 -169.5745,65.6617 C-169.6228,65.6142 -169.6495,65.5507 -169.6547,65.4711 M-168.2023,64.9279 L-168.2023,65.0429 C-168.2601,64.9525 -168.345,64.9073 -168.4572,64.9073 C-168.5298,64.9073 -168.5966,64.9274 -168.6575,64.9674 C-168.7185,65.0075 -168.7657,65.0634 -168.7991,65.1352 C-168.8326,65.207 -168.8493,65.2895 -168.8493,65.3828 C-168.8493,65.4737 -168.8342,65.5562 -168.8039,65.6303 C-168.7735,65.7044 -168.7281,65.7612 -168.6674,65.8007 C-168.6068,65.8401 -168.539,65.8599 -168.464,65.8599 C-168.4091,65.8599 -168.3602,65.8483 -168.3173,65.8251 C-168.2744,65.802 -168.2395,65.7718 -168.2126,65.7346 L-168.2126,66.186 L-168.059,66.186 L-168.059,64.9279 Z M-168.6906,65.3828 C-168.6906,65.266 -168.666,65.1788 -168.6168,65.121 C-168.5676,65.0632 -168.5095,65.0344 -168.4426,65.0344 C-168.3751,65.0344 -168.3177,65.062 -168.2705,65.1172 C-168.2233,65.1724 -168.1997,65.2566 -168.1997,65.3699 C-168.1997,65.4946 -168.2238,65.5861 -168.2718,65.6445 C-168.3199,65.7028 -168.3791,65.732 -168.4494,65.732 C-168.5181,65.732 -168.5754,65.704 -168.6215,65.6479 C-168.6676,65.5919 -168.6906,65.5035 -168.6906,65.3828" style="fill:#dd0000;fill-rule:evenodd;0"/>
        </g>
        <!-- Line -->
        <path d="M-161.7626,107.9204 L-167.6597,58.1417 " style="stroke:#000000;stroke-width:0;"/>
        <!-- Line -->
        <path d="M-42.8488,32.5096 L-103.5477,115.3926 " style="stroke:#000000;stroke-width:0;"/>
        <!-- Line -->
        <path d="M-310.1788,47.5107 L-54.8754,40.8438 " style="stroke:#000000;stroke-width:0;"/>
        <!-- Text: QCAD.org
Trial Version
Random lines added -->
        <g>
            <path d="M-178.9399,68.9473 C-178.8627,68.8941 -178.7914,68.8552 -178.7262,68.8306 L-178.7751,68.7148 C-178.8655,68.7474 -178.9556,68.7989 -179.0455,68.8692 C-179.1387,68.8172 -179.2417,68.7912 -179.3544,68.7912 C-179.4682,68.7912 -179.5715,68.8186 -179.6642,68.8735 C-179.7569,68.9285 -179.8282,69.0057 -179.8783,69.1052 C-179.9283,69.2048 -179.9534,69.3169 -179.9534,69.4416 C-179.9534,69.5658 -179.9282,69.6788 -179.8779,69.7806 C-179.8275,69.8824 -179.7559,69.9599 -179.6629,70.0132 C-179.5699,70.0664 -179.4659,70.093 -179.351,70.093 C-179.2348,70.093 -179.1301,70.0654 -179.0369,70.0101 C-178.9436,69.9549 -178.8725,69.8777 -178.8236,69.7784 C-178.7747,69.6792 -178.7503,69.5672 -178.7503,69.4425 C-178.7503,69.3389 -178.766,69.2458 -178.7975,69.1632 C-178.8289,69.0805 -178.8764,69.0086 -178.9399,68.9473 M-179.3063,69.1602 C-179.2102,69.1333 -179.131,69.0932 -179.0686,69.04 C-178.9708,69.1293 -178.9219,69.2634 -178.9219,69.4425 C-178.9219,69.5443 -178.9392,69.6333 -178.9738,69.7094 C-179.0084,69.7855 -179.059,69.8445 -179.1257,69.8866 C-179.1923,69.9286 -179.2671,69.9496 -179.3501,69.9496 C-179.4742,69.9496 -179.5772,69.9072 -179.659,69.8222 C-179.7408,69.7373 -179.7817,69.6104 -179.7817,69.4416 C-179.7817,69.278 -179.7413,69.1524 -179.6603,69.0649 C-179.5794,68.9774 -179.476,68.9336 -179.3501,68.9336 C-179.2906,68.9336 -179.2345,68.9448 -179.1819,68.9671 C-179.234,69.0008 -179.2889,69.0249 -179.3467,69.0392 Z M-177.6346,69.2537 L-177.4682,69.2116 C-177.503,69.0749 -177.5658,68.9707 -177.6565,68.8989 C-177.7472,68.8271 -177.858,68.7912 -177.989,68.7912 C-178.1246,68.7912 -178.2349,68.8188 -178.3199,68.874 C-178.4048,68.9292 -178.4695,69.0091 -178.5138,69.1138 C-178.5581,69.2185 -178.5803,69.3309 -178.5803,69.4511 C-178.5803,69.5821 -178.5553,69.6964 -178.5052,69.7939 C-178.4552,69.8914 -178.3839,69.9655 -178.2915,70.0162 C-178.1991,70.0668 -178.0975,70.0921 -177.9865,70.0921 C-177.8606,70.0921 -177.7548,70.0601 -177.669,69.996 C-177.5831,69.9319 -177.5234,69.8418 -177.4896,69.7257 L-177.6535,69.6871 C-177.6827,69.7786 -177.725,69.8452 -177.7805,69.887 C-177.836,69.9288 -177.9058,69.9496 -177.9899,69.9496 C-178.0866,69.9496 -178.1674,69.9265 -178.2323,69.8801 C-178.2973,69.8338 -178.3429,69.7716 -178.3692,69.6935 C-178.3955,69.6154 -178.4087,69.5349 -178.4087,69.4519 C-178.4087,69.3449 -178.3931,69.2516 -178.3619,69.1717 C-178.3307,69.0919 -178.2822,69.0323 -178.2165,68.9928 C-178.1507,68.9533 -178.0794,68.9336 -178.0028,68.9336 C-177.9095,68.9336 -177.8306,68.9605 -177.7659,69.0143 C-177.7013,69.0681 -177.6575,69.1479 -177.6346,69.2537 M-177.4019,68.8126 L-176.9187,70.0706 L-176.7394,70.0706 L-176.2245,68.8126 L-176.4141,68.8126 L-176.5609,69.1936 L-177.0869,69.1936 L-177.2251,68.8126 Z M-177.0389,69.3292 L-176.6124,69.3292 L-176.7437,69.6776 C-176.7837,69.7835 -176.8135,69.8704 -176.8329,69.9385 C-176.8489,69.8578 -176.8715,69.7777 -176.9007,69.6982 Z M-176.0876,68.8126 L-176.0876,70.0706 L-175.6543,70.0706 C-175.5565,70.0706 -175.4818,70.0646 -175.4303,70.0526 C-175.3582,70.036 -175.2967,70.006 -175.2458,69.9625 C-175.1794,69.9065 -175.1298,69.8348 -175.0969,69.7476 C-175.064,69.6603 -175.0476,69.5606 -175.0476,69.4485 C-175.0476,69.353 -175.0587,69.2683 -175.081,69.1945 C-175.1034,69.1207 -175.132,69.0596 -175.1669,69.0113 C-175.2018,68.9629 -175.2399,68.9249 -175.2814,68.8971 C-175.3229,68.8694 -175.373,68.8484 -175.4316,68.8341 C-175.4902,68.8198 -175.5576,68.8126 -175.6337,68.8126 Z M-175.9212,68.9611 L-175.6526,68.9611 C-175.5696,68.9611 -175.5045,68.9688 -175.4573,68.9842 C-175.4101,68.9997 -175.3725,69.0214 -175.3445,69.0495 C-175.305,69.0889 -175.2743,69.142 -175.2522,69.2086 C-175.2302,69.2753 -175.2192,69.3561 -175.2192,69.4511 C-175.2192,69.5826 -175.2408,69.6838 -175.284,69.7544 C-175.3272,69.8251 -175.3797,69.8724 -175.4415,69.8964 C-175.4861,69.9136 -175.5579,69.9222 -175.6569,69.9222 L-175.9212,69.9222 Z M-174.7951,68.8126 L-174.7951,68.9885 L-174.6191,68.9885 L-174.6191,68.8126 Z M-174.4074,69.2683 C-174.4074,69.4371 -174.3605,69.5621 -174.2667,69.6433 C-174.1883,69.7108 -174.0927,69.7446 -173.98,69.7446 C-173.8548,69.7446 -173.7524,69.7035 -173.6728,69.6214 C-173.5933,69.5393 -173.5535,69.4259 -173.5535,69.2812 C-173.5535,69.1639 -173.5711,69.0716 -173.6063,69.0044 C-173.6415,68.9372 -173.6927,68.885 -173.7599,68.8478 C-173.8272,68.8106 -173.9005,68.792 -173.98,68.792 C-174.1076,68.792 -174.2107,68.8329 -174.2894,68.9147 C-174.3681,68.9965 -174.4074,69.1144 -174.4074,69.2683 M-174.2486,69.2683 C-174.2486,69.1516 -174.2232,69.0642 -174.1723,69.0061 C-174.1214,68.9481 -174.0573,68.919 -173.98,68.919 C-173.9034,68.919 -173.8396,68.9482 -173.7887,69.0066 C-173.7378,69.0649 -173.7123,69.1539 -173.7123,69.2734 C-173.7123,69.3861 -173.7379,69.4715 -173.7891,69.5296 C-173.8403,69.5877 -173.904,69.6167 -173.98,69.6167 C-174.0573,69.6167 -174.1214,69.5878 -174.1723,69.53 C-174.2232,69.4722 -174.2486,69.385 -174.2486,69.2683 M-173.3738,68.8126 L-173.3738,69.724 L-173.2348,69.724 L-173.2348,69.5858 C-173.1993,69.6504 -173.1665,69.6931 -173.1365,69.7137 C-173.1065,69.7343 -173.0734,69.7446 -173.0374,69.7446 C-172.9853,69.7446 -172.9324,69.728 -172.8786,69.6948 L-172.9318,69.5515 C-172.9696,69.5738 -173.0074,69.5849 -173.0451,69.5849 C-173.0789,69.5849 -173.1092,69.5748 -173.1361,69.5545 C-173.163,69.5342 -173.1821,69.506 -173.1936,69.4699 C-173.2107,69.415 -173.2193,69.355 -173.2193,69.2897 L-173.2193,68.8126 Z M-172.819,68.7371 L-172.6688,68.7148 C-172.6625,68.6684 -172.645,68.6347 -172.6164,68.6135 C-172.5781,68.5849 -172.5258,68.5706 -172.4594,68.5706 C-172.3879,68.5706 -172.3327,68.5849 -172.2938,68.6135 C-172.2549,68.6421 -172.2286,68.6822 -172.2148,68.7337 C-172.2068,68.7651 -172.2031,68.8312 -172.2037,68.9319 C-172.2712,68.8524 -172.3553,68.8126 -172.456,68.8126 C-172.5813,68.8126 -172.6782,68.8578 -172.7469,68.9482 C-172.8155,69.0386 -172.8499,69.147 -172.8499,69.2734 C-172.8499,69.3604 -172.8341,69.4406 -172.8027,69.5141 C-172.7712,69.5877 -172.7256,69.6444 -172.6658,69.6845 C-172.606,69.7245 -172.5358,69.7446 -172.4551,69.7446 C-172.3476,69.7446 -172.2589,69.7011 -172.1891,69.6141 L-172.1891,69.724 L-172.0466,69.724 L-172.0466,68.9362 C-172.0466,68.7943 -172.0611,68.6938 -172.09,68.6345 C-172.1189,68.5753 -172.1646,68.5286 -172.2273,68.4942 C-172.2899,68.4599 -172.367,68.4428 -172.4585,68.4428 C-172.5672,68.4428 -172.6551,68.4672 -172.722,68.5161 C-172.7889,68.565 -172.8212,68.6387 -172.819,68.7371 M-172.6911,69.2846 C-172.6911,69.165 -172.6674,69.0778 -172.6199,69.0229 C-172.5724,68.9679 -172.5129,68.9405 -172.4414,68.9405 C-172.3704,68.9405 -172.3109,68.9678 -172.2629,69.0224 C-172.2148,69.0771 -172.1908,69.1627 -172.1908,69.2794 C-172.1908,69.391 -172.2155,69.4751 -172.265,69.5317 C-172.3145,69.5884 -172.3742,69.6167 -172.444,69.6167 C-172.5126,69.6167 -172.571,69.5888 -172.619,69.533 C-172.6671,69.4772 -172.6911,69.3944 -172.6911,69.2846" style="fill:#dd0000;fill-rule:evenodd;0"/>
            <path d="M-180.367,66.8703 L-180.367,67.9799 L-180.7815,67.9799 L-180.7815,68.1283 L-179.7843,68.1283 L-179.7843,67.9799 L-180.2005,67.9799 L-180.2005,66.8703 Z M-179.7043,66.8703 L-179.7043,67.7816 L-179.5652,67.7816 L-179.5652,67.6435 C-179.5298,67.7081 -179.497,67.7507 -179.467,67.7713 C-179.437,67.7919 -179.4039,67.8022 -179.3679,67.8022 C-179.3158,67.8022 -179.2629,67.7856 -179.2091,67.7524 L-179.2623,67.6091 C-179.3001,67.6314 -179.3378,67.6426 -179.3756,67.6426 C-179.4094,67.6426 -179.4397,67.6324 -179.4666,67.6121 C-179.4935,67.5918 -179.5126,67.5637 -179.5241,67.5276 C-179.5412,67.4727 -179.5498,67.4126 -179.5498,67.3474 L-179.5498,66.8703 Z M-179.1203,67.9507 L-179.1203,68.1283 L-178.9658,68.1283 L-178.9658,67.9507 Z M-179.1203,66.8703 L-179.1203,67.7816 L-178.9658,67.7816 L-178.9658,66.8703 Z M-178.13,66.9827 C-178.1872,66.9341 -178.2423,66.8997 -178.2952,66.8797 C-178.3481,66.8597 -178.4049,66.8497 -178.4656,66.8497 C-178.5657,66.8497 -178.6426,66.8741 -178.6964,66.9231 C-178.7502,66.972 -178.7771,67.0345 -178.7771,67.1106 C-178.7771,67.1552 -178.7669,67.1959 -178.7466,67.2328 C-178.7263,67.2697 -178.6997,67.2993 -178.6668,67.3217 C-178.6339,67.344 -178.5968,67.3608 -178.5557,67.3723 C-178.5253,67.3803 -178.4796,67.388 -178.4184,67.3955 C-178.2936,67.4103 -178.2018,67.4281 -178.1429,67.4487 C-178.1423,67.4698 -178.142,67.4833 -178.142,67.489 C-178.142,67.5519 -178.1566,67.5963 -178.1858,67.622 C-178.2253,67.6569 -178.2839,67.6744 -178.3617,67.6744 C-178.4344,67.6744 -178.488,67.6616 -178.5226,67.6362 C-178.5572,67.6107 -178.5828,67.5657 -178.5994,67.501 L-178.7505,67.5216 C-178.7367,67.5863 -178.7141,67.6385 -178.6827,67.6782 C-178.6512,67.718 -178.6057,67.7486 -178.5462,67.77 C-178.4867,67.7915 -178.4178,67.8022 -178.3394,67.8022 C-178.2616,67.8022 -178.1984,67.7931 -178.1498,67.7748 C-178.1011,67.7564 -178.0654,67.7334 -178.0425,67.7057 C-178.0196,67.6779 -178.0036,67.6429 -177.9944,67.6006 C-177.9893,67.5742 -177.9867,67.5268 -177.9867,67.4581 L-177.9867,67.2521 C-177.9867,67.1086 -177.9834,67.0177 -177.9768,66.9797 C-177.9703,66.9416 -177.9572,66.9052 -177.9378,66.8703 L-178.0991,66.8703 C-178.1151,66.9023 -178.1254,66.9398 -178.13,66.9827 M-178.1429,67.3277 C-178.199,67.3048 -178.2831,67.2853 -178.3952,67.2693 C-178.4587,67.2602 -178.5036,67.2499 -178.5299,67.2384 C-178.5562,67.227 -178.5765,67.2102 -178.5908,67.1882 C-178.6051,67.1662 -178.6123,67.1417 -178.6123,67.1148 C-178.6123,67.0737 -178.5967,67.0393 -178.5655,67.0119 C-178.5343,66.9844 -178.4887,66.9707 -178.4287,66.9707 C-178.3692,66.9707 -178.3162,66.9837 -178.2699,67.0097 C-178.2236,67.0358 -178.1895,67.0714 -178.1678,67.1166 C-178.1512,67.1515 -178.1429,67.2029 -178.1429,67.271 Z M-177.7503,66.8703 L-177.7503,68.1283 L-177.5958,68.1283 L-177.5958,66.8703 Z M-176.4822,66.8703 L-176.9696,68.1283 L-176.7894,68.1283 L-176.4625,67.2144 C-176.4362,67.1412 -176.4141,67.0725 -176.3964,67.0084 C-176.377,67.0771 -176.3544,67.1457 -176.3286,67.2144 L-175.9888,68.1283 L-175.8189,68.1283 L-176.3115,66.8703 Z M-175.1541,67.1638 L-174.9945,67.144 C-175.0197,67.0508 -175.0663,66.9784 -175.1344,66.9269 C-175.2024,66.8754 -175.2894,66.8497 -175.3952,66.8497 C-175.5285,66.8497 -175.6342,66.8907 -175.7123,66.9728 C-175.7904,67.0549 -175.8295,67.1701 -175.8295,67.3182 C-175.8295,67.4715 -175.79,67.5905 -175.711,67.6752 C-175.6321,67.7599 -175.5297,67.8022 -175.4038,67.8022 C-175.282,67.8022 -175.1824,67.7607 -175.1052,67.6778 C-175.028,67.5948 -174.9893,67.4781 -174.9893,67.3277 C-174.9893,67.3185 -174.9896,67.3048 -174.9902,67.2865 L-175.6698,67.2865 C-175.6641,67.1864 -175.6358,67.1097 -175.5849,67.0565 C-175.534,67.0033 -175.4705,66.9767 -175.3944,66.9767 C-175.3377,66.9767 -175.2894,66.9916 -175.2494,67.0213 C-175.2093,67.0511 -175.1776,67.0985 -175.1541,67.1638 M-175.6613,67.4135 L-175.1524,67.4135 C-175.1592,67.4901 -175.1787,67.5476 -175.2107,67.586 C-175.2599,67.6455 -175.3237,67.6752 -175.4021,67.6752 C-175.473,67.6752 -175.5327,67.6515 -175.581,67.604 C-175.6294,67.5565 -175.6561,67.493 -175.6613,67.4135 M-174.8018,66.8703 L-174.8018,67.7816 L-174.6628,67.7816 L-174.6628,67.6435 C-174.6274,67.7081 -174.5946,67.7507 -174.5646,67.7713 C-174.5345,67.7919 -174.5015,67.8022 -174.4655,67.8022 C-174.4134,67.8022 -174.3605,67.7856 -174.3067,67.7524 L-174.3599,67.6091 C-174.3977,67.6314 -174.4354,67.6426 -174.4732,67.6426 C-174.5069,67.6426 -174.5372,67.6324 -174.5641,67.6121 C-174.591,67.5918 -174.6102,67.5637 -174.6216,67.5276 C-174.6388,67.4727 -174.6474,67.4126 -174.6474,67.3474 L-174.6474,66.8703 Z M-174.2805,67.1423 L-174.1277,67.1663 C-174.1192,67.1051 -174.0953,67.0582 -174.0561,67.0256 C-174.0169,66.993 -173.9621,66.9767 -173.8918,66.9767 C-173.8208,66.9767 -173.7682,66.9911 -173.7339,67.02 C-173.6995,67.0489 -173.6824,67.0828 -173.6824,67.1217 C-173.6824,67.1566 -173.6975,67.1841 -173.7278,67.2041 C-173.749,67.2178 -173.8016,67.2353 -173.8857,67.2564 C-173.999,67.285 -174.0775,67.3098 -174.1213,67.3307 C-174.1651,67.3516 -174.1983,67.3804 -174.2209,67.4173 C-174.2434,67.4542 -174.2547,67.495 -174.2547,67.5396 C-174.2547,67.5802 -174.2455,67.6179 -174.2269,67.6525 C-174.2083,67.6871 -174.183,67.7158 -174.1509,67.7387 C-174.1269,67.7564 -174.0941,67.7715 -174.0527,67.7838 C-174.0112,67.7961 -173.9667,67.8022 -173.9192,67.8022 C-173.8477,67.8022 -173.7849,67.7919 -173.7309,67.7713 C-173.6768,67.7507 -173.6369,67.7228 -173.6111,67.6877 C-173.5854,67.6525 -173.5677,67.6054 -173.5579,67.5465 L-173.709,67.5259 C-173.7158,67.5728 -173.7357,67.6094 -173.7686,67.6357 C-173.8015,67.6621 -173.848,67.6752 -173.9081,67.6752 C-173.979,67.6752 -174.0296,67.6635 -174.0599,67.64 C-174.0903,67.6166 -174.1054,67.5891 -174.1054,67.5576 C-174.1054,67.5376 -174.0991,67.5196 -174.0866,67.5036 C-174.074,67.487 -174.0542,67.4733 -174.0273,67.4624 C-174.0119,67.4567 -173.9664,67.4435 -173.8909,67.4229 C-173.7816,67.3937 -173.7054,67.3699 -173.6622,67.3513 C-173.619,67.3327 -173.5851,67.3056 -173.5605,67.2702 C-173.5359,67.2347 -173.5236,67.1906 -173.5236,67.138 C-173.5236,67.0865 -173.5386,67.038 -173.5687,66.9926 C-173.5987,66.9471 -173.642,66.9119 -173.6987,66.887 C-173.7553,66.8621 -173.8194,66.8497 -173.8909,66.8497 C-174.0093,66.8497 -174.0996,66.8743 -174.1616,66.9235 C-174.2237,66.9727 -174.2633,67.0456 -174.2805,67.1423 M-173.3325,67.9507 L-173.3325,68.1283 L-173.178,68.1283 L-173.178,67.9507 Z M-173.3325,66.8703 L-173.3325,67.7816 L-173.178,67.7816 L-173.178,66.8703 Z M-172.9944,67.3259 C-172.9944,67.4947 -172.9475,67.6197 -172.8537,67.701 C-172.7753,67.7685 -172.6798,67.8022 -172.5671,67.8022 C-172.4418,67.8022 -172.3394,67.7612 -172.2599,67.6791 C-172.1803,67.597 -172.1406,67.4836 -172.1406,67.3388 C-172.1406,67.2215 -172.1582,67.1293 -172.1934,67.0621 C-172.2285,66.9948 -172.2797,66.9426 -172.347,66.9055 C-172.4142,66.8683 -172.4876,66.8497 -172.5671,66.8497 C-172.6947,66.8497 -172.7978,66.8906 -172.8764,66.9724 C-172.9551,67.0542 -172.9944,67.1721 -172.9944,67.3259 M-172.8357,67.3259 C-172.8357,67.2092 -172.8102,67.1219 -172.7593,67.0638 C-172.7084,67.0057 -172.6443,66.9767 -172.5671,66.9767 C-172.4904,66.9767 -172.4266,67.0059 -172.3757,67.0642 C-172.3248,67.1226 -172.2993,67.2115 -172.2993,67.3311 C-172.2993,67.4438 -172.3249,67.5292 -172.3761,67.5873 C-172.4273,67.6453 -172.491,67.6744 -172.5671,67.6744 C-172.6443,67.6744 -172.7084,67.6455 -172.7593,67.5877 C-172.8102,67.5299 -172.8357,67.4427 -172.8357,67.3259 M-171.9591,66.8703 L-171.9591,67.7816 L-171.8201,67.7816 L-171.8201,67.652 C-171.7531,67.7522 -171.6565,67.8022 -171.53,67.8022 C-171.4751,67.8022 -171.4246,67.7923 -171.3786,67.7726 C-171.3325,67.7529 -171.298,67.727 -171.2752,67.6949 C-171.2523,67.6629 -171.2363,67.6249 -171.2271,67.5808 C-171.2214,67.5522 -171.2185,67.5022 -171.2185,67.4306 L-171.2185,66.8703 L-171.373,66.8703 L-171.373,67.4246 C-171.373,67.4876 -171.379,67.5346 -171.391,67.5658 C-171.403,67.597 -171.4243,67.6219 -171.4549,67.6405 C-171.4855,67.6591 -171.5214,67.6683 -171.5626,67.6683 C-171.6284,67.6683 -171.6852,67.6475 -171.733,67.6057 C-171.7807,67.5639 -171.8046,67.4847 -171.8046,67.368 L-171.8046,66.8703 Z" style="fill:#dd0000;fill-rule:evenodd;0"/>
            <path d="M-183.941,64.9279 L-183.941,66.186 L-183.3832,66.186 C-183.2711,66.186 -183.1858,66.1747 -183.1275,66.1521 C-183.0691,66.1295 -183.0225,66.0896 -182.9876,66.0324 C-182.9527,65.9752 -182.9353,65.9119 -182.9353,65.8427 C-182.9353,65.7535 -182.9642,65.6782 -183.0219,65.617 C-183.0797,65.5558 -183.169,65.5169 -183.2897,65.5003 C-183.2456,65.4792 -183.2122,65.4583 -183.1893,65.4377 C-183.1407,65.3931 -183.0946,65.3373 -183.0511,65.2703 L-182.8323,64.9279 L-183.0417,64.9279 L-183.2082,65.1897 C-183.2568,65.2652 -183.2968,65.323 -183.3283,65.363 C-183.3598,65.4031 -183.3879,65.4311 -183.4128,65.4471 C-183.4377,65.4631 -183.463,65.4743 -183.4888,65.4806 C-183.5077,65.4846 -183.5385,65.4866 -183.5815,65.4866 L-183.7745,65.4866 L-183.7745,64.9279 Z M-183.7745,65.6308 L-183.4167,65.6308 C-183.3406,65.6308 -183.2811,65.6386 -183.2382,65.6544 C-183.1953,65.6701 -183.1627,65.6953 -183.1404,65.7299 C-183.1181,65.7645 -183.1069,65.8021 -183.1069,65.8427 C-183.1069,65.9022 -183.1285,65.9511 -183.1717,65.9895 C-183.2149,66.0278 -183.2831,66.047 -183.3764,66.047 L-183.7745,66.047 Z M-182.1001,65.0404 C-182.1573,64.9917 -182.2124,64.9574 -182.2653,64.9374 C-182.3182,64.9174 -182.375,64.9073 -182.4356,64.9073 C-182.5357,64.9073 -182.6127,64.9318 -182.6665,64.9807 C-182.7202,65.0296 -182.7471,65.0921 -182.7471,65.1682 C-182.7471,65.2128 -182.737,65.2536 -182.7167,65.2905 C-182.6963,65.3274 -182.6697,65.357 -182.6368,65.3793 C-182.604,65.4016 -182.5669,65.4185 -182.5257,65.43 C-182.4954,65.438 -182.4496,65.4457 -182.3884,65.4531 C-182.2637,65.468 -182.1719,65.4857 -182.113,65.5063 C-182.1124,65.5275 -182.1121,65.5409 -182.1121,65.5467 C-182.1121,65.6096 -182.1267,65.6539 -182.1559,65.6797 C-182.1953,65.7146 -182.254,65.732 -182.3318,65.732 C-182.4044,65.732 -182.4581,65.7193 -182.4927,65.6938 C-182.5273,65.6684 -182.5529,65.6233 -182.5695,65.5587 L-182.7205,65.5793 C-182.7068,65.6439 -182.6842,65.6961 -182.6527,65.7359 C-182.6213,65.7756 -182.5758,65.8062 -182.5163,65.8277 C-182.4568,65.8492 -182.3878,65.8599 -182.3095,65.8599 C-182.2317,65.8599 -182.1684,65.8507 -182.1198,65.8324 C-182.0712,65.8141 -182.0354,65.7911 -182.0126,65.7633 C-181.9897,65.7356 -181.9736,65.7006 -181.9645,65.6582 C-181.9593,65.6319 -181.9568,65.5844 -181.9568,65.5158 L-181.9568,65.3098 C-181.9568,65.1662 -181.9535,65.0754 -181.9469,65.0374 C-181.9403,64.9993 -181.9273,64.9628 -181.9079,64.9279 L-182.0692,64.9279 C-182.0852,64.96 -182.0955,64.9975 -182.1001,65.0404 M-182.113,65.3853 C-182.169,65.3624 -182.2531,65.343 -182.3652,65.327 C-182.4287,65.3178 -182.4737,65.3075 -182.5,65.2961 C-182.5263,65.2846 -182.5466,65.2679 -182.5609,65.2459 C-182.5752,65.2239 -182.5824,65.1994 -182.5824,65.1725 C-182.5824,65.1313 -182.5668,65.097 -182.5356,65.0695 C-182.5044,65.0421 -182.4588,65.0283 -182.3987,65.0283 C-182.3392,65.0283 -182.2863,65.0414 -182.24,65.0674 C-182.1936,65.0934 -182.1596,65.129 -182.1378,65.1742 C-182.1212,65.2091 -182.113,65.2606 -182.113,65.3287 Z M-181.7169,64.9279 L-181.7169,65.8393 L-181.5779,65.8393 L-181.5779,65.7097 C-181.511,65.8098 -181.4143,65.8599 -181.2879,65.8599 C-181.2329,65.8599 -181.1825,65.85 -181.1364,65.8303 C-181.0903,65.8105 -181.0559,65.7847 -181.033,65.7526 C-181.0101,65.7206 -180.9941,65.6825 -180.9849,65.6385 C-180.9792,65.6099 -180.9764,65.5598 -180.9764,65.4883 L-180.9764,64.9279 L-181.1308,64.9279 L-181.1308,65.4823 C-181.1308,65.5452 -181.1368,65.5923 -181.1488,65.6235 C-181.1609,65.6546 -181.1822,65.6795 -181.2128,65.6981 C-181.2434,65.7167 -181.2793,65.726 -181.3205,65.726 C-181.3863,65.726 -181.443,65.7051 -181.4908,65.6634 C-181.5386,65.6216 -181.5625,65.5424 -181.5625,65.4257 L-181.5625,64.9279 Z M-180.1478,64.9279 L-180.1478,65.0429 C-180.2056,64.9525 -180.2906,64.9073 -180.4027,64.9073 C-180.4754,64.9073 -180.5421,64.9274 -180.6031,64.9674 C-180.664,65.0075 -180.7112,65.0634 -180.7447,65.1352 C-180.7781,65.207 -180.7949,65.2895 -180.7949,65.3828 C-180.7949,65.4737 -180.7797,65.5562 -180.7494,65.6303 C-180.7191,65.7044 -180.6736,65.7612 -180.6129,65.8007 C-180.5523,65.8401 -180.4845,65.8599 -180.4096,65.8599 C-180.3546,65.8599 -180.3057,65.8483 -180.2628,65.8251 C-180.2199,65.802 -180.185,65.7718 -180.1581,65.7346 L-180.1581,66.186 L-180.0045,66.186 L-180.0045,64.9279 Z M-180.6361,65.3828 C-180.6361,65.266 -180.6115,65.1788 -180.5623,65.121 C-180.5131,65.0632 -180.455,65.0344 -180.3881,65.0344 C-180.3206,65.0344 -180.2632,65.062 -180.2161,65.1172 C-180.1689,65.1724 -180.1453,65.2566 -180.1453,65.3699 C-180.1453,65.4946 -180.1693,65.5861 -180.2173,65.6445 C-180.2654,65.7028 -180.3246,65.732 -180.395,65.732 C-180.4636,65.732 -180.521,65.704 -180.567,65.6479 C-180.6131,65.5919 -180.6361,65.5035 -180.6361,65.3828 M-179.8187,65.3836 C-179.8187,65.5524 -179.7718,65.6774 -179.678,65.7586 C-179.5996,65.8261 -179.5041,65.8599 -179.3914,65.8599 C-179.2661,65.8599 -179.1637,65.8188 -179.0842,65.7367 C-179.0047,65.6546 -178.9649,65.5412 -178.9649,65.3965 C-178.9649,65.2792 -178.9825,65.187 -179.0177,65.1197 C-179.0529,65.0525 -179.1041,65.0003 -179.1713,64.9631 C-179.2385,64.9259 -179.3119,64.9073 -179.3914,64.9073 C-179.519,64.9073 -179.6221,64.9483 -179.7007,65.0301 C-179.7794,65.1119 -179.8187,65.2297 -179.8187,65.3836 M-179.66,65.3836 C-179.66,65.2669 -179.6345,65.1795 -179.5836,65.1215 C-179.5327,65.0634 -179.4686,65.0344 -179.3914,65.0344 C-179.3147,65.0344 -179.2509,65.0635 -179.2,65.1219 C-179.1491,65.1802 -179.1236,65.2692 -179.1236,65.3888 C-179.1236,65.5015 -179.1492,65.5869 -179.2005,65.6449 C-179.2517,65.703 -179.3153,65.732 -179.3914,65.732 C-179.4686,65.732 -179.5327,65.7031 -179.5836,65.6453 C-179.6345,65.5876 -179.66,65.5003 -179.66,65.3836 M-178.7834,64.9279 L-178.7834,65.8393 L-178.6452,65.8393 L-178.6452,65.7114 C-178.6166,65.756 -178.5786,65.7919 -178.5311,65.8191 C-178.4836,65.8463 -178.4296,65.8599 -178.3689,65.8599 C-178.3014,65.8599 -178.2461,65.8459 -178.2029,65.8178 C-178.1597,65.7898 -178.1292,65.7506 -178.1115,65.7003 C-178.0394,65.8067 -177.9456,65.8599 -177.83,65.8599 C-177.7396,65.8599 -177.6701,65.8349 -177.6215,65.7848 C-177.5729,65.7347 -177.5485,65.6576 -177.5485,65.5535 L-177.5485,64.9279 L-177.7021,64.9279 L-177.7021,65.502 C-177.7021,65.5638 -177.7072,65.6083 -177.7172,65.6355 C-177.7272,65.6627 -177.7453,65.6845 -177.7717,65.7011 C-177.798,65.7177 -177.8289,65.726 -177.8643,65.726 C-177.9284,65.726 -177.9816,65.7047 -178.0239,65.6621 C-178.0663,65.6195 -178.0875,65.5512 -178.0875,65.4574 L-178.0875,64.9279 L-178.2419,64.9279 L-178.2419,65.5201 C-178.2419,65.5887 -178.2545,65.6402 -178.2797,65.6745 C-178.3048,65.7088 -178.346,65.726 -178.4032,65.726 C-178.4467,65.726 -178.4869,65.7146 -178.5238,65.6917 C-178.5607,65.6688 -178.5875,65.6353 -178.6041,65.5913 C-178.6206,65.5472 -178.6289,65.4837 -178.6289,65.4008 L-178.6289,64.9279 Z M-176.8312,64.9279 L-176.8312,66.186 L-176.6767,66.186 L-176.6767,64.9279 Z M-176.4304,66.0083 L-176.4304,66.186 L-176.276,66.186 L-176.276,66.0083 Z M-176.4304,64.9279 L-176.4304,65.8393 L-176.276,65.8393 L-176.276,64.9279 Z M-176.0349,64.9279 L-176.0349,65.8393 L-175.8959,65.8393 L-175.8959,65.7097 C-175.8289,65.8098 -175.7322,65.8599 -175.6058,65.8599 C-175.5509,65.8599 -175.5004,65.85 -175.4543,65.8303 C-175.4083,65.8105 -175.3738,65.7847 -175.3509,65.7526 C-175.3281,65.7206 -175.312,65.6825 -175.3029,65.6385 C-175.2972,65.6099 -175.2943,65.5598 -175.2943,65.4883 L-175.2943,64.9279 L-175.4488,64.9279 L-175.4488,65.4823 C-175.4488,65.5452 -175.4548,65.5923 -175.4668,65.6235 C-175.4788,65.6546 -175.5001,65.6795 -175.5307,65.6981 C-175.5613,65.7167 -175.5972,65.726 -175.6384,65.726 C-175.7042,65.726 -175.761,65.7051 -175.8088,65.6634 C-175.8565,65.6216 -175.8804,65.5424 -175.8804,65.4257 L-175.8804,64.9279 Z M-174.4332,65.2214 L-174.2735,65.2017 C-174.2987,65.1084 -174.3453,65.0361 -174.4134,64.9846 C-174.4815,64.9331 -174.5685,64.9073 -174.6743,64.9073 C-174.8076,64.9073 -174.9133,64.9484 -174.9914,65.0305 C-175.0695,65.1126 -175.1085,65.2277 -175.1085,65.3759 C-175.1085,65.5292 -175.069,65.6482 -174.9901,65.7329 C-174.9111,65.8175 -174.8087,65.8599 -174.6829,65.8599 C-174.561,65.8599 -174.4615,65.8184 -174.3842,65.7355 C-174.307,65.6525 -174.2684,65.5358 -174.2684,65.3853 C-174.2684,65.3762 -174.2687,65.3624 -174.2693,65.3441 L-174.9489,65.3441 C-174.9432,65.244 -174.9149,65.1674 -174.864,65.1142 C-174.813,65.061 -174.7495,65.0344 -174.6734,65.0344 C-174.6168,65.0344 -174.5685,65.0492 -174.5284,65.079 C-174.4884,65.1087 -174.4566,65.1562 -174.4332,65.2214 M-174.9403,65.4711 L-174.4314,65.4711 C-174.4383,65.5478 -174.4578,65.6053 -174.4898,65.6436 C-174.539,65.7031 -174.6028,65.7329 -174.6812,65.7329 C-174.7521,65.7329 -174.8117,65.7091 -174.8601,65.6617 C-174.9084,65.6142 -174.9352,65.5507 -174.9403,65.4711 M-174.141,65.2 L-173.9882,65.224 C-173.9796,65.1628 -173.9558,65.1159 -173.9166,65.0833 C-173.8774,65.0507 -173.8226,65.0344 -173.7522,65.0344 C-173.6813,65.0344 -173.6287,65.0488 -173.5943,65.0777 C-173.56,65.1066 -173.5429,65.1405 -173.5429,65.1794 C-173.5429,65.2143 -173.558,65.2417 -173.5883,65.2618 C-173.6095,65.2755 -173.6621,65.2929 -173.7462,65.3141 C-173.8595,65.3427 -173.938,65.3675 -173.9818,65.3883 C-174.0256,65.4092 -174.0587,65.4381 -174.0813,65.475 C-174.1039,65.5119 -174.1152,65.5527 -174.1152,65.5973 C-174.1152,65.6379 -174.1059,65.6755 -174.0873,65.7101 C-174.0687,65.7447 -174.0434,65.7735 -174.0114,65.7964 C-173.9874,65.8141 -173.9546,65.8291 -173.9131,65.8414 C-173.8717,65.8537 -173.8272,65.8599 -173.7797,65.8599 C-173.7082,65.8599 -173.6454,65.8496 -173.5913,65.829 C-173.5373,65.8084 -173.4974,65.7805 -173.4716,65.7453 C-173.4459,65.7101 -173.4281,65.6631 -173.4184,65.6042 L-173.5695,65.5836 C-173.5763,65.6305 -173.5962,65.6671 -173.6291,65.6934 C-173.662,65.7197 -173.7085,65.7329 -173.7685,65.7329 C-173.8395,65.7329 -173.8901,65.7211 -173.9204,65.6977 C-173.9508,65.6742 -173.9659,65.6468 -173.9659,65.6153 C-173.9659,65.5953 -173.9596,65.5773 -173.947,65.5612 C-173.9345,65.5447 -173.9147,65.5309 -173.8878,65.5201 C-173.8724,65.5143 -173.8269,65.5012 -173.7514,65.4806 C-173.6421,65.4514 -173.5659,65.4275 -173.5227,65.4089 C-173.4795,65.3903 -173.4456,65.3633 -173.421,65.3278 C-173.3964,65.2924 -173.3841,65.2483 -173.3841,65.1957 C-173.3841,65.1442 -173.3991,65.0957 -173.4291,65.0502 C-173.4592,65.0047 -173.5025,64.9696 -173.5592,64.9447 C-173.6158,64.9198 -173.6799,64.9073 -173.7514,64.9073 C-173.8698,64.9073 -173.9601,64.9319 -174.0221,64.9811 C-174.0842,65.0303 -174.1238,65.1033 -174.141,65.2 M-172.1102,65.0404 C-172.1674,64.9917 -172.2225,64.9574 -172.2754,64.9374 C-172.3283,64.9174 -172.3851,64.9073 -172.4458,64.9073 C-172.5459,64.9073 -172.6228,64.9318 -172.6766,64.9807 C-172.7304,65.0296 -172.7573,65.0921 -172.7573,65.1682 C-172.7573,65.2128 -172.7471,65.2536 -172.7268,65.2905 C-172.7065,65.3274 -172.6799,65.357 -172.647,65.3793 C-172.6141,65.4016 -172.5771,65.4185 -172.5359,65.43 C-172.5056,65.438 -172.4598,65.4457 -172.3986,65.4531 C-172.2739,65.468 -172.182,65.4857 -172.1231,65.5063 C-172.1225,65.5275 -172.1222,65.5409 -172.1222,65.5467 C-172.1222,65.6096 -172.1368,65.6539 -172.166,65.6797 C-172.2055,65.7146 -172.2641,65.732 -172.3419,65.732 C-172.4146,65.732 -172.4682,65.7193 -172.5028,65.6938 C-172.5374,65.6684 -172.563,65.6233 -172.5796,65.5587 L-172.7307,65.5793 C-172.7169,65.6439 -172.6943,65.6961 -172.6629,65.7359 C-172.6314,65.7756 -172.5859,65.8062 -172.5264,65.8277 C-172.4669,65.8492 -172.398,65.8599 -172.3196,65.8599 C-172.2418,65.8599 -172.1786,65.8507 -172.13,65.8324 C-172.0813,65.8141 -172.0456,65.7911 -172.0227,65.7633 C-171.9998,65.7356 -171.9838,65.7006 -171.9746,65.6582 C-171.9695,65.6319 -171.9669,65.5844 -171.9669,65.5158 L-171.9669,65.3098 C-171.9669,65.1662 -171.9636,65.0754 -171.9571,65.0374 C-171.9505,64.9993 -171.9375,64.9628 -171.918,64.9279 L-172.0793,64.9279 C-172.0954,64.96 -172.1057,64.9975 -172.1102,65.0404 M-172.1231,65.3853 C-172.1792,65.3624 -172.2633,65.343 -172.3754,65.327 C-172.4389,65.3178 -172.4838,65.3075 -172.5101,65.2961 C-172.5364,65.2846 -172.5568,65.2679 -172.5711,65.2459 C-172.5854,65.2239 -172.5925,65.1994 -172.5925,65.1725 C-172.5925,65.1313 -172.5769,65.097 -172.5457,65.0695 C-172.5146,65.0421 -172.4689,65.0283 -172.4089,65.0283 C-172.3494,65.0283 -172.2965,65.0414 -172.2501,65.0674 C-172.2038,65.0934 -172.1697,65.129 -172.148,65.1742 C-172.1314,65.2091 -172.1231,65.2606 -172.1231,65.3287 Z M-171.1358,64.9279 L-171.1358,65.0429 C-171.1936,64.9525 -171.2786,64.9073 -171.3907,64.9073 C-171.4633,64.9073 -171.5301,64.9274 -171.5911,64.9674 C-171.652,65.0075 -171.6992,65.0634 -171.7327,65.1352 C-171.7661,65.207 -171.7829,65.2895 -171.7829,65.3828 C-171.7829,65.4737 -171.7677,65.5562 -171.7374,65.6303 C-171.7071,65.7044 -171.6616,65.7612 -171.6009,65.8007 C-171.5403,65.8401 -171.4725,65.8599 -171.3976,65.8599 C-171.3426,65.8599 -171.2937,65.8483 -171.2508,65.8251 C-171.2079,65.802 -171.173,65.7718 -171.1461,65.7346 L-171.1461,66.186 L-170.9925,66.186 L-170.9925,64.9279 Z M-171.6241,65.3828 C-171.6241,65.266 -171.5995,65.1788 -171.5503,65.121 C-171.5011,65.0632 -171.443,65.0344 -171.3761,65.0344 C-171.3086,65.0344 -171.2512,65.062 -171.204,65.1172 C-171.1568,65.1724 -171.1332,65.2566 -171.1332,65.3699 C-171.1332,65.4946 -171.1573,65.5861 -171.2053,65.6445 C-171.2534,65.7028 -171.3126,65.732 -171.383,65.732 C-171.4516,65.732 -171.509,65.704 -171.555,65.6479 C-171.6011,65.5919 -171.6241,65.5035 -171.6241,65.3828 M-170.158,64.9279 L-170.158,65.0429 C-170.2158,64.9525 -170.3007,64.9073 -170.4128,64.9073 C-170.4855,64.9073 -170.5523,64.9274 -170.6132,64.9674 C-170.6742,65.0075 -170.7214,65.0634 -170.7548,65.1352 C-170.7883,65.207 -170.805,65.2895 -170.805,65.3828 C-170.805,65.4737 -170.7899,65.5562 -170.7595,65.6303 C-170.7292,65.7044 -170.6837,65.7612 -170.6231,65.8007 C-170.5625,65.8401 -170.4947,65.8599 -170.4197,65.8599 C-170.3648,65.8599 -170.3159,65.8483 -170.273,65.8251 C-170.2301,65.802 -170.1952,65.7718 -170.1683,65.7346 L-170.1683,66.186 L-170.0147,66.186 L-170.0147,64.9279 Z M-170.6463,65.3828 C-170.6463,65.266 -170.6217,65.1788 -170.5725,65.121 C-170.5233,65.0632 -170.4652,65.0344 -170.3983,65.0344 C-170.3308,65.0344 -170.2734,65.062 -170.2262,65.1172 C-170.179,65.1724 -170.1554,65.2566 -170.1554,65.3699 C-170.1554,65.4946 -170.1794,65.5861 -170.2275,65.6445 C-170.2755,65.7028 -170.3348,65.732 -170.4051,65.732 C-170.4738,65.732 -170.5311,65.704 -170.5772,65.6479 C-170.6232,65.5919 -170.6463,65.5035 -170.6463,65.3828 M-169.1475,65.2214 L-168.9879,65.2017 C-169.0131,65.1084 -169.0597,65.0361 -169.1278,64.9846 C-169.1959,64.9331 -169.2828,64.9073 -169.3887,64.9073 C-169.522,64.9073 -169.6277,64.9484 -169.7058,65.0305 C-169.7838,65.1126 -169.8229,65.2277 -169.8229,65.3759 C-169.8229,65.5292 -169.7834,65.6482 -169.7045,65.7329 C-169.6255,65.8175 -169.5231,65.8599 -169.3972,65.8599 C-169.2754,65.8599 -169.1758,65.8184 -169.0986,65.7355 C-169.0214,65.6525 -168.9828,65.5358 -168.9828,65.3853 C-168.9828,65.3762 -168.9831,65.3624 -168.9836,65.3441 L-169.6633,65.3441 C-169.6576,65.244 -169.6292,65.1674 -169.5783,65.1142 C-169.5274,65.061 -169.4639,65.0344 -169.3878,65.0344 C-169.3312,65.0344 -169.2828,65.0492 -169.2428,65.079 C-169.2027,65.1087 -169.171,65.1562 -169.1475,65.2214 M-169.6547,65.4711 L-169.1458,65.4711 C-169.1527,65.5478 -169.1721,65.6053 -169.2042,65.6436 C-169.2534,65.7031 -169.3172,65.7329 -169.3955,65.7329 C-169.4665,65.7329 -169.5261,65.7091 -169.5745,65.6617 C-169.6228,65.6142 -169.6495,65.5507 -169.6547,65.4711 M-168.2023,64.9279 L-168.2023,65.0429 C-168.2601,64.9525 -168.345,64.9073 -168.4572,64.9073 C-168.5298,64.9073 -168.5966,64.9274 -168.6575,64.9674 C-168.7185,65.0075 -168.7657,65.0634 -168.7991,65.1352 C-168.8326,65.207 -168.8493,65.2895 -168.8493,65.3828 C-168.8493,65.4737 -168.8342,65.5562 -168.8039,65.6303 C-168.7735,65.7044 -168.7281,65.7612 -168.6674,65.8007 C-168.6068,65.8401 -168.539,65.8599 -168.464,65.8599 C-168.4091,65.8599 -168.3602,65.8483 -168.3173,65.8251 C-168.2744,65.802 -168.2395,65.7718 -168.2126,65.7346 L-168.2126,66.186 L-168.059,66.186 L-168.059,64.9279 Z M-168.6906,65.3828 C-168.6906,65.266 -168.666,65.1788 -168.6168,65.121 C-168.5676,65.0632 -168.5095,65.0344 -168.4426,65.0344 C-168.3751,65.0344 -168.3177,65.062 -168.2705,65.1172 C-168.2233,65.1724 -168.1997,65.2566 -168.1997,65.3699 C-168.1997,65.4946 -168.2238,65.5861 -168.2718,65.6445 C-168.3199,65.7028 -168.3791,65.732 -168.4494,65.732 C-168.5181,65.732 -168.5754,65.704 -168.6215,65.6479 C-168.6676,65.5919 -168.6906,65.5035 -168.6906,65.3828" style="fill:#dd0000;fill-rule:evenodd;0"/>
        </g>
        <!-- Line -->
        <path d="M-49.0329,50.4885 L-315.0261,95.6003 " style="stroke:#000000;stroke-width:0;"/>
        <!-- Line -->
        <path d="M-21.3054,103.311 L-29.9166,25.7344 " style="stroke:#000000;stroke-width:0;"/>
        <!-- Line -->
        <path d="M-13.7898,71.1049 L-63.609,113.0744 " style="stroke:#000000;stroke-width:0;"/>
    </g>
</svg>
