0
SECTION
2
HEADER
9
$INSUNITS
70
4
9
$ACADVER
1
AC1014
9
$HANDSEED
5
FFFF
0
ENDSEC
0
SECTION
2
TABLES
0
TABLE
2
VPORT
5
8
100
AcDbSymbolTable
0
ENDTAB
0
TABLE
2
LTYPE
5
5
100
AcDbSymbolTable
0
LTYPE
5
14
100
AcDbSymbolTableRecord
100
AcDbLinetypeTableRecord
2
BYBLOCK
70
0
0
LTYPE
5
15
100
AcDbSymbolTableRecord
100
AcDbLinetypeTableRecord
2
BYLAYER
70
0
0
ENDTAB
0
TABLE
2
LAYER
5
2
100
AcDbSymbolTable
70
2
0
LAYER
5
50
100
AcDbSymbolTableRecord
100
AcDbLayerTableRecord
2
0
70
0
6
CONTINUOUS
0
ENDTAB
0
TABLE
2
STYLE
5
3
100
AcDbSymbolTable
70
1
0
STYLE
5
11
100
AcDbSymbolTableRecord
100
AcDbTextStyleTableRecord
2
STANDARD
70
0
0
ENDTAB
0
TABLE
2
VIEW
5
6
100
AcDbSymbolTable
70
0
0
ENDTAB
0
TABLE
2
UCS
5
7
100
AcDbSymbolTable
70
0
0
ENDTAB
0
TABLE
2
APPID
5
9
100
AcDbSymbolTable
70
2
0
APPID
5
12
100
AcDbSymbolTableRecord
100
AcDbRegAppTableRecord
2
ACAD
70
0
0
ENDTAB
0
TABLE
2
DIMSTYLE
5
A
100
AcDbSymbolTable
70
1
0
ENDTAB
0
TABLE
2
BLOCK_RECORD
5
1
100
AcDbSymbolTable
70
1
0
BLOCK_RECORD
5
1F
100
AcDbSymbolTableRecord
100
AcDbBlockTableRecord
2
*MODEL_SPACE
0
BLOCK_RECORD
5
1B
100
AcDbSymbolTableRecord
100
AcDbBlockTableRecord
2
*PAPER_SPACE
0
ENDTAB
0
ENDSEC
0
SECTION
2
BLOCKS
0
BLOCK
5
20
100
AcDbEntity
100
AcDbBlockBegin
2
*MODEL_SPACE
0
ENDBLK
5
21
100
AcDbEntity
100
AcDbBlockEnd
0
BLOCK
5
1C
100
AcDbEntity
100
AcDbBlockBegin
2
*PAPER_SPACE
0
ENDBLK
5
1D
100
AcDbEntity
100
AcDbBlockEnd
0
ENDSEC
0
SECTION
2
ENTITIES
0
CIRCLE
5
100
100
AcDbEntity
8
0
100
AcDbCircle
10
-304.65974947351265
20
14.200854348386688
30
0
40
1.2749999999999773
210
0
220
0
230
1
0
CIRCLE
5
101
100
AcDbEntity
8
0
100
AcDbCircle
10
-175.94985938778748
20
14.200995696422536
30
0
40
1.2750000000000128
210
0
220
0
230
1
0
CIRCLE
5
102
100
AcDbEntity
8
0
100
AcDbCircle
10
-175.95031393609651
20
120.74976460415714
30
0
40
1.2750000000000128
210
0
220
0
230
1
0
LWPOLYLINE
5
103
100
AcDbEntity
8
0
100
AcDbPolyline
90
25
70
1
43
0.0
10
-310.98377511116746
20
11.872920159618802
10
-310.98378639806873
20
11.87681681384954
42
-0.41421417235648544
10
-311.98378848068182
20
12.876816813847343
10
-311.98378848068199
20
15.524893355556008
42
-0.41421356237312168
10
-310.98378848068199
20
16.524893355556042
10
-20.950435640825454
20
16.524893355553939
42
0.41421355628113887
10
-16.524999362920592
20
20.950329541413097
10
-16.52499742646804
20
114.04999903490618
42
0.41421356846520241
10
-20.949998299522932
20
118.47500000000002
10
-330.9497301556101
20
118.47499999999999
42
0.41421164526911108
10
-335.37369062060151
20
114.05106849153495
10
-335.37429997909754
20
20.953953098727453
42
0.41420964804598709
10
-330.95503196624725
20
16.53456817179616
10
-325.3485814086099
20
16.534456548632477
42
-0.41419902284570437
10
-324.3486013188259
20
15.534486280363534
10
-324.34852106604535
20
12.835238283869943
42
-0.33581839243161321
10
-325.07708547587754
20
11.872751945195649
10
-333.95283992095221
20
11.872646006287372
42
-0.4142170582816877
10
-338.02788855918948
20
15.947646005997083
10
-338.02788855918948
20
118.94764593941798
42
-0.41421007130660148
10
-333.95293713017912
20
123.02264593912855
10
-17.948261167851811
20
123.02641248142145
42
-0.4141225831012087
10
-13.873212808843146
20
118.9527268807477
10
-13.83998996212684
20
15.952732558734262
42
-0.41430454266446987
10
-17.91494111190854
20
11.876418159987738
0
CIRCLE
5
104
100
AcDbEntity
8
0
100
AcDbCircle
10
-334.65999955445864
20
119.65474850649673
30
0
40
1.2750000000000483
210
0
220
0
230
1
0
CIRCLE
5
105
100
AcDbEntity
8
0
100
AcDbCircle
10
-17.241224078982039
20
119.65863750642782
30
0
40
1.274999999999995
210
0
220
0
230
1
0
CIRCLE
5
106
100
AcDbEntity
8
0
100
AcDbCircle
10
-334.6599911204338
20
15.240535004893337
30
0
40
1.2749999999999773
210
0
220
0
230
1
0
CIRCLE
5
107
100
AcDbEntity
8
0
100
AcDbCircle
10
-17.207764719595495
20
15.244429647652897
30
0
40
1.2749999999999995
210
0
220
0
230
1
0
ENDSEC
0
SECTION
2
OBJECTS
0
DICTIONARY
5
C
100
AcDbDictionary
3
ACAD_GROUP
350
D
3
ACAD_MLINESTYLE
350
17
0
DICTIONARY
5
D
100
AcDbDictionary
0
DICTIONARY
5
1A
330
C
100
AcDbDictionary
0
DICTIONARY
5
17
100
AcDbDictionary
0
ENDSEC
0
EOF
