0
SECTION
2
HEADER
9
$INSUNITS
70
4
9
$ACADVER
1
AC1014
9
$HANDSEED
5
FFFF
0
ENDSEC
0
SECTION
2
TABLES
0
TABLE
2
VPORT
5
8
100
AcDbSymbolTable
0
ENDTAB
0
TABLE
2
LTYPE
5
5
100
AcDbSymbolTable
0
LTYPE
5
14
100
AcDbSymbolTableRecord
100
AcDbLinetypeTableRecord
2
BYBLOCK
70
0
0
LTYPE
5
15
100
AcDbSymbolTableRecord
100
AcDbLinetypeTableRecord
2
BYLAYER
70
0
0
ENDTAB
0
TABLE
2
LAYER
5
2
100
AcDbSymbolTable
70
2
0
LAYER
5
50
100
AcDbSymbolTableRecord
100
AcDbLayerTableRecord
2
0
70
0
6
CONTINUOUS
0
ENDTAB
0
TABLE
2
STYLE
5
3
100
AcDbSymbolTable
70
1
0
STYLE
5
11
100
AcDbSymbolTableRecord
100
AcDbTextStyleTableRecord
2
STANDARD
70
0
0
ENDTAB
0
TABLE
2
VIEW
5
6
100
AcDbSymbolTable
70
0
0
ENDTAB
0
TABLE
2
UCS
5
7
100
AcDbSymbolTable
70
0
0
ENDTAB
0
TABLE
2
APPID
5
9
100
AcDbSymbolTable
70
2
0
APPID
5
12
100
AcDbSymbolTableRecord
100
AcDbRegAppTableRecord
2
ACAD
70
0
0
ENDTAB
0
TABLE
2
DIMSTYLE
5
A
100
AcDbSymbolTable
70
1
0
ENDTAB
0
TABLE
2
BLOCK_RECORD
5
1
100
AcDbSymbolTable
70
1
0
BLOCK_RECORD
5
1F
100
AcDbSymbolTableRecord
100
AcDbBlockTableRecord
2
*MODEL_SPACE
0
BLOCK_RECORD
5
1B
100
AcDbSymbolTableRecord
100
AcDbBlockTableRecord
2
*PAPER_SPACE
0
ENDTAB
0
ENDSEC
0
SECTION
2
BLOCKS
0
BLOCK
5
20
100
AcDbEntity
100
AcDbBlockBegin
2
*MODEL_SPACE
0
ENDBLK
5
21
100
AcDbEntity
100
AcDbBlockEnd
0
BLOCK
5
1C
100
AcDbEntity
100
AcDbBlockBegin
2
*PAPER_SPACE
0
ENDBLK
5
1D
100
AcDbEntity
100
AcDbBlockEnd
0
ENDSEC
0
SECTION
2
ENTITIES
0
CIRCLE
5
100
100
AcDbEntity
8
0
100
AcDbCircle
10
-304.65974947351265
20
14.200854348386688
30
0
40
1.2749999999999773
210
0
220
0
230
1
0
CIRCLE
5
101
100
AcDbEntity
8
0
100
AcDbCircle
10
-175.94985938778748
20
14.200995696422536
30
0
40
1.2750000000000128
210
0
220
0
230
1
0
CIRCLE
5
102
100
AcDbEntity
8
0
100
AcDbCircle
10
-175.95031393609651
20
120.74976460415714
30
0
40
1.2750000000000128
210
0
220
0
230
1
0
LWPOLYLINE
5
103
100
AcDbEntity
8
0
100
AcDbPolyline
90
4
70
1
43
0.0
10
-127.33950000000002
20
41.609200000000001
10
-127.33950000000002
20
55.534199999999998
10
-141.26450000000003
20
55.534199999999998
10
-141.26450000000003
20
41.609200000000001
0
LWPOLYLINE
5
104
100
AcDbEntity
8
0
100
AcDbPolyline
90
4
70
1
43
0.0
10
-165.44049999999999
20
41.609200000000001
10
-165.44049999999999
20
55.534199999999998
10
-179.3655
20
55.534199999999998
10
-179.3655
20
41.609200000000001
0
LWPOLYLINE
5
105
100
AcDbEntity
8
0
100
AcDbPolyline
90
4
70
1
43
0.0
10
-203.5395
20
41.609200000000001
10
-203.5395
20
55.534199999999998
10
-217.46450000000004
20
55.534199999999998
10
-217.46450000000004
20
41.609200000000001
0
LWPOLYLINE
5
106
100
AcDbEntity
8
0
100
AcDbPolyline
90
4
70
1
43
0.0
10
-329.40300000000008
20
66.347300000000018
10
-329.40300000000008
20
53.24730000000001
10
-315.90300000000002
20
53.24730000000001
10
-315.90300000000002
20
66.347300000000018
0
LWPOLYLINE
5
107
100
AcDbEntity
8
0
100
AcDbPolyline
90
4
70
1
43
0.0
10
-222.23050000000001
20
74.58420000000001
10
-222.23050000000001
20
60.659199999999998
10
-208.30550000000002
20
60.659199999999998
10
-208.30550000000002
20
74.58420000000001
0
LWPOLYLINE
5
108
100
AcDbEntity
8
0
100
AcDbPolyline
90
4
70
1
43
0.0
10
-89.240000000000009
20
41.609200000000001
10
-89.240000000000009
20
55.534199999999998
10
-103.16549999999999
20
55.534199999999998
10
-103.16549999999999
20
41.609200000000001
0
LWPOLYLINE
5
109
100
AcDbEntity
8
0
100
AcDbPolyline
90
4
70
1
43
0.0
10
-260.33049999999997
20
74.58420000000001
10
-260.33049999999997
20
60.659199999999998
10
-246.40550000000002
20
60.659199999999998
10
-246.40550000000002
20
74.58420000000001
0
LWPOLYLINE
5
110
100
AcDbEntity
8
0
100
AcDbPolyline
90
4
70
1
43
0.0
10
-184.13050000000001
20
74.58420000000001
10
-184.13050000000001
20
60.659199999999998
10
-170.2055
20
60.659199999999998
10
-170.2055
20
74.58420000000001
0
LWPOLYLINE
5
111
100
AcDbEntity
8
0
100
AcDbPolyline
90
4
70
1
43
0.0
10
-298.43449999999996
20
55.549199999999999
10
-298.43449999999996
20
41.624200000000002
10
-284.5095
20
41.624200000000002
10
-284.5095
20
55.549199999999999
0
LWPOLYLINE
5
112
100
AcDbEntity
8
0
100
AcDbPolyline
90
4
70
1
43
0.0
10
-241.63950000000003
20
41.609200000000001
10
-241.63950000000003
20
55.534199999999998
10
-255.56450000000001
20
55.534199999999998
10
-255.56450000000001
20
41.609200000000001
0
LWPOLYLINE
5
113
100
AcDbEntity
8
0
100
AcDbPolyline
90
4
70
1
43
0.0
10
-29.702400000000004
20
60.6693
10
-29.702400000000004
20
74.594300000000004
10
-43.627400000000009
20
74.594300000000004
10
-43.627400000000009
20
60.6693
0
LWPOLYLINE
5
114
100
AcDbEntity
8
0
100
AcDbPolyline
90
4
70
1
43
0.0
10
-276.99250000000001
20
112.67950000000002
10
-276.99250000000001
20
98.754100000000008
10
-263.0675
20
98.754100000000008
10
-263.0675
20
112.67950000000002
0
LWPOLYLINE
5
115
100
AcDbEntity
8
0
100
AcDbPolyline
90
4
70
1
43
0.0
10
-86.535600000000002
20
112.67950000000002
10
-86.535600000000002
20
98.754100000000008
10
-72.610600000000005
20
98.754100000000008
10
-72.610600000000005
20
112.67950000000002
0
LWPOLYLINE
5
116
100
AcDbEntity
8
0
100
AcDbPolyline
90
4
70
1
43
0.0
10
-329.35149999999999
20
112.68450000000001
10
-329.35149999999999
20
98.759200000000007
10
-315.42650000000003
20
98.759200000000007
10
-315.42650000000003
20
112.68450000000001
0
LWPOLYLINE
5
117
100
AcDbEntity
8
0
100
AcDbPolyline
90
4
70
1
43
0.0
10
-69.830000000000013
20
74.58420000000001
10
-69.830000000000013
20
60.659199999999998
10
-55.905000000000001
20
60.659199999999998
10
-55.905000000000001
20
74.58420000000001
0
CIRCLE
5
118
100
AcDbEntity
8
0
100
AcDbCircle
10
-334.65999955445864
20
119.65474850649676
30
0
40
1.2750000000000483
210
0
220
0
230
1
0
LWPOLYLINE
5
119
100
AcDbEntity
8
0
100
AcDbPolyline
90
4
70
1
43
0.0
10
-88.879999999999995
20
74.58420000000001
10
-88.879999999999995
20
60.659199999999998
10
-74.955000000000013
20
60.659199999999998
10
-74.955000000000013
20
74.58420000000001
0
LWPOLYLINE
5
120
100
AcDbEntity
8
0
100
AcDbPolyline
90
4
70
1
43
0.0
10
-146.03049999999999
20
74.58420000000001
10
-146.03049999999999
20
60.659199999999998
10
-132.10550000000001
20
60.659199999999998
10
-132.10550000000001
20
74.58420000000001
0
LWPOLYLINE
5
121
100
AcDbEntity
8
0
100
AcDbPolyline
90
4
70
1
43
0.0
10
-48.782899999999998
20
98.754100000000008
10
-48.782899999999998
20
112.67950000000002
10
-62.707899999999995
20
112.67950000000002
10
-62.707899999999995
20
98.754100000000008
0
LWPOLYLINE
5
122
100
AcDbEntity
8
0
100
AcDbPolyline
90
4
70
1
43
0.0
10
-229.41550000000004
20
112.6585
10
-229.41550000000004
20
98.733800000000002
10
-215.4905
20
98.733800000000002
10
-215.4905
20
112.6585
0
LWPOLYLINE
5
123
100
AcDbEntity
8
0
100
AcDbPolyline
90
4
70
1
43
0.0
10
-107.93049999999999
20
74.58420000000001
10
-107.93049999999999
20
60.659199999999998
10
-94.00500000000001
20
60.659199999999998
10
-94.00500000000001
20
74.58420000000001
0
LWPOLYLINE
5
124
100
AcDbEntity
8
0
100
AcDbPolyline
90
4
70
1
43
0.0
10
-126.98049999999998
20
74.58420000000001
10
-126.98049999999998
20
60.659199999999998
10
-113.05549999999999
20
60.659199999999998
10
-113.05549999999999
20
74.58420000000001
0
LWPOLYLINE
5
125
100
AcDbEntity
8
0
100
AcDbPolyline
90
4
70
1
43
0.0
10
-300.79749999999996
20
112.67950000000002
10
-300.79749999999996
20
98.754100000000008
10
-286.8725
20
98.754100000000008
10
-286.8725
20
112.67950000000002
0
CIRCLE
5
126
100
AcDbEntity
8
0
100
AcDbCircle
10
-334.6599911204338
20
15.240535004893355
30
0
40
1.2749999999999773
210
0
220
0
230
1
0
LWPOLYLINE
5
127
100
AcDbEntity
8
0
100
AcDbPolyline
90
4
70
1
43
0.0
10
-165.0805
20
74.58420000000001
10
-165.0805
20
60.659199999999998
10
-151.15550000000002
20
60.659199999999998
10
-151.15550000000002
20
74.58420000000001
0
LWPOLYLINE
5
128
100
AcDbEntity
8
0
100
AcDbPolyline
90
44
70
1
43
0.0
10
-102.63660000000004
20
112.44382999999999
10
-104.36160000000004
20
112.44382999999999
10
-104.36160000000004
20
107.97345999999999
10
-144.06060000000002
20
107.97345999999999
10
-144.06060000000002
20
112.67398000000001
10
-157.98660000000004
20
112.67398000000001
10
-157.98660000000004
20
107.97345999999999
10
-197.68590000000003
20
107.97345999999999
10
-197.68590000000003
20
112.44382999999999
10
-199.41100000000006
20
112.44382999999999
10
-199.41100000000006
20
113.42501
10
-202.63630000000006
20
113.42501
10
-202.63630000000006
20
112.44382999999999
10
-204.36170000000004
20
112.44382999999999
10
-204.36170000000004
20
106.17376
10
-205.18580000000003
20
106.17376
10
-205.18580000000003
20
103.44875999999999
10
-204.36170000000004
20
103.44875999999999
10
-204.36170000000004
20
100.22005999999999
10
-202.63630000000006
20
100.22005999999999
10
-202.63630000000006
20
99.299459999999996
10
-199.41100000000006
20
99.299459999999996
10
-199.41100000000006
20
100.22005999999999
10
-197.68590000000003
20
100.22005999999999
10
-197.68590000000003
20
103.44875999999999
10
-157.98660000000004
20
103.44875999999999
10
-157.98660000000004
20
98.749659999999992
10
-144.06060000000002
20
98.749659999999992
10
-144.06060000000002
20
103.44875999999999
10
-104.36160000000004
20
103.44875999999999
10
-104.36160000000004
20
100.22005999999999
10
-102.63660000000004
20
100.22005999999999
10
-102.63660000000004
20
99.299459999999996
10
-99.410600000000002
20
99.299459999999996
10
-99.410600000000002
20
100.22005999999999
10
-97.685600000000008
20
100.22005999999999
10
-97.685600000000008
20
103.44875999999999
10
-96.86160000000001
20
103.44875999999999
10
-96.86160000000001
20
106.17376
10
-97.685600000000008
20
106.17376
10
-97.685600000000008
20
112.44382999999999
10
-99.410600000000002
20
112.44382999999999
10
-99.410600000000002
20
113.42501
10
-102.63660000000004
20
113.42501
0
LWPOLYLINE
5
129
100
AcDbEntity
8
0
100
AcDbPolyline
90
4
70
1
43
0.0
10
-24.9526
20
98.754100000000008
10
-24.9526
20
112.67950000000002
10
-38.877600000000001
20
112.67950000000002
10
-38.877600000000001
20
98.754100000000008
0
LWPOLYLINE
5
130
100
AcDbEntity
8
0
100
AcDbPolyline
90
4
70
1
43
0.0
10
-203.18049999999999
20
74.58420000000001
10
-203.18049999999999
20
60.659199999999998
10
-189.25550000000001
20
60.659199999999998
10
-189.25550000000001
20
74.58420000000001
0
LWPOLYLINE
5
131
100
AcDbEntity
8
0
100
AcDbPolyline
90
4
70
1
43
0.0
10
-122.5675
20
79.691399999999987
10
-122.5675
20
93.616399999999999
10
-136.49250000000001
20
93.616399999999999
10
-136.49250000000001
20
79.691399999999987
0
LWPOLYLINE
5
132
100
AcDbEntity
8
0
100
AcDbPolyline
90
4
70
1
43
0.0
10
-241.28049999999999
20
74.58420000000001
10
-241.28049999999999
20
60.659199999999998
10
-227.35550000000001
20
60.659199999999998
10
-227.35550000000001
20
74.58420000000001
0
LWPOLYLINE
5
133
100
AcDbEntity
8
0
100
AcDbPolyline
90
44
70
1
43
0.0
10
-54.939200000000014
20
94.387199999999979
10
-54.939200000000014
20
93.405999999999977
10
-56.664200000000008
20
93.405999999999977
10
-56.664200000000008
20
87.135899999999992
10
-57.489700000000006
20
87.135899999999992
10
-57.489700000000006
20
84.411099999999976
10
-56.664200000000008
20
84.411099999999976
10
-56.664200000000008
20
81.182099999999977
10
-54.939200000000014
20
81.182099999999977
10
-54.939200000000014
20
80.26169999999999
10
-51.71390000000001
20
80.26169999999999
10
-51.71390000000001
20
81.182099999999977
10
-49.989899999999999
20
81.182099999999977
10
-49.989899999999999
20
84.411099999999976
10
-48.389899999999997
20
84.411099999999976
10
-48.389899999999997
20
79.711700000000008
10
-34.464899999999986
20
79.711700000000008
10
-34.464899999999986
20
84.411099999999976
10
-32.864200000000011
20
84.411099999999976
10
-32.864200000000011
20
81.182099999999977
10
-31.138899999999996
20
81.182099999999977
10
-31.138899999999996
20
80.26169999999999
10
-27.913700000000006
20
80.26169999999999
10
-27.913700000000006
20
81.182099999999977
10
-26.189800000000005
20
81.182099999999977
10
-26.189800000000005
20
84.411099999999976
10
-25.364400000000007
20
84.411099999999976
10
-25.364400000000007
20
87.135899999999992
10
-26.189800000000005
20
87.135899999999992
10
-26.189800000000005
20
93.405999999999977
10
-27.913700000000006
20
93.405999999999977
10
-27.913700000000006
20
94.387199999999979
10
-31.138899999999996
20
94.387199999999979
10
-31.138899999999996
20
93.405999999999977
10
-32.864200000000011
20
93.405999999999977
10
-32.864200000000011
20
88.936999999999983
10
-34.464899999999986
20
88.936999999999983
10
-34.464899999999986
20
93.636700000000005
10
-48.389899999999997
20
93.636700000000005
10
-48.389899999999997
20
88.936999999999983
10
-49.989899999999999
20
88.936999999999983
10
-49.989899999999999
20
93.405999999999977
10
-51.71390000000001
20
93.405999999999977
10
-51.71390000000001
20
94.387199999999979
0
LWPOLYLINE
5
134
100
AcDbEntity
8
0
100
AcDbPolyline
90
4
70
1
43
0.0
10
-253.18549999999999
20
112.67950000000002
10
-253.18549999999999
20
98.754100000000008
10
-239.26050000000001
20
98.754100000000008
10
-239.26050000000001
20
112.67950000000002
0
LWPOLYLINE
5
135
100
AcDbEntity
8
0
100
AcDbPolyline
90
48
70
1
43
0.0
10
-268.25190000000003
20
65.361099999999979
10
-268.25190000000003
20
68.085799999999992
10
-269.07589999999999
20
68.085799999999992
10
-269.07589999999999
20
74.35599999999998
10
-270.80089999999996
20
74.35599999999998
10
-270.80089999999996
20
75.337099999999992
10
-274.02690000000001
20
75.337099999999992
10
-274.02690000000001
20
74.35599999999998
10
-275.75190000000003
20
74.35599999999998
10
-275.75190000000003
20
69.88709999999999
10
-277.35090000000002
20
69.88709999999999
10
-277.35090000000002
20
74.586099999999988
10
-291.27690000000001
20
74.586099999999988
10
-291.27690000000001
20
74.581600000000009
10
-291.30249999999995
20
74.581600000000009
10
-291.30249999999995
20
69.88709999999999
10
-292.87589999999994
20
69.88709999999999
10
-292.87589999999994
20
74.35599999999998
10
-294.60090000000002
20
74.35599999999998
10
-294.60090000000002
20
75.337099999999992
10
-297.82690000000002
20
75.337099999999992
10
-297.82690000000002
20
74.35599999999998
10
-299.55190000000005
20
74.35599999999998
10
-299.55190000000005
20
68.085799999999992
10
-300.37589999999994
20
68.085799999999992
10
-300.37589999999994
20
65.361099999999979
10
-299.55190000000005
20
65.361099999999979
10
-299.55190000000005
20
62.13209999999998
10
-297.82690000000002
20
62.13209999999998
10
-297.82690000000002
20
61.211699999999986
10
-294.60090000000002
20
61.211699999999986
10
-294.60090000000002
20
62.13209999999998
10
-292.87589999999994
20
62.13209999999998
10
-292.87589999999994
20
65.361099999999979
10
-291.30249999999995
20
65.361099999999979
10
-291.30249999999995
20
60.656600000000012
10
-277.37750000000028
20
60.656600000000012
10
-277.37750000000023
20
60.661699999999989
10
-277.35090000000002
20
60.661699999999989
10
-277.35090000000002
20
65.361099999999979
10
-275.75190000000003
20
65.361099999999979
10
-275.75190000000003
20
62.13209999999998
10
-274.02690000000001
20
62.13209999999998
10
-274.02690000000001
20
61.211699999999986
10
-270.80089999999996
20
61.211699999999986
10
-270.80089999999996
20
62.13209999999998
10
-269.07589999999999
20
62.13209999999998
10
-269.07589999999999
20
65.361099999999979
0
LWPOLYLINE
5
136
100
AcDbEntity
8
0
100
AcDbPolyline
90
4
70
1
43
0.0
10
-236.86750000000006
20
79.691399999999987
10
-236.86750000000006
20
93.616399999999999
10
-250.79250000000005
20
93.616399999999999
10
-250.79250000000005
20
79.691399999999987
0
LWPOLYLINE
5
137
100
AcDbEntity
8
0
100
AcDbPolyline
90
4
70
1
43
0.0
10
-22.565000000000008
20
22.559199999999997
10
-22.565000000000008
20
36.484200000000008
10
-36.490000000000009
20
36.484200000000008
10
-36.490000000000009
20
22.559199999999997
0
LWPOLYLINE
5
138
100
AcDbEntity
8
0
100
AcDbPolyline
90
4
70
1
43
0.0
10
-65.417300000000012
20
79.691399999999987
10
-65.417300000000012
20
93.616399999999999
10
-79.342300000000009
20
93.616399999999999
10
-79.342300000000009
20
79.691399999999987
0
LWPOLYLINE
5
139
100
AcDbEntity
8
0
100
AcDbPolyline
90
4
70
1
43
0.0
10
-160.66749999999999
20
79.691399999999987
10
-160.66749999999999
20
93.616399999999999
10
-174.5925
20
93.616399999999999
10
-174.5925
20
79.691399999999987
0
LWPOLYLINE
5
140
100
AcDbEntity
8
0
100
AcDbPolyline
90
4
70
1
43
0.0
10
-84.467300000000009
20
79.691399999999987
10
-84.467300000000009
20
93.616399999999999
10
-98.392300000000006
20
93.616399999999999
10
-98.392300000000006
20
79.691399999999987
0
LWPOLYLINE
5
141
100
AcDbEntity
8
0
100
AcDbPolyline
90
4
70
1
43
0.0
10
-55.540000000000006
20
36.484200000000008
10
-55.540000000000006
20
22.559199999999997
10
-41.615000000000002
20
22.559199999999997
10
-41.615000000000002
20
36.484200000000008
0
LWPOLYLINE
5
142
100
AcDbEntity
8
0
100
AcDbPolyline
90
4
70
1
43
0.0
10
-217.81750000000002
20
79.691399999999987
10
-217.81750000000002
20
93.616399999999999
10
-231.74250000000004
20
93.616399999999999
10
-231.74250000000004
20
79.691399999999987
0
LWPOLYLINE
5
143
100
AcDbEntity
8
0
100
AcDbPolyline
90
4
70
1
43
0.0
10
-60.665000000000006
20
36.484200000000008
10
-74.590000000000003
20
36.484200000000008
10
-74.590000000000003
20
22.559199999999997
10
-60.665000000000006
20
22.559199999999997
0
LWPOLYLINE
5
144
100
AcDbEntity
8
0
100
AcDbPolyline
90
4
70
1
43
0.0
10
-103.51750000000001
20
79.691399999999987
10
-103.51750000000001
20
93.616399999999999
10
-117.44250000000001
20
93.616399999999999
10
-117.44250000000001
20
79.691399999999987
0
LWPOLYLINE
5
145
100
AcDbEntity
8
0
100
AcDbPolyline
90
4
70
1
43
0.0
10
-329.35149999999999
20
93.576499999999996
10
-329.35149999999999
20
79.651499999999999
10
-315.42650000000003
20
79.651499999999999
10
-315.42650000000003
20
93.576499999999996
0
LWPOLYLINE
5
146
100
AcDbEntity
8
0
100
AcDbPolyline
90
4
70
1
43
0.0
10
-198.76750000000001
20
79.691399999999987
10
-198.76750000000001
20
93.616399999999999
10
-212.6925
20
93.616399999999999
10
-212.6925
20
79.691399999999987
0
LWPOLYLINE
5
147
100
AcDbEntity
8
0
100
AcDbPolyline
90
4
70
1
43
0.0
10
-93.639999999999986
20
36.484200000000008
10
-93.639999999999986
20
22.559199999999997
10
-79.715000000000003
20
22.559199999999997
10
-79.715000000000003
20
36.484200000000008
0
CIRCLE
5
148
100
AcDbEntity
8
0
100
AcDbCircle
10
-17.207764719595499
20
15.244429647652915
30
0
40
1.2749999999999995
210
0
220
0
230
1
0
LWPOLYLINE
5
149
100
AcDbEntity
8
0
100
AcDbPolyline
90
4
70
1
43
0.0
10
-112.68950000000001
20
36.484200000000008
10
-112.68950000000001
20
22.559199999999997
10
-98.765000000000015
20
22.559199999999997
10
-98.765000000000015
20
36.484200000000008
0
LWPOLYLINE
5
150
100
AcDbEntity
8
0
100
AcDbPolyline
90
4
70
1
43
0.0
10
-179.7175
20
79.691399999999987
10
-179.7175
20
93.616399999999999
10
-193.64250000000001
20
93.616399999999999
10
-193.64250000000001
20
79.691399999999987
0
LWPOLYLINE
5
151
100
AcDbEntity
8
0
100
AcDbPolyline
90
4
70
1
43
0.0
10
-131.7405
20
36.484200000000008
10
-131.7405
20
22.559199999999997
10
-117.81450000000001
20
22.559199999999997
10
-117.81450000000001
20
36.484200000000008
0
LWPOLYLINE
5
152
100
AcDbEntity
8
0
100
AcDbPolyline
90
48
70
1
43
0.0
10
-293.06389999999993
20
94.387199999999979
10
-293.06389999999993
20
93.405999999999977
10
-294.78890000000001
20
93.405999999999977
10
-294.78890000000001
20
87.135899999999992
10
-295.61489999999998
20
87.135899999999992
10
-295.61489999999998
20
84.411099999999976
10
-294.78890000000001
20
84.411099999999976
10
-294.78890000000001
20
81.182099999999977
10
-293.06389999999993
20
81.182099999999977
10
-293.06389999999993
20
80.26169999999999
10
-289.83889999999997
20
80.26169999999999
10
-289.83889999999997
20
81.182099999999977
10
-288.11489999999998
20
81.182099999999977
10
-288.11489999999998
20
84.411099999999976
10
-286.51450000000006
20
84.411099999999976
10
-286.51450000000006
20
79.6965
10
-272.58950000000004
20
79.6965
10
-272.58950000000004
20
84.411099999999976
10
-270.9889
20
84.411099999999976
10
-270.9889
20
81.182099999999977
10
-269.26390000000004
20
81.182099999999977
10
-269.26390000000004
20
80.26169999999999
10
-266.03890000000001
20
80.26169999999999
10
-266.03890000000001
20
81.182099999999977
10
-264.31490000000002
20
81.182099999999977
10
-264.31490000000002
20
84.411099999999976
10
-263.4889
20
84.411099999999976
10
-263.4889
20
87.135899999999992
10
-264.31490000000002
20
87.135899999999992
10
-264.31490000000002
20
93.405999999999977
10
-266.03890000000001
20
93.405999999999977
10
-266.03890000000001
20
94.387199999999979
10
-269.26390000000004
20
94.387199999999979
10
-269.26390000000004
20
93.405999999999977
10
-270.9889
20
93.405999999999977
10
-270.9889
20
88.936999999999983
10
-272.58950000000004
20
88.936999999999983
10
-272.58950000000004
20
93.621499999999997
10
-272.58990000000006
20
93.621499999999997
10
-272.58990000000006
20
93.636099999999971
10
-286.51390000000004
20
93.636099999999971
10
-286.51390000000004
20
93.621499999999997
10
-286.51450000000006
20
93.621499999999997
10
-286.51450000000006
20
88.936999999999983
10
-288.11489999999998
20
88.936999999999983
10
-288.11489999999998
20
93.405999999999977
10
-289.83889999999997
20
93.405999999999977
10
-289.83889999999997
20
94.387199999999979
0
LWPOLYLINE
5
153
100
AcDbEntity
8
0
100
AcDbPolyline
90
4
70
1
43
0.0
10
-70.190000000000012
20
41.609200000000001
10
-70.190000000000012
20
55.534199999999998
10
-84.115000000000009
20
55.534199999999998
10
-84.115000000000009
20
41.609200000000001
0
LWPOLYLINE
5
154
100
AcDbEntity
8
0
100
AcDbPolyline
90
4
70
1
43
0.0
10
-265.08950000000004
20
36.484200000000008
10
-265.08950000000004
20
22.559199999999997
10
-251.16450000000003
20
22.559199999999997
10
-251.16450000000003
20
36.484200000000008
0
LWPOLYLINE
5
155
100
AcDbEntity
8
0
100
AcDbPolyline
90
4
70
1
43
0.0
10
-51.140000000000008
20
41.609200000000001
10
-51.140000000000008
20
55.534199999999998
10
-65.065000000000012
20
55.534199999999998
10
-65.065000000000012
20
41.609200000000001
0
LWPOLYLINE
5
156
100
AcDbEntity
8
0
100
AcDbPolyline
90
4
70
1
43
0.0
10
-141.61750000000001
20
79.691399999999987
10
-141.61750000000001
20
93.616399999999999
10
-155.54250000000002
20
93.616399999999999
10
-155.54250000000002
20
79.691399999999987
0
LWPOLYLINE
5
157
100
AcDbEntity
8
0
100
AcDbPolyline
90
4
70
1
43
0.0
10
-226.99050000000003
20
36.484200000000008
10
-226.99050000000003
20
22.559199999999997
10
-213.06550000000001
20
22.559199999999997
10
-213.06550000000001
20
36.484200000000008
0
LWPOLYLINE
5
158
100
AcDbEntity
8
0
100
AcDbPolyline
90
4
70
1
43
0.0
10
-184.48949999999999
20
41.609200000000001
10
-184.48949999999999
20
55.534199999999998
10
-198.41450000000003
20
55.534199999999998
10
-198.41450000000003
20
41.609200000000001
0
LWPOLYLINE
5
159
100
AcDbEntity
8
0
100
AcDbPolyline
90
4
70
1
43
0.0
10
-188.8895
20
36.484200000000008
10
-188.8895
20
22.559199999999997
10
-174.96450000000004
20
22.559199999999997
10
-174.96450000000004
20
36.484200000000008
0
LWPOLYLINE
5
160
100
AcDbEntity
8
0
100
AcDbPolyline
90
4
70
1
43
0.0
10
-108.28950000000003
20
41.609200000000001
10
-108.28950000000003
20
55.534199999999998
10
-122.21450000000002
20
55.534199999999998
10
-122.21450000000002
20
41.609200000000001
0
LWPOLYLINE
5
161
100
AcDbEntity
8
0
100
AcDbPolyline
90
4
70
1
43
0.0
10
-27.319899999999997
20
41.616800000000005
10
-27.319899999999997
20
55.541800000000009
10
-41.244900000000001
20
55.541800000000009
10
-41.244900000000001
20
41.616800000000005
0
CIRCLE
5
162
100
AcDbEntity
8
0
100
AcDbCircle
10
-110.48999999999999
20
58.801000000000023
30
0
40
1.274999999999995
210
0
220
0
230
1
0
LWPOLYLINE
5
163
100
AcDbEntity
8
0
100
AcDbPolyline
90
4
70
1
43
0.0
10
-150.7895
20
36.484200000000008
10
-150.7895
20
22.559199999999997
10
-136.86450000000002
20
22.559199999999997
10
-136.86450000000002
20
36.484200000000008
0
LWPOLYLINE
5
164
100
AcDbEntity
8
0
100
AcDbPolyline
90
48
70
1
43
0.0
10
-270.63290000000001
20
27.261099999999985
10
-270.63290000000001
20
29.985799999999987
10
-271.45890000000003
20
29.985799999999987
10
-271.45890000000003
20
36.255999999999986
10
-273.18389999999999
20
36.255999999999986
10
-273.18389999999999
20
37.237099999999984
10
-276.40890000000002
20
37.237099999999984
10
-276.40890000000002
20
36.255999999999986
10
-278.13290000000001
20
36.255999999999986
10
-278.13290000000001
20
31.787099999999988
10
-279.73390000000001
20
31.787099999999988
10
-279.73390000000001
20
36.486099999999979
10
-293.65790000000004
20
36.486099999999979
10
-293.65790000000004
20
36.484200000000008
10
-293.66449999999998
20
36.484200000000008
10
-293.66449999999998
20
31.787099999999988
10
-295.25889999999998
20
31.787099999999988
10
-295.25889999999998
20
36.255999999999986
10
-296.98389999999995
20
36.255999999999986
10
-296.98389999999995
20
37.237099999999984
10
-300.20790000000005
20
37.237099999999984
10
-300.20790000000005
20
36.255999999999986
10
-301.93289999999996
20
36.255999999999986
10
-301.93289999999996
20
29.985799999999987
10
-302.75889999999998
20
29.985799999999987
10
-302.75889999999998
20
27.261099999999985
10
-301.93289999999996
20
27.261099999999985
10
-301.93289999999996
20
24.032099999999978
10
-300.20790000000005
20
24.032099999999978
10
-300.20790000000005
20
23.111699999999988
10
-296.98389999999995
20
23.111699999999988
10
-296.98389999999995
20
24.032099999999978
10
-295.25889999999998
20
24.032099999999978
10
-295.25889999999998
20
27.261099999999985
10
-293.66449999999998
20
27.261099999999985
10
-293.66449999999998
20
22.559199999999997
10
-279.73950000000059
20
22.559199999999997
10
-279.73950000000053
20
22.561699999999973
10
-279.73390000000001
20
22.561699999999973
10
-279.73390000000001
20
27.261099999999985
10
-278.13290000000001
20
27.261099999999985
10
-278.13290000000001
20
24.032099999999978
10
-276.40890000000002
20
24.032099999999978
10
-276.40890000000002
20
23.111699999999988
10
-273.18389999999999
20
23.111699999999988
10
-273.18389999999999
20
24.032099999999978
10
-271.45890000000003
20
24.032099999999978
10
-271.45890000000003
20
27.261099999999985
0
LWPOLYLINE
5
165
100
AcDbEntity
8
0
100
AcDbPolyline
90
4
70
1
43
0.0
10
-169.83949999999999
20
36.484200000000008
10
-169.83949999999999
20
22.559199999999997
10
-155.91450000000003
20
22.559199999999997
10
-155.91450000000003
20
36.484200000000008
0
LWPOLYLINE
5
166
100
AcDbEntity
8
0
100
AcDbPolyline
90
4
70
1
43
0.0
10
-222.58950000000002
20
41.609200000000001
10
-222.58950000000002
20
55.534199999999998
10
-236.51450000000008
20
55.534199999999998
10
-236.51450000000008
20
41.609200000000001
0
LWPOLYLINE
5
167
100
AcDbEntity
8
0
100
AcDbPolyline
90
4
70
1
43
0.0
10
-146.3895
20
41.609200000000001
10
-146.3895
20
55.534199999999998
10
-160.31450000000001
20
55.534199999999998
10
-160.31450000000001
20
41.609200000000001
0
LWPOLYLINE
5
168
100
AcDbEntity
8
0
100
AcDbPolyline
90
4
70
1
43
0.0
10
-207.93950000000001
20
36.484200000000008
10
-207.93950000000001
20
22.559199999999997
10
-194.0145
20
22.559199999999997
10
-194.0145
20
36.484200000000008
0
LWPOLYLINE
5
169
100
AcDbEntity
8
0
100
AcDbPolyline
90
4
70
1
43
0.0
10
-246.0395
20
36.484200000000008
10
-246.0395
20
22.559199999999997
10
-232.11450000000002
20
22.559199999999997
10
-232.11450000000002
20
36.484200000000008
0
LWPOLYLINE
5
170
100
AcDbEntity
8
0
100
AcDbPolyline
90
4
70
1
43
0.0
10
-260.68950000000007
20
41.609200000000001
10
-260.68950000000007
20
55.534199999999998
10
-274.61450000000002
20
55.534199999999998
10
-274.61450000000002
20
41.609200000000001
0
CIRCLE
5
171
100
AcDbEntity
8
0
100
AcDbCircle
10
-17.241224078982039
20
119.65863750642784
30
0
40
1.274999999999995
210
0
220
0
230
1
0
CIRCLE
5
172
100
AcDbEntity
8
0
100
AcDbCircle
10
-158.11500000000001
20
95.631000000000029
30
0
40
1.274999999999995
210
0
220
0
230
1
0
CIRCLE
5
173
100
AcDbEntity
8
0
100
AcDbCircle
10
-243.84
20
58.674000000000021
30
0
40
1.2750000000000128
210
0
220
0
230
1
0
LWPOLYLINE
5
174
100
AcDbEntity
8
0
100
AcDbPolyline
90
16
70
1
43
0.0
10
-310.98398776003086
20
11.872920162775509
42
-0.41421676456200501
10
-311.98399970148893
20
12.872919154190171
10
-311.9840101244651
20
23.207902757460765
42
0.41421676289406995
10
-312.48401609234668
20
23.707902253168136
10
-323.85006453208518
20
23.707766590699325
42
0.41421006639022034
10
-324.35005856420327
20
23.207766590876624
10
-324.35005856712974
20
12.872748686841399
42
-0.41421006627411427
10
-325.35004663096964
20
11.872748687195793
10
-333.95283992095221
20
11.87264600628739
42
-0.4142170582816877
10
-338.02788855918948
20
15.9476460059971
10
-338.02788855918948
20
118.947645939418
42
-0.41421007130660148
10
-333.95293713017912
20
123.02264593912858
10
-17.948261167851793
20
123.02641248142146
42
-0.41412258310120725
10
-13.873212808843149
20
118.95272688074772
10
-13.83998996213332
20
15.952732558734278
42
-0.41430454099640301
10
-17.914939414593576
20
11.876419834663361
0
ENDSEC
0
SECTION
2
OBJECTS
0
DICTIONARY
5
C
100
AcDbDictionary
3
ACAD_GROUP
350
D
3
ACAD_MLINESTYLE
350
17
0
DICTIONARY
5
D
100
AcDbDictionary
0
DICTIONARY
5
1A
330
C
100
AcDbDictionary
0
DICTIONARY
5
17
100
AcDbDictionary
0
ENDSEC
0
EOF
